<svg width="42" height="44" fill="none" xmlns="http://www.w3.org/2000/svg"><path d="M18.667 4.375a2.917 2.917 0 012.916-2.917h5.834a2.917 2.917 0 012.916 2.917v5.833a2.917 2.917 0 01-2.916 2.917h-1.454l-.003 2.917h11.665a1.458 1.458 0 110 2.916h-2.912l-.003 2.917h1.457a2.917 2.917 0 012.916 2.917v5.833a2.917 2.917 0 01-2.916 2.917h-5.834a2.917 2.917 0 01-2.916-2.917v-5.833a2.917 2.917 0 012.916-2.917h1.46l.003-2.917h-7.162a1.477 1.477 0 01-.268 0h-7.153l-.003 2.917h1.457a2.917 2.917 0 012.916 2.917v5.833a2.917 2.917 0 01-2.916 2.917h-5.834a2.917 2.917 0 01-2.916-2.917v-5.833a2.917 2.917 0 012.916-2.917h1.46l.003-2.917h-2.92a1.458 1.458 0 010-2.916h11.667l.003-2.917h-1.463a2.917 2.917 0 01-2.916-2.917V4.375z" fill="#C4C4C4"/><path d="M18.667 4.375a2.917 2.917 0 012.916-2.917h5.834a2.917 2.917 0 012.916 2.917v5.833a2.917 2.917 0 01-2.916 2.917h-1.454l-.003 2.917h11.665a1.458 1.458 0 110 2.916h-2.912l-.003 2.917h1.457a2.917 2.917 0 012.916 2.917v5.833a2.917 2.917 0 01-2.916 2.917h-5.834a2.917 2.917 0 01-2.916-2.917v-5.833a2.917 2.917 0 012.916-2.917h1.46l.003-2.917h-7.162a1.477 1.477 0 01-.268 0h-7.153l-.003 2.917h1.457a2.917 2.917 0 012.916 2.917v5.833a2.917 2.917 0 01-2.916 2.917h-5.834a2.917 2.917 0 01-2.916-2.917v-5.833a2.917 2.917 0 012.916-2.917h1.46l.003-2.917h-2.92a1.458 1.458 0 010-2.916h11.667l.003-2.917h-1.463a2.917 2.917 0 01-2.916-2.917V4.375z" fill="url(#paint0_linear_228_3147)"/><g filter="url(#filter0_b_228_3147)"><circle cx="10" cy="34" r="10" fill="#fff" fill-opacity=".1"/><circle cx="10" cy="34" r="9.85" stroke="url(#paint1_linear_228_3147)" stroke-width=".3"/></g><path d="M14.165 32.71a.428.428 0 00-.37-.289l-2.437-.194-1.054-2.333a.427.427 0 00-.779 0l-1.054 2.333-2.437.194a.427.427 0 00-.264.732l1.8 1.755-.636 2.758a.427.427 0 00.653.451l2.327-1.551 2.327 1.551a.428.428 0 00.649-.472l-.782-2.736 1.938-1.744a.428.428 0 00.12-.455z" fill="#fff"/><defs><linearGradient id="paint0_linear_228_3147" x1="13.912" y1="6.958" x2="37.767" y2="27.069" gradientUnits="userSpaceOnUse"><stop stop-color="#00FFA3" stop-opacity=".6"/><stop offset="1" stop-color="#4B48F1"/></linearGradient><linearGradient id="paint1_linear_228_3147" x1="10" y1="24" x2="10" y2="44" gradientUnits="userSpaceOnUse"><stop stop-color="#fff" stop-opacity=".46"/><stop offset="1" stop-color="#fff" stop-opacity="0"/></linearGradient><filter id="filter0_b_228_3147" x="-5" y="19" width="30" height="30" filterUnits="userSpaceOnUse" color-interpolation-filters="sRGB"><feFlood flood-opacity="0" result="BackgroundImageFix"/><feGaussianBlur in="BackgroundImageFix" stdDeviation="2.5"/><feComposite in2="SourceAlpha" operator="in" result="effect1_backgroundBlur_228_3147"/><feBlend in="SourceGraphic" in2="effect1_backgroundBlur_228_3147" result="shape"/></filter></defs></svg>