<svg width="113" height="44" fill="none" xmlns="http://www.w3.org/2000/svg"><g clip-path="url(#clip0_2_3621)" fill="#fff"><path fill-rule="evenodd" clip-rule="evenodd" d="M8.264 28.835c5.923-2.902 7.7 6.807 3.781 9.318-3.53 2.254-7.21-1.752-5.797-6.841.444-1.596 1.025-1.986 2.016-2.466v-.011zm5.518-3.9c-2.437-2.579-6.93-2.495-9.904-.307-5.102 3.771-5.285 13.905.137 17.81 3.77 2.712 6.84 1.437 10.189-.393l.032 1.633 5.547-.057-.045-20.255-5.502.044c-.148.312-.08 1.44-.16 1.63-.477 1.004.274.24-.29-.107l-.004.001z"/><path d="M13.858 25.478c.026-.013.052.025.076.018.013 0 .02-.012.032-.018.02-.007.032 0 .052 0 .045.006.051.018.025.07-.004.007-.051.007-.058.007-.038 0-.012.006-.038-.025-.004-.006-.013-.006-.013-.006-.003-.013.013-.032.02-.038.004-.013.005-.025.012-.032.013-.012.074-.006.09 0l-.007.066c-.02 0-.02-.006-.045 0-.006 0-.013.006-.02 0-.012-.006-.018-.013-.025-.02-.013 0-.025 0-.02.007.004 0 .006-.006.007 0 .003 0 .003.007.005.007.005-.007.006-.013.013-.02h.05c.004.08-.019.038.013.057h-.006c-.02 0-.032.007-.052 0-.012-.006-.019-.019-.032-.019-.026-.006-.051.032-.076.02v-.067l-.003-.007zm.054-.133c.006 0 .012.006.019.012h.127c.025.001.038-.005.012.045h-.051c-.026.013-.045-.032-.07-.032-.007.001-.014.007-.02.007s-.013.006-.026.006c-.032-.025-.051-.071-.013-.1.007-.006.02-.006.026-.012.007 0 .02-.006.026 0 .006.006.025.037.045.025.032-.02.006-.038.051-.026.058.026-.013.079-.038.064-.007-.006-.013-.019-.02-.025-.019-.013-.045.025-.05.031-.046 0-.091-.037-.053-.083.006-.006.013-.006.02-.012.006 0 .045-.013.051-.013.013.006.013.032.032.025.013 0 .013-.025.02-.031h.051c.058 0 .11.067.026.09-.013 0-.076.006-.08-.007-.033-.064.006-.019-.006-.032 0-.012-.004-.025.003-.031.006-.006.08.006.09.006l-.013.065a.233.233 0 01-.064-.012c-.006-.007-.007-.02-.013-.032.006.013-.005-.006.013-.025.004-.007.045.006.058 0 .019 0-.007 0-.007.031 0 .007.007.013.013.02l.002-.001c-.006-.006-.013-.006-.02-.006l-.038-.007c-.013-.006-.013-.031-.026-.031-.012 0-.006.025-.019.038-.006.006-.02 0-.026.006-.013 0 .013-.032-.019-.032 0 0 0 0 0 0h.014c.006.007.038.045.051.032.006-.006.006-.019.013-.032.013-.012.107 0 .013.057.006 0 0 0-.005-.006-.006-.013-.006-.025-.013-.032-.019-.018-.032.026-.038.032-.003.006-.013.006-.013.006h-.005s-.006-.032.001-.007c0 .026.003.057.039.045.006 0 .013-.013.02-.013h.069c.025.05.013.044-.013.044h-.127c-.006 0-.013.007-.019.013v-.063l-.001.003z" stroke="#273386" stroke-width=".122"/><path fill-rule="evenodd" clip-rule="evenodd" d="M28.107 43.632c.41-3.504-1.834-16.817 3.622-15.344 4.271 1.16-.194 11.684 3.417 15.389l5.786-.112c-1.925-3.694-1.446-3.27-1.458-8.012 0-2.768-.523-7.31 2.905-7.31 5.456 0-.102 11.762 4.42 15.423l5.82-.057c-3.759-3.906-.604-10.535-2.267-16.238a6.028 6.028 0 00-5.25-4.318c-3.782-.369-4.682.859-6.744 2.533-1.344-1.004-1.97-2.377-4.852-2.544-2.631-.157-4.423.664-5.642 2.026l-.045-1.387c-.026-.145-.066-.203-.134-.303l-5.342.077.137 20.232 5.627-.044v-.01zM61.742 28.89c5.992-3.203 7.575 7.41 3.508 9.419-3.018 1.484-5.08-.87-5.683-3.002-.616-2.154-.24-5.123 2.175-6.417zm-2.374 13.422c2.675 2.09 7.819 2.168 10.484-.276 5.57-5.133 4.488-14.318-.706-17.733-3.964-2.6-6.777-.937-9.58.715l-.044-8.839-5.832.1.148 27.409 5.384.031c.149-1.415.002.013 0 .02l.146-1.427z"/><path fill-rule="evenodd" clip-rule="evenodd" d="M80.879 31.401c.9-4.888 6.23-4.798 6.914.013l-6.914-.013zm11.8 5.747c-3.816 1.35-10.308 3.962-11.812-1.517l12.746-.234c.25-5.77-1.515-10.178-5.672-11.83-10.97-4.352-17.713 11.372-9.58 18.057 3.417 2.812 10.024 3.348 13.6.38.57-1.15.684-3.16.707-4.855h.011zm20.31-13.759l-6.151.111-3.953 13.135-3.827-13.257-6.083.012c.194 1.73 5.992 18.793 6.858 20.277l6.401.032 6.766-20.3-.011-.01z"/><path d="M87.797 4.95h-.009c-.147.156-3.734 5.583-3.706 5.61.02.018.314.12.653.225l.69.214c.055.018.16-.116.405-.51a7.25 7.25 0 01.364-.555c.03-.019 1.858.544 1.894.584.008.009-.004.307-.025.661a9.912 9.912 0 00-.029.653c.006.005.34.115.741.244a13 13 0 00.783.236c.064.003.085-.453.181-4.013.041-1.505.056-2.714.034-2.735-.069-.067-1.835-.614-1.976-.615zm.532 1.603c.01.01-.016.599-.06 1.307-.043.708-.09 1.3-.106 1.317-.036.038-1.236-.342-1.236-.392 0-.058 1.38-2.255 1.402-2.232zm-62.575 4.886c-1.114-.152-2.041-1.015-2.46-2.292-.239-.725-.288-1.296-.168-1.93.262-1.39 1.493-2.382 3.199-2.577.704-.08.687-.084.79.195l.205.55.115.306-.47.053c-1.128.129-1.81.485-2.108 1.1-.356.739-.069 2.038.603 2.727.243.25.32.299.611.388.407.125.762.107 1.305-.067.43-.138.828-.373 1.206-.71l.272-.244.03.163c.102.551-.116 1.188-.54 1.576-.58.53-1.755.876-2.59.762zM81.44 9.825c-.369-.093-.681-.18-.695-.195-.024-.024 1.451-6.273 1.49-6.312.022-.023 1.441.326 1.477.362.013.013-.314 1.436-.726 3.162-.53 2.22-.768 3.14-.813 3.145-.035.003-.365-.07-.733-.162zM30.943 6.761c-.422-1.732-.759-3.157-.749-3.167.049-.049 4.483-1.125 4.511-1.095.062.067.282 1.13.242 1.168-.022.02-.692.197-1.49.394-1.056.26-1.449.374-1.449.422 0 .064.277 1.228.299 1.257.006.007.511-.11 1.123-.262a79.86 79.86 0 011.2-.291c.076-.014.105.057.234.574.08.324.13.6.11.613-.02.013-.546.15-1.167.303-.622.153-1.144.287-1.161.298-.025.016.253 1.311.289 1.345.005.005.697-.162 1.538-.372.842-.21 1.535-.377 1.543-.372.007.006.06.283.119.616.097.549.1.608.033.628a368.69 368.69 0 01-4.412 1.09c-.026 0-.392-1.417-.813-3.149zm46.809 2.221a2.388 2.388 0 01-.483-.153c-.507-.235-.732-.617-1.087-1.838-.264-.911-.356-1.16-.551-1.488l-.156-.263h.31c.8 0 1.28-.424 1.28-1.129 0-.331-.155-.568-.483-.736-.173-.088-1.034-.268-1.076-.224-.017.017-.237 1.174-.49 2.57s-.47 2.549-.482 2.56c-.024.026-1.332-.209-1.444-.258-.064-.028-.004-.414.504-3.209.317-1.748.586-3.185.598-3.195.044-.037 2.69.481 3.047.597.62.202 1.091.568 1.343 1.045.091.174.104.265.104.73 0 .48-.012.558-.12.787-.26.553-.752.91-1.33.966l-.285.028.146.105c.224.162.538.68.855 1.41.397.915.62 1.256.96 1.471l.135.086-.18.076c-.217.092-.775.123-1.115.062zM38.833 8.23a677.891 677.891 0 01-1.084-6.27c-.012-.114-.009-.114 1.335-.357 1.56-.282 2.103-.315 2.61-.156.593.185.963.552 1.14 1.126.254.83-.06 1.679-.76 2.049-.257.136-.312.202-.17.202.193.001.622.332 1.289.995.741.737 1.036.964 1.358 1.047.107.027.194.067.194.088 0 .054-.35.286-.57.379a2.263 2.263 0 01-.96.188c-.658.002-.918-.2-1.835-1.428-.523-.7-.767-.972-1.086-1.21-.075-.057-.112-.103-.082-.104.17-.004.587-.219.794-.407.283-.258.361-.427.36-.784-.004-.637-.388-.985-1.022-.922-.566.057-.849.128-.849.212 0 .044.195 1.194.434 2.557.238 1.362.433 2.498.433 2.523 0 .025-.2.082-.445.126s-.585.107-.756.14c-.232.043-.316.045-.328.005zM67.75.681c-.056-.015-.358.663-1.384 3.107-.721 1.72-1.303 3.136-1.291 3.147.036.037 1.467.19 1.497.16.015-.015.128-.294.25-.618.151-.4.245-.589.292-.587.199.007 1.872.214 1.892.234.013.013.063.3.112.638.05.338.1.625.114.64.014.013.328.06.7.105.856.102.925.104.925.034 0-.06-1.034-6.365-1.072-6.536-.02-.09-.089-.103-.992-.2A26.323 26.323 0 0167.75.681zm.77 1.461a54.929 54.929 0 00.17 1.354c.087.678.158 1.253.158 1.28 0 .026-.046.045-.102.042a19.913 19.913 0 01-1.21-.152c-.015-.015.884-2.364.948-2.474.019-.033.03-.05.035-.05zM47.514 6.963c-.172-.345-2.551-6.12-2.53-6.143.014-.013.41-.068.879-.121.652-.074.862-.084.887-.042.019.03.422 1.147.898 2.481.564 1.587.874 2.399.894 2.345.017-.045.188-1.213.379-2.597.19-1.384.356-2.53.366-2.548.025-.04 1.568-.207 1.602-.172.027.026-1.213 6.57-1.258 6.643-.013.021-.435.084-.937.138-.503.055-.959.11-1.015.122-.076.016-.117-.01-.165-.106zm13.5-.29c-.43-.173-.703-.542-.765-1.034-.027-.216-.025-.224.074-.195.677.195.792.204 1.066.078.333-.153.334-.156.44-2.918.051-1.335.096-2.43.098-2.432.026-.023 1.49.06 1.515.085.06.061-.154 4.925-.23 5.25-.134.562-.41.944-.812 1.124-.344.153-1.054.175-1.386.042zM53.447 6.2a148.82 148.82 0 01-.054-3.26L53.365.06h1.16c.64 0 1.689-.014 2.333-.03L58.029 0v1.263h-.654c-.36 0-1.059.014-1.552.03l-.898.031v.582c0 .32.013.628.028.684l.026.1 1.228-.027 1.228-.027v1.263h-.952c-.523 0-1.078.013-1.232.03l-.281.03v1.388l1.598-.031 1.598-.031V6.52l-.993.03c-.546.017-1.602.03-2.347.03l-1.354.001-.026-.382z"/></g><defs><clipPath id="clip0_2_3621"><path fill="#fff" d="M0 0h113v44H0z"/></clipPath></defs></svg>