<svg width="37" height="37" fill="none" xmlns="http://www.w3.org/2000/svg"><path d="M3.7 18.5a14.8 14.8 0 1129.6 0 14.8 14.8 0 01-29.6 0zm18.422-7.03a.927.927 0 00-.465-1.244.924.924 0 00-1.23.504l-6.474 14.8a.925.925 0 101.695.74l6.474-14.8zm-9.442 2.675a.925.925 0 00-1.31 0l-3.7 3.7a.924.924 0 000 1.31l3.7 3.7a.926.926 0 101.31-1.31L9.633 18.5l3.047-3.045a.925.925 0 000-1.31zm11.64 1.31l3.047 3.045-3.047 3.045a.926.926 0 101.31 1.31l3.7-3.7a.925.925 0 000-1.31l-3.7-3.7a.926.926 0 10-1.31 1.31z" fill="#fff"/></svg>