<svg width="27" height="32" fill="none" xmlns="http://www.w3.org/2000/svg"><path d="M18.16 5.128c-1.116 1.344-2.903 2.403-4.69 2.252-.223-1.817.651-3.747 1.675-4.939C16.262 1.06 18.216.076 19.798 0c.187 1.892-.54 3.747-1.637 5.128zm1.62 2.611c-2.587-.151-4.802 1.495-6.03 1.495-1.248 0-3.128-1.419-5.175-1.381-2.662.038-5.137 1.57-6.496 4.011-2.792 4.883-.726 12.11 1.973 16.085 1.322 1.968 2.904 4.125 4.988 4.05 1.973-.077 2.755-1.307 5.137-1.307 2.401 0 3.09 1.306 5.175 1.268 2.159-.038 3.517-1.968 4.839-3.936 1.508-2.233 2.122-4.409 2.159-4.522-.037-.038-4.17-1.646-4.206-6.49-.038-4.05 3.257-5.98 3.406-6.094-1.862-2.8-4.765-3.103-5.77-3.179z" fill="#636D85"/></svg>