<svg width="25" height="31" fill="none" xmlns="http://www.w3.org/2000/svg"><path d="M17.002 4.929c-1.09 1.291-2.835 2.31-4.58 2.164-.218-1.746.636-3.6 1.636-4.747C15.148 1.02 17.057.073 18.602 0c.182 1.819-.527 3.601-1.6 4.929zm1.582 2.51c-2.527-.146-4.69 1.437-5.89 1.437-1.217 0-3.053-1.364-5.052-1.328-2.6.036-5.017 1.51-6.344 3.856-2.726 4.692-.709 11.64 1.927 15.46 1.29 1.891 2.835 3.964 4.871 3.892 1.927-.073 2.69-1.255 5.017-1.255 2.344 0 3.017 1.255 5.053 1.218 2.108-.036 3.435-1.891 4.726-3.783 1.472-2.146 2.072-4.238 2.108-4.347-.036-.036-4.072-1.582-4.108-6.238-.036-3.892 3.181-5.747 3.326-5.857-1.817-2.691-4.653-2.982-5.634-3.055z" fill="#fff"/></svg>