<svg width="181" height="181" fill="none" xmlns="http://www.w3.org/2000/svg"><g filter="url(#filter0_d_14_82)"><circle cx="90.5" cy="86.5" r="52.5" fill="#151822"/></g><path d="M81.07 84.011l10.204-10.3 10.208 10.309 5.933-5.997-16.141-16.307-16.142 16.302 5.938 5.993zM65 88.247l5.936-5.995 5.936 5.995-5.936 5.995L65 88.247zm16.07 4.234l10.203 10.305 10.208-10.31 5.938 5.99-.004.004-16.142 16.306-16.142-16.298-.008-.008 5.946-5.989zm24.594-4.232l5.936-5.995 5.936 5.995-5.936 5.994-5.936-5.994z" fill="#F3BA2F"/><path d="M97.294 88.244l-6.02-6.085-4.453 4.497-.515.515-1.054 1.064-.008.009.008.012 6.021 6.077 6.021-6.085.004-.004h-.004z" fill="#F3BA2F"/><defs><filter id="filter0_d_14_82" x="0" y="0" width="181" height="181" filterUnits="userSpaceOnUse" color-interpolation-filters="sRGB"><feFlood flood-opacity="0" result="BackgroundImageFix"/><feColorMatrix in="SourceAlpha" values="0 0 0 0 0 0 0 0 0 0 0 0 0 0 0 0 0 0 127 0" result="hardAlpha"/><feOffset dy="4"/><feGaussianBlur stdDeviation="19"/><feComposite in2="hardAlpha" operator="out"/><feColorMatrix values="0 0 0 0 0 0 0 0 0 0 0 0 0 0 0 0 0 0 0.25 0"/><feBlend in2="BackgroundImageFix" result="effect1_dropShadow_14_82"/><feBlend in="SourceGraphic" in2="effect1_dropShadow_14_82" result="shape"/></filter></defs></svg>