<svg width="123" height="36" fill="none" xmlns="http://www.w3.org/2000/svg"><g clip-path="url(#clip0_227_3073)"><path d="M118.444 35.995H4.556C2.004 35.995 0 34.016 0 31.497V4.507c0-2.52 2.004-4.5 4.556-4.5h113.888c2.552 0 4.556 1.98 4.556 4.5v26.99c0 2.519-2.004 4.498-4.556 4.498z" fill="#000"/><path d="M118.444.728c2.096 0 3.827 1.71 3.827 3.778v26.99c0 2.07-1.731 3.78-3.827 3.78H4.556c-2.096 0-3.827-1.71-3.827-3.78V4.507C.729 2.437 2.46.728 4.556.728h113.888zm0-.72H4.556C2.004.008 0 2.078 0 4.506v26.99c0 2.52 2.004 4.5 4.556 4.5h113.888c2.552 0 4.556-1.98 4.556-4.5V4.507c0-2.429-2.004-4.498-4.556-4.498z" fill="#A6A6A6"/><path d="M43.186 9.183c0 .72-.182 1.35-.637 1.8-.547.54-1.185.81-2.005.81-.82 0-1.458-.27-2.004-.81-.547-.54-.82-1.17-.82-1.98s.273-1.44.82-1.979c.546-.54 1.184-.81 2.004-.81.365 0 .73.09 1.094.27.364.18.637.36.82.63l-.456.45c-.364-.45-.82-.63-1.458-.63-.546 0-1.093.18-1.458.63-.455.36-.637.9-.637 1.53 0 .629.182 1.169.637 1.529.456.36.912.63 1.458.63.638 0 1.094-.18 1.55-.63.272-.27.455-.63.455-1.08h-2.005v-.72h2.642v.36zm4.191-2.249h-2.46v1.71h2.278v.63h-2.278v1.709h2.46v.72H44.19v-5.4h3.188v.63zm3.007 4.768h-.729V6.934h-1.549v-.63h3.827v.63h-1.549v4.768zm4.191 0V6.304h.73v5.398h-.73zm3.827 0h-.729V6.934h-1.549v-.63h3.736v.63h-1.55v4.768h.092zm8.656-.72c-.547.54-1.185.81-2.005.81-.82 0-1.458-.27-2.004-.81-.547-.54-.82-1.169-.82-1.979s.273-1.44.82-1.979c.546-.54 1.184-.81 2.004-.81.82 0 1.458.27 2.005.81.546.54.82 1.17.82 1.98 0 .809-.274 1.439-.82 1.979zm-3.463-.45c.365.36.911.63 1.458.63.547 0 1.093-.18 1.458-.63.364-.36.638-.899.638-1.529 0-.63-.183-1.17-.638-1.53-.365-.36-.911-.629-1.458-.629-.547 0-1.093.18-1.458.63-.364.36-.637.9-.637 1.53 0 .629.182 1.169.637 1.529zm5.285 1.17V6.304h.82l2.642 4.229V6.304h.729v5.398h-.729l-2.825-4.408v4.408h-.637z" fill="#fff" stroke="#fff" stroke-width=".3" stroke-miterlimit="10"/><path d="M62.047 19.62c-2.187 0-3.918 1.62-3.918 3.868 0 2.16 1.731 3.869 3.918 3.869 2.186 0 3.918-1.62 3.918-3.869 0-2.339-1.732-3.868-3.918-3.868zm0 6.117c-1.185 0-2.187-.99-2.187-2.339 0-1.35 1.002-2.339 2.187-2.339 1.184 0 2.186.9 2.186 2.34 0 1.349-1.002 2.338-2.186 2.338zm-8.474-6.117c-2.186 0-3.917 1.62-3.917 3.868 0 2.16 1.73 3.869 3.917 3.869s3.918-1.62 3.918-3.869c0-2.339-1.73-3.868-3.918-3.868zm0 6.117c-1.184 0-2.186-.99-2.186-2.339 0-1.35 1.002-2.339 2.186-2.339 1.185 0 2.187.9 2.187 2.34 0 1.349-1.002 2.338-2.187 2.338zM43.46 20.79v1.62h3.918c-.091.9-.456 1.62-.911 2.069-.547.54-1.458 1.17-3.007 1.17-2.46 0-4.282-1.89-4.282-4.319 0-2.43 1.913-4.319 4.282-4.319 1.276 0 2.278.54 3.007 1.17l1.184-1.17c-1.002-.9-2.278-1.619-4.1-1.619-3.28 0-6.104 2.7-6.104 5.938 0 3.239 2.824 5.938 6.104 5.938 1.822 0 3.098-.54 4.191-1.71 1.094-1.08 1.458-2.608 1.458-3.778 0-.36 0-.72-.091-.99H43.46zm41.365 1.26c-.365-.9-1.276-2.43-3.28-2.43-2.005 0-3.645 1.53-3.645 3.87 0 2.159 1.64 3.868 3.827 3.868 1.73 0 2.824-1.08 3.189-1.71l-1.276-.9c-.455.63-1.002 1.08-1.913 1.08s-1.458-.36-1.914-1.17l5.194-2.158-.182-.45zm-5.285 1.26c0-1.44 1.185-2.25 2.005-2.25.637 0 1.275.36 1.457.81l-3.462 1.44zm-4.282 3.688h1.731V15.751h-1.731v11.246zm-2.733-6.568c-.456-.45-1.185-.9-2.096-.9-1.913 0-3.736 1.71-3.736 3.87a3.748 3.748 0 003.736 3.778c.911 0 1.64-.45 2.004-.9h.092v.54c0 1.44-.82 2.25-2.096 2.25-1.002 0-1.731-.72-1.913-1.35l-1.458.63c.455.99 1.549 2.249 3.462 2.249 2.005 0 3.645-1.17 3.645-3.959V19.8h-1.64v.63zm-2.005 5.309c-1.184 0-2.187-.99-2.187-2.34 0-1.35 1.003-2.339 2.187-2.339 1.185 0 2.096.99 2.096 2.34 0 1.349-.911 2.338-2.096 2.338zm22.231-9.987h-4.1v11.246h1.731v-4.229h2.37c1.913 0 3.735-1.349 3.735-3.508 0-2.16-1.822-3.509-3.736-3.509zm.091 5.398h-2.46v-3.87h2.46c1.276 0 2.005 1.08 2.005 1.89-.091.99-.82 1.98-2.005 1.98zm10.478-1.62c-1.275 0-2.551.54-3.007 1.71l1.549.63c.365-.63.911-.81 1.549-.81.911 0 1.731.54 1.822 1.44v.09c-.273-.18-1.002-.45-1.731-.45-1.64 0-3.28.9-3.28 2.519 0 1.53 1.367 2.519 2.825 2.519 1.184 0 1.731-.54 2.186-1.08h.092v.9h1.64V22.68c-.183-1.98-1.732-3.15-3.645-3.15zm-.182 6.209c-.547 0-1.367-.27-1.367-.99 0-.9 1.002-1.17 1.822-1.17.729 0 1.094.18 1.549.36-.182 1.08-1.093 1.8-2.004 1.8zm9.567-5.938l-1.914 4.858h-.091l-2.004-4.858h-1.823l3.007 6.837-1.731 3.779h1.731l4.647-10.616h-1.822zm-15.307 7.197h1.731V15.751h-1.731v11.246z" fill="#fff"/><path d="M9.475 6.754c-.273.27-.364.72-.364 1.26v19.883c0 .54.182.99.455 1.26l.092.089L20.955 18.09v-.18L9.475 6.754z" fill="url(#paint0_linear_227_3073)"/><path d="M24.6 21.869l-3.736-3.69v-.269l3.736-3.689.09.09 4.465 2.52c1.276.72 1.276 1.889 0 2.608L24.6 21.87z" fill="url(#paint1_linear_227_3073)"/><path d="M24.69 21.779L20.865 18 9.475 29.246c.456.45 1.093.45 1.913.09l13.303-7.557z" fill="url(#paint2_linear_227_3073)"/><path d="M24.69 14.221L11.389 6.754c-.82-.45-1.457-.36-1.913.09L20.864 18l3.827-3.779z" fill="url(#paint3_linear_227_3073)"/><path opacity=".2" d="M24.6 21.689l-13.212 7.377c-.729.45-1.366.36-1.822 0l-.09.09.09.09c.456.36 1.093.45 1.822 0L24.6 21.69z" fill="#000"/><path opacity=".12" d="M9.475 29.066c-.273-.27-.364-.72-.364-1.26v.09c0 .54.182.99.455 1.26v-.09h-.09zm19.68-9.896L24.6 21.689l.09.09 4.465-2.52c.638-.36.911-.81.911-1.259 0 .45-.364.81-.91 1.17z" fill="#000"/><path opacity=".25" d="M11.389 6.844l17.766 9.986c.547.36.911.72.911 1.17 0-.45-.273-.9-.91-1.26L11.388 6.754c-1.276-.72-2.278-.18-2.278 1.26v.09c0-1.35 1.002-1.98 2.278-1.26z" fill="#fff"/></g><defs><linearGradient id="paint0_linear_227_3073" x1="19.862" y1="7.843" x2="4.764" y2="23.132" gradientUnits="userSpaceOnUse"><stop stop-color="#00A0FF"/><stop offset=".007" stop-color="#00A1FF"/><stop offset=".26" stop-color="#00BEFF"/><stop offset=".512" stop-color="#00D2FF"/><stop offset=".76" stop-color="#00DFFF"/><stop offset="1" stop-color="#00E3FF"/></linearGradient><linearGradient id="paint1_linear_227_3073" x1="30.826" y1="18.001" x2="8.78" y2="18.001" gradientUnits="userSpaceOnUse"><stop stop-color="#FFE000"/><stop offset=".409" stop-color="#FFBD00"/><stop offset=".775" stop-color="orange"/><stop offset="1" stop-color="#FF9C00"/></linearGradient><linearGradient id="paint2_linear_227_3073" x1="22.62" y1="20.066" x2="2.146" y2="40.799" gradientUnits="userSpaceOnUse"><stop stop-color="#FF3A44"/><stop offset="1" stop-color="#C31162"/></linearGradient><linearGradient id="paint3_linear_227_3073" x1="6.648" y1=".165" x2="15.791" y2="9.423" gradientUnits="userSpaceOnUse"><stop stop-color="#32A071"/><stop offset=".069" stop-color="#2DA771"/><stop offset=".476" stop-color="#15CF74"/><stop offset=".801" stop-color="#06E775"/><stop offset="1" stop-color="#00F076"/></linearGradient><clipPath id="clip0_227_3073"><path fill="#fff" d="M0 0h123v36H0z"/></clipPath></defs></svg>