<svg width="125" height="37" fill="none" xmlns="http://www.w3.org/2000/svg"><g clip-path="url(#clip0_227_3062)"><path d="M124.204 32.63a3.532 3.532 0 01-1.041 2.508 3.552 3.552 0 01-2.512 1.036H4.382a3.557 3.557 0 01-2.513-1.036A3.545 3.545 0 01.825 32.63V4.373a3.55 3.55 0 011.043-2.509A3.561 3.561 0 014.382.825H120.65a3.557 3.557 0 013.283 2.19c.178.43.27.892.27 1.358l.001 28.258z" fill="#fff"/><path d="M120.651 36.999H4.382c-1.16 0-2.274-.46-3.096-1.28A4.373 4.373 0 010 32.632V4.374a4.375 4.375 0 011.286-3.09A4.39 4.39 0 014.382.002H120.65a4.39 4.39 0 013.096 1.282 4.374 4.374 0 011.286 3.09v28.257c.002 2.41-1.967 4.368-4.381 4.368z" fill="#A6A6A6"/><path d="M124.204 32.63a3.532 3.532 0 01-1.041 2.508 3.552 3.552 0 01-2.512 1.036H4.382a3.557 3.557 0 01-2.513-1.036A3.545 3.545 0 01.825 32.63V4.373a3.55 3.55 0 011.043-2.509A3.561 3.561 0 014.382.825H120.65a3.557 3.557 0 013.283 2.19c.178.43.27.892.27 1.358l.001 28.258z" fill="#000"/><path d="M27.919 18.305c-.027-2.982 2.445-4.432 2.558-4.5-1.4-2.038-3.57-2.316-4.333-2.339-1.822-.191-3.59 1.09-4.52 1.09-.946 0-2.376-1.071-3.917-1.04-1.983.03-3.838 1.177-4.856 2.957-2.1 3.63-.534 8.963 1.478 11.897 1.007 1.438 2.183 3.041 3.722 2.985 1.506-.061 2.068-.958 3.885-.958 1.8 0 2.329.958 3.899.922 1.616-.025 2.633-1.444 3.605-2.893 1.162-1.646 1.63-3.27 1.648-3.352-.037-.013-3.138-1.196-3.17-4.769zm-2.966-8.769c.81-1.01 1.365-2.386 1.21-3.783-1.172.052-2.637.81-3.482 1.799-.747.871-1.414 2.3-1.241 3.643 1.316.098 2.668-.663 3.513-1.659z" fill="#fff"/><path d="M120.651.002H58.374l24.393 36.996h37.884a4.389 4.389 0 003.096-1.28 4.372 4.372 0 001.286-3.09V4.374a4.374 4.374 0 00-1.286-3.09 4.39 4.39 0 00-3.096-1.282z" fill="url(#paint0_linear_227_3062)"/><path d="M49.82 27.295h-2.105l-1.152-3.617h-4.007l-1.098 3.617h-2.05l3.971-12.313h2.453l3.988 12.313zm-3.605-5.134l-1.042-3.215c-.11-.329-.318-1.102-.622-2.32h-.037a97.758 97.758 0 01-.586 2.32l-1.025 3.215h3.312zm13.796.585c0 1.51-.41 2.704-1.232 3.58-.736.78-1.65 1.17-2.741 1.17-1.178 0-2.025-.42-2.54-1.26v4.658h-1.975v-9.56c0-.948-.025-1.92-.073-2.917h1.737l.11 1.407h.038c.659-1.06 1.658-1.59 3-1.59 1.05 0 1.925.413 2.626 1.241.7.83 1.05 1.92 1.05 3.271zM58 22.82c0-.865-.195-1.577-.586-2.139-.427-.583-1-.876-1.72-.876-.487 0-.93.163-1.326.484a2.244 2.244 0 00-.777 1.27 2.573 2.573 0 00-.092.6v1.482c0 .645.198 1.19.595 1.636.396.444.912.667 1.545.667.745 0 1.324-.288 1.738-.859.415-.572.623-1.327.623-2.265zm12.24-.073c0 1.51-.41 2.704-1.232 3.58-.737.78-1.65 1.17-2.742 1.17-1.178 0-2.025-.42-2.54-1.26v4.658H61.75v-9.56c0-.948-.025-1.92-.073-2.917h1.737l.11 1.407h.038c.657-1.06 1.657-1.59 3-1.59 1.048 0 1.924.413 2.626 1.241.699.83 1.051 1.92 1.051 3.271zm-2.014.073c0-.865-.195-1.577-.586-2.139-.427-.583-1-.876-1.718-.876-.488 0-.93.163-1.328.484a2.242 2.242 0 00-.777 1.27 2.65 2.65 0 00-.092.6v1.482c0 .645.199 1.19.594 1.636.396.443.912.667 1.547.667.745 0 1.324-.288 1.738-.859.415-.572.622-1.327.622-2.265zm13.45 1.022c0 1.048-.368 1.9-1.097 2.558-.803.718-1.923 1.078-3.36 1.078-1.326 0-2.39-.256-3.193-.767l.457-1.644a5.503 5.503 0 002.855.768c.745 0 1.324-.169 1.737-.503.414-.335.624-.782.624-1.341 0-.5-.174-.92-.514-1.261-.342-.34-.907-.658-1.701-.95-2.16-.803-3.24-1.98-3.24-3.526 0-1.01.382-1.838 1.144-2.484.761-.646 1.772-.969 3.028-.969 1.122 0 2.057.195 2.8.585l-.496 1.608c-.699-.378-1.487-.566-2.37-.566-.697 0-1.243.17-1.634.511a1.463 1.463 0 00-.496 1.116c0 .486.19.889.568 1.205.328.292.927.61 1.792.95 1.062.427 1.842.925 2.342 1.497.503.571.753 1.285.753 2.135zm6.548-3.944h-2.178v4.31c0 1.097.384 1.643 1.153 1.643.353 0 .646-.03.878-.091l.054 1.498c-.389.145-.901.218-1.536.218-.78 0-1.39-.238-1.83-.713-.438-.476-.66-1.273-.66-2.394v-4.475h-1.296v-1.48h1.297v-1.626l1.94-.584v2.21h2.178v1.484zm9.806 2.886c0 1.364-.391 2.484-1.171 3.36-.817.903-1.903 1.352-3.257 1.352-1.306 0-2.345-.432-3.12-1.295-.774-.865-1.162-1.955-1.162-3.27 0-1.375.4-2.502 1.198-3.378.8-.877 1.877-1.316 3.23-1.316 1.306 0 2.354.433 3.147 1.297.758.838 1.135 1.92 1.135 3.25zm-2.048.045c0-.813-.176-1.511-.529-2.095-.414-.705-1.007-1.057-1.775-1.057-.792 0-1.399.352-1.812 1.057-.354.584-.53 1.294-.53 2.132 0 .814.176 1.513.53 2.095.427.705 1.023 1.058 1.795 1.058.755 0 1.347-.36 1.775-1.075.364-.598.546-1.3.546-2.115zm8.473-2.677a3.445 3.445 0 00-.623-.054c-.695 0-1.232.26-1.611.786-.328.463-.493 1.047-.493 1.753v4.659h-1.975v-6.083a62.317 62.317 0 00-.058-2.794h1.721l.072 1.698h.055c.21-.584.538-1.055.988-1.407a2.39 2.39 0 011.428-.476c.183 0 .347.013.494.037l.002 1.881zm8.836 2.285c.005.3-.02.599-.073.894h-5.927c.022.877.31 1.549.86 2.012.5.412 1.146.62 1.939.62.877 0 1.678-.14 2.398-.42l.31 1.369c-.842.366-1.835.548-2.982.548-1.378 0-2.461-.405-3.248-1.214-.786-.81-1.18-1.897-1.18-3.26 0-1.338.366-2.453 1.099-3.342.767-.949 1.804-1.424 3.109-1.424 1.281 0 2.252.475 2.911 1.424.521.752.784 1.685.784 2.793zm-1.884-.512c.014-.586-.116-1.09-.384-1.517-.342-.549-.868-.823-1.574-.823-.645 0-1.172.268-1.572.804-.329.427-.525.94-.585 1.534l4.115.002zm-69.421-9.339c-.55 0-1.025-.027-1.42-.072V6.56a10.772 10.772 0 011.672-.126c2.266 0 3.31 1.113 3.31 2.927 0 2.093-1.233 3.224-3.562 3.224zm.332-5.388a3.97 3.97 0 00-.782.063v4.525c.116.019.34.027.656.027 1.484 0 2.33-.844 2.33-2.424 0-1.409-.765-2.19-2.204-2.19zm6.48 5.433c-1.276 0-2.104-.952-2.104-2.245 0-1.347.846-2.307 2.177-2.307 1.259 0 2.105.907 2.105 2.236 0 1.364-.872 2.316-2.177 2.316zm.038-3.843c-.701 0-1.15.655-1.15 1.57 0 .9.458 1.554 1.14 1.554.684 0 1.142-.7 1.142-1.572 0-.888-.45-1.552-1.132-1.552zm9.422-.62l-1.367 4.364H56l-.567-1.895c-.14-.463-.258-.934-.351-1.409h-.019a9.441 9.441 0 01-.35 1.41l-.602 1.894h-.9l-1.287-4.363h.998l.495 2.074c.117.494.215.96.297 1.4h.018c.072-.367.189-.825.36-1.39l.62-2.083h.792l.594 2.038c.144.494.26.979.352 1.437h.025c.063-.449.163-.925.297-1.437l.53-2.038.955-.001zm5.031 4.364h-.97v-2.505c0-.772-.297-1.159-.882-1.159-.576 0-.971.494-.971 1.069v2.595h-.971V9.416c0-.386-.01-.8-.037-1.248h.855l.045.673h.027c.261-.466.791-.762 1.386-.762.917 0 1.52.7 1.52 1.84l-.002 2.613zm2.678 0h-.972V6.167h.972v6.365zm3.541.099c-1.276 0-2.104-.952-2.104-2.245 0-1.347.845-2.307 2.176-2.307 1.259 0 2.104.907 2.104 2.236.001 1.364-.872 2.316-2.176 2.316zm.036-3.843c-.701 0-1.15.655-1.15 1.57 0 .9.46 1.554 1.14 1.554.684 0 1.142-.7 1.142-1.572 0-.888-.448-1.552-1.132-1.552zm5.969 3.744l-.07-.502h-.026c-.297.404-.73.601-1.278.601-.783 0-1.34-.548-1.34-1.284 0-1.077.936-1.634 2.555-1.634v-.08c0-.575-.305-.863-.908-.863-.43 0-.808.108-1.141.324l-.198-.637c.404-.252.909-.378 1.5-.378 1.142 0 1.719.601 1.719 1.805v1.607c0 .44.02.782.063 1.042l-.876-.001zm-.133-2.173c-1.079 0-1.62.26-1.62.88 0 .457.279.681.666.681.494 0 .954-.376.954-.888v-.673zm5.662 2.173l-.046-.7h-.027c-.279.529-.747.799-1.403.799-1.053 0-1.834-.925-1.834-2.227 0-1.365.81-2.326 1.914-2.326.585 0 .999.197 1.233.593h.019V6.167h.972v5.19c0 .42.01.816.036 1.175h-.864zm-.144-2.567c0-.611-.405-1.132-1.023-1.132-.72 0-1.16.638-1.16 1.535 0 .88.457 1.482 1.14 1.482.611 0 1.043-.53 1.043-1.158v-.727zm7.135 2.666c-1.276 0-2.103-.952-2.103-2.245 0-1.347.845-2.307 2.176-2.307 1.259 0 2.104.907 2.104 2.236.001 1.364-.871 2.316-2.177 2.316zm.037-3.843c-.701 0-1.15.655-1.15 1.57 0 .9.458 1.554 1.14 1.554.684 0 1.142-.7 1.142-1.572.002-.888-.448-1.552-1.132-1.552zm7.363 3.744h-.972v-2.505c0-.772-.297-1.159-.882-1.159-.575 0-.97.494-.97 1.069v2.595h-.972V9.416c0-.386-.01-.8-.036-1.248h.854l.046.673h.027c.26-.466.791-.763 1.384-.763.917 0 1.52.7 1.52 1.84v2.614zm6.534-3.636h-1.069v2.119c0 .54.188.808.566.808.171 0 .315-.018.431-.045l.026.736c-.188.073-.44.109-.753.109-.765 0-1.223-.422-1.223-1.527v-2.2h-.638v-.727h.638v-.8l.953-.287v1.086h1.069v.728zm5.141 3.636h-.97v-2.487c0-.78-.296-1.176-.882-1.176-.503 0-.972.342-.972 1.033v2.63h-.97V6.167h.97v2.62h.02c.306-.475.749-.709 1.314-.709.925 0 1.49.718 1.49 1.859v2.595zm5.267-1.948h-2.914c.018.826.566 1.292 1.377 1.292a3.29 3.29 0 001.178-.206l.151.673c-.414.18-.9.27-1.466.27-1.367 0-2.176-.863-2.176-2.2 0-1.337.828-2.343 2.066-2.343 1.117 0 1.818.826 1.818 2.074a1.85 1.85 0 01-.034.44zm-.89-.692c0-.673-.34-1.149-.961-1.149-.558 0-.999.485-1.062 1.15h2.023z" fill="#fff"/></g><defs><linearGradient id="paint0_linear_227_3062" x1="91.703" y1="37.097" x2="91.703" y2="-96.332" gradientUnits="userSpaceOnUse"><stop stop-color="#1A1A1A" stop-opacity=".1"/><stop offset=".123" stop-color="#212121" stop-opacity=".151"/><stop offset=".308" stop-color="#353535" stop-opacity=".227"/><stop offset=".532" stop-color="#575757" stop-opacity=".318"/><stop offset=".783" stop-color="#858585" stop-opacity=".421"/><stop offset="1" stop-color="#B3B3B3" stop-opacity=".51"/></linearGradient><clipPath id="clip0_227_3062"><path fill="#fff" d="M0 0h125v37H0z"/></clipPath></defs></svg>