<svg width="38" height="44" fill="none" xmlns="http://www.w3.org/2000/svg"><path d="M20.5 1.458c.805 0 1.458.653 1.458 1.459v2.272c2.075.243 3.992.998 5.623 2.136l1.684-1.684a1.458 1.458 0 112.062 2.063l-1.562 1.561a12.353 12.353 0 012.938 6.047h2.38a1.458 1.458 0 010 2.917h-2.208a12.337 12.337 0 01-2.64 6.945l1.608 1.607a1.458 1.458 0 01-2.062 2.062l-1.608-1.607a12.337 12.337 0 01-6.215 2.575v2.272a1.458 1.458 0 01-2.916 0v-2.272a12.348 12.348 0 01-6.777-3.045l-1.561 1.562a1.458 1.458 0 11-2.063-2.063l1.684-1.683a12.33 12.33 0 01-2.2-6.353H5.917a1.458 1.458 0 110-2.916h2.38a12.34 12.34 0 012.467-5.486L9.157 8.219a1.458 1.458 0 112.062-2.062l1.607 1.607a12.336 12.336 0 016.216-2.575V2.917c0-.806.652-1.459 1.458-1.459z" fill="#C4C4C4"/><path d="M20.5 1.458c.805 0 1.458.653 1.458 1.459v2.272c2.075.243 3.992.998 5.623 2.136l1.684-1.684a1.458 1.458 0 112.062 2.063l-1.562 1.561a12.353 12.353 0 012.938 6.047h2.38a1.458 1.458 0 010 2.917h-2.208a12.337 12.337 0 01-2.64 6.945l1.608 1.607a1.458 1.458 0 01-2.062 2.062l-1.608-1.607a12.337 12.337 0 01-6.215 2.575v2.272a1.458 1.458 0 01-2.916 0v-2.272a12.348 12.348 0 01-6.777-3.045l-1.561 1.562a1.458 1.458 0 11-2.063-2.063l1.684-1.683a12.33 12.33 0 01-2.2-6.353H5.917a1.458 1.458 0 110-2.916h2.38a12.34 12.34 0 012.467-5.486L9.157 8.219a1.458 1.458 0 112.062-2.062l1.607 1.607a12.336 12.336 0 016.216-2.575V2.917c0-.806.652-1.459 1.458-1.459z" fill="url(#paint0_linear_228_3163)"/><g filter="url(#filter0_b_228_3163)"><circle cx="10" cy="34" r="10" fill="#fff" fill-opacity=".1"/><circle cx="10" cy="34" r="9.85" stroke="url(#paint1_linear_228_3163)" stroke-width=".3"/></g><path d="M14.165 32.71a.428.428 0 00-.37-.289l-2.437-.194-1.054-2.333a.427.427 0 00-.779 0l-1.054 2.333-2.437.194a.427.427 0 00-.264.732l1.8 1.755-.636 2.758a.427.427 0 00.653.451l2.327-1.551 2.327 1.551a.428.428 0 00.649-.472l-.782-2.736 1.938-1.744a.428.428 0 00.12-.455z" fill="#fff"/><defs><linearGradient id="paint0_linear_228_3163" x1="8.853" y1="6.958" x2="32.987" y2="29.339" gradientUnits="userSpaceOnUse"><stop stop-color="#00FFA3" stop-opacity=".6"/><stop offset="1" stop-color="#4B48F1"/></linearGradient><linearGradient id="paint1_linear_228_3163" x1="10" y1="24" x2="10" y2="44" gradientUnits="userSpaceOnUse"><stop stop-color="#fff" stop-opacity=".46"/><stop offset="1" stop-color="#fff" stop-opacity="0"/></linearGradient><filter id="filter0_b_228_3163" x="-5" y="19" width="30" height="30" filterUnits="userSpaceOnUse" color-interpolation-filters="sRGB"><feFlood flood-opacity="0" result="BackgroundImageFix"/><feGaussianBlur in="BackgroundImageFix" stdDeviation="2.5"/><feComposite in2="SourceAlpha" operator="in" result="effect1_backgroundBlur_228_3163"/><feBlend in="SourceGraphic" in2="effect1_backgroundBlur_228_3163" result="shape"/></filter></defs></svg>