<svg width="183" height="179" fill="none" xmlns="http://www.w3.org/2000/svg"><path d="M181.439 99.446c.373-3.358.578-6.763.578-10.217 0-1.817-.06-3.634-.169-5.427l-16.867-5.464a74.351 74.351 0 00-5.968-20.217l11.189-13.767a91.321 91.321 0 00-8.867-12.888l-16.868 5.512a74.852 74.852 0 00-16.699-12.84l.962-17.727a90.593 90.593 0 00-14.726-5.222l-10.419 14.38a74.959 74.959 0 00-21.067-.553L72.87.106a89.658 89.658 0 00-14.99 4.428l.023 17.762a74.527 74.527 0 00-17.36 11.95l-16.556-6.39a90.893 90.893 0 00-9.529 12.395l10.444 14.344a73.94 73.94 0 00-7.039 19.868L.73 79.024a92.46 92.46 0 00-.578 10.217c0 1.817.06 3.634.169 5.427l16.868 5.464a73.959 73.959 0 005.98 20.217l-11.19 13.767a91.355 91.355 0 008.867 12.888l16.868-5.512a74.835 74.835 0 0016.7 12.841l-.963 17.726a90.526 90.526 0 0014.726 5.222l10.42-14.38a74.95 74.95 0 0021.066.553l9.649 14.911a89.722 89.722 0 0014.991-4.429l-.024-17.762a74.535 74.535 0 0017.361-11.95l16.555 6.39a90.948 90.948 0 009.529-12.395l-10.443-14.344a73.968 73.968 0 007.038-19.868l17.12-4.561zM91.073 124.91c-19.696 0-35.673-15.969-35.673-35.681 0-19.7 15.965-35.68 35.673-35.68 19.695 0 35.672 15.968 35.672 35.68s-15.977 35.681-35.672 35.681z" fill="url(#paint0_linear_261_11587)"/><defs><linearGradient id="paint0_linear_261_11587" x1="34.809" y1="123.053" x2="250.313" y2="-6.423" gradientUnits="userSpaceOnUse"><stop stop-color="#00D7FF"/><stop offset=".143" stop-color="#00B2DF"/><stop offset=".45" stop-color="#0169A0"/><stop offset=".706" stop-color="#013471"/><stop offset=".896" stop-color="#011255"/><stop offset="1" stop-color="#01064A"/></linearGradient></defs></svg>