<svg width="84" height="81" fill="none" xmlns="http://www.w3.org/2000/svg"><path d="M83.007 45.096c.168-1.516.264-3.056.264-4.62 0-.83-.023-1.65-.072-2.456l-7.64-2.466a33.57 33.57 0 00-2.707-9.158l5.066-6.234a40.506 40.506 0 00-4.019-5.836l-7.64 2.49a33.971 33.971 0 00-7.567-5.812l.433-8.026A40.969 40.969 0 0052.459.607l-4.716 6.51a33.705 33.705 0 00-5.654-.469c-1.312 0-2.611.072-3.886.229L33.834.126a41.243 41.243 0 00-6.786 2.01l.012 8.038a34.154 34.154 0 00-7.868 5.415l-7.495-2.888a41.732 41.732 0 00-4.32 5.62l4.729 6.498a33.387 33.387 0 00-3.189 9.002l-7.76 2.07a41.815 41.815 0 00-.264 4.62c0 .83.024 1.65.072 2.456l7.64 2.466a33.574 33.574 0 002.707 9.158l-5.066 6.234a40.509 40.509 0 004.019 5.836l7.64-2.49a33.969 33.969 0 007.567 5.812l-.433 8.026a40.964 40.964 0 006.666 2.371l4.716-6.51c1.84.313 3.73.469 5.655.469 1.31 0 2.61-.072 3.886-.229l4.367 6.751a41.25 41.25 0 006.786-2.01l-.013-8.038a34.152 34.152 0 007.869-5.415l7.496 2.888a41.731 41.731 0 004.319-5.62l-4.729-6.498a33.387 33.387 0 003.189-9.002l7.76-2.07zm-40.93 11.529c-8.928 0-16.158-7.232-16.158-16.162 0-8.929 7.23-16.161 16.158-16.161 8.927 0 16.157 7.232 16.157 16.161 0 8.93-7.23 16.162-16.157 16.162z" fill="url(#paint0_linear_261_11586)"/><defs><linearGradient id="paint0_linear_261_11586" x1="16.593" y1="55.79" x2="114.198" y2="-2.851" gradientUnits="userSpaceOnUse"><stop stop-color="#00D7FF"/><stop offset=".143" stop-color="#00B2DF"/><stop offset=".45" stop-color="#0169A0"/><stop offset=".706" stop-color="#013471"/><stop offset=".896" stop-color="#011255"/><stop offset="1" stop-color="#01064A"/></linearGradient></defs></svg>