<svg width="58" height="58" fill="none" xmlns="http://www.w3.org/2000/svg"><path d="M56.645 29.543c0-2.377-.193-4.11-.61-5.909H28.901V34.36h15.927c-.321 2.666-2.055 6.68-5.909 9.377l-.053.359 8.579 6.646.594.06c5.46-5.042 8.606-12.46 8.606-21.258z" fill="#4285F4"/><path d="M28.9 57.8c7.804 0 14.355-2.568 19.14-7l-9.12-7.064c-2.44 1.702-5.716 2.89-10.02 2.89-7.642 0-14.128-5.042-16.44-12.01l-.34.029-8.92 6.904-.117.324c4.753 9.441 14.514 15.928 25.818 15.928z" fill="#34A853"/><path d="M12.46 34.616a17.79 17.79 0 01-.964-5.716c0-1.99.353-3.917.931-5.715l-.016-.383-9.033-7.015-.295.14A28.927 28.927 0 000 28.9c0 4.657 1.124 9.056 3.083 12.973l9.376-7.257z" fill="#FBBC05"/><path d="M28.9 11.175c5.428 0 9.088 2.344 11.176 4.303l8.156-7.964C43.222 2.858 36.704 0 28.901 0 17.598 0 7.836 6.486 3.083 15.927l9.345 7.258c2.344-6.969 8.83-12.01 16.473-12.01z" fill="#EB4335"/></svg>