<svg width="17" height="18" fill="none" xmlns="http://www.w3.org/2000/svg"><path d="M8.493 1.5c-3.91 0-7.076 3.36-7.076 7.5 0 4.14 3.166 7.5 7.076 7.5 3.917 0 7.09-3.36 7.09-7.5 0-4.14-3.173-7.5-7.09-7.5zM13.402 6h-2.09a12.164 12.164 0 00-.977-2.67c1.292.471 2.38 1.419 3.067 2.67zM8.5 3.03A10.84 10.84 0 019.853 6H7.147c.305-1.072.765-2.07 1.353-2.97zM3.018 10.5A6.525 6.525 0 012.833 9c0-.518.071-1.02.185-1.5h2.394c-.057.495-.1.99-.1 1.5s.043 1.005.1 1.5H3.018zm.58 1.5h2.09c.227.938.553 1.838.978 2.67-1.294-.468-2.383-1.417-3.068-2.67zm2.09-6h-2.09c.685-1.253 1.774-2.202 3.067-2.67A12.162 12.162 0 005.688 6zM8.5 14.97A10.841 10.841 0 017.147 12h2.706A10.84 10.84 0 018.5 14.97zm1.658-4.47H6.843A11.67 11.67 0 016.729 9c0-.51.05-1.013.114-1.5h3.315c.063.487.113.99.113 1.5s-.05 1.005-.113 1.5zm.177 4.17c.425-.832.75-1.732.977-2.67h2.09c-.686 1.251-1.775 2.199-3.067 2.67zm1.253-4.17c.057-.495.1-.99.1-1.5s-.043-1.005-.1-1.5h2.395c.113.48.184.982.184 1.5s-.071 1.02-.184 1.5h-2.395z" fill="#fff"/></svg>