<svg width="77" height="174" fill="none" xmlns="http://www.w3.org/2000/svg"><path d="M56.264 172.658S6.997 144.39.933 88.733L19.58 95.4.415 81.645c-.288-7.076.133-14.573 1.42-22.467l11.346 5.199L2.737 54.256c3.26-15.873 9.626-35.14 21.2-54.165 0 0 19.298 16.318 34.349 39.724L55.77 49.19l6.016-3.647c8.65 15.007 15.244 33.118 14.702 53.082-1.432 51.975-20.225 74.033-20.225 74.033z" fill="url(#paint0_linear_261_11597)"/><path d="M56.06 173.103a.508.508 0 01-.289-.385C45.75 93.908 24.081 2.931 23.864 2.028a.487.487 0 01.361-.589c.265-.06.53.096.59.361.216.915 21.897 91.94 31.93 170.798a.497.497 0 01-.42.553.498.498 0 01-.265-.048z" fill="#79C3F0"/><path d="M31.384 32.763l-17.746-11.01a.489.489 0 11.517-.831l16.772 10.41 7.122-16.547a.49.49 0 01.65-.253c.265.12.36.397.253.65l-7.568 17.581zM4.662 45.953a.479.479 0 01-.24-.65.478.478 0 01.65-.24l31.954 14.512 14.967-28.448a.498.498 0 01.662-.205c.24.133.337.421.204.662l-15.4 29.267L4.663 45.953z" fill="#79C3F0"/><path d="M43.163 92.127L.403 69.635a.482.482 0 01-.204-.662.482.482 0 01.662-.204L42.8 90.827l22.884-37.365a.503.503 0 01.674-.169c.228.145.3.446.168.674l-23.364 38.16z" fill="#79C3F0"/><path d="M2.328 99.19a.485.485 0 01-.24-.649.49.49 0 01.65-.253l45.31 20.35 27.61-31.734a.495.495 0 01.747.65l-28.093 32.287-45.984-20.65zm50.76 49.328l-39.306-19.351a.496.496 0 01-.229-.661.5.5 0 01.662-.229l38.596 19.001 21.512-26.98a.483.483 0 01.686-.072.473.473 0 01.072.686l-21.993 27.606z" fill="#79C3F0"/><defs><linearGradient id="paint0_linear_261_11597" x1=".326" y1="86.38" x2="76.505" y2="86.38" gradientUnits="userSpaceOnUse"><stop offset=".046" stop-color="#00D7FF"/><stop offset=".09" stop-color="#00B7E4"/><stop offset=".158" stop-color="#008EC0"/><stop offset=".232" stop-color="#0169A0"/><stop offset=".311" stop-color="#014A85"/><stop offset=".397" stop-color="#01316F"/><stop offset=".493" stop-color="#011E5F"/><stop offset=".603" stop-color="#011053"/><stop offset=".742" stop-color="#01084C"/><stop offset="1" stop-color="#01064A"/></linearGradient></defs></svg>