<svg width="112" height="122" fill="none" xmlns="http://www.w3.org/2000/svg"><path d="M46.358 83.965a409.464 409.464 0 01-12.08 11.493c-1.083.999-2.178 1.973-3.296 2.984-6.064 5.452-12.621 10.963-19.695 16.535a383.26 383.26 0 01-8.579 6.607l-2.695-2.227a369.944 369.944 0 0010.744-8.303c5.402-4.296 10.527-8.556 15.328-12.792a6406.18 6406.18 0 013.26-2.9 431.524 431.524 0 0015.027-14.176c-.264-.253-.505-.53-.794-.843-4.945-5.138-13.282-15.451-11.706-24.874.397-2.323 1.396-4.585 3.224-6.715.073-.084.12-.156.217-.217.18-.252.409-.493.625-.722a.89.89 0 01.253 0c1.263-.12 2.55 0 3.814.35a11.657 11.657 0 014.223 2.009c5.547 3.935 9.252 12.624 5.907 25.127 4.2-4.38 8.097-8.604 11.61-12.648l.12-.156c-4.523-4.549-14.701-16.414-7.567-25.223.265-.325.578-.65.878-.975.217-.036.434-.036.65-.036 6.666-.24 13.932 7.413 10.66 20.867A305.412 305.412 0 0078.77 41.522c-2.238-2.13-7.026-7.197-9.42-12.877a16.98 16.98 0 01-.927-2.623c-1.047-3.923-.638-8.015 2.827-11.504 3.838-.422 7.965 1.793 10.275 6.245a14.47 14.47 0 011.035 2.563c1.106 3.538 1.179 8.063-.41 13.514 4.56-6.486 7.556-11.348 9.12-13.983.048-.578.085-1.24.157-1.95.072-.878.204-1.865.36-2.9C92.956 10.39 96.397-.273 106.49.293c3.068 2.792 4.078 7.907 1.612 12.997a16.785 16.785 0 01-2.659 3.875c-2.406 2.732-6.064 5.27-11.153 7.208-1.708 2.912-5.246 8.64-10.792 16.366 9.95-8.784 19.19-8.664 24.411-5.006 2.046 1.396 3.465 3.37 4.067 5.548-4.8 10.999-18.72 7.666-26.397 4.813-2.08-.782-3.73-1.516-4.583-1.937-3.08 4.176-6.702 8.809-10.84 13.827 2.658-1.588 5.16-2.635 7.531-3.225 8.59-2.166 15.027 1.516 17.036 6.559a8.61 8.61 0 01.493 1.684c-5.077 9.531-16.615 6.872-24.29 3.719-2.443-1-4.5-2.082-5.812-2.804a394.392 394.392 0 01-13.138 14.32c4.007-2.166 7.712-3.393 11.13-3.887 10.96-1.624 18.37 4.5 19.201 11.324-9.18 14.537-30.235 2.07-35.95-1.709z" fill="url(#paint0_linear_261_11596)"/><defs><linearGradient id="paint0_linear_261_11596" x1="107.007" y1="14.93" x2="13.943" y2="115.994" gradientUnits="userSpaceOnUse"><stop offset=".046" stop-color="#00D7FF"/><stop offset=".09" stop-color="#00B7E4"/><stop offset=".158" stop-color="#008EC0"/><stop offset=".232" stop-color="#0169A0"/><stop offset=".311" stop-color="#014A85"/><stop offset=".397" stop-color="#01316F"/><stop offset=".493" stop-color="#011E5F"/><stop offset=".603" stop-color="#011053"/><stop offset=".742" stop-color="#01084C"/><stop offset="1" stop-color="#01064A"/></linearGradient></defs></svg>