<svg width="113" height="122" fill="none" xmlns="http://www.w3.org/2000/svg"><path d="M66.077 83.965a409.589 409.589 0 0012.08 11.493c1.083.999 2.178 1.973 3.296 2.984 6.064 5.452 12.621 10.963 19.696 16.535a381.86 381.86 0 008.578 6.607l2.695-2.227a369.427 369.427 0 01-10.744-8.303c-5.402-4.296-10.527-8.556-15.328-12.792-1.095-.975-2.177-1.938-3.26-2.9a431.524 431.524 0 01-15.027-14.176c.264-.253.505-.53.794-.843 4.945-5.138 13.282-15.451 11.706-24.874-.397-2.323-1.395-4.585-3.224-6.715-.073-.084-.12-.156-.217-.217-.18-.252-.409-.493-.626-.722a.89.89 0 00-.252 0c-1.263-.12-2.55 0-3.814.35a11.565 11.565 0 00-4.223 2.009c-5.546 3.935-9.252 12.624-5.907 25.127-4.2-4.38-8.097-8.604-11.61-12.648l-.12-.156c4.523-4.549 14.701-16.414 7.567-25.223-.265-.325-.578-.65-.879-.975-.216-.036-.433-.036-.65-.036-6.664-.24-13.931 7.413-10.659 20.867a305.419 305.419 0 01-12.284-15.608c2.238-2.13 7.026-7.197 9.42-12.877.386-.854.687-1.72.927-2.623 1.047-3.923.638-8.015-2.827-11.504-3.838-.422-7.965 1.793-10.275 6.245a14.47 14.47 0 00-1.035 2.563c-1.107 3.538-1.179 8.063.41 13.514-4.56-6.486-7.556-11.348-9.12-13.983-.048-.578-.084-1.24-.157-1.95a44.255 44.255 0 00-.36-2.9C19.48 10.39 16.04-.273 5.944.293 2.877 3.085 1.867 8.2 4.333 13.29a16.774 16.774 0 002.659 3.875c2.406 2.732 6.064 5.27 11.153 7.208 1.708 2.912 5.246 8.64 10.792 16.366-9.95-8.784-19.19-8.664-24.411-5.006C2.48 37.13 1.06 39.103.459 41.281c4.8 10.999 18.72 7.666 26.397 4.813 2.081-.782 3.73-1.516 4.583-1.937 3.08 4.176 6.702 8.809 10.84 13.827-2.658-1.588-5.16-2.635-7.53-3.225-8.591-2.166-15.028 1.516-17.037 6.559a8.666 8.666 0 00-.494 1.684c5.078 9.531 16.616 6.872 24.292 3.719 2.442-1 4.5-2.082 5.81-2.804a394.472 394.472 0 0013.139 14.32c-4.007-2.166-7.712-3.393-11.13-3.887-10.96-1.624-18.37 4.5-19.2 11.324 9.179 14.537 30.234 2.07 35.948-1.709z" fill="url(#paint0_linear_261_11605)"/><defs><linearGradient id="paint0_linear_261_11605" x1=".435" y1="60.931" x2="112.424" y2="60.931" gradientUnits="userSpaceOnUse"><stop offset=".046" stop-color="#00D7FF"/><stop offset=".09" stop-color="#00B7E4"/><stop offset=".158" stop-color="#008EC0"/><stop offset=".232" stop-color="#0169A0"/><stop offset=".311" stop-color="#014A85"/><stop offset=".397" stop-color="#01316F"/><stop offset=".493" stop-color="#011E5F"/><stop offset=".603" stop-color="#011053"/><stop offset=".742" stop-color="#01084C"/><stop offset="1" stop-color="#01064A"/></linearGradient></defs></svg>