<svg width="75" height="167" fill="none" xmlns="http://www.w3.org/2000/svg"><path d="M19.947 166.474s47.511-27.257 53.358-80.928L55.32 91.984l18.49-13.262c.277-6.823-.133-14.055-1.372-21.66l-10.936 5.005 10.07-9.76C68.433 37.002 62.297 18.42 51.132.069c0 0-18.612 15.74-33.122 38.304l2.43 9.038-5.799-3.514C6.291 58.373-.06 75.834.468 95.076c1.348 50.134 19.479 71.398 19.479 71.398z" fill="url(#paint0_linear_261_11588)"/><path d="M20.14 166.907a.476.476 0 00.276-.373C30.09 90.528 50.976 2.8 51.192 1.922a.488.488 0 00-.349-.578.488.488 0 00-.577.349c-.205.878-21.115 88.654-30.788 164.721a.474.474 0 00.662.493z" fill="#79C3F0"/><path d="M43.938 31.561l17.108-10.614a.482.482 0 00.156-.65.47.47 0 00-.65-.156l-16.18 10.036L37.5 14.22a.487.487 0 00-.626-.252.48.48 0 00-.252.625l7.315 16.968zm25.77 12.72a.472.472 0 00.24-.626.471.471 0 00-.625-.24L38.511 57.41 24.086 29.973a.489.489 0 00-.638-.205.478.478 0 00-.204.638l14.846 28.22L69.708 44.28z" fill="#79C3F0"/><path d="M32.58 88.819l41.231-21.686a.478.478 0 00.205-.637.478.478 0 00-.638-.205l-40.45 21.276-22.064-36.041a.471.471 0 00-.65-.157.471.471 0 00-.157.65l22.523 36.8z" fill="#79C3F0"/><path d="M71.958 95.63a.471.471 0 00.24-.626.47.47 0 00-.625-.24L27.876 114.39 1.25 83.788a.487.487 0 00-.674-.048.488.488 0 00-.048.674l27.094 31.132L71.958 95.63zM23.003 143.2l37.91-18.665a.468.468 0 00.217-.637.472.472 0 00-.638-.217l-37.224 18.328-20.742-26.03a.465.465 0 00-.662-.072.465.465 0 00-.072.662l21.21 26.631z" fill="#79C3F0"/><defs><linearGradient id="paint0_linear_261_11588" x1="75.987" y1="13.614" x2="27.043" y2="103.458" gradientUnits="userSpaceOnUse"><stop offset=".046" stop-color="#00D7FF"/><stop offset=".09" stop-color="#00B7E4"/><stop offset=".158" stop-color="#008EC0"/><stop offset=".232" stop-color="#0169A0"/><stop offset=".311" stop-color="#014A85"/><stop offset=".397" stop-color="#01316F"/><stop offset=".493" stop-color="#011E5F"/><stop offset=".603" stop-color="#011053"/><stop offset=".742" stop-color="#01084C"/><stop offset="1" stop-color="#01064A"/></linearGradient></defs></svg>