<svg width="33" height="32" fill="none" xmlns="http://www.w3.org/2000/svg"><path d="M26.912 22.312c.302.121.563.328.75.594.168.25.286.552.36.906.04.208.088.4.14.58.098.337.246.658.438.952.094.146.22.306.376.484.134.146.254.334.36.562.098.205.15.429.154.656a.98.98 0 01-.186.61c-.13.172-.29.32-.47.438-.24.166-.49.312-.75.438-.26.124-.52.254-.78.39-.389.185-.76.405-1.11.656-.312.23-.626.52-.938.876-.364.407-.785.76-1.25 1.046-.238.15-.496.267-.766.344a4.1 4.1 0 01-.78.14c-.604 0-1.104-.104-1.5-.312-.396-.208-.74-.588-1.032-1.14-.084-.158-.166-.256-.25-.298a1.546 1.546 0 00-.406-.11L17.69 30a20.73 20.73 0 00-1.592-.062c-.45 0-.9.037-1.344.108-.458.074-.912.162-1.36.266-.092.02-.186.1-.28.234a3.396 3.396 0 01-.392.454 2.212 2.212 0 01-.67.438 2.95 2.95 0 01-1.11.202c-.344 0-.714-.036-1.11-.108a3.64 3.64 0 01-1.062-.36 7.155 7.155 0 00-1.906-.656 40.825 40.825 0 00-1.984-.312 6.773 6.773 0 01-.688-.126 1.547 1.547 0 01-.58-.266 1.41 1.41 0 01-.388-.438 1.56 1.56 0 01-.158-.702c0-.324.042-.636.126-.938.084-.3.13-.62.14-.952 0-.23-.016-.454-.046-.672a7.056 7.056 0 01-.064-.704c0-.53.126-.92.376-1.172.25-.25.614-.448 1.094-.594a1.98 1.98 0 00.594-.296c.165-.125.321-.26.468-.406.149-.15.285-.311.406-.484.126-.178.266-.356.422-.532a.228.228 0 00.048-.14c0-.126-.006-.246-.016-.36l-.032-.376c0-.708.11-1.42.328-2.14.22-.72.506-1.42.86-2.11.353-.686.75-1.349 1.188-1.984.436-.634.87-1.224 1.296-1.766a8.698 8.698 0 001.36-2.406c.3-.832.458-1.74.468-2.72 0-.414-.02-.826-.062-1.232a12.278 12.278 0 01-.062-1.25c0-.834.094-1.584.28-2.25.188-.668.48-1.24.876-1.72S14.026.63 14.66.39c.638-.24 1.398-.37 2.282-.39 1.054 0 1.892.208 2.518.626a4.111 4.111 0 011.436 1.64c.334.676.548 1.432.64 2.266.096.832.148 1.676.158 2.53v.266c0 .428.004.808.016 1.14.018.675.172 1.34.452 1.954.146.322.364.672.656 1.046.5.658 1.012 1.32 1.532 1.986.52.666.994 1.354 1.42 2.06.428.71.778 1.45 1.048 2.22.272.772.412 1.604.422 2.5a6.598 6.598 0 01-.328 2.08v-.002zM13.804 6.032c.144 0 .264.036.36.108a.714.714 0 01.218.298c.05.12.086.246.108.374.02.126.032.256.032.392a.563.563 0 01-.048.25.539.539 0 01-.14.172l-.188.156c-.067.057-.13.119-.186.186a.855.855 0 01-.298.282c-.124.072-.244.15-.36.234-.11.08-.215.17-.312.266a.527.527 0 00-.14.39c0 .094.046.172.14.234.233.147.418.359.532.61.104.24.22.474.344.704.124.228.286.42.484.578.198.156.506.234.92.234h.096c.416-.02.812-.13 1.188-.328.374-.198.75-.406 1.124-.626.065-.037.133-.067.204-.092a.738.738 0 00.202-.11l1.14-.89a1.83 1.83 0 00.048-.204c.012-.073.023-.146.032-.22a.472.472 0 00-.08-.28.68.68 0 00-.452-.296 1.821 1.821 0 01-.28-.08 2.166 2.166 0 01-.704-.28 2.914 2.914 0 00-.688-.312c-.04-.012-.072-.042-.094-.094a1.97 1.97 0 01-.062-.188.46.46 0 01-.016-.204.252.252 0 00-.016-.156c0-.124.01-.254.032-.39.021-.138.069-.27.14-.39a.835.835 0 01.25-.28.822.822 0 01.406-.112c.324 0 .558.12.704.36.146.24.224.5.234.78a.793.793 0 01-.078.36.758.758 0 00-.08.344c0 .084.028.14.08.172a.52.52 0 00.204.062c.24 0 .394-.056.468-.17.084-.159.127-.336.124-.516 0-.24-.02-.506-.06-.798a2.641 2.641 0 00-.252-.812 1.937 1.937 0 00-.484-.626 1.148 1.148 0 00-.766-.248c-.54 0-.932.134-1.172.406-.24.27-.364.676-.374 1.218 0 .156.01.312.03.468.02.158.032.314.032.47 0 .052-.006.078-.016.078a.437.437 0 01-.094-.032 8.591 8.591 0 01-.186-.078 1.544 1.544 0 00-.236-.078 1.028 1.028 0 00-.406-.016c-.083.01-.167.016-.25.016-.146 0-.22-.026-.22-.078 0-.156-.008-.354-.03-.594-.02-.24-.072-.48-.156-.72a1.989 1.989 0 00-.312-.592c-.126-.156-.312-.24-.562-.25a.646.646 0 00-.454.172 1.814 1.814 0 00-.328.406 1.282 1.282 0 00-.172.532 11.97 11.97 0 01-.062.5c.008.276.055.55.14.812.052.166.11.312.172.438.062.124.136.186.22.186.05 0 .12-.036.202-.108.084-.074.126-.14.126-.204 0-.032-.016-.052-.048-.062a.294.294 0 00-.094-.016c-.072 0-.136-.036-.188-.11a.936.936 0 01-.124-.25 10.547 10.547 0 01-.094-.296 1.128 1.128 0 01.11-.796c.094-.168.266-.256.516-.266zM10.396 30.36c.25 0 .496-.02.736-.064a1.94 1.94 0 00.672-.25 1.23 1.23 0 00.468-.484 1.88 1.88 0 00.188-.75c0-.186-.032-.37-.094-.546a1.924 1.924 0 00-.266-.5 5.525 5.525 0 00-.406-.562 5.54 5.54 0 01-.406-.564c-.195-.286-.388-.573-.58-.86a20.35 20.35 0 01-.56-.89 16.287 16.287 0 01-.47-.812 5.29 5.29 0 00-.532-.796 2.406 2.406 0 00-.436-.422.938.938 0 00-.58-.188.872.872 0 00-.592.22 4.52 4.52 0 00-.516.53c-.184.216-.383.42-.594.61-.22.198-.5.354-.844.468-.233.062-.447.18-.624.344-.146.146-.22.37-.22.672 0 .208.016.416.048.624.03.208.052.418.062.626 0 .28-.04.546-.126.796-.08.236-.123.484-.124.734 0 .282.1.48.296.594.2.116.422.194.672.234.314.054.61.094.892.126.28.032.556.08.828.14.27.064.54.13.812.204.27.072.558.188.86.344.06.03.156.068.28.108l.422.14c.156.054.302.096.438.126.097.026.196.042.296.048zm5.72-1.876c.292 0 .604-.03.938-.094a7.078 7.078 0 001.952-.672 5.18 5.18 0 00.812-.514.445.445 0 00.064-.094.608.608 0 00.046-.126v-.016c.062-.228.114-.48.156-.75.043-.275.08-.551.11-.828.03-.277.067-.553.11-.828.04-.27.078-.536.108-.796.042-.28.094-.552.156-.812.064-.26.146-.506.25-.736a2.06 2.06 0 01.422-.608c.205-.198.437-.366.688-.5v-.032l-.016-.046a.58.58 0 01.094-.298 2.81 2.81 0 01.234-.328c.083-.105.184-.195.298-.266.104-.062.214-.115.328-.156a19.443 19.443 0 00-.204-.75 9.915 9.915 0 01-.188-.75c-.051-.32-.113-.637-.186-.952a5.896 5.896 0 00-.22-.72 2.6 2.6 0 00-.36-.64c-.154-.208-.348-.46-.576-.75a2.379 2.379 0 01-.236-.312 1.11 1.11 0 01-.092-.392 4.413 4.413 0 00-.094-.406 18.914 18.914 0 00-.484-1.5 5.803 5.803 0 00-.344-.766 7.717 7.717 0 00-.344-.578c-.104-.156-.214-.234-.328-.234-.25 0-.548.1-.892.298a37.59 37.59 0 00-1.092.656c-.386.24-.76.464-1.126.672-.364.208-.692.306-.984.296a1.4 1.4 0 01-.86-.296 4.478 4.478 0 01-.72-.688c-.218-.26-.4-.484-.546-.672-.146-.188-.254-.292-.328-.312-.082 0-.13.062-.14.186-.011.14-.017.281-.016.422v.266c0 .064-.01.104-.032.126-.114.24-.24.474-.374.702-.136.23-.27.464-.406.704-.27.461-.42.982-.438 1.516 0 .156.01.312.032.468.02.156.072.308.156.454l-.032.06c-.08.111-.17.216-.266.314-.099.1-.187.21-.264.328a5.593 5.593 0 00-.814 1.86 9.493 9.493 0 00-.25 2.03c0 .178.012.356.032.532.02.178.032.354.032.532a.992.992 0 01-.016.172 1.05 1.05 0 00-.016.172c.222.025.436.1.626.218.24.136.5.308.78.516.28.208.548.448.798.72.25.27.488.534.718.796.23.26.396.52.5.78.104.26.172.474.202.64a.887.887 0 01-.25.658 1.92 1.92 0 01-.624.406c.178.312.396.578.656.796.26.22.542.396.844.532.302.136.63.234.984.296.354.064.7.094 1.032.094zm6.266 2.22c.218 0 .432-.032.64-.094a3.3 3.3 0 00.89-.406c.272-.178.52-.396.75-.658a6.14 6.14 0 011.954-1.5l.516-.234c.177-.077.349-.166.514-.266.12-.076.23-.164.33-.264a.511.511 0 00.156-.376.59.59 0 00-.048-.234 1.16 1.16 0 00-.14-.234 10.312 10.312 0 01-.406-.61 3.959 3.959 0 01-.298-.594l-.25-.624a5.112 5.112 0 01-.22-.704.559.559 0 00-.108-.202 1.06 1.06 0 00-.92-.47c-.187 0-.37.048-.532.14l-.532.298c-.185.103-.373.201-.562.296-.184.093-.388.14-.594.14a.822.822 0 01-.516-.154 1.273 1.273 0 01-.344-.422 4.45 4.45 0 01-.234-.516l-.188-.516c-.081.134-.175.26-.28.376-.107.12-.192.257-.25.406-.136.312-.22.66-.25 1.046-.052.604-.12 1.192-.204 1.766a9.393 9.393 0 01-.42 1.72 3.827 3.827 0 00-.126.546 5.78 5.78 0 00-.064.578c0 .51.158.932.47 1.266.312.332.734.5 1.266.5z" fill="#636D85"/></svg>