<svg width="42" height="42" fill="none" xmlns="http://www.w3.org/2000/svg"><circle cx="21" cy="21" r="20.233" fill="#627FE3" fill-opacity=".15"/><circle cx="21" cy="21" r="20.233" stroke="#C4C4C4" stroke-width="1.534"/><circle cx="21" cy="21" r="20.233" stroke="url(#paint0_linear_5300_342)" stroke-width="1.534"/><g opacity=".1"><path d="M13.236 12.633h3.645l.321-2.466h1.93l.16 2.466h1.93v-2.466h1.93l.214 2.466h.697c4.974 1.972 3.287 5.896 1.822 7.61 5.574 2.895 1.93 9.273-.59 9.059l-2.25.214v2.359H21.06v-2.359h-1.876v2.359h-2.037v-2.359h-4.073v-3.001h1.93V15.58h-1.77v-2.948z" fill="#C4C4C4"/><path d="M13.236 12.633h3.645l.321-2.466h1.93l.16 2.466h1.93v-2.466h1.93l.214 2.466h.697c4.974 1.972 3.287 5.896 1.822 7.61 5.574 2.895 1.93 9.273-.59 9.059l-2.25.214v2.359H21.06v-2.359h-1.876v2.359h-2.037v-2.359h-4.073v-3.001h1.93V15.58h-1.77v-2.948z" fill="url(#paint1_linear_5300_342)"/></g><mask id="a" maskUnits="userSpaceOnUse" x="11.753" y="8.685" width="18" height="24" fill="#000"><path fill="#fff" d="M11.753 8.685h18v24h-18z"/><path fill-rule="evenodd" clip-rule="evenodd" d="M16.87 9.813c-.07.07-.13.182-.131.247-.001.066 0 .559.002 1.095l.004.976-1.86.015-1.86.015-.136.126-.136.126v3.404l.136.127c.13.121.168.127.997.143l.861.016v9.89l-.861.016c-.829.016-.867.021-.997.143l-.136.126v3.404l.136.127.135.126 1.86.015 1.861.015-.004.975c-.002.537-.003 1.03-.002 1.095.001.066.06.178.13.248l.13.128h1.18c1.171 0 1.18-.001 1.327-.126l.147-.126.016-1.099.016-1.099h1.044v1.097c0 1.095 0 1.097.129 1.225l.128.128h1.16c.696 0 1.201-.022 1.262-.054.225-.12.259-.3.259-1.37v-1.011l.634-.037c1.471-.086 2.187-.366 3.118-1.17.68-.588 1.317-1.656 1.593-2.672.126-.466.14-.603.142-1.478.003-.852-.01-1.018-.12-1.433-.386-1.457-.931-2.55-2.17-3.153l-.45-.218.23-.23c1.208-1.205 1.497-2.937.775-4.642-.572-1.35-1.865-2.392-3.344-2.696l-.408-.084V11.13c0-1.093-.033-1.271-.26-1.392-.06-.032-.565-.053-1.26-.053h-1.16l-.13.128c-.128.127-.128.13-.128 1.225v1.097h-1.044l-.016-1.1-.016-1.099-.147-.125c-.146-.125-.156-.126-1.327-.126h-1.18l-.13.128zm1.865 1.922v1.111l.135.127c.133.123.157.126 1.194.143.685.01 1.13-.004 1.26-.043.315-.093.35-.232.35-1.432v-1.018h1.049v1.112c0 1.367-.027 1.319.751 1.392.927.087 1.576.383 2.218 1.014.483.474.786.95 1 1.564.125.362.144.5.147 1.043.002.52-.018.683-.117.969a3.064 3.064 0 01-.749 1.175c-.108.11-.264.243-.419.363-.32.248-.84.409-.836.814.002.302.135.405.632.49.576.097.892.2 1.302.426.904.496 1.348 1.625 1.534 2.765.099.605.067 1.429-.078 1.997-.394 1.546-1.123 2.577-2.492 3.022-.478.155-.564.166-1.565.196-1.026.031-1.062.036-1.193.158l-.135.127v2.223h-1.05V30.45c0-1.188-.037-1.337-.36-1.432-.118-.034-.594-.05-1.25-.039-1.036.016-1.06.02-1.193.143l-.135.127v2.223h-1.049v-1.018c0-1.202-.035-1.341-.35-1.428-.123-.034-.868-.056-1.92-.056h-1.718v-1.98h.721c.898 0 1.097-.049 1.198-.289.112-.265.112-11.042 0-11.307-.1-.24-.3-.288-1.198-.288h-.721v-1.981h1.718c1.052 0 1.796-.022 1.92-.056.315-.087.35-.226.35-1.428v-1.018h1.049v1.112zm-.236 3.431c-.291.159-.286.124-.288 2.172v1.677a.519.519 0 00.522.521h1.289c1.59 0 1.885-.033 2.346-.267.927-.47 1.384-1.672 1.016-2.677-.304-.834-.91-1.306-1.833-1.43-.55-.075-2.914-.072-3.052.004zm3.36 1.053c.485.225.742.682.692 1.23-.034.377-.198.683-.464.867-.37.255-.514.277-1.765.28l-1.167.002v-2.501h1.22c1.169 0 1.23.005 1.484.122zm-3.492 5.5a.53.53 0 00-.157.375v2.159c0 1.532.02 2.415.054 2.48.132.243.247.257 2.143.257 2.134 0 2.45-.033 3.031-.314.925-.447 1.434-1.308 1.435-2.426.002-1.196-.628-2.112-1.748-2.545-.253-.098-.419-.106-2.436-.124l-1.945-.016a.529.529 0 00-.377.153zm4.626.96c.343.166.637.466.798.812.091.196.112.34.112.762 0 .649-.116.941-.522 1.323-.434.407-.53.424-2.53.424h-1.696v-3.5l1.77.016 1.771.016.297.145z"/></mask><path fill-rule="evenodd" clip-rule="evenodd" d="M16.87 9.813c-.07.07-.13.182-.131.247-.001.066 0 .559.002 1.095l.004.976-1.86.015-1.86.015-.136.126-.136.126v3.404l.136.127c.13.121.168.127.997.143l.861.016v9.89l-.861.016c-.829.016-.867.021-.997.143l-.136.126v3.404l.136.127.135.126 1.86.015 1.861.015-.004.975c-.002.537-.003 1.03-.002 1.095.001.066.06.178.13.248l.13.128h1.18c1.171 0 1.18-.001 1.327-.126l.147-.126.016-1.099.016-1.099h1.044v1.097c0 1.095 0 1.097.129 1.225l.128.128h1.16c.696 0 1.201-.022 1.262-.054.225-.12.259-.3.259-1.37v-1.011l.634-.037c1.471-.086 2.187-.366 3.118-1.17.68-.588 1.317-1.656 1.593-2.672.126-.466.14-.603.142-1.478.003-.852-.01-1.018-.12-1.433-.386-1.457-.931-2.55-2.17-3.153l-.45-.218.23-.23c1.208-1.205 1.497-2.937.775-4.642-.572-1.35-1.865-2.392-3.344-2.696l-.408-.084V11.13c0-1.093-.033-1.271-.26-1.392-.06-.032-.565-.053-1.26-.053h-1.16l-.13.128c-.128.127-.128.13-.128 1.225v1.097h-1.044l-.016-1.1-.016-1.099-.147-.125c-.146-.125-.156-.126-1.327-.126h-1.18l-.13.128zm1.865 1.922v1.111l.135.127c.133.123.157.126 1.194.143.685.01 1.13-.004 1.26-.043.315-.093.35-.232.35-1.432v-1.018h1.049v1.112c0 1.367-.027 1.319.751 1.392.927.087 1.576.383 2.218 1.014.483.474.786.95 1 1.564.125.362.144.5.147 1.043.002.52-.018.683-.117.969a3.064 3.064 0 01-.749 1.175c-.108.11-.264.243-.419.363-.32.248-.84.409-.836.814.002.302.135.405.632.49.576.097.892.2 1.302.426.904.496 1.348 1.625 1.534 2.765.099.605.067 1.429-.078 1.997-.394 1.546-1.123 2.577-2.492 3.022-.478.155-.564.166-1.565.196-1.026.031-1.062.036-1.193.158l-.135.127v2.223h-1.05V30.45c0-1.188-.037-1.337-.36-1.432-.118-.034-.594-.05-1.25-.039-1.036.016-1.06.02-1.193.143l-.135.127v2.223h-1.049v-1.018c0-1.202-.035-1.341-.35-1.428-.123-.034-.868-.056-1.92-.056h-1.718v-1.98h.721c.898 0 1.097-.049 1.198-.289.112-.265.112-11.042 0-11.307-.1-.24-.3-.288-1.198-.288h-.721v-1.981h1.718c1.052 0 1.796-.022 1.92-.056.315-.087.35-.226.35-1.428v-1.018h1.049v1.112zm-.236 3.431c-.291.159-.286.124-.288 2.172v1.677a.519.519 0 00.522.521h1.289c1.59 0 1.885-.033 2.346-.267.927-.47 1.384-1.672 1.016-2.677-.304-.834-.91-1.306-1.833-1.43-.55-.075-2.914-.072-3.052.004zm3.36 1.053c.485.225.742.682.692 1.23-.034.377-.198.683-.464.867-.37.255-.514.277-1.765.28l-1.167.002v-2.501h1.22c1.169 0 1.23.005 1.484.122zm-3.492 5.5a.53.53 0 00-.157.375v2.159c0 1.532.02 2.415.054 2.48.132.243.247.257 2.143.257 2.134 0 2.45-.033 3.031-.314.925-.447 1.434-1.308 1.435-2.426.002-1.196-.628-2.112-1.748-2.545-.253-.098-.419-.106-2.436-.124l-1.945-.016a.529.529 0 00-.377.153zm4.626.96c.343.166.637.466.798.812.091.196.112.34.112.762 0 .649-.116.941-.522 1.323-.434.407-.53.424-2.53.424h-1.696v-3.5l1.77.016 1.771.016.297.145z" fill="#C4C4C4"/><path fill-rule="evenodd" clip-rule="evenodd" d="M16.87 9.813c-.07.07-.13.182-.131.247-.001.066 0 .559.002 1.095l.004.976-1.86.015-1.86.015-.136.126-.136.126v3.404l.136.127c.13.121.168.127.997.143l.861.016v9.89l-.861.016c-.829.016-.867.021-.997.143l-.136.126v3.404l.136.127.135.126 1.86.015 1.861.015-.004.975c-.002.537-.003 1.03-.002 1.095.001.066.06.178.13.248l.13.128h1.18c1.171 0 1.18-.001 1.327-.126l.147-.126.016-1.099.016-1.099h1.044v1.097c0 1.095 0 1.097.129 1.225l.128.128h1.16c.696 0 1.201-.022 1.262-.054.225-.12.259-.3.259-1.37v-1.011l.634-.037c1.471-.086 2.187-.366 3.118-1.17.68-.588 1.317-1.656 1.593-2.672.126-.466.14-.603.142-1.478.003-.852-.01-1.018-.12-1.433-.386-1.457-.931-2.55-2.17-3.153l-.45-.218.23-.23c1.208-1.205 1.497-2.937.775-4.642-.572-1.35-1.865-2.392-3.344-2.696l-.408-.084V11.13c0-1.093-.033-1.271-.26-1.392-.06-.032-.565-.053-1.26-.053h-1.16l-.13.128c-.128.127-.128.13-.128 1.225v1.097h-1.044l-.016-1.1-.016-1.099-.147-.125c-.146-.125-.156-.126-1.327-.126h-1.18l-.13.128zm1.865 1.922v1.111l.135.127c.133.123.157.126 1.194.143.685.01 1.13-.004 1.26-.043.315-.093.35-.232.35-1.432v-1.018h1.049v1.112c0 1.367-.027 1.319.751 1.392.927.087 1.576.383 2.218 1.014.483.474.786.95 1 1.564.125.362.144.5.147 1.043.002.52-.018.683-.117.969a3.064 3.064 0 01-.749 1.175c-.108.11-.264.243-.419.363-.32.248-.84.409-.836.814.002.302.135.405.632.49.576.097.892.2 1.302.426.904.496 1.348 1.625 1.534 2.765.099.605.067 1.429-.078 1.997-.394 1.546-1.123 2.577-2.492 3.022-.478.155-.564.166-1.565.196-1.026.031-1.062.036-1.193.158l-.135.127v2.223h-1.05V30.45c0-1.188-.037-1.337-.36-1.432-.118-.034-.594-.05-1.25-.039-1.036.016-1.06.02-1.193.143l-.135.127v2.223h-1.049v-1.018c0-1.202-.035-1.341-.35-1.428-.123-.034-.868-.056-1.92-.056h-1.718v-1.98h.721c.898 0 1.097-.049 1.198-.289.112-.265.112-11.042 0-11.307-.1-.24-.3-.288-1.198-.288h-.721v-1.981h1.718c1.052 0 1.796-.022 1.92-.056.315-.087.35-.226.35-1.428v-1.018h1.049v1.112zm-.236 3.431c-.291.159-.286.124-.288 2.172v1.677a.519.519 0 00.522.521h1.289c1.59 0 1.885-.033 2.346-.267.927-.47 1.384-1.672 1.016-2.677-.304-.834-.91-1.306-1.833-1.43-.55-.075-2.914-.072-3.052.004zm3.36 1.053c.485.225.742.682.692 1.23-.034.377-.198.683-.464.867-.37.255-.514.277-1.765.28l-1.167.002v-2.501h1.22c1.169 0 1.23.005 1.484.122zm-3.492 5.5a.53.53 0 00-.157.375v2.159c0 1.532.02 2.415.054 2.48.132.243.247.257 2.143.257 2.134 0 2.45-.033 3.031-.314.925-.447 1.434-1.308 1.435-2.426.002-1.196-.628-2.112-1.748-2.545-.253-.098-.419-.106-2.436-.124l-1.945-.016a.529.529 0 00-.377.153zm4.626.96c.343.166.637.466.798.812.091.196.112.34.112.762 0 .649-.116.941-.522 1.323-.434.407-.53.424-2.53.424h-1.696v-3.5l1.77.016 1.771.016.297.145z" fill="url(#paint2_linear_5300_342)"/><path clip-rule="evenodd" d="M16.87 9.813c-.07.07-.13.182-.131.247-.001.066 0 .559.002 1.095l.004.976-1.86.015-1.86.015-.136.126-.136.126v3.404l.136.127c.13.121.168.127.997.143l.861.016v9.89l-.861.016c-.829.016-.867.021-.997.143l-.136.126v3.404l.136.127.135.126 1.86.015 1.861.015-.004.975c-.002.537-.003 1.03-.002 1.095.001.066.06.178.13.248l.13.128h1.18c1.171 0 1.18-.001 1.327-.126l.147-.126.016-1.099.016-1.099h1.044v1.097c0 1.095 0 1.097.129 1.225l.128.128h1.16c.696 0 1.201-.022 1.262-.054.225-.12.259-.3.259-1.37v-1.011l.634-.037c1.471-.086 2.187-.366 3.118-1.17.68-.588 1.317-1.656 1.593-2.672.126-.466.14-.603.142-1.478.003-.852-.01-1.018-.12-1.433-.386-1.457-.931-2.55-2.17-3.153l-.45-.218.23-.23c1.208-1.205 1.497-2.937.775-4.642-.572-1.35-1.865-2.392-3.344-2.696l-.408-.084V11.13c0-1.093-.033-1.271-.26-1.392-.06-.032-.565-.053-1.26-.053h-1.16l-.13.128c-.128.127-.128.13-.128 1.225v1.097h-1.044l-.016-1.1-.016-1.099-.147-.125c-.146-.125-.156-.126-1.327-.126h-1.18l-.13.128zm1.865 1.922v1.111l.135.127c.133.123.157.126 1.194.143.685.01 1.13-.004 1.26-.043.315-.093.35-.232.35-1.432v-1.018h1.049v1.112c0 1.367-.027 1.319.751 1.392.927.087 1.576.383 2.218 1.014.483.474.786.95 1 1.564.125.362.144.5.147 1.043.002.52-.018.683-.117.969a3.064 3.064 0 01-.749 1.175c-.108.11-.264.243-.419.363-.32.248-.84.409-.836.814.002.302.135.405.632.49.576.097.892.2 1.302.426.904.496 1.348 1.625 1.534 2.765.099.605.067 1.429-.078 1.997-.394 1.546-1.123 2.577-2.492 3.022-.478.155-.564.166-1.565.196-1.026.031-1.062.036-1.193.158l-.135.127v2.223h-1.05V30.45c0-1.188-.037-1.337-.36-1.432-.118-.034-.594-.05-1.25-.039-1.036.016-1.06.02-1.193.143l-.135.127v2.223h-1.049v-1.018c0-1.202-.035-1.341-.35-1.428-.123-.034-.868-.056-1.92-.056h-1.718v-1.98h.721c.898 0 1.097-.049 1.198-.289.112-.265.112-11.042 0-11.307-.1-.24-.3-.288-1.198-.288h-.721v-1.981h1.718c1.052 0 1.796-.022 1.92-.056.315-.087.35-.226.35-1.428v-1.018h1.049v1.112zm-.236 3.431c-.291.159-.286.124-.288 2.172v1.677a.519.519 0 00.522.521h1.289c1.59 0 1.885-.033 2.346-.267.927-.47 1.384-1.672 1.016-2.677-.304-.834-.91-1.306-1.833-1.43-.55-.075-2.914-.072-3.052.004zm3.36 1.053c.485.225.742.682.692 1.23-.034.377-.198.683-.464.867-.37.255-.514.277-1.765.28l-1.167.002v-2.501h1.22c1.169 0 1.23.005 1.484.122zm-3.492 5.5a.53.53 0 00-.157.375v2.159c0 1.532.02 2.415.054 2.48.132.243.247.257 2.143.257 2.134 0 2.45-.033 3.031-.314.925-.447 1.434-1.308 1.435-2.426.002-1.196-.628-2.112-1.748-2.545-.253-.098-.419-.106-2.436-.124l-1.945-.016a.529.529 0 00-.377.153zm4.626.96c.343.166.637.466.798.812.091.196.112.34.112.762 0 .649-.116.941-.522 1.323-.434.407-.53.424-2.53.424h-1.696v-3.5l1.77.016 1.771.016.297.145z" stroke="#fff" stroke-width=".429" mask="url(#a)"/><defs><linearGradient id="paint0_linear_5300_342" x1="5.753" y1="7.199" x2="37.347" y2="36.498" gradientUnits="userSpaceOnUse"><stop stop-color="#00FFA3" stop-opacity=".6"/><stop offset="1" stop-color="#4B48F1"/></linearGradient><linearGradient id="paint1_linear_5300_342" x1="15.231" y1="13.888" x2="30.396" y2="24.085" gradientUnits="userSpaceOnUse"><stop stop-color="#00FFA3" stop-opacity=".6"/><stop offset="1" stop-color="#4B48F1"/></linearGradient><linearGradient id="paint2_linear_5300_342" x1="15" y1="13.58" x2="30.849" y2="24.188" gradientUnits="userSpaceOnUse"><stop stop-color="#00FFA3" stop-opacity=".6"/><stop offset="1" stop-color="#4B48F1"/></linearGradient></defs></svg>