<svg width="24" height="24" fill="none" xmlns="http://www.w3.org/2000/svg"><path d="M6.086 4.793L1.793 9.085a2.707 2.707 0 000 3.83l4.293 4.292a2.706 2.706 0 003.828 0l4.293-4.292a2.708 2.708 0 000-3.83L9.914 4.793a2.707 2.707 0 00-3.828 0z" fill="#fff"/><path d="M14.177 17.207L13 16.02l2.124-2.147c.374-.377.67-.825.872-1.317a4.097 4.097 0 00-.872-4.426L13 5.984l1.177-1.191A2.665 2.665 0 0116.072 4c.71 0 1.391.285 1.894.793l4.249 4.293A2.709 2.709 0 0123 11.001a2.732 2.732 0 01-.785 1.914l-4.25 4.292a2.665 2.665 0 01-1.893.793c-.71 0-1.392-.285-1.895-.793z" fill="#fff"/></svg>