<svg width="44" height="43" fill="none" xmlns="http://www.w3.org/2000/svg"><path d="M26.023 2.268c.31-.107.645-.107.954 0L41.56 7.309a1.458 1.458 0 01.01 2.753L26.987 15.23a1.459 1.459 0 01-.974 0L11.43 10.062a1.458 1.458 0 01.01-2.753l14.583-5.041z" fill="#C4C4C4"/><path d="M26.023 2.268c.31-.107.645-.107.954 0L41.56 7.309a1.458 1.458 0 01.01 2.753L26.987 15.23a1.459 1.459 0 01-.974 0L11.43 10.062a1.458 1.458 0 01.01-2.753l14.583-5.041z" fill="url(#paint0_linear_228_3155)"/><path d="M12.399 13.207a1.458 1.458 0 10-.964 2.752l14.583 5.105c.312.109.652.109.964 0l14.583-5.104a1.458 1.458 0 00-.963-2.753L26.5 18.142l-14.1-4.935z" fill="#C4C4C4"/><path d="M12.399 13.207a1.458 1.458 0 10-.964 2.752l14.583 5.105c.312.109.652.109.964 0l14.583-5.104a1.458 1.458 0 00-.963-2.753L26.5 18.142l-14.1-4.935z" fill="url(#paint1_linear_228_3155)"/><path d="M12.399 19.04a1.458 1.458 0 10-.964 2.753l14.583 5.104c.312.11.652.11.964 0l14.583-5.104a1.458 1.458 0 00-.963-2.753L26.5 23.975 12.4 19.04z" fill="#C4C4C4"/><path d="M12.399 19.04a1.458 1.458 0 10-.964 2.753l14.583 5.104c.312.11.652.11.964 0l14.583-5.104a1.458 1.458 0 00-.963-2.753L26.5 23.975 12.4 19.04z" fill="url(#paint2_linear_228_3155)"/><path d="M10.54 25.768a1.458 1.458 0 011.859-.895L26.5 29.81l14.102-4.936a1.458 1.458 0 01.963 2.753L26.982 32.73a1.45 1.45 0 01-.964 0l-14.583-5.104a1.458 1.458 0 01-.895-1.858z" fill="#C4C4C4"/><path d="M10.54 25.768a1.458 1.458 0 011.859-.895L26.5 29.81l14.102-4.936a1.458 1.458 0 01.963 2.753L26.982 32.73a1.45 1.45 0 01-.964 0l-14.583-5.104a1.458 1.458 0 01-.895-1.858z" fill="url(#paint3_linear_228_3155)"/><g filter="url(#filter0_b_228_3155)"><circle cx="10" cy="33" r="10" fill="#fff" fill-opacity=".1"/><circle cx="10" cy="33" r="9.85" stroke="url(#paint4_linear_228_3155)" stroke-width=".3"/></g><path d="M14.165 31.71a.428.428 0 00-.37-.289l-2.437-.194-1.054-2.333a.427.427 0 00-.779 0l-1.054 2.333-2.437.194a.427.427 0 00-.264.732l1.8 1.755-.636 2.758a.427.427 0 00.653.451l2.327-1.551 2.327 1.551a.428.428 0 00.649-.472l-.782-2.736 1.938-1.744a.428.428 0 00.12-.455z" fill="#fff"/><defs><linearGradient id="paint0_linear_228_3155" x1="14.853" y1="7.437" x2="37.946" y2="29.873" gradientUnits="userSpaceOnUse"><stop stop-color="#00FFA3" stop-opacity=".6"/><stop offset="1" stop-color="#4B48F1"/></linearGradient><linearGradient id="paint1_linear_228_3155" x1="14.853" y1="7.437" x2="37.946" y2="29.873" gradientUnits="userSpaceOnUse"><stop stop-color="#00FFA3" stop-opacity=".6"/><stop offset="1" stop-color="#4B48F1"/></linearGradient><linearGradient id="paint2_linear_228_3155" x1="14.853" y1="7.437" x2="37.946" y2="29.873" gradientUnits="userSpaceOnUse"><stop stop-color="#00FFA3" stop-opacity=".6"/><stop offset="1" stop-color="#4B48F1"/></linearGradient><linearGradient id="paint3_linear_228_3155" x1="14.853" y1="7.437" x2="37.946" y2="29.873" gradientUnits="userSpaceOnUse"><stop stop-color="#00FFA3" stop-opacity=".6"/><stop offset="1" stop-color="#4B48F1"/></linearGradient><linearGradient id="paint4_linear_228_3155" x1="10" y1="23" x2="10" y2="43" gradientUnits="userSpaceOnUse"><stop stop-color="#fff" stop-opacity=".46"/><stop offset="1" stop-color="#fff" stop-opacity="0"/></linearGradient><filter id="filter0_b_228_3155" x="-5" y="18" width="30" height="30" filterUnits="userSpaceOnUse" color-interpolation-filters="sRGB"><feFlood flood-opacity="0" result="BackgroundImageFix"/><feGaussianBlur in="BackgroundImageFix" stdDeviation="2.5"/><feComposite in2="SourceAlpha" operator="in" result="effect1_backgroundBlur_228_3155"/><feBlend in="SourceGraphic" in2="effect1_backgroundBlur_228_3155" result="shape"/></filter></defs></svg>