<svg width="24" height="24" fill="none" xmlns="http://www.w3.org/2000/svg"><path fill-rule="evenodd" clip-rule="evenodd" d="M12 1C5.925 1 1 5.925 1 12s4.925 11 11 11 11-4.925 11-11S18.075 1 12 1zm2.5 7.086L9.709 3.294A9.014 9.014 0 0112 3c.871 0 1.714.124 2.51.355-.006.047-.01.096-.01.145v4.586zM7.686 4.1l3.4 3.4H4.204a9.043 9.043 0 013.482-3.4zm12.386 3.914L16.5 11.586V4.204a9.04 9.04 0 013.572 3.81zM16.413 14.5l4.388-4.388a9.037 9.037 0 01-.154 4.388h-4.234zm-3.5 2h6.882a9.044 9.044 0 01-3.481 3.4l-3.4-3.4zM9.5 15.914l4.792 4.792c-.732.192-1.5.294-2.292.294a9.002 9.002 0 01-2.5-.352v-4.734zm-2-3v6.882a9.043 9.043 0 01-3.4-3.482l3.4-3.4zM8.086 9.5l-4.792 4.791A9.014 9.014 0 013 12c0-.871.124-1.714.355-2.51.047.006.096.01.145.01h4.586z" fill="#fff"/></svg>