<svg width="24" height="24" fill="none" xmlns="http://www.w3.org/2000/svg"><path d="M12.17 1.5l.168.002.668.012.33.01.65.03.636.041c.315.024.625.052.928.084l.598.07c.197.026.39.053.582.082l.562.093.543.104C20.945 2.665 23 3.858 23 5.5c0 .882-.594 1.635-1.626 2.242C22.413 8.332 23 9.075 23 10c0 .882-.594 1.635-1.626 2.242C22.413 12.832 23 13.575 23 14.5c0 .882-.594 1.635-1.626 2.242C22.413 17.332 23 18.075 23 19c0 1.735-2.297 2.97-5.708 3.576l-.563.093c-.19.029-.384.056-.58.081l-.599.07c-.303.033-.613.061-.928.085l-.636.041-.65.03c-.11.004-.22.008-.33.01l-.668.012L12 23l-.338-.002-.668-.012a35.17 35.17 0 01-.33-.01l-.65-.03-.636-.041a30.113 30.113 0 01-.928-.084l-.598-.07a26.779 26.779 0 01-.293-.04l-.572-.087C3.423 22.037 1 20.782 1 19c0-.925.587-1.667 1.626-2.26C1.594 16.136 1 15.383 1 14.5c0-.925.587-1.667 1.626-2.26C1.594 11.636 1 10.883 1 10c0-.925.587-1.667 1.626-2.26C1.594 7.136 1 6.383 1 5.5c0-1.641 2.055-2.835 5.165-3.472l.543-.104c.092-.017.185-.032.279-.048l.572-.087.293-.04.598-.07c.303-.032.613-.06.928-.084l.636-.041.65-.03.33-.01.668-.012L12 1.5c.113 0 .226 0 .338.002l-.169-.002zm6.459 16.291l-.148.037c-.378.092-.775.175-1.189.248l-.563.093c-.19.029-.384.056-.58.081l-.599.07c-.303.033-.613.061-.928.085l-.636.041-.65.03c-.11.004-.22.008-.33.01l-.668.012L12 18.5l-.338-.002-.668-.012a35.17 35.17 0 01-.33-.01l-.65-.03-.636-.041a30.113 30.113 0 01-.928-.084l-.598-.07a26.779 26.779 0 01-.293-.04l-.572-.087a19.87 19.87 0 01-1.615-.332l.27-.075c-.95.251-1.7.553-2.182.866-.345.225-.46.38-.46.417 0 .204.276.438.773.671l.266.117c.095.04.195.078.301.116l.335.115c.117.038.24.075.367.112l.397.109c.068.018.138.036.21.053l.439.103c.15.033.306.066.466.097l.49.091.515.085.266.04.546.072.565.063.584.054c.197.016.397.03.6.044l.614.031.627.02a29.987 29.987 0 001.278 0l.627-.02.615-.031c.202-.013.402-.028.6-.044l.583-.054.565-.063.546-.073.526-.08.254-.044.491-.091.236-.048.453-.1c.147-.034.289-.07.426-.105l.397-.109c.064-.018.127-.037.188-.056l.35-.113c.168-.057.323-.115.465-.174l.266-.117c.497-.233.773-.467.773-.671 0-.037-.115-.192-.46-.417-.435-.283-1.089-.556-1.911-.792zm0-4.5l-.162.04c-.459.112-.945.209-1.454.293l-.572.087-.293.04-.598.07c-.303.032-.613.06-.928.084l-.636.041-.65.03-.33.01-.668.012L12 14c-.113 0-.226 0-.338-.002l-.668-.011a35.17 35.17 0 01-.33-.011l-.65-.03-.636-.041a30.113 30.113 0 01-.928-.084l-.598-.07c-.197-.026-.39-.053-.581-.082l-.563-.093a19.362 19.362 0 01-1.336-.284l.27-.075c-.95.251-1.7.553-2.182.866-.345.225-.46.38-.46.417 0 .204.276.438.773.671l.266.117c.095.04.195.078.301.116l.335.115c.117.038.24.075.367.112l.397.109.08.019c.072.01.143.027.21.052l.359.085c.15.033.306.065.466.097l.49.091.515.085.266.04.546.072.565.063.584.054c.197.016.397.03.6.044l.614.031.627.02a29.987 29.987 0 001.278 0l.627-.02.615-.031c.202-.013.402-.028.6-.044l.583-.054.565-.063.546-.073.526-.08.254-.044.491-.091.236-.048.453-.1.133-.033a.995.995 0 01.215-.054.89.89 0 00.078-.018l.397-.109c.064-.018.127-.037.188-.056l.35-.113c.168-.057.323-.115.465-.174l.266-.117c.497-.233.773-.467.773-.671 0-.037-.115-.192-.46-.417-.435-.283-1.089-.556-1.911-.792zM12 3.5l-.32.002c-.107 0-.213.003-.319.005l-.627.02-.615.032a30.05 30.05 0 00-.6.043l-.583.054-.565.063-.546.073-.266.04-.514.084-.491.091a21 21 0 00-.466.097l-.44.103-.21.053-.396.109c-.128.037-.25.074-.367.112l-.335.115a7.747 7.747 0 00-.301.116l-.266.117C3.276 5.063 3 5.296 3 5.5c0 .204.276.437.773.671l.266.117c.142.059.297.117.464.174l.351.113c.062.02.124.038.188.056l.397.109.069.018c.045.005.09.014.133.025.205.054.417.106.635.154l.042.008.236.048.49.091c.085.015.17.03.255.043l.526.081.546.073.565.063.584.054c.197.016.397.03.6.043l.614.032.618.02h.018l.243.005L12 7.5c.217 0 .433-.002.648-.006l.618-.02.615-.033c.202-.012.402-.027.6-.043l.583-.054.565-.063.546-.073.266-.04.514-.084.491-.091c.16-.031.315-.064.466-.097l.069-.018.378-.095a.961.961 0 01.132-.025l.07-.018.397-.109c.128-.037.25-.074.367-.112l.335-.115c.106-.038.206-.077.301-.116l.266-.117c.497-.234.773-.467.773-.671 0-.204-.276-.437-.773-.671l-.266-.117a8.29 8.29 0 00-.464-.174l-.351-.113a13.102 13.102 0 00-.188-.056l-.397-.109a19.07 19.07 0 00-.426-.105l-.453-.1-.236-.048-.49-.091a24.658 24.658 0 00-.255-.043l-.526-.081-.546-.073-.565-.063-.584-.054c-.197-.016-.397-.03-.6-.043l-.614-.032-.627-.02A30.187 30.187 0 0012 3.5z" fill="#fff"/></svg>