<svg width="71" height="21" fill="none" xmlns="http://www.w3.org/2000/svg"><g clip-path="url(#clip0_2_3688)" fill="#fff"><path d="M9.137 6.918c-.37.185-.679.37-.926.68a3.133 3.133 0 00-.555.987 3.59 3.59 0 00-.186 1.174v7.659a.133.133 0 01-.123.123H4.322a.133.133 0 01-.124-.123V4.015c0-.062.062-.124.124-.124h2.593c.123 0 .247.062.247.186l.247.803c.061.123.123.123.247.061a5.084 5.084 0 011.358-.988c.494-.247 1.05-.309 1.667-.309h1.482c.185-.062.185 0 .185.062v2.841a.133.133 0 01-.124.124h-1.728c-.556 0-.988.123-1.359.247zM26.3 10.685c0 1.05-.123 2.038-.431 2.903-.309.865-.741 1.606-1.358 2.224-.556.617-1.297 1.112-2.1 1.482-.864.37-1.79.494-2.84.494-1.05 0-2.037-.185-2.84-.494-.802-.37-1.543-.803-2.099-1.482-.556-.618-.988-1.36-1.296-2.224-.309-.864-.433-1.853-.433-2.903s.124-2.038.433-2.903A5.601 5.601 0 0114.57 5.56a5.506 5.506 0 012.1-1.42c.802-.371 1.79-.495 2.84-.495 1.05 0 1.975.185 2.84.494.864.37 1.543.803 2.099 1.483.555.617 1.05 1.358 1.358 2.285.309.803.494 1.73.494 2.78zm-3.271 0c0-1.297-.309-2.285-.865-3.026-.617-.741-1.481-1.112-2.593-1.112-1.111 0-1.975.37-2.593 1.112-.617.74-.864 1.73-.864 3.026 0 1.297.309 2.285.864 3.027.618.74 1.42 1.111 2.593 1.111s2.038-.37 2.593-1.111c.556-.742.865-1.73.865-3.027zm13.706-6.609c.062-.123.123-.185.247-.185h3.087c.123 0 .185.062.123.185l-4.445 13.342c-.062.061-.062.123-.185.123h-4.384c-.061 0-.123-.062-.185-.123L26.486 4.076c0-.061-.062-.123 0-.123.062-.062.062-.062.124-.062h3.087c.061 0 .123.062.185.185l3.272 10.439c0 .061.062.123.123.123a.133.133 0 00.124-.123l3.334-10.439zm13.212 12.168c-.37.37-.864.741-1.605 1.05-.68.37-1.605.494-2.655.494a9.125 9.125 0 01-2.408-.309c-.679-.247-1.235-.556-1.667-.926-.432-.37-.74-.865-.988-1.359-.247-.556-.308-1.112-.308-1.73 0-.555.123-1.111.37-1.667a3.872 3.872 0 011.05-1.42c.494-.433 1.173-.742 1.914-.989.74-.247 1.605-.37 2.593-.37h2.531c.247 0 .494-.062.617-.186a.561.561 0 00.186-.432c0-.124 0-.309-.062-.556a1.281 1.281 0 00-.37-.618c-.186-.185-.495-.37-.865-.556a5.03 5.03 0 00-1.543-.247c-.494 0-.927.062-1.297.124-.309.123-.617.247-.803.37-.185.186-.37.371-.432.556-.123.248-.185.433-.185.68a.133.133 0 01-.123.123h-2.964a.133.133 0 01-.123-.123c0-.803.185-1.483.493-2.1A3.774 3.774 0 0142.6 4.57a6.037 6.037 0 011.914-.865c.74-.185 1.482-.309 2.284-.309 1.852 0 3.396.432 4.445 1.297 1.112.865 1.667 2.162 1.667 3.83v5.25c0 .247.062.494.247.617.186.124.433.247.68.247h.432c.062 0 .123.062.123.124v2.409a.133.133 0 01-.123.123H52.91c-.68 0-1.235-.123-1.668-.37a2.859 2.859 0 01-.987-.927c-.124.185-.185.185-.309.247zm-4.26-1.42c.68 0 1.297-.062 1.79-.248a4.622 4.622 0 001.235-.679c.309-.309.556-.618.68-.927.123-.37.246-.679.246-1.05a.133.133 0 00-.123-.123h-3.087c-.617 0-1.05.062-1.42.185-.37.124-.68.247-.864.433-.186.185-.37.37-.433.556-.061.185-.123.37-.123.555 0 .124.062.31.123.433.062.185.186.309.31.432.184.124.37.247.678.309.247.123.556.123.988.123zM61.616 3.582c1.728 0 3.148.433 4.26 1.297 1.11.865 1.79 2.039 2.037 3.46 0 .06 0 .123-.123.123h-3.087c-.062 0-.124-.062-.186-.124-.247-.617-.555-1.05-1.05-1.42-.431-.31-1.11-.495-1.913-.495-.556 0-1.05.124-1.482.31-.432.246-.74.493-1.05.864-.308.37-.493.803-.617 1.359a7.265 7.265 0 00-.185 1.668c0 .617.062 1.173.185 1.667.124.494.37.988.618 1.359.308.37.617.68 1.05.865.431.247.925.308 1.48.308.927 0 1.544-.185 1.977-.494.432-.309.74-.803.987-1.42.062-.062.124-.124.186-.124h3.087c.123 0 .123.062.123.124-.309 1.544-.988 2.717-2.1 3.52-1.11.803-2.53 1.236-4.26 1.236-1.049 0-2.036-.186-2.84-.494-.802-.371-1.48-.803-2.037-1.483-.555-.618-.987-1.359-1.296-2.223-.309-.865-.432-1.853-.432-2.903s.123-2.039.432-2.903c.309-.865.74-1.606 1.296-2.224a5.286 5.286 0 012.038-1.42c.926-.247 1.852-.433 2.902-.433z"/></g><defs><clipPath id="clip0_2_3688"><path fill="#fff" d="M0 0h71v21H0z"/></clipPath></defs></svg>