<svg width="67" height="62" fill="none" xmlns="http://www.w3.org/2000/svg"><path fill-rule="evenodd" clip-rule="evenodd" d="M38.507 7.222L19.5 12.77v11.014A28.882 28.882 0 0037.884 50.69l.618.23.62-.23A28.877 28.877 0 0057.49 24.52l.009-.73V12.77L38.507 7.222zM46.813 28.5a2.375 2.375 0 01.276 4.734l-.276.016h-10.89l1.881 1.883a2.375 2.375 0 01-3.135 3.556l-.223-.197-5.938-5.938a2.408 2.408 0 01-.526-.797 2.329 2.329 0 01-.17-.836v-.046a2.386 2.386 0 01.347-1.237 2.5 2.5 0 01.12-.177l.014-.02.025-.031a2.383 2.383 0 011.592-.894l.066-.007c.056-.005.112-.008.168-.009h16.669zM42.33 15.935l.223.198 5.938 5.938a2.408 2.408 0 01.526.797 2.329 2.329 0 01.17.882 2.386 2.386 0 01-.347 1.237 2.5 2.5 0 01-.399.49 2.396 2.396 0 01-.89.53 2.463 2.463 0 01-.462.102l-.075.007a2.423 2.423 0 01-.123.008l-.08.001H30.189a2.375 2.375 0 01-.277-4.734l.276-.016h10.89l-1.881-1.883a2.375 2.375 0 013.135-3.557z" fill="#C4C4C4"/><path fill-rule="evenodd" clip-rule="evenodd" d="M38.507 7.222L19.5 12.77v11.014A28.882 28.882 0 0037.884 50.69l.618.23.62-.23A28.877 28.877 0 0057.49 24.52l.009-.73V12.77L38.507 7.222zM46.813 28.5a2.375 2.375 0 01.276 4.734l-.276.016h-10.89l1.881 1.883a2.375 2.375 0 01-3.135 3.556l-.223-.197-5.938-5.938a2.408 2.408 0 01-.526-.797 2.329 2.329 0 01-.17-.836v-.046a2.386 2.386 0 01.347-1.237 2.5 2.5 0 01.12-.177l.014-.02.025-.031a2.383 2.383 0 011.592-.894l.066-.007c.056-.005.112-.008.168-.009h16.669zM42.33 15.935l.223.198 5.938 5.938a2.408 2.408 0 01.526.797 2.329 2.329 0 01.17.882 2.386 2.386 0 01-.347 1.237 2.5 2.5 0 01-.399.49 2.396 2.396 0 01-.89.53 2.463 2.463 0 01-.462.102l-.075.007a2.423 2.423 0 01-.123.008l-.08.001H30.189a2.375 2.375 0 01-.277-4.734l.276-.016h10.89l-1.881-1.883a2.375 2.375 0 013.135-3.557z" fill="url(#paint0_linear_97_1020)"/><path fill-rule="evenodd" clip-rule="evenodd" d="M37.845 2.47a2.375 2.375 0 011.331 0l21.365 6.241a2.375 2.375 0 011.709 2.28V23.79a33.626 33.626 0 01-22.996 31.901 2.375 2.375 0 01-1.502 0A33.631 33.631 0 0114.75 23.784V10.991c0-1.055.697-1.984 1.71-2.28l21.385-6.24zm.662 4.752L19.5 12.77v11.014A28.882 28.882 0 0037.884 50.69l.618.23.62-.23A28.877 28.877 0 0057.49 24.52l.009-.73V12.77L38.507 7.222zm9.985 14.849c.068.067.131.139.19.214l-.19-.214zm.687 1.881l.008-.202v.079a2.423 2.423 0 01-.008.123zm-.737 1.526a2.47 2.47 0 01-.165.142l.215-.19a2.809 2.809 0 01-.05.048zm-19.72 3.527a2.38 2.38 0 00-.214.19l.215-.19zm-.91 1.826v.044l.01-.212a2.368 2.368 0 00-.01.168zm.522 1.53l.174.193-.19-.214.016.02z" fill="#C4C4C4"/><path fill-rule="evenodd" clip-rule="evenodd" d="M37.845 2.47a2.375 2.375 0 011.331 0l21.365 6.241a2.375 2.375 0 011.709 2.28V23.79a33.626 33.626 0 01-22.996 31.901 2.375 2.375 0 01-1.502 0A33.631 33.631 0 0114.75 23.784V10.991c0-1.055.697-1.984 1.71-2.28l21.385-6.24zm.662 4.752L19.5 12.77v11.014A28.882 28.882 0 0037.884 50.69l.618.23.62-.23A28.877 28.877 0 0057.49 24.52l.009-.73V12.77L38.507 7.222zm9.985 14.849c.068.067.131.139.19.214l-.19-.214zm.687 1.881l.008-.202v.079a2.423 2.423 0 01-.008.123zm-.737 1.526a2.47 2.47 0 01-.165.142l.215-.19a2.809 2.809 0 01-.05.048zm-19.72 3.527a2.38 2.38 0 00-.214.19l.215-.19zm-.91 1.826v.044l.01-.212a2.368 2.368 0 00-.01.168zm.522 1.53l.174.193-.19-.214.016.02z" fill="url(#paint1_linear_97_1020)"/><g filter="url(#filter0_b_97_1020)"><circle cx="19.5" cy="42.5" r="19.5" fill="#fff" fill-opacity=".1"/><circle cx="19.5" cy="42.5" r="19.35" stroke="url(#paint2_linear_97_1020)" stroke-width=".3"/></g><path d="M28.29 40.65a.835.835 0 00-.724-.564l-4.75-.378-2.056-4.55a.831.831 0 00-1.519-.001l-2.056 4.551-4.75.378a.834.834 0 00-.516 1.427l3.51 3.423-1.241 5.377a.833.833 0 001.275.88L20 48.168l4.538 3.025a.834.834 0 001.264-.921l-1.524-5.334 3.78-3.401a.835.835 0 00.232-.888z" fill="#fff"/><defs><linearGradient id="paint0_linear_97_1020" x1="21.256" y1="11.535" x2="60.828" y2="44.154" gradientUnits="userSpaceOnUse"><stop stop-color="#00FFA3" stop-opacity=".6"/><stop offset="1" stop-color="#4B48F1"/></linearGradient><linearGradient id="paint1_linear_97_1020" x1="21.256" y1="11.535" x2="60.828" y2="44.154" gradientUnits="userSpaceOnUse"><stop stop-color="#00FFA3" stop-opacity=".6"/><stop offset="1" stop-color="#4B48F1"/></linearGradient><linearGradient id="paint2_linear_97_1020" x1="19.5" y1="23" x2="19.5" y2="62" gradientUnits="userSpaceOnUse"><stop stop-color="#fff" stop-opacity=".46"/><stop offset="1" stop-color="#fff" stop-opacity="0"/></linearGradient><filter id="filter0_b_97_1020" x="-5" y="18" width="49" height="49" filterUnits="userSpaceOnUse" color-interpolation-filters="sRGB"><feFlood flood-opacity="0" result="BackgroundImageFix"/><feGaussianBlur in="BackgroundImageFix" stdDeviation="2.5"/><feComposite in2="SourceAlpha" operator="in" result="effect1_backgroundBlur_97_1020"/><feBlend in="SourceGraphic" in2="effect1_backgroundBlur_97_1020" result="shape"/></filter></defs></svg>