<svg width="91" height="94" fill="none" xmlns="http://www.w3.org/2000/svg"><g clip-path="url(#clip0_261_11642)"><path opacity=".1" d="M90.992 16.659C61.879 16.102 45.67 3.89 45.662 3.89c0 0-16.541 12.212-45.654 12.769-.133 13.99 1.453 27.897 5.44 42.253C11.26 79.885 27.31 87.957 45.661 94c18.35-6.043 34.742-14.406 40.447-35.404 3.687-13.566 5.007-27.947 4.883-41.937z" fill="#000"/><path d="M87.795 12.81C59.945 12.253 45.662 0 45.662 0S31.388 12.253 3.529 12.81c-.125 14.032.606 28.662 4.135 42.27C13.12 76.144 28.1 84.332 45.662 90.392c17.562-6.06 32.542-14.248 37.997-35.312 3.53-13.608 4.26-28.238 4.136-42.27z" fill="#fff"/><path d="M84.29 15.503C58.749 14.988 45.663 3.757 45.663 3.757s-13.088 11.23-38.63 11.746c-.116 12.868.557 26.285 3.795 38.754 5.007 19.319 18.733 26.817 34.842 32.378 16.101-5.561 29.835-13.06 34.843-32.378 3.221-12.477 3.894-25.886 3.778-38.754z" fill="#4EB8EB"/><path d="M80.877 18.122C57.594 17.656 45.662 7.415 45.662 7.415v75.562c14.68-5.07 27.203-11.912 31.761-29.518 2.948-11.372 3.563-23.6 3.454-35.337z" fill="#2CABDD"/><path d="M49.083 48.463c0 2.585-1.537 4.688-3.43 4.688-1.893 0-3.43-2.094-3.43-4.688 0-2.585 1.537-4.688 3.43-4.688 1.893.008 3.43 2.103 3.43 4.688z" fill="#20B8C4"/><path d="M45.811 59.669h-1.287a3.489 3.489 0 01-3.487-3.492V46.71a3.489 3.489 0 013.487-3.491h1.287a3.489 3.489 0 013.488 3.491v9.468a3.489 3.489 0 01-3.488 3.492z" fill="#C0F0FF"/><path opacity=".15" d="M64.088 40.524h-4.044V37.69c0-7.033-5.713-12.752-12.738-12.752-7.025 0-12.738 5.72-12.738 12.752v2.834h-4.044a.762.762 0 00-.764.765v21.422c0 .424.34.765.764.765H64.08a.762.762 0 00.764-.765V41.289a.745.745 0 00-.755-.765zm-25.31 0V37.69c0-4.713 3.828-8.537 8.528-8.537 4.708 0 8.528 3.832 8.528 8.537v2.834H38.778zm11.019 17.307c.075.383-.166.74-.498.74H45.32c-.332 0-.573-.365-.498-.74l1.428-6.982a3.031 3.031 0 01-1.901-3.458 3.022 3.022 0 015.979.623 3.018 3.018 0 01-1.96 2.827l1.428 6.99z" fill="#000"/><path d="M36.735 43.974v-8.33c0-4.712 3.828-8.536 8.528-8.536 4.708 0 8.528 3.832 8.528 8.537v8.33h4.201v-8.33c0-7.033-5.713-12.752-12.738-12.752-7.024 0-12.737 5.72-12.737 12.752v8.33h4.218z" fill="#fff"/><path d="M61.945 38.48H45.188v4.488a3.014 3.014 0 012.99 3.01 3.018 3.018 0 01-1.96 2.826l1.437 6.982c.074.383-.166.74-.498.74h-1.968v4.905h16.756a.762.762 0 00.764-.765V39.244a.752.752 0 00-.764-.764z" fill="#01064A"/><path d="M45.155 56.535H43.17c-.332 0-.573-.366-.498-.74l1.428-6.983a3.031 3.031 0 01-1.901-3.458c.232-1.172 1.212-2.128 2.391-2.344.2-.033.399-.042.598-.042V38.48H28.39a.762.762 0 00-.764.765v21.422c0 .424.34.765.764.765h16.798v-4.905h-.033v.009z" fill="#111A75"/></g><defs><clipPath id="clip0_261_11642"><path fill="#fff" d="M0 0h91v94H0z"/></clipPath></defs></svg>