<svg width="34" height="35" fill="none" xmlns="http://www.w3.org/2000/svg"><path fill-rule="evenodd" clip-rule="evenodd" d="M5.25 27.5c0-.69.56-1.25 1.25-1.25h25a1.25 1.25 0 110 2.5h-25c-.69 0-1.25-.56-1.25-1.25z" fill="#C4C4C4"/><path fill-rule="evenodd" clip-rule="evenodd" d="M5.25 27.5c0-.69.56-1.25 1.25-1.25h25a1.25 1.25 0 110 2.5h-25c-.69 0-1.25-.56-1.25-1.25z" fill="url(#paint0_linear_222_40783)"/><path d="M32.75 7.5a1.25 1.25 0 00-1.81-1.118l-5 2.5A1.25 1.25 0 0025.25 10v13.75c0 .69.56 1.25 1.25 1.25h5c.69 0 1.25-.56 1.25-1.25V7.5z" fill="#C4C4C4"/><path d="M32.75 7.5a1.25 1.25 0 00-1.81-1.118l-5 2.5A1.25 1.25 0 0025.25 10v13.75c0 .69.56 1.25 1.25 1.25h5c.69 0 1.25-.56 1.25-1.25V7.5z" fill="url(#paint1_linear_222_40783)"/><path d="M22.75 12.5a1.25 1.25 0 00-1.81-1.118l-5 2.5A1.25 1.25 0 0015.25 15v8.75c0 .69.56 1.25 1.25 1.25h5c.69 0 1.25-.56 1.25-1.25V12.5z" fill="#C4C4C4"/><path d="M22.75 12.5a1.25 1.25 0 00-1.81-1.118l-5 2.5A1.25 1.25 0 0015.25 15v8.75c0 .69.56 1.25 1.25 1.25h5c.69 0 1.25-.56 1.25-1.25V12.5z" fill="url(#paint2_linear_222_40783)"/><path d="M6.803 15.037A1.25 1.25 0 005.25 16.25v7.5c0 .69.56 1.25 1.25 1.25h5c.69 0 1.25-.56 1.25-1.25V17.5a1.25 1.25 0 00-.947-1.213l-5-1.25z" fill="#C4C4C4"/><path d="M6.803 15.037A1.25 1.25 0 005.25 16.25v7.5c0 .69.56 1.25 1.25 1.25h5c.69 0 1.25-.56 1.25-1.25V17.5a1.25 1.25 0 00-.947-1.213l-5-1.25z" fill="url(#paint3_linear_222_40783)"/><path fill-rule="evenodd" clip-rule="evenodd" d="M24 2.5c0-.69.56-1.25 1.25-1.25h6.25a1.25 1.25 0 01.559 2.368l-20 10a1.25 1.25 0 01-.862.095l-5-1.25a1.25 1.25 0 01.606-2.426l4.551 1.138 14.85-7.425h-.954c-.69 0-1.25-.56-1.25-1.25z" fill="#C4C4C4"/><path fill-rule="evenodd" clip-rule="evenodd" d="M24 2.5c0-.69.56-1.25 1.25-1.25h6.25a1.25 1.25 0 01.559 2.368l-20 10a1.25 1.25 0 01-.862.095l-5-1.25a1.25 1.25 0 01.606-2.426l4.551 1.138 14.85-7.425h-.954c-.69 0-1.25-.56-1.25-1.25z" fill="url(#paint4_linear_222_40783)"/><g filter="url(#filter0_b_222_40783)"><circle cx="7.5" cy="27.5" fill="#fff" fill-opacity=".1" r="7.5"/><path d="M14.85 27.5a7.35 7.35 0 11-14.7 0 7.35 7.35 0 0114.7 0z" stroke="url(#paint5_linear_222_40783)" stroke-width=".3"/></g><path d="M10.624 26.532a.32.32 0 00-.279-.216l-1.827-.145-.79-1.75a.32.32 0 00-.584-.001l-.791 1.75-1.827.146a.32.32 0 00-.199.549l1.35 1.316L5.2 30.25a.32.32 0 00.49.339l1.746-1.164 1.745 1.164a.32.32 0 00.486-.355l-.586-2.051 1.454-1.308a.32.32 0 00.089-.342z" fill="#fff"/><defs><linearGradient id="paint0_linear_222_40783" x1="9.016" y1="5.964" x2="29.703" y2="25.148" gradientUnits="userSpaceOnUse"><stop stop-color="#00FFA3" stop-opacity=".6"/><stop offset="1" stop-color="#4B48F1"/></linearGradient><linearGradient id="paint1_linear_222_40783" x1="9.016" y1="5.964" x2="29.703" y2="25.148" gradientUnits="userSpaceOnUse"><stop stop-color="#00FFA3" stop-opacity=".6"/><stop offset="1" stop-color="#4B48F1"/></linearGradient><linearGradient id="paint2_linear_222_40783" x1="9.016" y1="5.964" x2="29.703" y2="25.148" gradientUnits="userSpaceOnUse"><stop stop-color="#00FFA3" stop-opacity=".6"/><stop offset="1" stop-color="#4B48F1"/></linearGradient><linearGradient id="paint3_linear_222_40783" x1="9.016" y1="5.964" x2="29.703" y2="25.148" gradientUnits="userSpaceOnUse"><stop stop-color="#00FFA3" stop-opacity=".6"/><stop offset="1" stop-color="#4B48F1"/></linearGradient><linearGradient id="paint4_linear_222_40783" x1="9.016" y1="5.964" x2="29.703" y2="25.148" gradientUnits="userSpaceOnUse"><stop stop-color="#00FFA3" stop-opacity=".6"/><stop offset="1" stop-color="#4B48F1"/></linearGradient><linearGradient id="paint5_linear_222_40783" x1="7.5" y1="20" x2="7.5" y2="35" gradientUnits="userSpaceOnUse"><stop stop-color="#fff" stop-opacity=".46"/><stop offset="1" stop-color="#fff" stop-opacity="0"/></linearGradient><filter id="filter0_b_222_40783" x="-5" y="15" width="25" height="25" filterUnits="userSpaceOnUse" color-interpolation-filters="sRGB"><feFlood flood-opacity="0" result="BackgroundImageFix"/><feGaussianBlur in="BackgroundImageFix" stdDeviation="2.5"/><feComposite in2="SourceAlpha" operator="in" result="effect1_backgroundBlur_222_40783"/><feBlend in="SourceGraphic" in2="effect1_backgroundBlur_222_40783" result="shape"/></filter></defs></svg>