<svg width="34" height="33" fill="none" xmlns="http://www.w3.org/2000/svg"><path fill-rule="evenodd" clip-rule="evenodd" d="M19 1.25a4.378 4.378 0 00-4.354 3.949c-4.405 1.737-7.521 6.03-7.521 11.051 0 .99.12 1.95.349 2.869a4.375 4.375 0 005.076 7.103A11.82 11.82 0 0019 28.125a11.82 11.82 0 006.45-1.903 4.354 4.354 0 002.3.653c1.242 0 2.365-.52 3.16-1.35a4.365 4.365 0 001.215-3.025c0-1.362-.623-2.58-1.599-3.381a11.9 11.9 0 00.349-2.869c0-5.021-3.116-9.314-7.52-11.051A4.376 4.376 0 0019 1.25zM15.148 7.7a4.374 4.374 0 007.704 0 9.377 9.377 0 015.331 10.446 4.363 4.363 0 00-2.274.384 4.375 4.375 0 00-2.138 5.792A9.332 9.332 0 0119 25.625a9.331 9.331 0 01-4.771-1.303 4.375 4.375 0 00-4.412-6.175A9.377 9.377 0 0115.147 7.7z" fill="#C4C4C4"/><path fill-rule="evenodd" clip-rule="evenodd" d="M19 1.25a4.378 4.378 0 00-4.354 3.949c-4.405 1.737-7.521 6.03-7.521 11.051 0 .99.12 1.95.349 2.869a4.375 4.375 0 005.076 7.103A11.82 11.82 0 0019 28.125a11.82 11.82 0 006.45-1.903 4.354 4.354 0 002.3.653c1.242 0 2.365-.52 3.16-1.35a4.365 4.365 0 001.215-3.025c0-1.362-.623-2.58-1.599-3.381a11.9 11.9 0 00.349-2.869c0-5.021-3.116-9.314-7.52-11.051A4.376 4.376 0 0019 1.25zM15.148 7.7a4.374 4.374 0 007.704 0 9.377 9.377 0 015.331 10.446 4.363 4.363 0 00-2.274.384 4.375 4.375 0 00-2.138 5.792A9.332 9.332 0 0119 25.625a9.331 9.331 0 01-4.771-1.303 4.375 4.375 0 00-4.412-6.175A9.377 9.377 0 0115.147 7.7z" fill="url(#paint0_linear_222_40767)"/><g filter="url(#filter0_b_222_40767)"><circle cx="7.5" cy="25.5" fill="#fff" fill-opacity=".1" r="7.5"/><path d="M14.85 25.5a7.35 7.35 0 11-14.7 0 7.35 7.35 0 0114.7 0z" stroke="url(#paint1_linear_222_40767)" stroke-width=".3"/></g><path d="M10.624 24.532a.32.32 0 00-.279-.216l-1.827-.145-.79-1.75a.32.32 0 00-.584-.001l-.791 1.75-1.827.146a.32.32 0 00-.199.549l1.35 1.316L5.2 28.25a.32.32 0 00.49.339l1.746-1.164 1.745 1.164a.32.32 0 00.486-.355l-.586-2.051 1.454-1.308a.32.32 0 00.089-.342z" fill="#fff"/><defs><linearGradient id="paint0_linear_222_40767" x1="9.471" y1="5.857" x2="29.646" y2="24.131" gradientUnits="userSpaceOnUse"><stop stop-color="#00FFA3" stop-opacity=".6"/><stop offset="1" stop-color="#4B48F1"/></linearGradient><linearGradient id="paint1_linear_222_40767" x1="7.5" y1="18" x2="7.5" y2="33" gradientUnits="userSpaceOnUse"><stop stop-color="#fff" stop-opacity=".46"/><stop offset="1" stop-color="#fff" stop-opacity="0"/></linearGradient><filter id="filter0_b_222_40767" x="-5" y="13" width="25" height="25" filterUnits="userSpaceOnUse" color-interpolation-filters="sRGB"><feFlood flood-opacity="0" result="BackgroundImageFix"/><feGaussianBlur in="BackgroundImageFix" stdDeviation="2.5"/><feComposite in2="SourceAlpha" operator="in" result="effect1_backgroundBlur_222_40767"/><feBlend in="SourceGraphic" in2="effect1_backgroundBlur_222_40767" result="shape"/></filter></defs></svg>