<svg width="33" height="37" fill="none" xmlns="http://www.w3.org/2000/svg"><path fill-rule="evenodd" clip-rule="evenodd" d="M10.5 8.75v3.75H8A2.5 2.5 0 005.5 15v11.25a2.5 2.5 0 002.5 2.5h20a2.5 2.5 0 002.5-2.5V15a2.5 2.5 0 00-2.5-2.5h-2.5V8.75a7.5 7.5 0 00-15 0zm7.5-5a5 5 0 00-5 5v3.75h10V8.75a5 5 0 00-5-5zm1.25 15a1.25 1.25 0 10-2.5 0v3.75a1.25 1.25 0 102.5 0v-3.75z" fill="#C4C4C4"/><path fill-rule="evenodd" clip-rule="evenodd" d="M10.5 8.75v3.75H8A2.5 2.5 0 005.5 15v11.25a2.5 2.5 0 002.5 2.5h20a2.5 2.5 0 002.5-2.5V15a2.5 2.5 0 00-2.5-2.5h-2.5V8.75a7.5 7.5 0 00-15 0zm7.5-5a5 5 0 00-5 5v3.75h10V8.75a5 5 0 00-5-5zm1.25 15a1.25 1.25 0 10-2.5 0v3.75a1.25 1.25 0 102.5 0v-3.75z" fill="url(#paint0_linear_222_40791)"/><g filter="url(#filter0_b_222_40791)"><circle cx="7.5" cy="29.5" fill="#fff" fill-opacity=".1" r="7.5"/><path d="M14.85 29.5a7.35 7.35 0 11-14.7 0 7.35 7.35 0 0114.7 0z" stroke="url(#paint1_linear_222_40791)" stroke-width=".3"/></g><path d="M10.624 28.532a.32.32 0 00-.279-.216l-1.827-.145-.79-1.75a.32.32 0 00-.584-.001l-.791 1.75-1.827.146a.32.32 0 00-.199.549l1.35 1.316L5.2 32.25a.32.32 0 00.49.339l1.746-1.164 1.745 1.164a.32.32 0 00.486-.355l-.586-2.05 1.454-1.31a.321.321 0 00.089-.34z" fill="#fff"/><defs><linearGradient id="paint0_linear_222_40791" x1="8.924" y1="5.964" x2="29.371" y2="23.202" gradientUnits="userSpaceOnUse"><stop stop-color="#00FFA3" stop-opacity=".6"/><stop offset="1" stop-color="#4B48F1"/></linearGradient><linearGradient id="paint1_linear_222_40791" x1="7.5" y1="22" x2="7.5" y2="37" gradientUnits="userSpaceOnUse"><stop stop-color="#fff" stop-opacity=".46"/><stop offset="1" stop-color="#fff" stop-opacity="0"/></linearGradient><filter id="filter0_b_222_40791" x="-5" y="17" width="25" height="25" filterUnits="userSpaceOnUse" color-interpolation-filters="sRGB"><feFlood flood-opacity="0" result="BackgroundImageFix"/><feGaussianBlur in="BackgroundImageFix" stdDeviation="2.5"/><feComposite in2="SourceAlpha" operator="in" result="effect1_backgroundBlur_222_40791"/><feBlend in="SourceGraphic" in2="effect1_backgroundBlur_222_40791" result="shape"/></filter></defs></svg>