<svg width="35" height="37" fill="none" xmlns="http://www.w3.org/2000/svg"><path fill-rule="evenodd" clip-rule="evenodd" d="M13.125 1.25c-1.686 0-3.273.301-4.485.84-.605.269-1.171.62-1.603 1.075-.439.46-.787 1.083-.787 1.835v7.5c0 .752.348 1.374.787 1.835.432.454.998.806 1.603 1.075 1.212.539 2.799.84 4.485.84 1.686 0 3.273-.301 4.485-.84.605-.269 1.171-.62 1.604-1.075.438-.46.786-1.083.786-1.835V5c0-.752-.348-1.374-.787-1.835-.432-.454-.998-.806-1.603-1.075-1.212-.539-2.799-.84-4.485-.84zM8.75 7.958c1.197.509 2.74.792 4.375.792 1.636 0 3.178-.283 4.375-.792v.774a.507.507 0 01-.098.13c-.137.143-.394.33-.807.513-.824.367-2.05.625-3.47.625-1.42 0-2.646-.258-3.47-.625-.413-.183-.67-.37-.807-.514a.507.507 0 01-.098-.13v-.773zm0 3.75v.774a.509.509 0 00.098.13c.136.143.394.33.807.514.824.366 2.05.624 3.47.624 1.42 0 2.646-.258 3.47-.624.413-.184.67-.37.808-.515a.509.509 0 00.097-.13v-.773c-1.197.508-2.74.792-4.375.792-1.636 0-3.178-.284-4.375-.792z" fill="#C4C4C4"/><path fill-rule="evenodd" clip-rule="evenodd" d="M13.125 1.25c-1.686 0-3.273.301-4.485.84-.605.269-1.171.62-1.603 1.075-.439.46-.787 1.083-.787 1.835v7.5c0 .752.348 1.374.787 1.835.432.454.998.806 1.603 1.075 1.212.539 2.799.84 4.485.84 1.686 0 3.273-.301 4.485-.84.605-.269 1.171-.62 1.604-1.075.438-.46.786-1.083.786-1.835V5c0-.752-.348-1.374-.787-1.835-.432-.454-.998-.806-1.603-1.075-1.212-.539-2.799-.84-4.485-.84zM8.75 7.958c1.197.509 2.74.792 4.375.792 1.636 0 3.178-.283 4.375-.792v.774a.507.507 0 01-.098.13c-.137.143-.394.33-.807.513-.824.367-2.05.625-3.47.625-1.42 0-2.646-.258-3.47-.625-.413-.183-.67-.37-.807-.514a.507.507 0 01-.098-.13v-.773zm0 3.75v.774a.509.509 0 00.098.13c.136.143.394.33.807.514.824.366 2.05.624 3.47.624 1.42 0 2.646-.258 3.47-.624.413-.184.67-.37.808-.515a.509.509 0 00.097-.13v-.773c-1.197.508-2.74.792-4.375.792-1.636 0-3.178-.284-4.375-.792z" fill="url(#paint0_linear_222_40771)"/><path d="M23.75 3.75c0-.69.56-1.25 1.25-1.25h3.75a3.75 3.75 0 013.75 3.75V10a1.25 1.25 0 11-2.5 0V6.25C30 5.56 29.44 5 28.75 5H25c-.69 0-1.25-.56-1.25-1.25z" fill="#C4C4C4"/><path d="M23.75 3.75c0-.69.56-1.25 1.25-1.25h3.75a3.75 3.75 0 013.75 3.75V10a1.25 1.25 0 11-2.5 0V6.25C30 5.56 29.44 5 28.75 5H25c-.69 0-1.25-.56-1.25-1.25z" fill="url(#paint1_linear_222_40771)"/><path d="M10 20a1.25 1.25 0 10-2.5 0v3.75a3.75 3.75 0 003.75 3.75H15a1.25 1.25 0 100-2.5h-3.75c-.69 0-1.25-.56-1.25-1.25V20z" fill="#C4C4C4"/><path d="M10 20a1.25 1.25 0 10-2.5 0v3.75a3.75 3.75 0 003.75 3.75H15a1.25 1.25 0 100-2.5h-3.75c-.69 0-1.25-.56-1.25-1.25V20z" fill="url(#paint2_linear_222_40771)"/><path d="M25.625 25H21.25c-.69 0-1.25-.56-1.25-1.25v-7.5c0-.69.56-1.25 1.25-1.25H32.5c.69 0 1.25.56 1.25 1.25v7.5c0 .69-.56 1.25-1.25 1.25h-4.375v1.25h2.5a1.25 1.25 0 110 2.5h-7.5a1.25 1.25 0 110-2.5h2.5V25z" fill="#C4C4C4"/><path d="M25.625 25H21.25c-.69 0-1.25-.56-1.25-1.25v-7.5c0-.69.56-1.25 1.25-1.25H32.5c.69 0 1.25.56 1.25 1.25v7.5c0 .69-.56 1.25-1.25 1.25h-4.375v1.25h2.5a1.25 1.25 0 110 2.5h-7.5a1.25 1.25 0 110-2.5h2.5V25z" fill="url(#paint3_linear_222_40771)"/><g filter="url(#filter0_b_222_40771)"><circle cx="7.5" cy="29.5" fill="#fff" fill-opacity=".1" r="7.5"/><path d="M14.85 29.5a7.35 7.35 0 11-14.7 0 7.35 7.35 0 0114.7 0z" stroke="url(#paint4_linear_222_40771)" stroke-width=".3"/></g><path d="M10.624 28.532a.32.32 0 00-.279-.216l-1.827-.145-.79-1.75a.32.32 0 00-.584-.001l-.791 1.75-1.827.146a.32.32 0 00-.199.549l1.35 1.316L5.2 32.25a.32.32 0 00.49.339l1.746-1.164 1.745 1.164a.32.32 0 00.486-.355l-.586-2.05 1.454-1.31a.321.321 0 00.089-.34z" fill="#fff"/><defs><linearGradient id="paint0_linear_222_40771" x1="10.017" y1="5.964" x2="30.704" y2="25.148" gradientUnits="userSpaceOnUse"><stop stop-color="#00FFA3" stop-opacity=".6"/><stop offset="1" stop-color="#4B48F1"/></linearGradient><linearGradient id="paint1_linear_222_40771" x1="10.017" y1="5.964" x2="30.704" y2="25.148" gradientUnits="userSpaceOnUse"><stop stop-color="#00FFA3" stop-opacity=".6"/><stop offset="1" stop-color="#4B48F1"/></linearGradient><linearGradient id="paint2_linear_222_40771" x1="10.017" y1="5.964" x2="30.704" y2="25.148" gradientUnits="userSpaceOnUse"><stop stop-color="#00FFA3" stop-opacity=".6"/><stop offset="1" stop-color="#4B48F1"/></linearGradient><linearGradient id="paint3_linear_222_40771" x1="10.017" y1="5.964" x2="30.704" y2="25.148" gradientUnits="userSpaceOnUse"><stop stop-color="#00FFA3" stop-opacity=".6"/><stop offset="1" stop-color="#4B48F1"/></linearGradient><linearGradient id="paint4_linear_222_40771" x1="7.5" y1="22" x2="7.5" y2="37" gradientUnits="userSpaceOnUse"><stop stop-color="#fff" stop-opacity=".46"/><stop offset="1" stop-color="#fff" stop-opacity="0"/></linearGradient><filter id="filter0_b_222_40771" x="-5" y="17" width="25" height="25" filterUnits="userSpaceOnUse" color-interpolation-filters="sRGB"><feFlood flood-opacity="0" result="BackgroundImageFix"/><feGaussianBlur in="BackgroundImageFix" stdDeviation="2.5"/><feComposite in2="SourceAlpha" operator="in" result="effect1_backgroundBlur_222_40771"/><feBlend in="SourceGraphic" in2="effect1_backgroundBlur_222_40771" result="shape"/></filter></defs></svg>