<svg width="24" height="24" fill="none" xmlns="http://www.w3.org/2000/svg"><path fill-rule="evenodd" clip-rule="evenodd" d="M4.642 2.42C6.568 1.844 9.169 1.5 12 1.5c2.83 0 5.432.343 7.358.92.957.288 1.804.65 2.435 1.097C22.397 3.945 23 4.6 23 5.5s-.603 1.555-1.207 1.983c-.13.093-.27.182-.419.267.09.051.175.104.257.157C22.302 8.344 23 9.03 23 10c0 .9-.603 1.555-1.207 1.984a5.25 5.25 0 01-.418.266c.088.051.174.104.256.157C22.302 12.844 23 13.53 23 14.5c0 .9-.603 1.555-1.207 1.984-.13.092-.27.18-.418.266.088.051.174.103.256.157C22.302 17.343 23 18.03 23 19c0 .899-.603 1.555-1.207 1.983-.63.447-1.478.81-2.435 1.096-1.926.578-4.527.921-7.358.921-2.83 0-5.432-.343-7.358-.92-.957-.288-1.804-.65-2.435-1.097C1.603 20.555 1 19.9 1 19c0-.97.698-1.657 1.369-2.093a5.28 5.28 0 01.256-.157 5.244 5.244 0 01-.418-.266C1.603 16.055 1 15.399 1 14.5c0-.97.698-1.656 1.369-2.093a6.21 6.21 0 01.256-.157 5.246 5.246 0 01-.418-.266C1.603 11.555 1 10.899 1 10c0-.97.698-1.656 1.369-2.093.082-.053.168-.106.257-.157a5.272 5.272 0 01-.419-.267C1.603 7.055 1 6.4 1 5.5s.603-1.555 1.207-1.983c.63-.447 1.478-.81 2.435-1.096zM3.006 5.5c.02.044.096.166.358.352.382.27 1 .556 1.852.811C6.91 7.171 9.308 7.5 12 7.5s5.09-.329 6.784-.837c.853-.255 1.47-.54 1.852-.81.262-.187.338-.309.358-.353-.02-.044-.096-.166-.358-.352-.382-.27-1-.556-1.852-.811C17.09 3.829 14.692 3.5 12 3.5s-5.09.329-6.784.837c-.853.255-1.47.54-1.852.81-.262.187-.338.309-.358.353zm15.373 10.278a.783.783 0 00-.02.005c-1.662.44-3.89.717-6.359.717-2.47 0-4.697-.277-6.359-.717a13.52 13.52 0 01-.425-.12c-.853-.255-1.47-.54-1.852-.81-.261-.186-.337-.308-.358-.352.022-.048.112-.195.454-.417.422-.275 1.071-.554 1.934-.8C7.221 13.739 9.523 14 12 14c2.477 0 4.779-.262 6.606-.715.863.245 1.512.524 1.934.799.342.222.432.369.454.417-.02.044-.097.166-.358.351-.382.271-1 .556-1.852.812-.13.039-.266.077-.405.114zm-12.72-4.49a13.594 13.594 0 01-.442-.124c-.854-.256-1.47-.54-1.853-.812-.261-.185-.337-.307-.358-.351.022-.048.112-.195.454-.417.422-.275 1.072-.554 1.935-.8C7.222 9.238 9.523 9.5 12 9.5c2.477 0 4.778-.263 6.605-.715.863.245 1.513.524 1.936.799.341.222.43.369.453.417-.02.044-.097.166-.358.351-.382.271-1 .556-1.852.812a13.515 13.515 0 01-.442.124C16.685 11.725 14.466 12 12 12c-2.466 0-4.685-.275-6.342-.712z" fill="#fff"/></svg>