<svg width="68" height="60" fill="none" xmlns="http://www.w3.org/2000/svg"><path fill-rule="evenodd" clip-rule="evenodd" d="M50.801 3.562a2.375 2.375 0 00-3.244-.869l-15.904 9.182H18.125a4.75 4.75 0 00-4.75 4.75v33.25a4.75 4.75 0 004.75 4.75h42.75a4.75 4.75 0 004.75-4.75v-33.25a4.75 4.75 0 00-4.75-4.75H55.6l-4.799-8.313zM44.25 33.25c0-4.699 3.965-8.313 8.61-8.313h8.015v16.625h-8.016c-4.644 0-8.609-3.613-8.609-8.312z" fill="#C4C4C4"/><path fill-rule="evenodd" clip-rule="evenodd" d="M50.801 3.562a2.375 2.375 0 00-3.244-.869l-15.904 9.182H18.125a4.75 4.75 0 00-4.75 4.75v33.25a4.75 4.75 0 004.75 4.75h42.75a4.75 4.75 0 004.75-4.75v-33.25a4.75 4.75 0 00-4.75-4.75H55.6l-4.799-8.313zM44.25 33.25c0-4.699 3.965-8.313 8.61-8.313h8.015v16.625h-8.016c-4.644 0-8.609-3.613-8.609-8.312z" fill="url(#paint0_linear_96_614)"/><g filter="url(#filter0_b_96_614)"><circle cx="19.5" cy="40.5" r="19.5" fill="#fff" fill-opacity=".1"/><circle cx="19.5" cy="40.5" r="19.35" stroke="url(#paint1_linear_96_614)" stroke-width=".3"/></g><path d="M28.29 38.65a.835.835 0 00-.724-.564l-4.75-.378-2.056-4.55a.831.831 0 00-1.519-.001l-2.056 4.551-4.75.378a.834.834 0 00-.516 1.427l3.51 3.423-1.241 5.377a.833.833 0 001.275.88L20 46.168l4.538 3.025a.834.834 0 001.264-.921l-1.524-5.334 3.78-3.401a.835.835 0 00.232-.888z" fill="#fff"/><defs><linearGradient id="paint0_linear_96_614" x1="20.532" y1="11.331" x2="59.837" y2="47.78" gradientUnits="userSpaceOnUse"><stop stop-color="#00FFA3" stop-opacity=".6"/><stop offset="1" stop-color="#4B48F1"/></linearGradient><linearGradient id="paint1_linear_96_614" x1="19.5" y1="21" x2="19.5" y2="60" gradientUnits="userSpaceOnUse"><stop stop-color="#fff" stop-opacity=".46"/><stop offset="1" stop-color="#fff" stop-opacity="0"/></linearGradient><filter id="filter0_b_96_614" x="-5" y="16" width="49" height="49" filterUnits="userSpaceOnUse" color-interpolation-filters="sRGB"><feFlood flood-opacity="0" result="BackgroundImageFix"/><feGaussianBlur in="BackgroundImageFix" stdDeviation="2.5"/><feComposite in2="SourceAlpha" operator="in" result="effect1_backgroundBlur_96_614"/><feBlend in="SourceGraphic" in2="effect1_backgroundBlur_96_614" result="shape"/></filter></defs></svg>