<svg width="1439" height="313" fill="none" xmlns="http://www.w3.org/2000/svg"><g clip-path="url(#clip0_53_4189)" stroke-width=".103" stroke-miterlimit="10"><path d="M71.532.37c109.466 9.573 205.527 56.59 293.434 105.454 87.906 48.865 174.825 102.017 279.472 127.595 88.216 21.55 185.883 21.735 274.284.481 91.058-21.882 169.388-64.87 251.118-101.573 81.73-36.704 173.53-68.492 269.16-63.798" stroke="url(#paint0_linear_53_4189)"/><path d="M70.669 3.438c108.725 8.168 205.095 53.633 293.187 101.536 88.092 47.904 175.072 100.465 279.163 126.228 83.15 20.662 174.393 22.991 258.902 6.32 5.374-1.071 10.687-2.18 16-3.4 46.146-10.535 89.269-26.539 130.659-45.095 40.77-18.222 79.62-38.626 119.72-57.366 80.86-37.997 173.77-70.155 270.02-64.98" stroke="url(#paint1_linear_53_4189)"/><path d="M69.74 6.505c107.984 6.728 204.663 50.713 293.002 97.619 88.339 46.905 175.319 98.875 278.855 124.86 83.274 21.068 174.516 24.358 259.457 8.575a497.36 497.36 0 0016.124-3.253c46.517-10.054 90.252-25.726 131.522-44.651 40.58-18.481 78.64-39.402 118.05-58.659 80.12-39.144 174.08-71.819 270.89-66.2" stroke="url(#paint2_linear_53_4189)"/><path d="M68.877 9.573c107.242 5.286 204.23 47.756 292.816 93.664 88.586 45.907 175.566 97.286 278.546 123.529 83.397 21.475 174.64 25.726 260.014 10.867 5.436-.961 10.872-1.959 16.247-3.068 46.887-9.573 91.18-24.95 132.45-44.207 40.4-18.74 77.59-40.216 116.38-59.954 79.32-40.363 174.33-73.481 271.75-67.42" stroke="url(#paint3_linear_53_4189)"/><path d="M68.014 12.642c106.439 3.844 203.798 44.798 292.569 89.745 88.772 44.947 175.937 95.549 278.237 122.162 83.644 21.771 174.763 27.093 260.57 13.121a584.062 584.062 0 0016.308-2.883c47.197-9.092 92.112-24.136 133.312-43.727 40.22-18.998 76.54-41.028 114.72-61.247 78.51-41.583 174.58-75.145 272.55-68.602" stroke="url(#paint4_linear_53_4189)"/><path d="M67.146 15.709c105.698 2.44 203.303 41.879 292.384 85.827 89.08 43.949 176.245 93.959 277.99 120.831 83.829 22.141 174.948 28.462 261.125 15.377a480.118 480.118 0 0016.432-2.735c47.568-8.613 92.973-23.398 134.173-43.284 39.97-19.294 75.43-41.879 113.05-62.578 77.72-42.802 174.83-76.808 273.42-69.822" stroke="url(#paint5_linear_53_4189)"/><path d="M66.222 18.777c104.957 1.035 202.933 38.959 292.199 81.909 89.265 42.951 176.492 92.333 277.681 119.464 84.015 22.51 175.072 29.829 261.681 17.631a639.47 639.47 0 0016.556-2.55c47.938-8.132 93.901-22.585 135.101-42.84 39.79-19.553 74.38-42.692 111.38-63.872 76.85-44.022 175.08-78.472 274.29-71.042" stroke="url(#paint6_linear_53_4189)"/><path d="M65.354 21.845c104.216-.407 202.5 36.002 292.013 77.954 89.513 41.953 176.74 90.744 277.372 118.096 84.139 22.88 175.196 31.197 262.238 19.923a489.522 489.522 0 0016.617-2.403c48.309-7.651 94.826-21.808 135.966-42.396 39.54-19.812 73.33-43.505 109.65-65.165 76.05-45.28 175.32-80.098 275.15-72.225" stroke="url(#paint7_linear_53_4189)"/><path d="M64.491 24.913c103.474-1.848 202.006 33.082 291.766 74.037 89.76 40.954 177.049 89.154 277.064 116.765 84.323 23.286 175.319 32.564 262.793 22.177a647.923 647.923 0 0016.741-2.217c48.679-7.171 95.815-20.995 136.895-41.953 39.35-20.071 72.28-44.355 107.98-66.459 75.25-46.536 175.63-81.761 276.02-73.445" stroke="url(#paint8_linear_53_4189)"/><path d="M63.628 27.98C166.361 24.729 265.202 58.106 355.21 98.1c90.007 39.993 177.296 87.527 276.754 115.397 84.509 23.656 175.443 33.931 263.35 24.432a524.08 524.08 0 0016.864-2.07c48.988-6.69 96.743-20.182 137.763-41.509 39.16-20.33 71.16-45.168 106.31-67.79 74.38-47.792 175.88-83.424 276.82-74.627" stroke="url(#paint9_linear_53_4189)"/><path d="M62.76 31.049c101.992-4.694 201.141 27.204 291.396 66.163 90.254 38.959 177.542 85.938 276.507 114.067 84.632 24.063 175.566 35.299 263.905 26.724a661.863 661.863 0 0016.927-1.885c49.358-6.247 97.665-19.406 138.685-41.066 38.98-20.588 70.12-46.018 104.65-69.083 73.51-49.05 176.12-85.088 277.68-75.847" stroke="url(#paint10_linear_53_4189)"/><path d="M61.836 34.117c101.251-6.099 200.709 24.248 291.149 62.245 90.439 37.998 177.79 84.349 276.198 112.699 84.818 24.433 175.69 36.63 264.462 28.979a532.291 532.291 0 0017.05-1.737c49.729-5.766 98.595-18.592 139.555-40.622 38.79-20.847 69-46.869 102.98-70.377 72.71-50.306 176.36-86.751 278.54-77.067" stroke="url(#paint11_linear_53_4189)"/><path d="M60.968 37.184c100.447-7.54 200.277 21.328 290.963 58.328 90.687 36.999 178.037 82.759 275.89 111.331 85.003 24.839 175.813 37.998 265.017 31.234 5.683-.444 11.429-.924 17.174-1.553 50.1-5.285 99.518-17.816 140.418-40.178 38.61-21.106 67.95-47.719 101.31-71.671 71.84-51.6 176.62-88.415 279.41-78.25" stroke="url(#paint12_linear_53_4189)"/><path d="M60.105 40.252c99.706-8.981 199.844 18.371 290.778 54.373 90.934 36.001 178.346 81.17 275.581 110.001 85.127 25.208 175.937 39.365 265.573 33.525 5.745-.37 11.49-.813 17.235-1.368 50.471-4.805 100.448-17.003 141.348-39.735 38.42-21.364 66.84-48.569 99.64-73.001 70.98-52.857 176.86-90.078 280.27-79.47" stroke="url(#paint13_linear_53_4189)"/><path d="M59.242 43.32c98.964-10.386 199.411 15.451 290.53 50.455 91.119 35.003 178.593 79.58 275.272 108.633 85.312 25.615 176.122 40.733 266.129 35.78a464.972 464.972 0 0017.359-1.22c50.78-4.325 101.378-16.19 142.208-39.291 38.24-21.623 65.79-49.382 97.98-74.295 70.05-54.15 177.17-91.742 281.14-80.69" stroke="url(#paint14_linear_53_4189)"/><path d="M58.374 46.389c98.224-11.829 198.98 12.493 290.346 46.535 91.366 34.043 178.84 77.992 275.024 107.303 85.436 26.022 176.246 42.101 266.686 38.035a568.117 568.117 0 0017.482-1.035c51.15-3.844 102.358-15.414 143.138-38.848 38.05-21.882 64.67-50.232 96.3-75.589 69.19-55.407 177.42-93.404 281.95-81.872" stroke="url(#paint15_linear_53_4189)"/><path d="M57.45 49.456c97.483-13.232 198.547 9.537 290.16 42.618 91.614 33.082 179.088 76.439 274.716 105.935 85.621 26.429 176.37 43.469 267.241 40.29a472.817 472.817 0 0017.545-.887c51.52-3.364 103.288-14.601 143.998-38.405 37.87-22.14 63.57-51.082 94.64-76.882 68.32-56.7 177.67-95.068 282.81-83.092" stroke="url(#paint16_linear_53_4189)"/><path d="M56.583 52.524c96.74-14.674 198.114 6.616 289.974 38.663 91.86 32.047 179.335 74.849 274.407 104.567 85.745 26.835 176.493 44.836 267.797 42.581a568.182 568.182 0 0017.668-.702c51.891-2.883 104.211-13.787 144.921-37.961 37.69-22.399 62.46-51.932 92.98-78.213 67.39-57.994 177.91-96.73 283.67-84.311" stroke="url(#paint17_linear_53_4189)"/><path d="M55.72 55.592c95.998-16.116 197.619 3.66 289.726 34.745 92.108 31.085 179.582 73.26 274.099 103.237 85.929 27.241 176.616 46.203 268.353 44.835a476.838 476.838 0 0017.729-.554c52.262-2.403 105.143-12.974 145.793-37.517 37.5-22.621 61.34-52.82 91.3-79.507 66.47-59.288 178.16-98.395 284.54-85.495" stroke="url(#paint18_linear_53_4189)"/><path d="M54.856 58.66c95.258-17.52 197.188.74 289.542 30.827 92.355 30.088 179.829 71.708 273.79 101.869 86.053 27.648 176.739 47.571 268.909 47.091 5.93-.037 11.861-.148 17.853-.37 52.571-1.922 106.13-12.198 146.65-37.074 37.32-22.879 60.24-53.669 89.64-80.8 65.55-60.582 178.41-100.021 285.4-86.714" stroke="url(#paint19_linear_53_4189)"/><path d="M53.988 61.728C148.505 42.766 250.743 59.51 343.345 88.6c92.601 29.089 180.076 70.118 273.542 100.538 86.239 28.055 176.863 48.939 269.465 49.382 5.93.037 11.923-.037 17.977-.184 52.941-1.442 107.061-11.385 147.581-36.594 37.13-23.138 59.12-54.52 87.97-82.094 64.62-61.875 178.72-101.684 286.27-87.934" stroke="url(#paint20_linear_53_4189)"/><path d="M53.064 64.796c93.714-20.367 196.323-5.138 289.11 22.954 92.787 28.091 180.323 68.565 273.233 99.171 86.362 28.461 176.987 50.306 270.021 51.636 5.992.111 11.985.074 18.039-.037 53.312-.961 107.983-10.571 148.443-36.149 37.01-23.397 58.01-55.37 86.3-83.425 63.69-63.17 178.97-103.347 287.07-89.117" stroke="url(#paint21_linear_53_4189)"/><path d="M52.197 67.864c92.972-21.808 195.89-8.095 288.924 19.036 93.034 27.13 180.57 66.976 272.925 97.803 86.485 28.868 177.11 51.674 270.577 53.891a592.81 592.81 0 0018.162.148c53.683-.48 108.975-9.758 149.375-35.706 36.82-23.656 56.89-56.22 84.63-84.718 62.76-64.5 179.21-105.011 287.94-90.337" stroke="url(#paint22_linear_53_4189)"/><path d="M51.333 70.931c92.231-23.25 195.458-11.014 288.739 15.118 93.281 26.133 180.756 65.424 272.616 96.473 86.671 29.274 177.296 53.041 271.195 56.183 6.054.222 12.169.296 18.285.296 54.054 0 109.902-8.945 150.242-35.263 36.63-23.878 55.78-57.07 82.96-86.012 61.78-65.793 179.46-106.674 288.8-91.556" stroke="url(#paint23_linear_53_4189)"/><path d="M50.47 74c91.49-24.655 195.026-13.972 288.492 11.162 93.467 25.135 181.003 63.872 272.307 95.105 86.795 29.718 177.419 54.409 271.751 58.438 6.054.259 12.231.444 18.347.481 54.363.443 110.883-8.169 151.163-34.819 36.45-24.137 54.67-57.921 81.3-87.306 60.85-67.087 179.7-108.338 289.66-92.74" stroke="url(#paint24_linear_53_4189)"/><path d="M49.602 77.067c90.749-26.095 194.593-16.892 288.307 7.245 93.714 24.137 181.25 62.282 272.06 93.774 86.918 30.125 177.543 55.777 272.306 60.693a436.41 436.41 0 0018.471.628c54.733.924 111.874-7.281 152.034-34.375 36.38-24.358 53.49-58.808 79.62-88.636 59.87-68.418 179.96-110.001 290.54-93.96" stroke="url(#paint25_linear_53_4189)"/><path d="M48.679 80.135c90.007-27.5 194.16-19.849 288.121 3.327 93.96 23.176 181.496 60.73 271.751 92.407 87.041 30.531 177.666 57.144 272.862 62.984 6.116.37 12.355.666 18.595.813 55.103 1.405 112.862-6.505 152.952-33.931 36.2-24.581 52.39-59.658 77.96-89.931 58.88-69.711 180.27-111.664 291.4-95.178" stroke="url(#paint26_linear_53_4189)"/><path d="M47.81 83.203c89.266-28.942 193.729-22.769 287.875-.628 94.146 22.141 181.682 59.177 271.442 91.039 87.165 30.975 177.79 58.512 273.418 65.239 6.178.444 12.417.776 18.656.998 55.475 1.885 113.789-5.692 153.819-33.488 36.02-24.839 51.21-60.508 76.3-91.224 57.88-71.005 180.5-113.328 292.19-96.362" stroke="url(#paint27_linear_53_4189)"/><path d="M46.948 86.271c88.524-30.383 193.234-25.726 287.688-4.546 94.455 21.179 181.806 57.736 271.133 89.708 87.228 31.493 177.914 59.88 273.975 67.494 6.178.481 12.479.887 18.78 1.146 55.845 2.366 114.716-4.879 154.686-33.045 35.83-25.097 50.1-61.358 74.62-92.517 56.9-72.336 180.76-114.991 293.07-97.582" stroke="url(#paint28_linear_53_4189)"/><path d="M46.085 89.34c87.783-31.789 192.801-28.647 287.503-8.465 94.702 20.181 182.053 56.146 270.824 88.341 87.351 31.861 178.038 61.247 274.531 69.748 6.239.555 12.54.998 18.903 1.331 56.154 2.846 115.644-4.103 155.614-32.601 35.64-25.357 48.86-62.245 72.89-93.849 55.6-73.703 181.01-116.654 293.93-98.764" stroke="url(#paint29_linear_53_4189)"/><path d="M45.156 92.407c86.98-33.23 192.369-31.603 287.318-12.42 94.949 19.184 182.3 54.558 270.577 87.011 87.536 32.268 178.161 62.578 275.086 72.04 6.24.629 12.603 1.109 18.966 1.479 56.524 3.326 116.627-3.29 156.477-32.158 35.46-25.615 47.75-63.095 71.23-95.142 54.73-74.96 181.25-118.28 294.79-99.984" stroke="url(#paint30_linear_53_4189)"/><path d="M44.293 95.474C130.532 60.84 236.23 60.951 331.364 79.137c95.134 18.186 182.608 52.967 270.268 85.642 87.659 32.676 178.284 63.946 275.642 74.295 62.023 6.58 132.136 2.477 176.496-30.05 35.27-25.874 46.64-63.946 69.56-96.436 53.8-76.254 181.49-119.944 295.65-101.204" stroke="url(#paint31_linear_53_4189)"/><path d="M42.87 97.175c85.559-33.23 190.33-33.82 283.858-17.003 93.096 16.745 177.173 51.046 263.967 80.912 20.572 7.06 42.008 13.639 63.567 20.736 30.826 10.202 61.591 20.773 92.355 29.94 34.471 10.238 69.25 18.74 105.327 24.395 4.386.702 8.834 1.331 13.282 1.922 41.76 5.729 87.845 6.395 127.628-3.807 18.536-4.731 35.766-11.865 50.406-21.956 14.83-10.202 25.89-22.51 35.15-35.854 13.72-19.812 23.6-41.694 37.62-61.58 11.8-16.78 27.06-32.01 45.22-45.131 21.01-15.118 45.59-27.241 71.91-36.334 28.42-9.906 59-16.375 90.44-19.258 31.44-2.92 63.81-2.292 94.83 1.922" stroke="url(#paint32_linear_53_4189)"/><path d="M41.452 98.875c84.941-31.788 188.662-33.118 280.584-17.668 91.057 15.303 171.86 49.087 257.604 76.18 20.51 6.469 42.625 11.976 64.679 18.888 31.444 9.906 62.455 21.328 92.787 31.307 33.791 11.126 67.521 20.552 102.918 27.168 4.324.813 8.649 1.552 13.035 2.292 41.204 6.875 87.227 8.76 127.69-.481 18.965-4.324 36.761-11.089 52.011-20.958 15.51-9.98 27.31-22.288 37.13-35.779 14.46-19.997 24.59-42.36 38.86-62.615 12.04-17.151 27.49-32.75 46.33-45.871 21.74-15.192 47.38-26.65 74.32-35.077 29.09-9.093 60.04-14.712 92.04-17.151 32-2.403 65.11-1.738 96.49 1.663" stroke="url(#paint33_linear_53_4189)"/><path d="M40.028 100.576C124.29 70.23 226.961 68.16 317.401 82.242c89.018 13.861 166.67 47.165 251.303 71.449 20.509 5.877 43.242 10.35 65.852 17.077 32.124 9.647 63.32 21.882 93.158 32.675 33.173 11.976 65.791 22.363 100.509 29.977 4.262.924 8.525 1.811 12.787 2.661 40.587 8.095 86.548 11.126 127.69 2.846 19.336-3.881 37.75-10.349 53.62-19.997 16.12-9.795 28.73-22.029 39.04-35.705 15.14-20.145 25.58-42.988 40.1-63.687 12.29-17.521 27.98-33.451 47.44-46.647 22.55-15.229 49.17-26.096 76.79-33.821 29.71-8.317 61.09-13.085 93.59-15.044 32.49-1.922 66.41-1.183 98.16 1.442" stroke="url(#paint34_linear_53_4189)"/><path d="M38.61 102.276c83.582-28.905 185.264-31.714 274.159-19 86.919 12.42 161.667 45.206 245.002 66.718 20.633 5.323 43.923 8.65 66.965 15.229 32.803 9.352 64.123 22.436 93.528 34.043 32.494 12.863 64.123 24.136 98.1 32.749 4.139 1.035 8.339 2.033 12.54 3.031 40.031 9.277 85.93 13.528 127.69 6.172 19.769-3.474 38.734-9.573 55.226-19.035 16.8-9.611 30.15-21.808 41.02-35.669 15.88-20.33 26.56-43.616 41.39-64.759 12.54-17.89 28.48-34.153 48.56-47.386 23.35-15.303 50.96-25.541 79.25-32.564 30.34-7.504 62.09-11.459 95.14-12.937 33.05-1.442 67.7-.629 99.83 1.183" stroke="url(#paint35_linear_53_4189)"/><path d="M37.187 103.976c82.903-27.463 183.535-31.011 270.886-19.664 84.818 10.978 156.848 43.21 238.701 61.95 20.756 4.731 44.54 6.986 68.138 13.38 33.421 9.056 64.926 22.954 93.961 35.41 31.876 13.713 62.393 25.948 95.69 35.558 4.077 1.183 8.216 2.292 12.355 3.364 39.475 10.497 85.312 15.894 127.69 9.499 20.201-3.03 39.722-8.797 56.832-18.037 17.48-9.426 31.57-21.55 42.94-35.595 16.55-20.478 27.55-44.282 42.62-65.794 12.79-18.26 28.91-34.893 49.67-48.125 24.09-15.34 52.75-24.987 81.73-31.27 30.95-6.728 63.13-9.833 96.68-10.794 33.54-.961 69-.074 101.49.924" stroke="url(#paint36_linear_53_4189)"/><path d="M35.764 105.639C117.987 79.618 217.507 75.33 303.437 85.31c82.656 9.573 152.153 41.176 232.4 57.255 20.942 4.177 45.158 5.323 69.25 11.533 34.1 8.797 65.791 23.508 94.332 36.814 31.196 14.527 60.663 27.759 93.281 38.331 3.953 1.293 8.03 2.513 12.108 3.733 38.918 11.68 84.632 18.296 127.69 12.826 20.633-2.624 40.71-8.058 58.439-17.077 18.163-9.24 32.993-21.327 44.913-35.521 17.3-20.662 28.54-44.91 43.86-66.865 13.03-18.63 29.4-35.596 50.78-48.865 24.89-15.414 54.48-24.432 84.2-30.014 31.57-5.95 64.18-8.206 98.28-8.686 34.1-.48 70.3.48 103.17.665" stroke="url(#paint37_linear_53_4189)"/><path d="M34.345 107.34c81.544-24.58 180.014-29.57 264.399-20.995 80.494 8.169 147.644 39.033 226.099 52.524 21.127 3.622 45.776 3.696 70.424 9.721 34.78 8.502 66.594 24.026 94.702 38.183 30.517 15.376 58.996 29.57 90.872 41.139a475.296 475.296 0 0011.861 4.103c38.362 12.9 84.076 20.699 127.69 16.153 21.004-2.181 41.698-7.282 60.046-16.116 18.841-9.019 34.412-21.069 46.822-35.447 17.98-20.847 29.47-45.538 45.16-67.901 13.28-18.999 29.84-36.297 51.89-49.604 25.7-15.45 56.28-23.877 86.61-28.757 32.19-5.174 65.18-6.579 99.83-6.579 34.66 0 71.6 1.035 104.83.444" stroke="url(#paint38_linear_53_4189)"/><path d="M32.922 109.04c80.926-23.138 178.161-28.868 261.187-21.66 78.332 6.764 148.015 28.572 219.798 47.793 22.054.665 46.393 2.033 71.536 7.873 35.397 8.243 67.459 24.543 95.134 39.55 29.9 16.227 57.266 31.381 88.463 43.912 3.83 1.515 7.722 2.994 11.614 4.472 37.745 14.12 83.459 23.102 127.69 19.48 21.436-1.738 42.687-6.506 61.652-15.118 19.459-8.834 35.834-20.847 48.744-35.374 18.65-21.031 30.45-46.166 46.39-68.972 13.53-19.405 30.33-37.037 52.94-50.38 26.44-15.524 58.07-23.324 89.08-27.5 32.81-4.399 66.23-4.953 101.38-4.473 35.15.518 72.89 1.59 106.5.185" stroke="url(#paint39_linear_53_4189)"/><path d="M31.504 110.74c80.246-21.697 176.369-28.128 257.913-22.325 76.107 5.396 143.69 25.541 213.434 43.024 22.239-.222 47.011.37 72.71 6.025 36.077 7.947 68.324 25.061 95.505 40.918 29.282 17.04 55.536 33.192 86.053 46.721 3.707 1.663 7.537 3.215 11.367 4.805 37.189 15.376 82.841 25.541 127.69 22.806 21.869-1.331 43.676-5.766 63.258-14.157 20.139-8.649 37.251-20.588 50.716-35.299 19.4-21.18 31.45-46.832 47.63-70.045 13.78-19.775 30.77-37.738 54.05-51.119 27.25-15.561 59.8-22.769 91.56-26.243 33.35-3.623 67.27-3.327 102.98-2.33 35.7.999 74.19 2.145 108.16-.073" stroke="url(#paint40_linear_53_4189)"/><path d="M30.08 112.441c79.567-20.256 174.455-27.39 254.701-22.991 73.884 4.029 139.366 22.473 207.134 38.293 22.362-1.109 47.629-1.293 73.821 4.214 36.695 7.688 69.127 25.578 95.876 42.285 28.602 17.89 53.807 34.967 83.706 49.493 3.645 1.775 7.413 3.475 11.181 5.175 36.633 16.596 82.224 27.944 127.69 26.17 22.301-.887 44.664-4.99 64.865-13.159 20.818-8.427 38.671-20.366 52.636-35.262 20.07-21.365 32.43-47.46 48.92-71.08 14.03-20.144 31.26-38.44 55.17-51.858 28.04-15.635 61.59-22.252 94.02-24.95 33.98-2.846 68.26-1.7 104.53-.222 36.2 1.479 75.48 2.699 109.83-.332" stroke="url(#paint41_linear_53_4189)"/><path d="M28.662 114.141c78.888-18.814 172.54-26.613 251.489-23.656 71.659 2.698 135.041 19.442 200.832 33.562 22.548-1.996 48.247-2.957 74.996 2.366 37.374 7.392 69.991 26.095 96.308 43.653 27.984 18.703 52.138 36.777 81.296 52.302a410.447 410.447 0 0010.935 5.544c36.015 17.853 81.605 30.383 127.69 29.496 22.733-.443 45.652-4.213 66.47-12.197 21.498-8.243 40.093-20.145 54.61-35.189 20.752-21.549 33.422-48.088 50.162-72.151 14.27-20.514 31.75-39.18 56.28-52.598 28.85-15.672 63.32-21.697 96.43-23.693 34.59-2.107 69.31-.074 106.07 1.885 36.75 1.96 76.78 3.253 111.44-.554" stroke="url(#paint42_linear_53_4189)"/><path d="M27.24 115.804c78.207-17.372 171.612-31.935 248.213-24.321 68.448 6.801 130.717 16.374 194.532 28.831 22.733-2.846 48.864-4.583 76.107.517 37.992 7.134 70.857 26.577 96.679 45.021 27.366 19.516 50.409 38.589 78.887 55.074 3.46 1.996 7.104 3.955 10.687 5.914 35.46 19.073 81.05 31.899 127.691 32.823 23.165.444 46.702-3.474 68.076-11.236 22.178-8.058 41.513-19.886 56.525-35.115 21.433-21.697 34.413-48.717 51.393-73.186 14.52-20.884 32.19-39.883 57.39-53.337 29.59-15.746 65.12-21.18 98.91-22.437 35.21-1.33 70.36 1.553 107.61 3.992 37.31 2.44 78.08 3.808 113.11-.813" stroke="url(#paint43_linear_53_4189)"/><path d="M25.76 117.504c77.528-15.968 169.45-31.529 245.002-25.023 66.347 5.729 126.393 13.343 188.23 24.099 22.919-3.733 49.482-6.246 77.281-1.293 38.61 6.875 71.722 27.093 97.111 46.388 26.749 20.329 48.68 40.4 76.479 57.883 3.397 2.144 6.918 4.214 10.44 6.284 34.841 20.329 80.432 35.225 127.69 36.149 23.598.444 47.691-2.698 69.683-10.238 22.857-7.836 42.934-19.664 58.501-35.041 22.178-21.882 35.393-49.382 52.633-74.258 14.76-21.253 32.68-40.585 58.5-54.076 30.39-15.783 66.84-20.626 101.38-21.18 35.76-.554 71.35 3.179 109.21 6.099 37.81 2.92 79.39 4.362 114.78-1.072" stroke="url(#paint44_linear_53_4189)"/><path d="M24.337 119.205c76.849-14.527 167.226-31.086 241.728-25.69 64.308 4.658 122.068 10.276 181.929 19.369 23.104-4.62 50.1-7.91 78.393-3.142 39.289 6.58 72.586 27.611 97.482 47.793 26.131 21.143 46.949 42.211 74.069 60.656 3.274 2.254 6.733 4.435 10.254 6.616 34.286 21.549 79.814 37.665 127.69 39.476 24.031.887 48.68-1.922 71.289-9.277 23.537-7.652 44.355-19.406 60.417-34.967 22.857-22.067 36.322-50.011 53.932-75.33 15.01-21.623 33.11-41.324 59.61-54.853 31.2-15.857 68.63-19.627 103.85-19.923 36.38-.295 72.4 4.806 110.76 8.243 38.36 3.4 80.68 4.953 116.45-1.33" stroke="url(#paint45_linear_53_4189)"/><path d="M22.919 120.905c76.23-13.085 164.879-30.568 238.515-26.354 62.27 3.548 117.744 7.244 175.628 14.637 23.29-5.508 50.718-9.536 79.567-4.99 39.907 6.321 73.451 28.092 97.853 49.16 25.513 21.993 45.281 44.023 71.659 63.465 3.213 2.366 6.61 4.695 10.008 6.986 33.668 22.806 79.196 40.105 127.69 42.803 24.463 1.368 49.668-1.183 72.895-8.317 24.216-7.429 45.714-19.183 62.393-34.892 23.537-22.252 37.313-50.639 55.163-76.365 15.26-21.993 33.61-42.027 60.73-55.592 31.94-15.894 70.36-19.553 106.31-18.666 37.01.96 73.46 6.431 112.31 10.35 38.86 3.917 81.98 5.507 118.12-1.553" stroke="url(#paint46_linear_53_4189)"/><path d="M21.495 122.606c75.552-11.644 162.656-22.547 235.242-27.02 60.046-3.696 113.42 4.177 169.265 9.906 23.475-6.358 51.335-11.2 80.679-6.838 40.586 6.062 74.316 28.609 98.285 50.528 24.895 22.806 43.551 45.797 69.25 66.237 3.151 2.513 6.425 4.916 9.761 7.356 33.05 24.062 78.64 42.544 127.69 46.129 24.895 1.811 50.656-.407 74.501-7.319 24.896-7.244 47.135-18.961 64.308-34.855 24.216-22.437 38.301-51.305 56.404-77.437 15.5-22.363 34.1-42.729 61.83-56.331 32.75-15.931 72.16-19.036 108.73-17.373 37.62 1.7 74.44 8.058 113.91 12.457 39.42 4.398 83.28 6.061 119.79-1.812" stroke="url(#paint47_linear_53_4189)"/><path d="M20.077 124.306c74.872-10.202 160.617-21.66 232.029-27.685 57.699-4.88 109.096 1.146 162.964 5.175 23.66-7.245 51.954-12.863 81.853-8.65 41.204 5.804 75.181 29.09 98.656 51.896 24.277 23.619 41.822 47.608 66.841 69.046 3.027 2.625 6.301 5.175 9.513 7.726 32.432 25.319 78.023 45.02 127.69 49.456 25.328 2.254 51.706.369 76.108-6.358 25.575-7.023 48.555-18.703 66.285-34.782 24.896-22.584 39.289-51.932 57.698-78.472 15.756-22.732 34.536-43.468 62.946-57.07 33.55-16.005 73.89-18.518 111.2-16.116 38.18 2.44 75.49 9.684 115.46 14.564 39.97 4.879 84.57 6.616 121.45-2.07" stroke="url(#paint48_linear_53_4189)"/><path d="M18.654 126.006c74.193-8.76 158.516-20.699 228.755-28.35 55.351-6.025 104.771-1.922 156.663.443 23.784-8.131 52.571-14.526 82.965-10.497 41.883 5.507 76.107 29.607 99.026 53.263 23.722 24.433 40.092 49.419 64.432 71.819 2.965 2.735 6.115 5.396 9.266 8.058 31.814 26.576 77.405 47.46 127.69 52.782 25.761 2.736 52.695 1.146 77.714-5.396 26.254-6.838 49.976-18.482 68.2-34.708 25.575-22.769 40.278-52.561 58.934-79.544 16.001-23.139 35.031-44.17 64.001-57.81 34.28-16.041 75.67-18 113.67-14.859 38.79 3.216 76.54 11.311 117 16.67 40.46 5.36 85.87 7.171 123.12-2.328" stroke="url(#paint49_linear_53_4189)"/><path d="M17.231 127.669c73.513-7.318 156.477-19.738 225.543-29.015 52.941-7.097 100.447-4.953 150.361-4.288 23.969-9.019 53.189-16.153 84.139-12.346 42.501 5.25 76.972 30.125 99.458 54.631 23.104 25.209 38.425 51.231 62.023 74.628a229.508 229.508 0 009.081 8.427c31.197 27.833 76.787 49.937 127.69 56.11 26.193 3.179 53.683 1.922 79.32-4.399 26.934-6.616 51.397-18.259 70.115-34.634 26.317-22.954 41.266-53.189 60.17-80.579 16.249-23.508 35.459-44.872 65.109-58.585 35.09-16.116 77.47-17.484 116.14-13.603 39.41 3.955 77.53 12.937 118.55 18.814 41.02 5.84 87.16 7.726 124.78-2.55" stroke="url(#paint50_linear_53_4189)"/><path d="M15.813 129.37c72.833-5.877 154.439-18.703 222.33-29.681 50.594-8.17 96.123-8.021 144.061-9.02 24.154-9.868 53.806-17.815 85.25-14.156 43.181 4.99 77.899 30.605 99.829 55.998 22.487 26.022 36.695 53.042 59.614 77.4 2.78 2.994 5.807 5.914 8.834 8.797 30.579 29.09 76.169 52.377 127.69 59.436 26.625 3.66 54.671 2.699 80.926-3.437 27.613-6.432 52.756-18.001 72.092-34.56 26.996-23.139 42.254-53.855 61.467-81.651 16.494-23.878 35.954-45.612 66.224-59.325 35.89-16.153 79.2-16.966 118.61-12.345 40.03 4.694 78.58 14.563 120.15 20.92 41.58 6.321 88.46 8.28 126.46-2.809" stroke="url(#paint51_linear_53_4189)"/><path d="M14.39 131.07c72.153-4.436 152.4-17.631 219.056-30.346 48.308-9.204 91.798-11.052 137.759-13.75 24.34-10.757 54.425-19.443 86.424-16.005 43.799 4.73 78.764 31.122 100.2 57.403 21.931 26.835 34.965 54.815 57.204 80.209 2.719 3.105 5.622 6.136 8.587 9.167 29.961 30.309 75.552 54.852 127.69 62.762 26.996 4.103 55.722 3.438 82.533-2.476 28.293-6.21 54.177-17.779 74.007-34.487 27.675-23.323 43.243-54.483 62.702-82.722 16.741-24.248 36.388-46.314 67.338-60.064 36.63-16.227 80.99-16.449 121.02-11.052 40.64 5.433 79.62 16.189 121.69 23.028 42.07 6.838 89.76 8.834 128.13-3.068" stroke="url(#paint52_linear_53_4189)"/><path d="M12.97 132.77c71.537-2.994 150.424-16.485 215.845-31.012 45.961-10.201 87.474-14.12 131.458-18.481 24.525-11.643 55.042-21.106 87.536-17.853 44.479 4.472 79.691 31.603 100.633 58.771 21.374 27.648 33.235 56.626 54.794 82.981a206.41 206.41 0 008.34 9.499c29.344 31.566 74.934 57.292 127.69 66.09 27.429 4.583 56.71 4.213 84.138-1.479 28.973-6.025 55.598-17.557 75.984-34.449 28.355-23.508 44.17-55.112 63.938-83.758 16.988-24.617 36.884-47.016 68.444-60.803 37.44-16.264 82.72-15.931 123.49-9.795 41.27 6.172 80.62 17.816 123.25 25.134 42.62 7.319 91.05 9.389 129.72-3.326" stroke="url(#paint53_linear_53_4189)"/><path d="M11.548 134.471c70.857-1.553 148.509-15.303 212.57-31.677 43.675-11.163 83.15-17.151 125.096-23.213 24.71-12.53 55.659-22.769 88.709-19.701 45.096 4.177 80.556 32.12 101.003 60.138 20.757 28.462 31.568 58.438 52.386 85.791 2.533 3.326 5.313 6.616 8.154 9.869 28.664 32.823 74.316 59.768 127.69 69.416 27.861 5.027 57.699 4.99 85.745-.518 29.652-5.803 56.957-17.335 77.899-34.375 28.973-23.693 45.158-55.777 65.235-84.83 17.235-24.986 37.374-47.755 69.555-61.542 38.24-16.338 84.51-15.414 125.96-8.539 41.89 6.912 81.67 19.443 124.79 27.242 43.12 7.799 92.36 9.943 131.4-3.549" stroke="url(#paint54_linear_53_4189)"/><path d="M10.13 136.171c70.177-.111 146.655-14.046 209.357-32.342 41.451-12.087 78.826-20.219 118.794-27.944 24.896-13.38 56.278-24.359 89.822-21.513 45.714 3.992 81.482 32.602 101.435 61.506 20.201 29.275 29.838 60.25 49.977 88.563 2.471 3.474 5.127 6.875 7.907 10.239 28.046 34.079 73.637 62.245 127.69 72.742 28.293 5.508 58.687 5.766 87.351.481 30.332-5.619 58.378-17.114 79.876-34.302 29.652-23.878 46.146-56.405 66.47-85.864 17.483-25.356 37.807-48.458 70.671-62.282 38.98-16.375 86.3-14.896 128.43-7.282 42.44 7.652 82.72 21.106 126.39 29.386 43.68 8.279 93.66 10.497 133.07-3.808" stroke="url(#paint55_linear_53_4189)"/><path d="M8.706 137.871c69.498 1.293 144.864-12.752 206.084-33.008 39.289-13.01 74.501-23.25 112.493-32.712 25.019-14.267 56.895-26.022 90.995-23.36 46.394 3.696 82.409 33.118 101.806 62.873 19.645 30.088 28.108 62.061 47.568 91.372 2.347 3.585 4.942 7.097 7.66 10.608 27.428 35.337 73.018 64.722 127.69 76.069 28.664 5.951 59.675 6.543 88.957 1.442 31.011-5.397 59.798-16.855 81.791-34.227 30.331-24.063 47.134-57.034 67.705-86.937 17.73-25.726 38.301-49.16 71.785-63.058 39.78-16.448 88.09-14.379 130.84-6.025 43.12 8.391 83.71 22.732 127.94 31.492 44.23 8.76 94.95 11.052 134.73-4.066" stroke="url(#paint56_linear_53_4189)"/><path d="M7.288 139.534c68.818 2.735 143.196-11.384 202.871-33.673 37.189-13.898 73.451-23.102 106.192-37.443 28.85-12.641 57.513-27.685 92.108-25.209 47.011 3.438 83.335 33.6 102.177 64.242 19.026 30.9 26.44 63.871 45.157 94.143 2.286 3.697 4.819 7.356 7.414 10.941 26.748 36.594 72.401 67.199 127.69 79.396 29.096 6.432 60.725 7.356 90.563 2.403 31.691-5.175 61.157-16.633 83.767-34.154 31.012-24.247 48.124-57.661 68.942-88.008 17.977-26.095 38.733-49.899 72.891-63.797 40.59-16.486 89.89-13.861 133.32-4.769 43.73 9.167 84.75 24.359 129.48 33.599 44.72 9.241 96.24 11.607 136.4-4.324" stroke="url(#paint57_linear_53_4189)"/><path d="M5.865 141.234c68.138 4.177 141.713-10.017 199.659-34.338 35.15-14.748 68.756-26.909 99.891-42.174 28.54-14.01 58.13-29.312 93.281-27.02 47.691 3.179 84.2 34.116 102.609 65.609 18.471 31.714 24.71 65.645 42.749 96.953 2.224 3.807 4.633 7.577 7.166 11.31 26.131 37.85 71.783 69.638 127.69 82.723 29.528 6.912 61.714 8.095 92.169 3.4 32.37-4.953 62.579-16.411 85.683-34.079 31.69-24.433 49.111-58.327 70.238-89.043 18.224-26.466 39.228-50.602 73.95-64.537 41.32-16.56 91.61-13.344 135.78-3.475 44.35 9.906 85.8 25.985 131.09 35.706 45.28 9.758 97.54 12.161 138.06-4.546" stroke="url(#paint58_linear_53_4189)"/><path d="M4.447 142.935c67.52 5.618 140.292-8.576 196.384-35.004 33.174-15.635 63.938-30.68 93.59-46.906 28.108-15.413 58.749-30.974 94.393-28.868 48.309 2.92 85.127 34.597 102.98 66.977 17.915 32.527 22.981 67.457 40.34 99.725 2.1 3.955 4.448 7.836 6.98 11.68 25.452 39.07 71.104 72.115 127.69 86.086 29.9 7.356 62.703 8.871 93.776 4.362 33.05-4.768 63.999-16.153 87.598-34.043 32.432-24.58 50.099-58.955 71.474-90.115 18.471-26.835 39.722-51.304 75.057-65.276 42.131-16.596 93.401-12.826 138.251-2.218 44.98 10.646 86.8 27.612 132.63 37.813 45.78 10.239 98.85 12.715 139.74-4.805" stroke="url(#paint59_linear_53_4189)"/><path d="M2.963 144.635c66.84 7.06 138.995-7.133 193.172-35.669 31.32-16.485 58.934-34.375 87.289-51.637 27.552-16.78 59.366-32.638 95.567-30.716 48.988 2.625 86.177 35.078 103.35 68.381 17.483 33.341 21.251 69.268 37.93 102.535 2.039 4.066 4.263 8.095 6.734 12.05 24.71 40.363 70.486 74.59 127.69 89.412 30.332 7.837 63.691 9.648 95.381 5.323 33.73-4.546 65.421-15.931 89.575-33.969 33.112-24.765 51.027-59.583 72.71-91.15 18.656-27.241 40.154-52.043 76.169-66.015 42.93-16.67 95.26-12.345 140.72-.961 45.6 11.348 87.85 29.238 134.18 39.957 46.33 10.719 100.14 13.306 141.41-5.064" stroke="url(#paint60_linear_53_4189)"/><path d="M1.545 146.335c66.161 8.502 137.883-5.692 189.898-36.334 29.467-17.373 53.806-37.998 80.988-56.368 26.872-18.186 59.984-34.302 96.678-32.564 49.606 2.365 87.042 35.595 103.783 69.748 16.865 34.154 19.583 71.08 35.521 105.307a180.05 180.05 0 006.487 12.419c24.092 41.583 69.806 77.105 127.69 92.74 30.702 8.316 64.679 10.423 96.987 6.32 34.409-4.361 66.841-15.709 91.49-33.894 33.791-24.95 52.015-60.213 74.007-92.222 18.903-27.611 40.648-52.746 77.281-66.792 43.675-16.707 96.985-11.828 143.135.296 46.21 12.087 88.89 30.864 135.72 42.063 46.89 11.2 101.44 13.861 143.07-5.322" stroke="url(#paint61_linear_53_4189)"/><path d="M.121 148.035c65.482 9.943 136.895-4.213 186.686-36.999 27.737-18.297 48.556-41.546 74.625-61.1 26.069-19.553 60.602-35.927 97.791-34.375 50.285 2.107 87.906 36.113 104.153 71.116 16.247 35.004 17.854 72.891 33.112 108.116 20.88 48.2 69.683 90.707 133.991 108.818 64.309 18.112 143.196 9.093 192.06-26.539 64.247-46.795 73.143-130.441 153.636-160.787 44.475-16.782 98.775-11.274 145.605 1.552 46.83 12.826 89.88 32.49 137.33 44.17 47.38 11.681 102.73 14.416 144.74-5.544" stroke="url(#paint62_linear_53_4189)"/></g><defs><linearGradient id="paint0_linear_53_4189" x1="1441.03" y1="104.477" x2="81.703" y2="181.652" gradientUnits="userSpaceOnUse"><stop stop-color="#FCC8E0"/><stop offset=".191" stop-color="#FC00EA"/><stop offset=".495" stop-color="#08F8C7"/><stop offset=".803" stop-color="#9C00BC"/><stop offset="1" stop-color="#5300C9"/></linearGradient><linearGradient id="paint1_linear_53_4189" x1="1440.55" y1="105.483" x2="80.723" y2="182.686" gradientUnits="userSpaceOnUse"><stop stop-color="#FCC8E0"/><stop offset=".191" stop-color="#FC00EA"/><stop offset=".495" stop-color="#08F8C7"/><stop offset=".803" stop-color="#9C00BC"/><stop offset="1" stop-color="#5300C9"/></linearGradient><linearGradient id="paint2_linear_53_4189" x1="1440.08" y1="106.518" x2="79.742" y2="183.75" gradientUnits="userSpaceOnUse"><stop stop-color="#FCC8E0"/><stop offset=".191" stop-color="#FC00EA"/><stop offset=".495" stop-color="#08F8C7"/><stop offset=".803" stop-color="#9C00BC"/><stop offset="1" stop-color="#5300C9"/></linearGradient><linearGradient id="paint3_linear_53_4189" x1="1439.6" y1="107.584" x2="78.766" y2="184.843" gradientUnits="userSpaceOnUse"><stop stop-color="#FCC8E0"/><stop offset=".191" stop-color="#FC00EA"/><stop offset=".495" stop-color="#08F8C7"/><stop offset=".803" stop-color="#9C00BC"/><stop offset="1" stop-color="#5300C9"/></linearGradient><linearGradient id="paint4_linear_53_4189" x1="1439.13" y1="108.668" x2="77.792" y2="185.957" gradientUnits="userSpaceOnUse"><stop stop-color="#FCC8E0"/><stop offset=".191" stop-color="#FC00EA"/><stop offset=".495" stop-color="#08F8C7"/><stop offset=".803" stop-color="#9C00BC"/><stop offset="1" stop-color="#5300C9"/></linearGradient><linearGradient id="paint5_linear_53_4189" x1="1438.66" y1="109.795" x2="76.816" y2="187.113" gradientUnits="userSpaceOnUse"><stop stop-color="#FCC8E0"/><stop offset=".191" stop-color="#FC00EA"/><stop offset=".495" stop-color="#08F8C7"/><stop offset=".803" stop-color="#9C00BC"/><stop offset="1" stop-color="#5300C9"/></linearGradient><linearGradient id="paint6_linear_53_4189" x1="1438.19" y1="110.956" x2="75.847" y2="188.301" gradientUnits="userSpaceOnUse"><stop stop-color="#FCC8E0"/><stop offset=".191" stop-color="#FC00EA"/><stop offset=".495" stop-color="#08F8C7"/><stop offset=".803" stop-color="#9C00BC"/><stop offset="1" stop-color="#5300C9"/></linearGradient><linearGradient id="paint7_linear_53_4189" x1="1437.72" y1="112.149" x2="74.876" y2="189.523" gradientUnits="userSpaceOnUse"><stop stop-color="#FCC8E0"/><stop offset=".191" stop-color="#FC00EA"/><stop offset=".495" stop-color="#08F8C7"/><stop offset=".803" stop-color="#9C00BC"/><stop offset="1" stop-color="#5300C9"/></linearGradient><linearGradient id="paint8_linear_53_4189" x1="1437.26" y1="113.377" x2="73.91" y2="190.78" gradientUnits="userSpaceOnUse"><stop stop-color="#FCC8E0"/><stop offset=".191" stop-color="#FC00EA"/><stop offset=".495" stop-color="#08F8C7"/><stop offset=".803" stop-color="#9C00BC"/><stop offset="1" stop-color="#5300C9"/></linearGradient><linearGradient id="paint9_linear_53_4189" x1="1436.79" y1="114.623" x2="72.924" y2="192.055" gradientUnits="userSpaceOnUse"><stop stop-color="#FCC8E0"/><stop offset=".191" stop-color="#FC00EA"/><stop offset=".495" stop-color="#08F8C7"/><stop offset=".803" stop-color="#9C00BC"/><stop offset="1" stop-color="#5300C9"/></linearGradient><linearGradient id="paint10_linear_53_4189" x1="1436.33" y1="115.861" x2="71.927" y2="193.323" gradientUnits="userSpaceOnUse"><stop stop-color="#FCC8E0"/><stop offset=".191" stop-color="#FC00EA"/><stop offset=".495" stop-color="#08F8C7"/><stop offset=".803" stop-color="#9C00BC"/><stop offset="1" stop-color="#5300C9"/></linearGradient><linearGradient id="paint11_linear_53_4189" x1="1435.86" y1="117.088" x2="70.935" y2="194.581" gradientUnits="userSpaceOnUse"><stop stop-color="#FCC8E0"/><stop offset=".191" stop-color="#FC00EA"/><stop offset=".495" stop-color="#08F8C7"/><stop offset=".803" stop-color="#9C00BC"/><stop offset="1" stop-color="#5300C9"/></linearGradient><linearGradient id="paint12_linear_53_4189" x1="1435.39" y1="118.303" x2="69.936" y2="195.826" gradientUnits="userSpaceOnUse"><stop stop-color="#FCC8E0"/><stop offset=".191" stop-color="#FC00EA"/><stop offset=".495" stop-color="#08F8C7"/><stop offset=".803" stop-color="#9C00BC"/><stop offset="1" stop-color="#5300C9"/></linearGradient><linearGradient id="paint13_linear_53_4189" x1="1434.93" y1="119.506" x2="68.942" y2="197.059" gradientUnits="userSpaceOnUse"><stop stop-color="#FCC8E0"/><stop offset=".191" stop-color="#FC00EA"/><stop offset=".495" stop-color="#08F8C7"/><stop offset=".803" stop-color="#9C00BC"/><stop offset="1" stop-color="#5300C9"/></linearGradient><linearGradient id="paint14_linear_53_4189" x1="1434.46" y1="120.695" x2="67.945" y2="198.278" gradientUnits="userSpaceOnUse"><stop stop-color="#FCC8E0"/><stop offset=".191" stop-color="#FC00EA"/><stop offset=".495" stop-color="#08F8C7"/><stop offset=".803" stop-color="#9C00BC"/><stop offset="1" stop-color="#5300C9"/></linearGradient><linearGradient id="paint15_linear_53_4189" x1="1433.99" y1="121.868" x2="66.945" y2="199.482" gradientUnits="userSpaceOnUse"><stop stop-color="#FCC8E0"/><stop offset=".191" stop-color="#FC00EA"/><stop offset=".495" stop-color="#08F8C7"/><stop offset=".803" stop-color="#9C00BC"/><stop offset="1" stop-color="#5300C9"/></linearGradient><linearGradient id="paint16_linear_53_4189" x1="1433.52" y1="123.026" x2="65.948" y2="200.667" gradientUnits="userSpaceOnUse"><stop stop-color="#FCC8E0"/><stop offset=".191" stop-color="#FC00EA"/><stop offset=".495" stop-color="#08F8C7"/><stop offset=".803" stop-color="#9C00BC"/><stop offset="1" stop-color="#5300C9"/></linearGradient><linearGradient id="paint17_linear_53_4189" x1="1433.05" y1="124.164" x2="64.945" y2="201.836" gradientUnits="userSpaceOnUse"><stop stop-color="#FCC8E0"/><stop offset=".191" stop-color="#FC00EA"/><stop offset=".495" stop-color="#08F8C7"/><stop offset=".803" stop-color="#9C00BC"/><stop offset="1" stop-color="#5300C9"/></linearGradient><linearGradient id="paint18_linear_53_4189" x1="1432.58" y1="125.285" x2="63.945" y2="202.988" gradientUnits="userSpaceOnUse"><stop stop-color="#FCC8E0"/><stop offset=".191" stop-color="#FC00EA"/><stop offset=".495" stop-color="#08F8C7"/><stop offset=".803" stop-color="#9C00BC"/><stop offset="1" stop-color="#5300C9"/></linearGradient><linearGradient id="paint19_linear_53_4189" x1="1432.1" y1="126.383" x2="62.944" y2="204.116" gradientUnits="userSpaceOnUse"><stop stop-color="#FCC8E0"/><stop offset=".191" stop-color="#FC00EA"/><stop offset=".495" stop-color="#08F8C7"/><stop offset=".803" stop-color="#9C00BC"/><stop offset="1" stop-color="#5300C9"/></linearGradient><linearGradient id="paint20_linear_53_4189" x1="1431.63" y1="127.453" x2="61.937" y2="205.216" gradientUnits="userSpaceOnUse"><stop stop-color="#FCC8E0"/><stop offset=".191" stop-color="#FC00EA"/><stop offset=".495" stop-color="#08F8C7"/><stop offset=".803" stop-color="#9C00BC"/><stop offset="1" stop-color="#5300C9"/></linearGradient><linearGradient id="paint21_linear_53_4189" x1="1431.06" y1="126.844" x2="60.842" y2="204.638" gradientUnits="userSpaceOnUse"><stop stop-color="#FCC8E0"/><stop offset=".191" stop-color="#FC00EA"/><stop offset=".495" stop-color="#08F8C7"/><stop offset=".803" stop-color="#9C00BC"/><stop offset="1" stop-color="#5300C9"/></linearGradient><linearGradient id="paint22_linear_53_4189" x1="1430.47" y1="125.966" x2="59.724" y2="203.79" gradientUnits="userSpaceOnUse"><stop stop-color="#FCC8E0"/><stop offset=".191" stop-color="#FC00EA"/><stop offset=".495" stop-color="#08F8C7"/><stop offset=".803" stop-color="#9C00BC"/><stop offset="1" stop-color="#5300C9"/></linearGradient><linearGradient id="paint23_linear_53_4189" x1="1429.89" y1="125.106" x2="58.613" y2="202.959" gradientUnits="userSpaceOnUse"><stop stop-color="#FCC8E0"/><stop offset=".191" stop-color="#FC00EA"/><stop offset=".495" stop-color="#08F8C7"/><stop offset=".803" stop-color="#9C00BC"/><stop offset="1" stop-color="#5300C9"/></linearGradient><linearGradient id="paint24_linear_53_4189" x1="1429.3" y1="124.263" x2="57.503" y2="202.146" gradientUnits="userSpaceOnUse"><stop stop-color="#FCC8E0"/><stop offset=".191" stop-color="#FC00EA"/><stop offset=".495" stop-color="#08F8C7"/><stop offset=".803" stop-color="#9C00BC"/><stop offset="1" stop-color="#5300C9"/></linearGradient><linearGradient id="paint25_linear_53_4189" x1="1428.72" y1="123.435" x2="56.389" y2="201.348" gradientUnits="userSpaceOnUse"><stop stop-color="#FCC8E0"/><stop offset=".191" stop-color="#FC00EA"/><stop offset=".495" stop-color="#08F8C7"/><stop offset=".803" stop-color="#9C00BC"/><stop offset="1" stop-color="#5300C9"/></linearGradient><linearGradient id="paint26_linear_53_4189" x1="1428.14" y1="122.622" x2="55.282" y2="200.564" gradientUnits="userSpaceOnUse"><stop stop-color="#FCC8E0"/><stop offset=".191" stop-color="#FC00EA"/><stop offset=".495" stop-color="#08F8C7"/><stop offset=".803" stop-color="#9C00BC"/><stop offset="1" stop-color="#5300C9"/></linearGradient><linearGradient id="paint27_linear_53_4189" x1="1427.55" y1="121.821" x2="54.17" y2="199.794" gradientUnits="userSpaceOnUse"><stop stop-color="#FCC8E0"/><stop offset=".191" stop-color="#FC00EA"/><stop offset=".495" stop-color="#08F8C7"/><stop offset=".803" stop-color="#9C00BC"/><stop offset="1" stop-color="#5300C9"/></linearGradient><linearGradient id="paint28_linear_53_4189" x1="1426.97" y1="121.032" x2="53.064" y2="199.035" gradientUnits="userSpaceOnUse"><stop stop-color="#FCC8E0"/><stop offset=".191" stop-color="#FC00EA"/><stop offset=".495" stop-color="#08F8C7"/><stop offset=".803" stop-color="#9C00BC"/><stop offset="1" stop-color="#5300C9"/></linearGradient><linearGradient id="paint29_linear_53_4189" x1="1426.4" y1="120.252" x2="51.959" y2="198.284" gradientUnits="userSpaceOnUse"><stop stop-color="#FCC8E0"/><stop offset=".191" stop-color="#FC00EA"/><stop offset=".495" stop-color="#08F8C7"/><stop offset=".803" stop-color="#9C00BC"/><stop offset="1" stop-color="#5300C9"/></linearGradient><linearGradient id="paint30_linear_53_4189" x1="1425.81" y1="119.486" x2="50.85" y2="197.547" gradientUnits="userSpaceOnUse"><stop stop-color="#FCC8E0"/><stop offset=".191" stop-color="#FC00EA"/><stop offset=".495" stop-color="#08F8C7"/><stop offset=".803" stop-color="#9C00BC"/><stop offset="1" stop-color="#5300C9"/></linearGradient><linearGradient id="paint31_linear_53_4189" x1="1425.24" y1="118.728" x2="49.748" y2="196.82" gradientUnits="userSpaceOnUse"><stop stop-color="#FCC8E0"/><stop offset=".191" stop-color="#FC00EA"/><stop offset=".495" stop-color="#08F8C7"/><stop offset=".803" stop-color="#9C00BC"/><stop offset="1" stop-color="#5300C9"/></linearGradient><linearGradient id="paint32_linear_53_4189" x1="1424.62" y1="121.551" x2="48.395" y2="199.684" gradientUnits="userSpaceOnUse"><stop stop-color="#FCC8E0"/><stop offset=".191" stop-color="#FC00EA"/><stop offset=".495" stop-color="#08F8C7"/><stop offset=".803" stop-color="#9C00BC"/><stop offset="1" stop-color="#5300C9"/></linearGradient><linearGradient id="paint33_linear_53_4189" x1="1424.01" y1="124.468" x2="47.053" y2="202.643" gradientUnits="userSpaceOnUse"><stop stop-color="#FCC8E0"/><stop offset=".191" stop-color="#FC00EA"/><stop offset=".495" stop-color="#08F8C7"/><stop offset=".803" stop-color="#9C00BC"/><stop offset="1" stop-color="#5300C9"/></linearGradient><linearGradient id="paint34_linear_53_4189" x1="1423.4" y1="127.492" x2="45.713" y2="205.709" gradientUnits="userSpaceOnUse"><stop stop-color="#FCC8E0"/><stop offset=".191" stop-color="#FC00EA"/><stop offset=".495" stop-color="#08F8C7"/><stop offset=".803" stop-color="#9C00BC"/><stop offset="1" stop-color="#5300C9"/></linearGradient><linearGradient id="paint35_linear_53_4189" x1="1422.8" y1="130.593" x2="44.382" y2="208.851" gradientUnits="userSpaceOnUse"><stop stop-color="#FCC8E0"/><stop offset=".191" stop-color="#FC00EA"/><stop offset=".495" stop-color="#08F8C7"/><stop offset=".803" stop-color="#9C00BC"/><stop offset="1" stop-color="#5300C9"/></linearGradient><linearGradient id="paint36_linear_53_4189" x1="1422.21" y1="133.744" x2="43.05" y2="212.044" gradientUnits="userSpaceOnUse"><stop stop-color="#FCC8E0"/><stop offset=".191" stop-color="#FC00EA"/><stop offset=".495" stop-color="#08F8C7"/><stop offset=".803" stop-color="#9C00BC"/><stop offset="1" stop-color="#5300C9"/></linearGradient><linearGradient id="paint37_linear_53_4189" x1="1421.61" y1="136.898" x2="41.719" y2="215.239" gradientUnits="userSpaceOnUse"><stop stop-color="#FCC8E0"/><stop offset=".191" stop-color="#FC00EA"/><stop offset=".495" stop-color="#08F8C7"/><stop offset=".803" stop-color="#9C00BC"/><stop offset="1" stop-color="#5300C9"/></linearGradient><linearGradient id="paint38_linear_53_4189" x1="1421.01" y1="140.013" x2="40.39" y2="218.396" gradientUnits="userSpaceOnUse"><stop stop-color="#FCC8E0"/><stop offset=".191" stop-color="#FC00EA"/><stop offset=".495" stop-color="#08F8C7"/><stop offset=".803" stop-color="#9C00BC"/><stop offset="1" stop-color="#5300C9"/></linearGradient><linearGradient id="paint39_linear_53_4189" x1="1420.45" y1="143.044" x2="39.053" y2="221.472" gradientUnits="userSpaceOnUse"><stop stop-color="#FCC8E0"/><stop offset=".191" stop-color="#FC00EA"/><stop offset=".495" stop-color="#08F8C7"/><stop offset=".803" stop-color="#9C00BC"/><stop offset="1" stop-color="#5300C9"/></linearGradient><linearGradient id="paint40_linear_53_4189" x1="1419.89" y1="145.962" x2="37.714" y2="224.434" gradientUnits="userSpaceOnUse"><stop stop-color="#FCC8E0"/><stop offset=".191" stop-color="#FC00EA"/><stop offset=".495" stop-color="#08F8C7"/><stop offset=".803" stop-color="#9C00BC"/><stop offset="1" stop-color="#5300C9"/></linearGradient><linearGradient id="paint41_linear_53_4189" x1="1419.32" y1="148.761" x2="36.365" y2="227.277" gradientUnits="userSpaceOnUse"><stop stop-color="#FCC8E0"/><stop offset=".191" stop-color="#FC00EA"/><stop offset=".495" stop-color="#08F8C7"/><stop offset=".803" stop-color="#9C00BC"/><stop offset="1" stop-color="#5300C9"/></linearGradient><linearGradient id="paint42_linear_53_4189" x1="1418.74" y1="151.447" x2="35.014" y2="230.006" gradientUnits="userSpaceOnUse"><stop stop-color="#FCC8E0"/><stop offset=".191" stop-color="#FC00EA"/><stop offset=".495" stop-color="#08F8C7"/><stop offset=".803" stop-color="#9C00BC"/><stop offset="1" stop-color="#5300C9"/></linearGradient><linearGradient id="paint43_linear_53_4189" x1="1418.16" y1="154.087" x2="33.657" y2="232.69" gradientUnits="userSpaceOnUse"><stop stop-color="#FCC8E0"/><stop offset=".191" stop-color="#FC00EA"/><stop offset=".495" stop-color="#08F8C7"/><stop offset=".803" stop-color="#9C00BC"/><stop offset="1" stop-color="#5300C9"/></linearGradient><linearGradient id="paint44_linear_53_4189" x1="1417.57" y1="156.548" x2="32.296" y2="235.195" gradientUnits="userSpaceOnUse"><stop stop-color="#FCC8E0"/><stop offset=".191" stop-color="#FC00EA"/><stop offset=".495" stop-color="#08F8C7"/><stop offset=".803" stop-color="#9C00BC"/><stop offset="1" stop-color="#5300C9"/></linearGradient><linearGradient id="paint45_linear_53_4189" x1="1416.98" y1="159.044" x2="30.932" y2="237.735" gradientUnits="userSpaceOnUse"><stop stop-color="#FCC8E0"/><stop offset=".191" stop-color="#FC00EA"/><stop offset=".495" stop-color="#08F8C7"/><stop offset=".803" stop-color="#9C00BC"/><stop offset="1" stop-color="#5300C9"/></linearGradient><linearGradient id="paint46_linear_53_4189" x1="1416.38" y1="161.408" x2="29.565" y2="240.143" gradientUnits="userSpaceOnUse"><stop stop-color="#FCC8E0"/><stop offset=".191" stop-color="#FC00EA"/><stop offset=".495" stop-color="#08F8C7"/><stop offset=".803" stop-color="#9C00BC"/><stop offset="1" stop-color="#5300C9"/></linearGradient><linearGradient id="paint47_linear_53_4189" x1="1415.78" y1="163.785" x2="28.195" y2="242.564" gradientUnits="userSpaceOnUse"><stop stop-color="#FCC8E0"/><stop offset=".191" stop-color="#FC00EA"/><stop offset=".495" stop-color="#08F8C7"/><stop offset=".803" stop-color="#9C00BC"/><stop offset="1" stop-color="#5300C9"/></linearGradient><linearGradient id="paint48_linear_53_4189" x1="1415.18" y1="166.021" x2="26.823" y2="244.844" gradientUnits="userSpaceOnUse"><stop stop-color="#FCC8E0"/><stop offset=".191" stop-color="#FC00EA"/><stop offset=".495" stop-color="#08F8C7"/><stop offset=".803" stop-color="#9C00BC"/><stop offset="1" stop-color="#5300C9"/></linearGradient><linearGradient id="paint49_linear_53_4189" x1="1414.37" y1="164.849" x2="25.253" y2="243.715" gradientUnits="userSpaceOnUse"><stop stop-color="#FCC8E0"/><stop offset=".191" stop-color="#FC00EA"/><stop offset=".495" stop-color="#08F8C7"/><stop offset=".803" stop-color="#9C00BC"/><stop offset="1" stop-color="#5300C9"/></linearGradient><linearGradient id="paint50_linear_53_4189" x1="1413.55" y1="163.374" x2="23.666" y2="242.283" gradientUnits="userSpaceOnUse"><stop stop-color="#FCC8E0"/><stop offset=".191" stop-color="#FC00EA"/><stop offset=".495" stop-color="#08F8C7"/><stop offset=".803" stop-color="#9C00BC"/><stop offset="1" stop-color="#5300C9"/></linearGradient><linearGradient id="paint51_linear_53_4189" x1="1412.73" y1="161.906" x2="22.086" y2="240.858" gradientUnits="userSpaceOnUse"><stop stop-color="#FCC8E0"/><stop offset=".191" stop-color="#FC00EA"/><stop offset=".495" stop-color="#08F8C7"/><stop offset=".803" stop-color="#9C00BC"/><stop offset="1" stop-color="#5300C9"/></linearGradient><linearGradient id="paint52_linear_53_4189" x1="1411.91" y1="160.445" x2="20.5" y2="239.44" gradientUnits="userSpaceOnUse"><stop stop-color="#FCC8E0"/><stop offset=".191" stop-color="#FC00EA"/><stop offset=".495" stop-color="#08F8C7"/><stop offset=".803" stop-color="#9C00BC"/><stop offset="1" stop-color="#5300C9"/></linearGradient><linearGradient id="paint53_linear_53_4189" x1="1411.09" y1="158.99" x2="18.921" y2="238.028" gradientUnits="userSpaceOnUse"><stop stop-color="#FCC8E0"/><stop offset=".191" stop-color="#FC00EA"/><stop offset=".495" stop-color="#08F8C7"/><stop offset=".803" stop-color="#9C00BC"/><stop offset="1" stop-color="#5300C9"/></linearGradient><linearGradient id="paint54_linear_53_4189" x1="1410.27" y1="157.544" x2="17.338" y2="236.625" gradientUnits="userSpaceOnUse"><stop stop-color="#FCC8E0"/><stop offset=".191" stop-color="#FC00EA"/><stop offset=".495" stop-color="#08F8C7"/><stop offset=".803" stop-color="#9C00BC"/><stop offset="1" stop-color="#5300C9"/></linearGradient><linearGradient id="paint55_linear_53_4189" x1="1409.45" y1="156.11" x2="15.724" y2="235.238" gradientUnits="userSpaceOnUse"><stop stop-color="#FCC8E0"/><stop offset=".191" stop-color="#FC00EA"/><stop offset=".495" stop-color="#08F8C7"/><stop offset=".803" stop-color="#9C00BC"/><stop offset="1" stop-color="#5300C9"/></linearGradient><linearGradient id="paint56_linear_53_4189" x1="1408.62" y1="154.677" x2="14.102" y2="233.849" gradientUnits="userSpaceOnUse"><stop stop-color="#FCC8E0"/><stop offset=".191" stop-color="#FC00EA"/><stop offset=".495" stop-color="#08F8C7"/><stop offset=".803" stop-color="#9C00BC"/><stop offset="1" stop-color="#5300C9"/></linearGradient><linearGradient id="paint57_linear_53_4189" x1="1407.81" y1="153.295" x2="12.486" y2="232.512" gradientUnits="userSpaceOnUse"><stop stop-color="#FCC8E0"/><stop offset=".191" stop-color="#FC00EA"/><stop offset=".495" stop-color="#08F8C7"/><stop offset=".803" stop-color="#9C00BC"/><stop offset="1" stop-color="#5300C9"/></linearGradient><linearGradient id="paint58_linear_53_4189" x1="1406.98" y1="151.863" x2="10.863" y2="231.126" gradientUnits="userSpaceOnUse"><stop stop-color="#FCC8E0"/><stop offset=".191" stop-color="#FC00EA"/><stop offset=".495" stop-color="#08F8C7"/><stop offset=".803" stop-color="#9C00BC"/><stop offset="1" stop-color="#5300C9"/></linearGradient><linearGradient id="paint59_linear_53_4189" x1="1406.16" y1="150.441" x2="9.246" y2="229.749" gradientUnits="userSpaceOnUse"><stop stop-color="#FCC8E0"/><stop offset=".191" stop-color="#FC00EA"/><stop offset=".495" stop-color="#08F8C7"/><stop offset=".803" stop-color="#9C00BC"/><stop offset="1" stop-color="#5300C9"/></linearGradient><linearGradient id="paint60_linear_53_4189" x1="1405.34" y1="149.027" x2="7.624" y2="228.381" gradientUnits="userSpaceOnUse"><stop stop-color="#FCC8E0"/><stop offset=".191" stop-color="#FC00EA"/><stop offset=".495" stop-color="#08F8C7"/><stop offset=".803" stop-color="#9C00BC"/><stop offset="1" stop-color="#5300C9"/></linearGradient><linearGradient id="paint61_linear_53_4189" x1="1404.52" y1="147.622" x2="6.007" y2="227.021" gradientUnits="userSpaceOnUse"><stop stop-color="#FCC8E0"/><stop offset=".191" stop-color="#FC00EA"/><stop offset=".495" stop-color="#08F8C7"/><stop offset=".803" stop-color="#9C00BC"/><stop offset="1" stop-color="#5300C9"/></linearGradient><linearGradient id="paint62_linear_53_4189" x1="1403.69" y1="146.222" x2="4.386" y2="225.666" gradientUnits="userSpaceOnUse"><stop stop-color="#FCC8E0"/><stop offset=".191" stop-color="#FC00EA"/><stop offset=".495" stop-color="#08F8C7"/><stop offset=".803" stop-color="#9C00BC"/><stop offset="1" stop-color="#5300C9"/></linearGradient><clipPath id="clip0_53_4189"><path fill="#fff" d="M0 0h1439v313H0z"/></clipPath></defs></svg>