<svg width="99" height="25" fill="none" xmlns="http://www.w3.org/2000/svg"><g clip-path="url(#clip0_2_3661)"><path d="M.039 0h3.294l5.14 18.896h.066L14.04 0h3.624l5.502 18.896h.066L28.373 0h3.294l-6.786 23.638h-3.329L15.886 4.34h-.066l-5.633 19.298H6.859L.039 0zm42.494 14.423c-.066-2.638-1.516-4.608-4.514-4.608-2.932 0-4.843 2.504-4.843 4.608h9.357zm-9.357 2.403c0 2.77 2.537 4.608 5.271 4.608 1.813 0 3.13-.935 4.284-2.37l2.24 1.735c-1.647 2.17-3.92 3.239-6.918 3.239-4.943 0-8.04-3.605-8.04-8.313 0-4.741 3.394-8.314 8.073-8.314 5.502 0 7.61 4.274 7.61 8.347v1.068h-12.52z" fill="#fff"/><path d="M82.883 16.646h-.822c-2.169 0-5.913.166-5.913 2.463 0 1.462 1.477 2.096 2.758 2.096 2.694 0 3.977-1.432 3.977-3.661v-.898zm.229 4.961h-.1c-1.116 1.797-2.955 2.595-5.058 2.595-2.923 0-5.749-1.632-5.749-4.793 0-5.195 5.98-5.56 9.92-5.56h.987v-.432c0-1.965-1.512-2.996-3.615-2.996a6.16 6.16 0 00-4.204 1.665l-2.069-2.097c1.74-1.798 4.205-2.564 6.701-2.564 6.735 0 6.735 4.926 6.735 7.19v9.187h-3.548v-2.195zm5.765-13.782h3.943v2.53h.066c.854-1.831 2.595-2.93 4.663-2.93.492 0 .951.1 1.412.233v3.861c-.656-.168-1.28-.3-1.903-.3-3.711 0-4.238 3.163-4.238 4.028v8.555h-3.943V7.825zm-29.3 13.14c-4.59 0-8.312-3.77-8.312-8.422 0-4.653 3.721-8.424 8.312-8.424 2.81 0 5.287 1.419 6.79 3.583H63.98l4.858 3.794 4.047-3.794H70.87C68.996 3.284 64.674.186 59.626.186c-6.76 0-12.243 5.554-12.243 12.407C47.383 19.444 52.865 25 59.626 25c4.645 0 8.684-2.619 10.76-6.48l-3.23-2.526c-1.304 2.929-4.203 4.972-7.579 4.972zm37.872 2.329a1.634 1.634 0 01-1.208.508c-.472 0-.874-.17-1.206-.508a1.695 1.695 0 01-.495-1.227c0-.476.167-.882.5-1.22a1.62 1.62 0 011.201-.503c.472 0 .874.166 1.208.504.334.335.5.742.5 1.219 0 .478-.166.888-.5 1.227zm-2.243-2.277c-.286.29-.428.64-.428 1.053 0 .414.14.767.424 1.058.285.293.631.439 1.04.439.406 0 .753-.146 1.037-.439.284-.291.428-.644.428-1.058a1.45 1.45 0 00-.428-1.053 1.4 1.4 0 00-1.038-.439c-.405 0-.75.146-1.035.439zm1.002.097c.232 0 .401.023.51.069.194.08.29.24.29.479 0 .17-.06.294-.183.375a.665.665 0 01-.27.09.455.455 0 01.322.188.52.52 0 01.102.293v.14c0 .043.002.09.004.14a.31.31 0 00.016.1l.012.024h-.307a.067.067 0 01-.004-.02l-.006-.02-.007-.06v-.152c0-.22-.06-.365-.177-.435-.07-.042-.192-.061-.368-.061h-.26v.748h-.33v-1.898h.656zm.355.298c-.083-.047-.216-.07-.4-.07h-.281v.687h.298c.14 0 .244-.014.314-.044.128-.05.193-.148.193-.296 0-.138-.042-.23-.124-.277z" fill="#87CF32"/></g><defs><clipPath id="clip0_2_3661"><path fill="#fff" d="M0 0h99v25H0z"/></clipPath></defs></svg>