<svg width="202" height="41" fill="none" xmlns="http://www.w3.org/2000/svg"><path fill-rule="evenodd" clip-rule="evenodd" d="M15.002 35.544l20.916 4.131V20.633H15.002v14.91zm22.358 1.968h.663v2.066h.272v-2.082h.669v-.252H37.36v.268zm3.82-.243l-.726 1.602c-.032.063-.063.158-.11.284h-.01l-.127-.278-.726-1.608h-.347v2.309h.266v-1.546c0-.22-.01-.378-.016-.473.016.095.038.19.063.22l.789 1.767h.126l.79-1.779c.021-.044.043-.12.069-.22h.006a3.608 3.608 0 00-.032.447v1.546h.272v-2.303h-.335l.048.032zM0 32.569l12.972 2.568V20.661H0v11.947-.038zm116.614-16.1h-.063c-1.032-1.816-2.683-2.069-4.949-2.069-2.304 0-4.135.84-5.524 2.514-1.388 1.672-2.073 3.904-2.073 6.686 0 2.596.622 4.649 1.868 6.15 1.241 1.514 2.904 2.261 4.968 2.261 2.557 0 4.451-.662 5.669-2.825h.063v2.428h3.819V6.718h-3.819v9.758l.041-.007zm14.913-2.069c-2.746 0-4.923.795-6.533 2.382-1.619 1.608-2.431 3.816-2.431 6.623 0 2.617.78 4.699 2.33 6.276 1.546 1.577 3.623 2.365 6.224 2.365 2.673 0 4.797-.807 6.385-2.422 1.584-1.615 2.377-3.766 2.377-6.45 0-2.734-.736-4.875-2.203-6.418-1.471-1.545-3.52-2.32-6.149-2.32V14.4zm43.241 9.405a6.093 6.093 0 00-1.357-1.04 18.177 18.177 0 00-1.793-.906c-.505-.157-.953-.347-1.341-.504a4.997 4.997 0 01-1.01-.505c-.285-.19-.505-.41-.632-.662-.158-.252-.221-.562-.221-.915 0-.303.063-.567.202-.82a1.93 1.93 0 01.591-.63 2.84 2.84 0 01.915-.41c.36-.095.757-.152 1.199-.152 1.421 0 2.674.41 3.756 1.214v-3.368c-1.123-.473-2.405-.707-3.85-.707-.799 0-1.579.108-2.336.322a6.517 6.517 0 00-2.033.953 4.759 4.759 0 00-1.42 1.56c-.357.619-.537 1.332-.537 2.145 0 .656.095 1.23.262 1.726.168.491.423.933.758 1.324.347.385.767.732 1.275 1.04.505.307 1.083.6 1.717.871.505.208.978.395 1.389.559.42.164.783.347 1.092.558.3.208.546.441.726.713.189.268.274.599.274.977 0 1.357-1.054 2.038-3.175 2.038-1.578 0-3.03-.543-4.343-1.625v3.501c1.244.612 2.715.915 4.409.915.875 0 1.711-.101 2.503-.303.789-.202 1.496-.505 2.102-.927a4.756 4.756 0 001.452-1.577c.366-.637.549-1.388.549-2.24 0-.693-.101-1.302-.306-1.813a4.213 4.213 0 00-.861-1.34l.044.028zm-95.079 7.812h3.82V14.791h-3.82v16.826zm16.223-17.22c-2.32 0-4.09 1.066-5.318 3.192h-.063v-2.797h-3.725v16.825h3.725v-9.594c0-1.324.369-2.422 1.104-3.292.736-.883 1.648-1.577 2.778-1.577 2.168 0 3.863.883 3.797 4.983v9.461h3.188V21.317c0-2.24-.474-3.974-1.408-5.166-.94-1.186-2.304-1.782-4.081-1.782l.003.028zm20.752 9.556c0 1.514-.422 2.77-1.262 3.766-.843.978-1.941 1.482-3.295 1.482-1.389 0-2.494-.536-3.314-1.545-.821-1.04-1.225-2.428-1.225-4.226 0-1.956.426-3.488 1.272-4.589.852-1.104 2.011-1.656 3.491-1.656 1.253 0 2.282.436 3.093 1.293.805.87 1.209 1.924 1.209 3.154v2.293l.031.028zm18.092 3.542c-.805.997-1.957 1.495-3.459 1.495-1.484 0-2.651-.505-3.535-1.52-.884-1.01-1.326-2.403-1.326-4.163 0-1.83.429-3.264 1.294-4.305.865-1.04 2.052-1.561 3.535-1.561 1.503 0 2.652.504 3.46 1.514.804 1.009 1.208 2.434 1.208 4.289 0 1.835-.404 3.255-1.208 4.251h.031zm23.157-.527a8.153 8.153 0 00-.246 1.451h-.113a9.01 9.01 0 00-.212-1.45l-2.998-12.174h-3.535l-3.377 12.11a8.54 8.54 0 00-.253 1.483h-.117c-.031-.6-.094-1.073-.195-1.451l-3.03-12.11h-3.914l4.911 16.825h3.882l3.302-11.433c.176-.599.274-1.072.296-1.45h.063c.032.548.105 1.04.221 1.482l3.04 11.398h3.961l4.924-16.83h-3.598l-2.98 12.175-.032-.026zm-87.567-1.576c-.214.914-.337 1.64-.372 2.176h-.063a13.694 13.694 0 00-.34-2.094L65.166 8.096H61.2L56.434 25.34c-.253.956-.41 1.713-.448 2.27h-.082a13.125 13.125 0 00-.322-2.27l-4.21-17.25h-4.23l6.495 23.559h4.45l4.438-16.526c.206-.732.335-1.483.392-2.271h.063c.044.839.158 1.608.34 2.302l4.42 16.482h4.355l6.366-23.559h-4.008l-4.135 17.315h.029zM0 19.018h12.972V4.542L0 7.102v11.916zm15.002 0h20.916V0L15.002 4.132v14.886zM178.243 14.4c-.562 0-1.042.196-1.433.584-.41.41-.6.883-.6 1.42 0 .535.19 1.04.568 1.418.379.379.868.587 1.427.587.552 0 1.029-.19 1.42-.58.395-.388.6-.858.6-1.407s-.205-1.025-.6-1.413a1.959 1.959 0 00-1.42-.58l.038-.029zm1.218 3.208a1.704 1.704 0 01-1.231.505 1.71 1.71 0 01-1.231-.505 1.615 1.615 0 01-.505-1.218c0-.473.158-.883.505-1.22a1.708 1.708 0 011.231-.505c.474 0 .884.168 1.2.505.334.338.505.744.505 1.22 0 .474-.171.884-.505 1.218h.031zm-.947-1.117v-.031a.688.688 0 00.442-.252.687.687 0 00.158-.442.627.627 0 00-.252-.505c-.177-.12-.411-.18-.726-.18h-.758v2.505h.448v-1.01h.209c.142 0 .284.142.4.433l.253.577h.555l-.331-.662c-.133-.284-.284-.442-.41-.46l.012.027zm-.347-.252h-.341v-.757h.284c.174 0 .307.032.389.095.082.031.126.126.126.284 0 .252-.158.378-.464.378h.006zM81.681 7.156c-1.263 0-2.305.946-2.305 2.113s1.03 2.113 2.295 2.113c1.263 0 2.295-.946 2.295-2.113s-1.03-2.113-2.295-2.113h.01z" fill="#fff"/></svg>