<svg width="48" height="48" fill="none" xmlns="http://www.w3.org/2000/svg"><g clip-path="url(#clip0_2_3653)"><path d="M33.043 20.162v2.857h7.884c-.066-.8-.188-2.093-.367-2.857h-7.517z" fill="url(#paint0_linear_2_3653)"/><path d="M40.927 24.887h-9.393v2.857h9.024c.18-.764.303-2.054.369-2.857z" fill="url(#paint1_linear_2_3653)"/><path d="M7.43 27.744h9.024v-2.857H7.065c.066.8.188 2.093.367 2.857H7.43z" fill="url(#paint2_linear_2_3653)"/><path d="M7.43 20.162c-.178.764-.301 2.054-.367 2.857h7.884v-2.857H7.43z" fill="url(#paint3_linear_2_3653)"/><path d="M23.934 23.547c-.443 1.69-.915 3.358-1.415 5.017a184.943 184.943 0 01-1.584 5.017h-3.859a61.42 61.42 0 01-1.3-3.33c-.47-1.282-.952-2.688-1.451-4.204-.5-1.519-1.01-3.122-1.536-4.82a195.29 195.29 0 01-1.52-5.14h5.233c.18.803.378 1.671.586 2.612.217.944.434 1.916.67 2.914.234 1 .48 2.001.735 3.009.254 1.01.519 1.982.791 2.915.292-.972.567-1.972.849-2.99.274-1.017.537-2.018.802-3.009.254-.99.5-1.942.726-2.856a73.18 73.18 0 00.614-2.575h3.59c.181.8.38 1.659.596 2.573.227.925.453 1.877.697 2.86.246.99.5 1.988.764 3.007.265 1.018.547 2.018.83 2.99a127.609 127.609 0 001.555-5.922c.238-1 .455-1.971.672-2.914.217-.943.403-1.81.584-2.611h5.159c-.492 1.724-.991 3.44-1.52 5.137a237.11 237.11 0 01-1.535 4.82c-.5 1.517-.99 2.922-1.473 4.204a72.042 72.042 0 01-1.319 3.33h-3.859c-.557-1.688-1.092-3.356-1.63-5.017a92.428 92.428 0 01-1.452-5.017z" fill="url(#paint4_linear_2_3653)"/><path d="M24 .02C10.779.02.057 10.732.057 23.951c0 13.221 10.712 23.935 23.933 23.935s23.935-10.714 23.935-23.935C47.935 10.732 37.209.019 24 .019zm0 44.067c-11.117 0-20.133-9.016-20.133-20.135C3.867 12.835 12.88 3.821 24 3.821c11.117 0 20.133 9.016 20.133 20.133 0 11.119-9.015 20.135-20.133 20.135v-.002z" fill="url(#paint5_linear_2_3653)"/></g><defs><linearGradient id="paint0_linear_2_3653" x1="15.37" y1="44.96" x2="19.873" y2="7.883" gradientUnits="userSpaceOnUse"><stop stop-color="#6449DE"/><stop offset=".35" stop-color="#854CD9"/><stop offset=".75" stop-color="#AA48D4"/><stop offset="1" stop-color="#BD5AFD"/></linearGradient><linearGradient id="paint1_linear_2_3653" x1="17.218" y1="46.672" x2="20.319" y2="10.436" gradientUnits="userSpaceOnUse"><stop stop-color="#6449DE"/><stop offset=".35" stop-color="#854CD9"/><stop offset=".75" stop-color="#AA48D4"/><stop offset="1" stop-color="#BD5AFD"/></linearGradient><linearGradient id="paint2_linear_2_3653" x1="4.131" y1="34.567" x2="7.233" y2="-1.669" gradientUnits="userSpaceOnUse"><stop stop-color="#6449DE"/><stop offset=".35" stop-color="#854CD9"/><stop offset=".75" stop-color="#AA48D4"/><stop offset="1" stop-color="#BD5AFD"/></linearGradient><linearGradient id="paint3_linear_2_3653" x1="1.465" y1="32.103" x2="5.969" y2="-4.974" gradientUnits="userSpaceOnUse"><stop stop-color="#6449DE"/><stop offset=".35" stop-color="#854CD9"/><stop offset=".75" stop-color="#AA48D4"/><stop offset="1" stop-color="#BD5AFD"/></linearGradient><linearGradient id="paint4_linear_2_3653" x1="8.408" y1="38.526" x2="25.831" y2="-1.358" gradientUnits="userSpaceOnUse"><stop stop-color="#6449DE"/><stop offset=".35" stop-color="#854CD9"/><stop offset=".75" stop-color="#AA48D4"/><stop offset="1" stop-color="#BD5AFD"/></linearGradient><linearGradient id="paint5_linear_2_3653" x1="9.545" y1="39.576" x2="40.83" y2="5.748" gradientUnits="userSpaceOnUse"><stop stop-color="#6449DE"/><stop offset=".35" stop-color="#854CD9"/><stop offset=".75" stop-color="#AA48D4"/><stop offset="1" stop-color="#BD5AFD"/></linearGradient><clipPath id="clip0_2_3653"><path fill="#fff" d="M0 0h48v48H0z"/></clipPath></defs></svg>