<svg width="89" height="25" fill="none" xmlns="http://www.w3.org/2000/svg"><g clip-path="url(#clip0_2_3618)"><path d="M0 6.05h5.297l3.076 7.924 3.12-7.924h5.162L8.89 24.833H3.704l2.132-4.967L0 6.05zm22.02-.316c-3.973 0-6.487 3.59-6.487 7.156 0 4.019 2.76 7.202 6.42 7.202 2.738 0 3.77-1.67 3.77-1.67v1.309h4.625V6.05h-4.624v1.24c-.023 0-1.168-1.557-3.704-1.557zm.988 4.402c1.84 0 2.783 1.468 2.783 2.777 0 1.422-1.01 2.822-2.783 2.822-1.46 0-2.784-1.197-2.784-2.754 0-1.58 1.055-2.845 2.784-2.845zm8.91 9.595V0h4.827v7.337s1.145-1.603 3.546-1.603c2.94 0 4.67 2.212 4.67 5.35v8.647h-4.804v-7.473c0-1.06-.494-2.1-1.639-2.1-1.167 0-1.773 1.04-1.773 2.1v7.473h-4.826zm21.28-13.997c-4.557 0-7.273 3.477-7.273 7.224 0 4.244 3.278 7.156 7.295 7.156 3.884 0 7.273-2.776 7.273-7.088 0-4.718-3.569-7.292-7.295-7.292zm.045 4.425c1.616 0 2.716 1.354 2.716 2.777 0 1.219-1.033 2.731-2.716 2.731-1.549 0-2.694-1.242-2.694-2.754 0-1.422.943-2.754 2.694-2.754zm15.286-4.425c-4.557 0-7.273 3.477-7.273 7.224 0 4.244 3.277 7.156 7.295 7.156 3.884 0 7.273-2.776 7.273-7.088 0-4.718-3.547-7.292-7.295-7.292zm.045 4.425c1.616 0 2.716 1.354 2.716 2.777 0 1.219-1.033 2.731-2.716 2.731-1.549 0-2.694-1.242-2.694-2.754 0-1.422.965-2.754 2.694-2.754zm11.066 3.409a3.218 3.218 0 013.21 3.228 3.218 3.218 0 01-3.21 3.228 3.218 3.218 0 01-3.21-3.228 3.218 3.218 0 013.21-3.228zm4.265-1.174h-5.77L83.255 0H89l-5.095 12.394z" fill="#fff"/></g><defs><clipPath id="clip0_2_3618"><path fill="#fff" d="M0 0h89v25H0z"/></clipPath></defs></svg>