<svg width="51" height="51" fill="none" xmlns="http://www.w3.org/2000/svg"><path fill-rule="evenodd" clip-rule="evenodd" d="M50.996 25.517c0 14.083-11.416 25.5-25.5 25.5-14.083 0-25.5-11.417-25.5-25.5s11.417-25.5 25.5-25.5c14.084 0 25.5 11.417 25.5 25.5z" fill="url(#paint0_linear_2_3648)"/><path fill-rule="evenodd" clip-rule="evenodd" d="M49.761 25.517c0 13.401-10.864 24.265-24.265 24.265-13.4 0-24.264-10.864-24.264-24.265S12.095 1.252 25.497 1.252c13.4 0 24.264 10.864 24.264 24.265z" fill="#fff"/><path fill-rule="evenodd" clip-rule="evenodd" d="M41.912 14.998L28.266 28.346V44.94c0 .299-1.295.538-2.77.558-1.414-.02-2.769-.26-2.769-.558V28.346L9.081 14.998c-.22-.219.478-1.255 1.554-2.33 1.075-1.076 2.131-1.774 2.33-1.554l12.512 12.212 12.51-12.213c.22-.219 1.255.479 2.331 1.554 1.076 1.076 1.793 2.112 1.594 2.331z" fill="#EC1C24"/><defs><linearGradient id="paint0_linear_2_3648" x1="25.497" y1=".017" x2="25.497" y2="51.017" gradientUnits="userSpaceOnUse"><stop offset="0" stop-color="#F5F5F6"/><stop offset="1" stop-color="#EDEDEE"/></linearGradient></defs></svg>