<svg width="37" height="37" viewBox="0 0 37 37" fill="none" xmlns="http://www.w3.org/2000/svg">
<path d="M3.7002 18.5C3.7002 14.5748 5.25948 10.8104 8.03502 8.03483C10.8106 5.25929 14.575 3.70001 18.5002 3.70001C22.4254 3.70001 26.1898 5.25929 28.9654 8.03483C31.7409 10.8104 33.3002 14.5748 33.3002 18.5C33.3002 22.4252 31.7409 26.1897 28.9654 28.9652C26.1898 31.7407 22.4254 33.3 18.5002 33.3C14.575 33.3 10.8106 31.7407 8.03502 28.9652C5.25948 26.1897 3.7002 22.4252 3.7002 18.5ZM22.1225 11.47C22.1755 11.3581 22.2055 11.2366 22.2108 11.1129C22.216 10.9891 22.1963 10.8656 22.1528 10.7496C22.1094 10.6336 22.0431 10.5275 21.9579 10.4376C21.8727 10.3477 21.7703 10.2758 21.6567 10.2263C21.5432 10.1767 21.4209 10.1504 21.2971 10.149C21.1732 10.1476 21.0503 10.1711 20.9357 10.2181C20.8211 10.2651 20.7171 10.3346 20.6299 10.4225C20.5426 10.5105 20.474 10.615 20.4279 10.73L13.9529 25.53C13.8999 25.6419 13.8698 25.7634 13.8646 25.8872C13.8594 26.0109 13.8791 26.1344 13.9226 26.2504C13.966 26.3664 14.0323 26.4725 14.1175 26.5624C14.2027 26.6523 14.3051 26.7242 14.4186 26.7738C14.5322 26.8233 14.6545 26.8496 14.7783 26.851C14.9022 26.8524 15.0251 26.8289 15.1397 26.7819C15.2543 26.735 15.3583 26.6654 15.4455 26.5775C15.5328 26.4896 15.6014 26.385 15.6475 26.27L22.1225 11.47ZM12.6801 14.1451C12.5942 14.059 12.4921 13.9906 12.3797 13.944C12.2673 13.8974 12.1469 13.8734 12.0252 13.8734C11.9035 13.8734 11.7831 13.8974 11.6707 13.944C11.5583 13.9906 11.4562 14.059 11.3703 14.1451L7.6703 17.8451C7.58415 17.931 7.51581 18.0331 7.46918 18.1455C7.42254 18.2579 7.39854 18.3783 7.39854 18.5C7.39854 18.6217 7.42254 18.7422 7.46918 18.8545C7.51581 18.9669 7.58415 19.069 7.6703 19.1549L11.3703 22.8549C11.544 23.0286 11.7796 23.1262 12.0252 23.1262C12.2708 23.1262 12.5064 23.0286 12.6801 22.8549C12.8538 22.6812 12.9514 22.4456 12.9514 22.2C12.9514 21.9544 12.8538 21.7188 12.6801 21.5451L9.63314 18.5L12.6801 15.4549C12.7662 15.369 12.8346 15.2669 12.8812 15.1545C12.9278 15.0422 12.9518 14.9217 12.9518 14.8C12.9518 14.6783 12.9278 14.5579 12.8812 14.4455C12.8346 14.3331 12.7662 14.231 12.6801 14.1451ZM24.3203 15.4549L27.3672 18.5L24.3203 21.5451C24.1466 21.7188 24.049 21.9544 24.049 22.2C24.049 22.4456 24.1466 22.6812 24.3203 22.8549C24.494 23.0286 24.7296 23.1262 24.9752 23.1262C25.2208 23.1262 25.4564 23.0286 25.6301 22.8549L29.3301 19.1549C29.4162 19.069 29.4846 18.9669 29.5312 18.8545C29.5778 18.7422 29.6018 18.6217 29.6018 18.5C29.6018 18.3783 29.5778 18.2579 29.5312 18.1455C29.4846 18.0331 29.4162 17.931 29.3301 17.8451L25.6301 14.1451C25.4564 13.9714 25.2208 13.8738 24.9752 13.8738C24.7296 13.8738 24.494 13.9714 24.3203 14.1451C24.1466 14.3188 24.049 14.5544 24.049 14.8C24.049 15.0456 24.1466 15.2812 24.3203 15.4549Z" fill="white"/>
</svg>
