<svg width="125" height="37" viewBox="0 0 125 37" fill="none" xmlns="http://www.w3.org/2000/svg">
<g clip-path="url(#clip0_227_3062)">
<path d="M124.204 32.6307C124.204 33.0963 124.112 33.5574 123.933 33.9876C123.755 34.4177 123.493 34.8085 123.163 35.1376C122.833 35.4667 122.441 35.7276 122.01 35.9055C121.579 36.0833 121.117 36.1746 120.651 36.1741H4.3822C3.43984 36.1751 2.53567 35.8024 1.86854 35.1379C1.2014 34.4734 0.825935 33.5715 0.824707 32.6307V4.37301C0.825935 3.43174 1.20125 2.52943 1.86825 1.8642C2.53525 1.19897 3.43941 0.825195 4.3822 0.824951H120.65C121.117 0.824951 121.579 0.916731 122.01 1.09505C122.441 1.27337 122.833 1.53473 123.163 1.86421C123.493 2.19369 123.754 2.58483 123.933 3.01529C124.111 3.44576 124.203 3.90711 124.203 4.37301L124.204 32.6307Z" fill="white"/>
<path d="M120.651 36.999H4.38224C3.22135 36.9987 2.10798 36.5387 1.28642 35.7199C0.464853 34.901 0.00220884 33.7902 0 32.6312L0 4.37446C0.00171736 3.21488 0.464056 2.10332 1.28559 1.28363C2.10713 0.463941 3.22078 0.00305393 4.38224 0.0020752L120.65 0.0020752C121.811 0.00354229 122.925 0.464586 123.746 1.28417C124.568 2.10376 125.03 3.21503 125.032 4.37446V32.6312C125.034 35.0404 123.065 36.999 120.651 36.999Z" fill="#A6A6A6"/>
<path d="M124.204 32.6307C124.204 33.0963 124.112 33.5574 123.933 33.9876C123.755 34.4177 123.493 34.8085 123.163 35.1376C122.833 35.4667 122.441 35.7276 122.01 35.9055C121.579 36.0833 121.117 36.1746 120.651 36.1741H4.3822C3.43984 36.1751 2.53567 35.8024 1.86854 35.1379C1.2014 34.4734 0.825935 33.5715 0.824707 32.6307V4.37301C0.825935 3.43174 1.20125 2.52943 1.86825 1.8642C2.53525 1.19897 3.43941 0.825195 4.3822 0.824951H120.65C121.117 0.824951 121.579 0.916731 122.01 1.09505C122.441 1.27337 122.833 1.53473 123.163 1.86421C123.493 2.19369 123.754 2.58483 123.933 3.01529C124.111 3.44576 124.203 3.90711 124.203 4.37301L124.204 32.6307Z" fill="black"/>
<path d="M27.9189 18.3053C27.892 15.3235 30.3644 13.8728 30.4774 13.8052C29.0772 11.7671 26.907 11.4886 26.1443 11.4664C24.3215 11.2749 22.5535 12.5553 21.6249 12.5553C20.6779 12.5553 19.248 11.4849 17.707 11.5163C15.7239 11.5469 13.8687 12.6932 12.8512 14.4732C10.7514 18.1027 12.3174 23.4363 14.3292 26.3701C15.3356 27.8078 16.5115 29.4111 18.0508 29.3547C19.5566 29.2936 20.1191 28.3971 21.9363 28.3971C23.7368 28.3971 24.265 29.3547 25.8348 29.3186C27.4509 29.2936 28.4684 27.8753 29.4396 26.4256C30.6025 24.7797 31.0696 23.1569 31.0881 23.0737C31.051 23.0607 27.9504 21.8783 27.9189 18.3053ZM24.9535 9.53647C25.7634 8.52525 26.3176 7.14951 26.1638 5.75342C24.9915 5.80523 23.5255 6.56295 22.6813 7.55196C21.9344 8.42348 21.2672 9.85195 21.4396 11.1953C22.7564 11.2934 24.1084 10.532 24.9535 9.53647Z" fill="white"/>
<path d="M120.651 0.00158691H58.374L82.7668 36.9985H120.651C121.812 36.9975 122.926 36.5369 123.747 35.7176C124.569 34.8983 125.031 33.7872 125.033 32.628V4.37398C125.031 3.21447 124.569 2.10305 123.747 1.28341C122.926 0.463775 121.812 0.00280992 120.651 0.00158691V0.00158691Z" fill="url(#paint0_linear_227_3062)"/>
<path d="M49.8199 27.2946H47.7154L46.5626 23.678H42.5557L41.4576 27.2946H39.4087L43.3795 14.9823H45.8315L49.8199 27.2946ZM46.2151 22.1608L45.1726 18.9458C45.0623 18.6173 44.8547 17.8439 44.5508 16.6263H44.5137C44.3914 17.15 44.1959 17.9234 43.9281 18.9458L42.9032 22.1608H46.2151ZM60.0114 22.7464C60.0114 24.2563 59.6009 25.4498 58.7789 26.3259C58.0432 27.1058 57.1285 27.4953 56.0378 27.4953C54.86 27.4953 54.0131 27.0762 53.4988 26.2362V30.8944H51.5231V21.3346C51.5231 20.3863 51.4981 19.4139 51.4499 18.4166H53.1874L53.2977 19.8238H53.3347C53.9936 18.7635 54.9935 18.2334 56.3353 18.2334C57.3843 18.2334 58.26 18.6469 58.9606 19.475C59.6602 20.3049 60.0114 21.3947 60.0114 22.7464ZM57.9987 22.8186C57.9987 21.9544 57.8041 21.2421 57.413 20.6805C56.9858 20.0967 56.4122 19.8043 55.6931 19.8043C55.2057 19.8043 54.7627 19.9672 54.367 20.2882C53.9704 20.612 53.711 21.0348 53.5896 21.5585C53.5354 21.7543 53.5046 21.9558 53.4978 22.1589V23.6401C53.4978 24.285 53.6961 24.8299 54.0928 25.2758C54.4894 25.7199 55.0046 25.9429 55.6384 25.9429C56.3826 25.9429 56.9617 25.6552 57.376 25.0843C57.7911 24.5116 57.9987 23.7567 57.9987 22.8186ZM70.2391 22.7464C70.2391 24.2563 69.8286 25.4498 69.0066 26.3259C68.2699 27.1058 67.3562 27.4953 66.2646 27.4953C65.0868 27.4953 64.2398 27.0762 63.7255 26.2362V30.8944H61.7499V21.3346C61.7499 20.3863 61.7248 19.4139 61.6766 18.4166H63.4142L63.5244 19.8238H63.5615C64.2194 18.7635 65.2193 18.2334 66.5621 18.2334C67.6101 18.2334 68.4858 18.6469 69.1883 19.475C69.887 20.3049 70.2391 21.3947 70.2391 22.7464ZM68.2254 22.8186C68.2254 21.9544 68.0299 21.2421 67.6389 20.6805C67.2117 20.0967 66.6399 19.8043 65.9208 19.8043C65.4334 19.8043 64.9904 19.9672 64.5929 20.2882C64.1963 20.612 63.9377 21.0348 63.8163 21.5585C63.7561 21.8027 63.7237 22.0016 63.7237 22.1589V23.6401C63.7237 24.285 63.9229 24.8299 64.3177 25.2758C64.7143 25.719 65.2295 25.9429 65.8652 25.9429C66.6103 25.9429 67.1894 25.6552 67.6027 25.0843C68.0179 24.5116 68.2254 23.7567 68.2254 22.8186ZM81.6742 23.8409C81.6742 24.8891 81.3073 25.7412 80.578 26.399C79.7755 27.1169 78.6551 27.4768 77.2188 27.4768C75.8918 27.4768 74.828 27.2215 74.0255 26.7099L74.4823 25.0658C75.3488 25.5784 76.3005 25.8337 77.3365 25.8337C78.0815 25.8337 78.6607 25.6653 79.074 25.3313C79.4882 24.9964 79.6976 24.5486 79.6976 23.9898C79.6976 23.4893 79.5244 23.0702 79.1843 22.7288C78.8423 22.3884 78.2771 22.071 77.4829 21.7796C75.3238 20.9756 74.2433 19.7997 74.2433 18.2528C74.2433 17.2425 74.625 16.4154 75.3868 15.7687C76.1485 15.1229 77.1586 14.8 78.4151 14.8C79.5373 14.8 80.4723 14.9953 81.2146 15.3848L80.7188 16.9927C80.0201 16.6152 79.2315 16.4265 78.3493 16.4265C77.6525 16.4265 77.1058 16.5977 76.7147 16.9381C76.3857 17.2425 76.2189 17.6135 76.2189 18.0539C76.2189 18.5396 76.4089 18.943 76.787 19.2594C77.115 19.5508 77.7136 19.8682 78.5792 20.2086C79.6411 20.6361 80.4214 21.1338 80.9209 21.7056C81.424 22.2773 81.6742 22.9906 81.6742 23.8409ZM88.223 19.8968H86.0454V24.2072C86.0454 25.3036 86.429 25.8504 87.1981 25.8504C87.5512 25.8504 87.844 25.8208 88.0757 25.7588L88.1304 27.2566C87.7412 27.4019 87.2287 27.475 86.5939 27.475C85.8137 27.475 85.2039 27.2372 84.7638 26.7617C84.3255 26.2861 84.1049 25.4895 84.1049 24.3682V19.8931H82.8076V18.4129H84.1049V16.7873L86.0454 16.2026V18.4129H88.223V19.8968ZM98.0291 22.7825C98.0291 24.1471 97.638 25.2675 96.8578 26.1436C96.0414 27.0457 94.9553 27.4953 93.6015 27.4953C92.2948 27.4953 91.256 27.0633 90.4813 26.2001C89.7066 25.335 89.3193 24.2452 89.3193 22.9305C89.3193 21.5548 89.7196 20.4279 90.5175 19.5518C91.3172 18.6747 92.394 18.2362 93.7479 18.2362C95.0526 18.2362 96.1007 18.6691 96.8939 19.5333C97.6519 20.3715 98.0291 21.4539 98.0291 22.7825ZM95.9811 22.8278C95.9811 22.0146 95.8051 21.317 95.452 20.7332C95.0378 20.0282 94.4447 19.6757 93.6765 19.6757C92.8851 19.6757 92.2782 20.0282 91.8649 20.7332C91.5109 21.317 91.3348 22.0266 91.3348 22.8648C91.3348 23.679 91.5109 24.3784 91.8649 24.9603C92.2921 25.6653 92.8879 26.0178 93.6598 26.0178C94.4151 26.0178 95.0072 25.6579 95.4353 24.9428C95.7986 24.3451 95.9811 23.6429 95.9811 22.8278ZM104.454 20.1513C104.248 20.1142 104.04 20.096 103.831 20.0967C103.136 20.0967 102.599 20.3576 102.22 20.8831C101.892 21.3457 101.727 21.9304 101.727 22.6363V27.2946H99.7518V21.2125C99.7535 20.2805 99.7344 19.3486 99.6943 18.4175H101.415L101.487 20.1161H101.542C101.752 19.5323 102.08 19.0614 102.53 18.7089C102.942 18.4009 103.443 18.2341 103.958 18.2334C104.141 18.2334 104.305 18.2463 104.452 18.2695L104.454 20.1513ZM113.29 22.4355C113.295 22.7354 113.27 23.035 113.217 23.3302H107.29C107.312 24.2073 107.6 24.8789 108.15 25.3415C108.65 25.7541 109.296 25.9614 110.089 25.9614C110.966 25.9614 111.767 25.8226 112.487 25.5423L112.797 26.9106C111.955 27.277 110.962 27.4592 109.815 27.4592C108.437 27.4592 107.354 27.054 106.567 26.2454C105.781 25.4359 105.387 24.3479 105.387 22.9851C105.387 21.6473 105.753 20.5324 106.486 19.6434C107.253 18.6941 108.29 18.2195 109.595 18.2195C110.876 18.2195 111.847 18.6941 112.506 19.6434C113.027 20.3955 113.29 21.3281 113.29 22.4355ZM111.406 21.9239C111.42 21.3383 111.29 20.8341 111.022 20.4075C110.68 19.858 110.154 19.5841 109.448 19.5841C108.803 19.5841 108.276 19.8515 107.876 20.3881C107.547 20.8146 107.351 21.3272 107.291 21.9221L111.406 21.9239Z" fill="white"/>
<path d="M41.986 12.5856C41.4365 12.5856 40.9611 12.5588 40.5654 12.5135V6.56087C41.1188 6.47552 41.6781 6.43345 42.2381 6.43505C44.5038 6.43505 45.5472 7.54804 45.5472 9.36231C45.5472 11.4551 44.3147 12.5856 41.986 12.5856ZM42.3178 7.19832C42.012 7.19832 41.7516 7.21682 41.5357 7.26123V11.7863C41.6524 11.8048 41.8767 11.8131 42.1917 11.8131C43.6763 11.8131 44.5214 10.9693 44.5214 9.38914C44.5214 7.9801 43.7569 7.19832 42.3178 7.19832ZM48.7989 12.631C47.522 12.631 46.6944 11.679 46.6944 10.3865C46.6944 9.03942 47.5396 8.07909 48.8712 8.07909C50.1296 8.07909 50.9757 8.98576 50.9757 10.3152C50.9757 11.679 50.1037 12.631 48.7989 12.631ZM48.836 8.78778C48.1345 8.78778 47.6851 9.4428 47.6851 10.3587C47.6851 11.2571 48.1438 11.9121 48.8267 11.9121C49.5097 11.9121 49.9684 11.2117 49.9684 10.3402C49.9684 9.45205 49.5189 8.78778 48.836 8.78778ZM58.2575 8.16883L56.8906 12.532H56.0001L55.4339 10.6372C55.2931 10.1737 55.1759 9.70345 55.0827 9.22816H55.0642C54.9928 9.7037 54.8575 10.1802 54.7139 10.6372L54.1115 12.532H53.2117L51.9255 8.16883H52.9235L53.4184 10.2431C53.5351 10.7371 53.6334 11.2034 53.7149 11.6438H53.7335C53.8048 11.2765 53.9216 10.8176 54.093 10.2523L54.7139 8.16976H55.5052L56.0992 10.2079C56.2429 10.702 56.3596 11.1868 56.4505 11.6447H56.4764C56.5394 11.196 56.6386 10.7195 56.7729 10.2079L57.3039 8.16976L58.2575 8.16883ZM63.2893 12.532H62.3182V10.0266C62.3182 9.25499 62.0216 8.86827 61.4369 8.86827C60.8614 8.86827 60.4657 9.36231 60.4657 9.93685V12.532H59.4946V9.41597C59.4946 9.03017 59.4853 8.61662 59.4584 8.16791H60.3128L60.3582 8.84144H60.3851C60.6464 8.37515 61.1765 8.07909 61.7705 8.07909C62.6879 8.07909 63.2902 8.77945 63.2902 9.91927L63.2893 12.532ZM65.9674 12.532H64.9953V6.16675H65.9674V12.532ZM69.5082 12.631C68.2322 12.631 67.4037 11.679 67.4037 10.3865C67.4037 9.03942 68.2489 8.07909 69.5796 8.07909C70.8389 8.07909 71.684 8.98576 71.684 10.3152C71.685 11.679 70.812 12.631 69.5082 12.631ZM69.5443 8.78778C68.8429 8.78778 68.3934 9.4428 68.3934 10.3587C68.3934 11.2571 68.8531 11.9121 69.5342 11.9121C70.218 11.9121 70.6758 11.2117 70.6758 10.3402C70.6767 9.45205 70.2282 8.78778 69.5443 8.78778ZM75.513 12.532L75.4426 12.0296H75.4167C75.1201 12.4339 74.6874 12.631 74.1388 12.631C73.3558 12.631 72.7997 12.0833 72.7997 11.3468C72.7997 10.2699 73.7348 9.71295 75.3537 9.71295V9.63246C75.3537 9.05793 75.0488 8.7702 74.4464 8.7702C74.0155 8.7702 73.6375 8.87844 73.3048 9.09401L73.1074 8.45656C73.5114 8.20491 74.0155 8.07909 74.6077 8.07909C75.7494 8.07909 76.3257 8.68046 76.3257 9.88411V11.4911C76.3257 11.9315 76.3452 12.2729 76.3888 12.5329L75.513 12.532ZM75.3796 10.3587C74.301 10.3587 73.7598 10.6196 73.7598 11.2386C73.7598 11.6965 74.0387 11.9204 74.4261 11.9204C74.92 11.9204 75.3796 11.5439 75.3796 11.0323V10.3587ZM81.0416 12.532L80.9962 11.8316H80.9693C80.6904 12.3608 80.2215 12.631 79.5663 12.631C78.5127 12.631 77.7324 11.7058 77.7324 10.4041C77.7324 9.03942 78.5414 8.07817 79.646 8.07817C80.2307 8.07817 80.645 8.27523 80.8785 8.6712H80.8979V6.16675H81.87V11.3561C81.87 11.7779 81.8802 12.173 81.9062 12.532H81.0416ZM80.8979 9.9646C80.8979 9.35398 80.493 8.83311 79.8749 8.83311C79.1549 8.83311 78.7147 9.47056 78.7147 10.368C78.7147 11.2478 79.1716 11.8501 79.8554 11.8501C80.4661 11.8501 80.8979 11.32 80.8979 10.6918V9.9646ZM88.0333 12.631C86.7573 12.631 85.9298 11.679 85.9298 10.3865C85.9298 9.03942 86.7749 8.07909 88.1056 8.07909C89.365 8.07909 90.2101 8.98576 90.2101 10.3152C90.211 11.679 89.339 12.631 88.0333 12.631ZM88.0695 8.78778C87.3689 8.78778 86.9195 9.4428 86.9195 10.3587C86.9195 11.2571 87.3782 11.9121 88.0602 11.9121C88.7441 11.9121 89.2019 11.2117 89.2019 10.3402C89.2037 9.45205 88.7543 8.78778 88.0695 8.78778ZM95.4328 12.532H94.4607V10.0266C94.4607 9.25499 94.1642 8.86827 93.5795 8.86827C93.004 8.86827 92.6092 9.36231 92.6092 9.93685V12.532H91.6372V9.41597C91.6372 9.03017 91.6279 8.61662 91.601 8.16791H92.4554L92.5008 8.84144H92.5277C92.7881 8.37515 93.3191 8.07817 93.9121 8.07817C94.8295 8.07817 95.4328 8.77852 95.4328 9.91834V12.532ZM101.967 8.89602H100.898V11.0147C100.898 11.5541 101.086 11.8233 101.464 11.8233C101.635 11.8233 101.779 11.8048 101.895 11.778L101.921 12.5144C101.733 12.5866 101.481 12.6226 101.168 12.6226C100.403 12.6226 99.9448 12.2008 99.9448 11.0961V8.89602H99.3072V8.16883H99.9448V7.36948L100.898 7.08175V8.16791H101.967V8.89602ZM107.108 12.532H106.138V10.0451C106.138 9.26424 105.842 8.86919 105.256 8.86919C104.753 8.86919 104.284 9.21058 104.284 9.90169V12.532H103.314V6.16675H104.284V8.78778H104.304C104.61 8.31223 105.053 8.07817 105.618 8.07817C106.543 8.07817 107.108 8.7961 107.108 9.93685V12.532ZM112.375 10.5835H109.461C109.479 11.4097 110.027 11.876 110.838 11.876C111.269 11.876 111.665 11.8039 112.016 11.6697L112.167 12.3432C111.753 12.5227 111.267 12.6125 110.701 12.6125C109.334 12.6125 108.525 11.7502 108.525 10.4133C108.525 9.07551 109.353 8.06984 110.591 8.06984C111.708 8.06984 112.409 8.89602 112.409 10.1441C112.415 10.2914 112.404 10.4389 112.375 10.5835ZM111.485 9.89244C111.485 9.21891 111.145 8.74337 110.524 8.74337C109.966 8.74337 109.525 9.22816 109.462 9.89244H111.485Z" fill="white"/>
</g>
<defs>
<linearGradient id="paint0_linear_227_3062" x1="91.7026" y1="37.0967" x2="91.7026" y2="-96.332" gradientUnits="userSpaceOnUse">
<stop stop-color="#1A1A1A" stop-opacity="0.1"/>
<stop offset="0.123" stop-color="#212121" stop-opacity="0.151"/>
<stop offset="0.308" stop-color="#353535" stop-opacity="0.227"/>
<stop offset="0.532" stop-color="#575757" stop-opacity="0.318"/>
<stop offset="0.783" stop-color="#858585" stop-opacity="0.421"/>
<stop offset="1" stop-color="#B3B3B3" stop-opacity="0.51"/>
</linearGradient>
<clipPath id="clip0_227_3062">
<rect width="125" height="37" fill="white"/>
</clipPath>
</defs>
</svg>
