<svg width="84" height="81" viewBox="0 0 84 81" fill="none" xmlns="http://www.w3.org/2000/svg">
<path d="M83.0068 45.0965C83.1753 43.5802 83.2715 42.0399 83.2715 40.4755C83.2715 39.6451 83.2475 38.8268 83.1993 38.0205L75.5595 35.5536C75.0903 32.3285 74.1639 29.2598 72.8524 26.3957L77.9176 20.1621C76.7506 18.1043 75.4031 16.1428 73.8992 14.3257L66.2594 16.8167C64.0336 14.5423 61.4829 12.5808 58.6917 11.0043L59.1248 2.97766C56.9953 2.00291 54.7575 1.20867 52.4595 0.60697L47.7432 7.11734C45.9025 6.80446 44.0136 6.64802 42.0886 6.64802C40.7772 6.64802 39.4778 6.72022 38.2025 6.87666L33.8351 0.12561C31.489 0.606968 29.2272 1.28088 27.0495 2.13529L27.0615 10.174C24.1861 11.606 21.5392 13.4352 19.1931 15.5892L11.6976 12.7011C10.1095 14.446 8.65373 16.3233 7.37842 18.3209L12.1067 24.8193C10.6389 27.6112 9.55607 30.6317 8.91841 33.8207L1.15824 35.8905C0.989806 37.4068 0.893555 38.9471 0.893555 40.5116C0.893555 41.3419 0.917614 42.1602 0.965739 42.9665L8.60559 45.4334C9.07481 48.6585 10.0012 51.7272 11.3126 54.5913L6.24748 60.8249C7.41451 62.8827 8.762 64.8442 10.2659 66.6613L17.9058 64.1703C20.1315 66.4447 22.6822 68.4062 25.4734 69.9827L25.0403 78.0093C27.1698 78.9841 29.4076 79.7783 31.7056 80.38L36.4218 73.8697C38.2626 74.1826 40.1515 74.339 42.0765 74.339C43.3879 74.339 44.6873 74.2668 45.9626 74.1103L50.33 80.8614C52.676 80.38 54.9379 79.7061 57.1156 78.8517L57.1035 70.813C59.979 69.381 62.6259 67.5518 64.972 65.3978L72.4675 68.2859C74.0556 66.541 75.5114 64.6637 76.7867 62.6661L72.0584 56.1677C73.5262 53.3759 74.609 50.3553 75.2467 47.1663L83.0068 45.0965ZM42.0765 56.625C33.1493 56.625 25.9186 49.3926 25.9186 40.4634C25.9186 31.5342 33.1493 24.3018 42.0765 24.3018C51.0037 24.3018 58.2345 31.5342 58.2345 40.4634C58.2345 49.3926 51.0037 56.625 42.0765 56.625Z" fill="url(#paint0_linear_261_11586)"/>
<defs>
<linearGradient id="paint0_linear_261_11586" x1="16.593" y1="55.7903" x2="114.198" y2="-2.85101" gradientUnits="userSpaceOnUse">
<stop stop-color="#00D7FF"/>
<stop offset="0.1433" stop-color="#00B2DF"/>
<stop offset="0.4504" stop-color="#0169A0"/>
<stop offset="0.7057" stop-color="#013471"/>
<stop offset="0.896" stop-color="#011255"/>
<stop offset="1" stop-color="#01064A"/>
</linearGradient>
</defs>
</svg>
