<svg width="183" height="179" viewBox="0 0 183 179" fill="none" xmlns="http://www.w3.org/2000/svg">
<path d="M181.439 99.4459C181.812 96.0884 182.017 92.6828 182.017 89.229C182.017 87.4119 181.957 85.5948 181.848 83.8017L164.981 78.3383C163.946 71.2262 161.901 64.4391 159.013 58.1213L170.202 44.3544C167.615 39.8056 164.644 35.4854 161.335 31.4661L144.467 36.9776C139.546 31.9474 133.928 27.6152 127.768 24.1374L128.73 6.41138C124.026 4.26934 119.093 2.51238 114.004 1.18865L103.585 15.5692C99.5185 14.8833 95.3557 14.5223 91.0966 14.5223C88.1971 14.5223 85.3336 14.6907 82.5183 15.0157L72.8692 0.105591C67.6958 1.15254 62.6908 2.64475 57.8783 4.53408L57.9024 22.2962C51.5499 25.4491 45.7147 29.4805 40.5413 34.2459L23.9863 27.8559C20.4731 31.6947 17.2728 35.8464 14.4575 40.2509L24.9006 54.5953C21.6642 60.7567 19.27 67.4355 17.8623 74.4634L0.729839 79.0242C0.35687 82.3817 0.152344 85.7873 0.152344 89.2411C0.152344 91.0582 0.212499 92.8753 0.320781 94.6684L17.1886 100.132C18.2233 107.244 20.2686 114.031 23.1681 120.349L11.9791 134.116C14.5658 138.664 17.5375 142.985 20.8461 147.004L37.7139 141.492C42.6347 146.523 48.2533 150.855 54.4133 154.333L53.4508 172.059C58.155 174.201 63.0878 175.958 68.1771 177.281L78.5961 162.901C82.6627 163.587 86.8255 163.948 91.0845 163.948C93.9841 163.948 96.8475 163.779 99.6628 163.454L109.312 178.365C114.485 177.318 119.49 175.825 124.303 173.936L124.279 156.174C130.631 153.021 136.466 148.99 141.64 144.224L158.195 150.614C161.708 146.775 164.908 142.624 167.724 138.219L157.281 123.875C160.517 117.713 162.911 111.035 164.319 104.007L181.439 99.4459ZM91.0725 124.91C71.3774 124.91 55.3999 108.941 55.3999 89.229C55.3999 69.5294 71.3653 53.5484 91.0725 53.5484C110.768 53.5484 126.745 69.5174 126.745 89.229C126.745 108.941 110.768 124.91 91.0725 124.91Z" fill="url(#paint0_linear_261_11587)"/>
<defs>
<linearGradient id="paint0_linear_261_11587" x1="34.8086" y1="123.053" x2="250.313" y2="-6.42276" gradientUnits="userSpaceOnUse">
<stop stop-color="#00D7FF"/>
<stop offset="0.1433" stop-color="#00B2DF"/>
<stop offset="0.4504" stop-color="#0169A0"/>
<stop offset="0.7057" stop-color="#013471"/>
<stop offset="0.896" stop-color="#011255"/>
<stop offset="1" stop-color="#01064A"/>
</linearGradient>
</defs>
</svg>
