<svg width="17" height="18" viewBox="0 0 17 18" fill="none" xmlns="http://www.w3.org/2000/svg">
<path d="M8.493 1.5C4.583 1.5 1.41675 4.86 1.41675 9C1.41675 13.14 4.583 16.5 8.493 16.5C12.4101 16.5 15.5834 13.14 15.5834 9C15.5834 4.86 12.4101 1.5 8.493 1.5ZM13.4017 6H11.3122C11.0905 5.07109 10.7622 4.17442 10.3347 3.33C11.6267 3.801 12.7155 4.74879 13.4017 6ZM8.50008 3.03C9.088 3.93 9.54842 4.9275 9.853 6H7.14717C7.45175 4.9275 7.91217 3.93 8.50008 3.03ZM3.01758 10.5C2.90425 10.02 2.83341 9.5175 2.83341 9C2.83341 8.4825 2.90425 7.98 3.01758 7.5H5.41175C5.35508 7.995 5.31258 8.49 5.31258 9C5.31258 9.51 5.35508 10.005 5.41175 10.5H3.01758ZM3.59841 12H5.688C5.91466 12.9375 6.2405 13.8375 6.6655 14.67C5.37206 14.2016 4.28255 13.2531 3.59841 12ZM5.688 6H3.59841C4.28255 4.74688 5.37206 3.79843 6.6655 3.33C6.23797 4.17442 5.90969 5.07109 5.688 6ZM8.50008 14.97C7.91217 14.07 7.45175 13.0725 7.14717 12H9.853C9.54842 13.0725 9.088 14.07 8.50008 14.97ZM10.1576 10.5H6.84258C6.77883 10.005 6.72925 9.51 6.72925 9C6.72925 8.49 6.77883 7.9875 6.84258 7.5H10.1576C10.2213 7.9875 10.2709 8.49 10.2709 9C10.2709 9.51 10.2213 10.005 10.1576 10.5ZM10.3347 14.67C10.7597 13.8375 11.0855 12.9375 11.3122 12H13.4017C12.7155 13.2512 11.6267 14.199 10.3347 14.67ZM11.5884 10.5C11.6451 10.005 11.6876 9.51 11.6876 9C11.6876 8.49 11.6451 7.995 11.5884 7.5H13.9826C14.0959 7.98 14.1667 8.4825 14.1667 9C14.1667 9.5175 14.0959 10.02 13.9826 10.5H11.5884Z" fill="white"/>
</svg>
