<svg width="113" height="122" viewBox="0 0 113 122" fill="none" xmlns="http://www.w3.org/2000/svg">
<path d="M66.0774 83.9654C69.8553 87.7079 73.8737 91.5468 78.1568 95.4578C79.2396 96.4566 80.3345 97.4314 81.4534 98.4422C87.5171 103.894 94.0742 109.405 101.149 114.977C103.928 117.191 106.779 119.369 109.727 121.584L112.422 119.357C108.728 116.601 105.131 113.834 101.678 111.054C96.2759 106.758 91.1506 102.498 86.3501 98.2617C85.2553 97.287 84.1725 96.3242 83.0896 95.3615C77.7237 90.5359 72.7187 85.7945 68.0626 81.1855C68.3273 80.9328 68.5679 80.656 68.8567 80.3432C73.8015 75.2047 82.1392 64.8916 80.5631 55.469C80.166 53.1464 79.1675 50.8841 77.3387 48.754C77.2665 48.6698 77.2184 48.5976 77.1221 48.5374C76.9417 48.2847 76.7131 48.044 76.4965 47.8154C76.4123 47.8034 76.3401 47.8034 76.2439 47.8154C74.9806 47.6951 73.6932 47.8154 72.4299 48.1644C70.9381 48.5254 69.5064 49.1993 68.207 50.174C62.6606 54.1091 58.9549 62.7977 62.2996 75.3009C58.1007 70.9206 54.2026 66.6967 50.6895 62.6533L50.5692 62.4968C55.0929 57.948 65.2714 46.0825 58.1368 37.2737C57.8721 36.9487 57.5593 36.6238 57.2585 36.2989C57.042 36.2628 56.8254 36.2628 56.6089 36.2628C49.9435 36.0221 42.6767 43.6757 45.9492 57.1297C41.1367 51.4015 37.0701 46.1547 33.6652 41.5216C35.9031 39.3916 40.6915 34.3253 43.0857 28.6453C43.4707 27.7909 43.7715 26.9245 44.0121 26.0219C45.0589 22.0989 44.6498 18.0073 41.1848 14.5175C37.3468 14.0963 33.2201 16.3105 30.9101 20.7631C30.501 21.5453 30.1521 22.3997 29.8754 23.3263C28.7685 26.8643 28.6963 31.389 30.2845 36.8404C25.7246 30.3541 22.7288 25.4924 21.1648 22.857C21.1166 22.2794 21.0806 21.6175 21.0084 20.9075C20.9362 20.029 20.8038 19.0422 20.6474 18.0073C19.4804 10.3898 16.0395 -0.272264 5.94524 0.293331C2.87727 3.08521 1.86664 8.19964 4.33305 13.29C4.97071 14.5776 5.83696 15.9014 6.99196 17.1649C9.39821 19.8966 13.0557 22.4358 18.1449 24.3733C19.8534 27.2855 23.3906 33.0136 28.937 40.7394C18.9871 31.9547 9.74711 32.075 4.52555 35.7333C2.48024 37.1292 1.06055 39.1028 0.458984 41.281C5.25946 52.28 19.1796 48.9466 26.8556 46.0945C28.937 45.3123 30.5852 44.5783 31.4395 44.1571C34.5195 48.3329 38.1409 52.9659 42.2796 57.9841C39.6207 56.3956 37.1182 55.3486 34.7481 54.759C26.1577 52.5929 19.721 56.2753 17.7118 61.3175C17.4832 61.8711 17.3268 62.4366 17.2185 63.0022C22.2957 72.5331 33.8337 69.8736 41.5096 66.7207C43.952 65.7219 46.0093 64.6388 47.3207 63.9168C51.291 68.4536 55.6584 73.2672 60.4589 78.2372C56.4524 76.0711 52.7468 74.8436 49.3299 74.3502C38.3695 72.7257 30.9582 78.8509 30.1281 85.6742C39.3079 100.211 60.3626 87.744 66.0774 83.9654Z" fill="url(#paint0_linear_261_11605)"/>
<defs>
<linearGradient id="paint0_linear_261_11605" x1="0.435162" y1="60.9306" x2="112.424" y2="60.9306" gradientUnits="userSpaceOnUse">
<stop offset="0.0456" stop-color="#00D7FF"/>
<stop offset="0.0902" stop-color="#00B7E4"/>
<stop offset="0.158" stop-color="#008EC0"/>
<stop offset="0.2319" stop-color="#0169A0"/>
<stop offset="0.311" stop-color="#014A85"/>
<stop offset="0.3971" stop-color="#01316F"/>
<stop offset="0.4928" stop-color="#011E5F"/>
<stop offset="0.6034" stop-color="#011053"/>
<stop offset="0.7423" stop-color="#01084C"/>
<stop offset="1" stop-color="#01064A"/>
</linearGradient>
</defs>
</svg>
