<svg width="112" height="122" viewBox="0 0 112 122" fill="none" xmlns="http://www.w3.org/2000/svg">
<path d="M46.3576 83.9654C42.5798 87.7079 38.5613 91.5468 34.2782 95.4578C33.1954 96.4566 32.1005 97.4314 30.9816 98.4422C24.9179 103.894 18.3608 109.405 11.2865 114.977C8.50724 117.191 5.65583 119.369 2.70817 121.584L0.0131836 119.357C3.70678 116.601 7.30412 113.834 10.7571 111.054C16.1591 106.758 21.2844 102.498 26.0849 98.2617C27.1797 97.287 28.2626 96.3242 29.3454 95.3615C34.7113 90.5359 39.7163 85.7945 44.3724 81.1855C44.1077 80.9328 43.8671 80.656 43.5784 80.3432C38.6335 75.2047 30.2958 64.8916 31.8719 55.469C32.269 53.1464 33.2676 50.8841 35.0963 48.754C35.1685 48.6698 35.2166 48.5976 35.3129 48.5374C35.4934 48.2847 35.7219 48.044 35.9385 47.8154C36.0227 47.8034 36.0949 47.8034 36.1911 47.8154C37.4544 47.6951 38.7418 47.8154 40.0051 48.1644C41.4849 48.5254 42.9287 49.1993 44.2281 50.174C49.7745 54.1091 53.4801 62.7977 50.1354 75.3009C54.3343 70.9206 58.2324 66.6967 61.7456 62.6533L61.8659 62.4968C57.3421 57.948 47.1637 46.0825 54.2982 37.2737C54.5629 36.9487 54.8757 36.6238 55.1765 36.2989C55.3931 36.2628 55.6096 36.2628 55.8262 36.2628C62.4915 36.0221 69.7584 43.6757 66.4859 57.1297C71.2984 51.4015 75.3649 46.1547 78.7698 41.5216C76.532 39.3916 71.7435 34.3253 69.3493 28.6453C68.9643 27.7909 68.6635 26.9245 68.4229 26.0219C67.3762 22.0989 67.7852 18.0073 71.2502 14.5175C75.0882 14.0963 79.2149 16.3105 81.5249 20.7631C81.934 21.5453 82.2829 22.3997 82.5596 23.3263C83.6665 26.8643 83.7387 31.389 82.1506 36.8404C86.7104 30.3541 89.7062 25.4924 91.2703 22.857C91.3184 22.2794 91.3545 21.6175 91.4266 20.9075C91.4988 20.029 91.6312 19.0422 91.7876 18.0073C92.9546 10.3898 96.3956 -0.272264 106.49 0.293331C109.558 3.08521 110.568 8.19964 108.102 13.29C107.464 14.5776 106.598 15.9014 105.443 17.1649C103.037 19.8966 99.3793 22.4358 94.2901 24.3733C92.5816 27.2855 89.0445 33.0136 83.498 40.7394C93.4479 31.9547 102.688 32.075 107.909 35.7333C109.955 37.1292 111.374 39.1028 111.976 41.281C107.176 52.28 93.2554 48.9466 85.5795 46.0945C83.4981 45.3123 81.8498 44.5783 80.9956 44.1571C77.9156 48.3329 74.2941 52.9659 70.1554 57.9841C72.8143 56.3956 75.3168 55.3486 77.687 54.759C86.2773 52.5929 92.714 56.2753 94.7232 61.3175C94.9518 61.8711 95.1082 62.4366 95.2165 63.0022C90.1393 72.5331 78.6013 69.8736 70.9254 66.7207C68.4831 65.7219 66.4257 64.6388 65.1143 63.9168C61.144 68.4536 56.7767 73.2672 51.9762 78.2372C55.9826 76.0711 59.6882 74.8436 63.1051 74.3502C74.0656 72.7257 81.4768 78.8509 82.307 85.6742C73.1271 100.211 52.0724 87.744 46.3576 83.9654Z" fill="url(#paint0_linear_261_11596)"/>
<defs>
<linearGradient id="paint0_linear_261_11596" x1="107.007" y1="14.93" x2="13.9428" y2="115.994" gradientUnits="userSpaceOnUse">
<stop offset="0.0456" stop-color="#00D7FF"/>
<stop offset="0.0902" stop-color="#00B7E4"/>
<stop offset="0.158" stop-color="#008EC0"/>
<stop offset="0.2319" stop-color="#0169A0"/>
<stop offset="0.311" stop-color="#014A85"/>
<stop offset="0.3971" stop-color="#01316F"/>
<stop offset="0.4928" stop-color="#011E5F"/>
<stop offset="0.6034" stop-color="#011053"/>
<stop offset="0.7423" stop-color="#01084C"/>
<stop offset="1" stop-color="#01064A"/>
</linearGradient>
</defs>
</svg>
