<svg width="75" height="167" viewBox="0 0 75 167" fill="none" xmlns="http://www.w3.org/2000/svg">
<path d="M19.9469 166.474C19.9469 166.474 67.4583 139.217 73.3055 85.5455L55.3188 91.9837L73.8108 78.7223C74.0876 71.899 73.6785 64.6666 72.4393 57.0611L61.5029 62.0673L71.573 52.3077C68.4329 37.0006 62.2969 18.4201 51.1319 0.0683594C51.1319 0.0683594 32.5196 15.8088 18.0099 38.3724L20.4402 47.4099L14.6411 43.896C6.29145 58.3728 -0.0610506 75.8341 0.468325 95.0764C1.81583 145.21 19.9469 166.474 19.9469 166.474Z" fill="url(#paint0_linear_261_11588)"/>
<path d="M20.1397 166.907C20.2841 166.847 20.3924 166.702 20.4164 166.534C30.0896 90.5275 50.9758 2.80004 51.1924 1.92156C51.2525 1.66884 51.0961 1.41614 50.8435 1.34393C50.5908 1.28376 50.3381 1.4402 50.266 1.69291C50.0614 2.57139 29.1511 90.347 19.478 166.414C19.4419 166.678 19.6344 166.907 19.8871 166.943C19.9713 166.955 20.0555 166.943 20.1397 166.907Z" fill="#79C3F0"/>
<path d="M43.9376 31.5612L61.046 20.9473C61.2626 20.8149 61.3348 20.5141 61.2024 20.2975C61.0701 20.0688 60.7693 20.0086 60.5528 20.141L44.3707 30.1773L37.5009 14.2203C37.3926 13.9796 37.1159 13.8713 36.8753 13.9676C36.6226 14.0879 36.5264 14.3527 36.6226 14.5934L43.9376 31.5612Z" fill="#79C3F0"/>
<path d="M69.7082 44.2811C69.9488 44.1728 70.0571 43.896 69.9489 43.6553C69.8406 43.4146 69.5638 43.3063 69.3232 43.4146L38.5112 57.4101L24.0857 29.9727C23.9654 29.7441 23.6766 29.6598 23.448 29.7681C23.2194 29.8885 23.1232 30.1773 23.2435 30.4059L38.0901 58.6255L69.7082 44.2811Z" fill="#79C3F0"/>
<path d="M32.5801 88.8187L73.8112 67.1335C74.0398 67.0132 74.136 66.7244 74.0157 66.4957C73.8954 66.2671 73.6066 66.1708 73.378 66.2912L32.9289 87.5672L10.8636 51.5255C10.7313 51.2969 10.4305 51.2367 10.2139 51.3691C9.98532 51.5014 9.9252 51.8023 10.0575 52.0189L32.5801 88.8187Z" fill="#79C3F0"/>
<path d="M71.9582 95.6299C72.1988 95.5216 72.3071 95.2448 72.1988 95.0041C72.0905 94.7635 71.8138 94.6552 71.5732 94.7635L27.8757 114.391L1.25053 83.7885C1.0821 83.5959 0.781317 83.5719 0.576786 83.7404C0.384286 83.9088 0.360213 84.2097 0.528651 84.4143L27.623 115.546L71.9582 95.6299Z" fill="#79C3F0"/>
<path d="M23.0029 143.2L60.9134 124.535C61.154 124.415 61.2502 124.138 61.1299 123.898C61.0096 123.657 60.7209 123.561 60.4923 123.681L23.2676 142.009L2.52567 115.979C2.35724 115.775 2.0685 115.739 1.86397 115.907C1.65944 116.076 1.62331 116.364 1.79175 116.569L23.0029 143.2Z" fill="#79C3F0"/>
<defs>
<linearGradient id="paint0_linear_261_11588" x1="75.9868" y1="13.6139" x2="27.0429" y2="103.458" gradientUnits="userSpaceOnUse">
<stop offset="0.0456" stop-color="#00D7FF"/>
<stop offset="0.0902" stop-color="#00B7E4"/>
<stop offset="0.158" stop-color="#008EC0"/>
<stop offset="0.2319" stop-color="#0169A0"/>
<stop offset="0.311" stop-color="#014A85"/>
<stop offset="0.3971" stop-color="#01316F"/>
<stop offset="0.4928" stop-color="#011E5F"/>
<stop offset="0.6034" stop-color="#011053"/>
<stop offset="0.7423" stop-color="#01084C"/>
<stop offset="1" stop-color="#01064A"/>
</linearGradient>
</defs>
</svg>
