<svg width="77" height="174" viewBox="0 0 77 174" fill="none" xmlns="http://www.w3.org/2000/svg">
<path d="M56.2645 172.658C56.2645 172.658 6.99653 144.39 0.932777 88.7333L19.5812 95.4001L0.415433 81.6453C0.126683 74.5693 0.547777 67.0722 1.83512 59.1779L13.1806 64.3766L2.73747 54.256C5.99794 38.3832 12.3625 19.1169 23.9365 0.0911865C23.9365 0.0911865 43.2347 16.4092 58.2858 39.8153L55.7712 49.1897L61.7869 45.5434C70.4373 60.5498 77.0305 78.6609 76.4891 98.6252C75.0573 150.6 56.2645 172.658 56.2645 172.658Z" fill="url(#paint0_linear_261_11597)"/>
<path d="M56.06 173.103C55.9157 173.031 55.7954 172.899 55.7713 172.718C45.7493 93.9078 24.081 2.93119 23.8644 2.02864C23.8042 1.76389 23.9607 1.49916 24.2253 1.43899C24.49 1.37882 24.7547 1.53526 24.8149 1.80001C25.0314 2.71459 46.7118 93.7394 56.7458 172.598C56.7819 172.863 56.5894 173.115 56.3247 173.151C56.2285 173.163 56.1443 173.139 56.06 173.103Z" fill="#79C3F0"/>
<path d="M31.3838 32.7634L13.6377 21.7523C13.4091 21.6079 13.337 21.307 13.4813 21.0784C13.6257 20.8498 13.9265 20.7776 14.1551 20.922L30.9266 31.3313L38.0491 14.7847C38.1574 14.5319 38.4462 14.4236 38.6988 14.5319C38.9635 14.6523 39.0598 14.9291 38.9515 15.1818L31.3838 32.7634Z" fill="#79C3F0"/>
<path d="M4.66233 45.9526C4.40968 45.8443 4.3014 45.5434 4.42171 45.3028C4.52999 45.05 4.83077 44.9417 5.0714 45.0621L37.0264 59.575L51.9933 31.1268C52.1256 30.8861 52.4264 30.8018 52.655 30.9222C52.8956 31.0546 52.9919 31.3434 52.8595 31.5841L37.4595 60.8506L4.66233 45.9526Z" fill="#79C3F0"/>
<path d="M43.1625 92.1268L0.403381 69.6354C0.162756 69.515 0.0665081 69.2142 0.198852 68.9735C0.319164 68.7328 0.619945 68.6366 0.86057 68.7689L42.8015 90.8272L65.685 53.4617C65.8293 53.2331 66.1301 53.1609 66.3587 53.2933C66.5873 53.4377 66.6595 53.7385 66.5272 53.9672L43.1625 92.1268Z" fill="#79C3F0"/>
<path d="M2.32835 99.1908C2.08773 99.0825 1.96741 98.7937 2.08773 98.541C2.19601 98.2882 2.48476 98.1799 2.73742 98.2882L48.0471 118.638L75.6588 86.9041C75.8393 86.6995 76.1521 86.6755 76.3566 86.856C76.5612 87.0365 76.5852 87.3494 76.4048 87.554L48.3118 119.841L2.32835 99.1908Z" fill="#79C3F0"/>
<path d="M53.088 148.518L13.7819 129.167C13.5413 129.047 13.433 128.758 13.5533 128.506C13.6736 128.265 13.9744 128.157 14.215 128.277L52.8113 147.278L74.3232 120.298C74.4916 120.082 74.8044 120.058 75.009 120.226C75.2255 120.395 75.2616 120.708 75.0812 120.912L53.088 148.518Z" fill="#79C3F0"/>
<defs>
<linearGradient id="paint0_linear_261_11597" x1="0.326402" y1="86.3799" x2="76.5053" y2="86.3799" gradientUnits="userSpaceOnUse">
<stop offset="0.0456" stop-color="#00D7FF"/>
<stop offset="0.0902" stop-color="#00B7E4"/>
<stop offset="0.158" stop-color="#008EC0"/>
<stop offset="0.2319" stop-color="#0169A0"/>
<stop offset="0.311" stop-color="#014A85"/>
<stop offset="0.3971" stop-color="#01316F"/>
<stop offset="0.4928" stop-color="#011E5F"/>
<stop offset="0.6034" stop-color="#011053"/>
<stop offset="0.7423" stop-color="#01084C"/>
<stop offset="1" stop-color="#01064A"/>
</linearGradient>
</defs>
</svg>
