<svg width="24" height="24" viewBox="0 0 24 24" fill="none" xmlns="http://www.w3.org/2000/svg">
<path d="M7.20711 2.79289C7.59763 3.18342 7.59763 3.81658 7.20711 4.20711L4.20711 7.20711C3.81658 7.59763 3.18342 7.59763 2.79289 7.20711L1.29289 5.70711C0.902369 5.31658 0.902369 4.68342 1.29289 4.29289C1.68342 3.90237 2.31658 3.90237 2.70711 4.29289L3.5 5.08579L5.79289 2.79289C6.18342 2.40237 6.81658 2.40237 7.20711 2.79289Z" fill="white"/>
<path d="M10 4H22C22.5523 4 23 4.44772 23 5C23 5.55228 22.5523 6 22 6H10C9.44771 6 9 5.55228 9 5C9 4.44772 9.44771 4 10 4Z" fill="white"/>
<path d="M9 12C9 11.4477 9.44771 11 10 11H22C22.5523 11 23 11.4477 23 12C23 12.5523 22.5523 13 22 13H10C9.44771 13 9 12.5523 9 12Z" fill="white"/>
<path d="M10 18C9.44771 18 9 18.4477 9 19C9 19.5523 9.44771 20 10 20H22C22.5523 20 23 19.5523 23 19C23 18.4477 22.5523 18 22 18H10Z" fill="white"/>
<path d="M1 12C1 10.3431 2.34315 9 4 9C5.65685 9 7 10.3431 7 12C7 13.6569 5.65685 15 4 15C2.34315 15 1 13.6569 1 12Z" fill="white"/>
<path d="M1 19C1 17.3431 2.34315 16 4 16C5.65685 16 7 17.3431 7 19C7 20.6569 5.65685 22 4 22C2.34315 22 1 20.6569 1 19Z" fill="white"/>
</svg>
