<svg width="24" height="24" viewBox="0 0 24 24" fill="none" xmlns="http://www.w3.org/2000/svg">
<path d="M12.1693 1.50038L12.338 1.50151L13.006 1.51352C13.1164 1.51652 13.2263 1.52001 13.3357 1.524L13.9858 1.55381L14.6225 1.59533C14.9373 1.619 15.2467 1.64702 15.55 1.67931L16.1484 1.74957C16.345 1.77488 16.5388 1.80207 16.7295 1.83112L17.2922 1.92382L17.8353 2.02756C20.9447 2.66466 23 3.85874 23 5.5C23 6.38211 22.4063 7.13505 21.3743 7.74176C22.4125 8.33275 23 9.07522 23 10C23 10.8821 22.4063 11.635 21.3743 12.2418C22.4125 12.8327 23 13.5752 23 14.5C23 15.3822 22.4062 16.1352 21.374 16.7419C22.4125 17.3327 23 18.0752 23 19C23 20.735 20.703 21.9704 17.2922 22.5762L16.7295 22.6689C16.5388 22.6979 16.345 22.7251 16.1484 22.7504L15.55 22.8207C15.2467 22.853 14.9373 22.881 14.6225 22.9047L13.9858 22.9462L13.3357 22.976C13.2263 22.98 13.1164 22.9835 13.006 22.9865L12.338 22.9985L12 23L11.662 22.9985L10.994 22.9865C10.8836 22.9835 10.7737 22.98 10.6643 22.976L10.0142 22.9462L9.37754 22.9047C9.06272 22.881 8.75333 22.853 8.45 22.8207L7.85162 22.7504C7.7533 22.7378 7.6557 22.7246 7.55884 22.7111L6.9868 22.6239C3.4228 22.0368 1 20.7819 1 19C1 18.0752 1.58746 17.3327 2.6258 16.7409C1.59371 16.135 1 15.3821 1 14.5C1 13.5752 1.58746 12.8327 2.6258 12.2409C1.59382 11.6352 1 10.8822 1 10C1 9.07522 1.58746 8.33275 2.6258 7.74086C1.59382 7.13519 1 6.38219 1 5.5C1 3.85874 3.05535 2.66466 6.16467 2.02756L6.70783 1.92382C6.80001 1.90745 6.89301 1.89153 6.9868 1.87608L7.55884 1.78894C7.6557 1.77535 7.7533 1.76223 7.85162 1.74957L8.45 1.67931C8.75333 1.64702 9.06272 1.619 9.37754 1.59533L10.0142 1.55381L10.6643 1.524C10.7737 1.52001 10.8836 1.51652 10.994 1.51352L11.662 1.50151L12 1.5C12.1131 1.5 12.2258 1.5005 12.338 1.50151L12.1693 1.50038ZM18.6286 17.791L18.4813 17.8284C18.1027 17.9201 17.7056 18.0027 17.2922 18.0762L16.7295 18.1689C16.5388 18.1979 16.345 18.2251 16.1484 18.2504L15.55 18.3207C15.2467 18.353 14.9373 18.381 14.6225 18.4047L13.9858 18.4462L13.3357 18.476C13.2263 18.48 13.1164 18.4835 13.006 18.4865L12.338 18.4985L12 18.5L11.662 18.4985L10.994 18.4865C10.8836 18.4835 10.7737 18.48 10.6643 18.476L10.0142 18.4462L9.37754 18.4047C9.06272 18.381 8.75333 18.353 8.45 18.3207L7.85162 18.2504C7.7533 18.2378 7.6557 18.2246 7.55884 18.2111L6.9868 18.1239C6.41776 18.0302 5.87781 17.9194 5.37217 17.7922L5.64141 17.7167C4.69145 17.9682 3.94198 18.2695 3.45952 18.5834C3.11484 18.8076 3 18.963 3 19C3 19.2039 3.27641 19.4375 3.77269 19.6714L4.03889 19.7883C4.13356 19.8272 4.23407 19.8659 4.34017 19.9044L4.67494 20.019C4.79194 20.0568 4.91427 20.0942 5.04165 20.1311L5.43872 20.24C5.50734 20.2579 5.57716 20.2756 5.64815 20.2931L6.08782 20.3957C6.23887 20.429 6.39432 20.4615 6.55392 20.493L7.04488 20.5843L7.55914 20.6687C7.64671 20.6821 7.73518 20.6953 7.82452 20.7081L8.37077 20.7806L8.93639 20.8442L9.5198 20.8981C9.71707 20.9144 9.91703 20.9289 10.1194 20.9415L10.7337 20.9734L11.3611 20.9932C11.5722 20.9977 11.7853 21 12 21C12.2147 21 12.4278 20.9977 12.6389 20.9932L13.2663 20.9734L13.8806 20.9415C14.083 20.9289 14.2829 20.9144 14.4802 20.8981L15.0636 20.8442L15.6292 20.7806L16.1755 20.7081L16.7008 20.6274C16.7865 20.6133 16.8713 20.599 16.9551 20.5843L17.4461 20.493L17.6823 20.445L18.1354 20.345C18.282 20.3107 18.424 20.2757 18.5613 20.24L18.9583 20.1311C19.022 20.1127 19.0845 20.0941 19.1456 20.0754L19.4965 19.9619C19.664 19.9046 19.8191 19.8466 19.9611 19.7883L20.2273 19.6714C20.7236 19.4375 21 19.2039 21 19C21 18.963 20.8852 18.8076 20.5405 18.5834C20.1047 18.2999 19.451 18.0266 18.6286 17.791ZM18.6286 13.291L18.467 13.3318C18.0082 13.4425 17.5223 13.54 17.0132 13.6239L16.4412 13.7111C16.3443 13.7246 16.2467 13.7378 16.1484 13.7504L15.55 13.8207C15.2467 13.853 14.9373 13.881 14.6225 13.9047L13.9858 13.9462L13.3357 13.976C13.2263 13.98 13.1164 13.9835 13.006 13.9865L12.338 13.9985L12 14C11.8869 14 11.7742 13.9995 11.662 13.9985L10.994 13.9865C10.8836 13.9835 10.7737 13.98 10.6643 13.976L10.0142 13.9462L9.37754 13.9047C9.06272 13.881 8.75333 13.853 8.45 13.8207L7.85162 13.7504C7.65498 13.7251 7.46122 13.6979 7.27052 13.6689L6.70783 13.5762C6.2405 13.4932 5.79407 13.3983 5.37161 13.292L5.64141 13.2167C4.69145 13.4682 3.94198 13.7695 3.45952 14.0834C3.11484 14.3076 3 14.463 3 14.5C3 14.7039 3.27641 14.9375 3.77269 15.1714L4.03889 15.2883C4.13356 15.3272 4.23407 15.3659 4.34017 15.4044L4.67494 15.519C4.79194 15.5568 4.91427 15.5942 5.04165 15.6311L5.43872 15.74L5.51886 15.7587C5.59106 15.7684 5.6615 15.786 5.72903 15.8108L6.08782 15.8957C6.23887 15.929 6.39432 15.9615 6.55392 15.993L7.04488 16.0843L7.55914 16.1687C7.64671 16.1821 7.73518 16.1953 7.82452 16.2081L8.37077 16.2806L8.93639 16.3443L9.5198 16.3981C9.71707 16.4144 9.91703 16.4289 10.1194 16.4415L10.7337 16.4734L11.3611 16.4932C11.5722 16.4977 11.7853 16.5 12 16.5C12.2147 16.5 12.4278 16.4977 12.6389 16.4932L13.2663 16.4734L13.8806 16.4415C14.083 16.4289 14.2829 16.4144 14.4802 16.3981L15.0636 16.3443L15.6292 16.2806L16.1755 16.2081L16.7008 16.1274C16.7865 16.1133 16.8713 16.099 16.9551 16.0843L17.4461 15.993L17.6823 15.945L18.1354 15.845L18.268 15.8119C18.337 15.7863 18.4092 15.7682 18.4831 15.7584C18.5101 15.7533 18.5358 15.7467 18.5613 15.74L18.9583 15.6311C19.022 15.6127 19.0845 15.5941 19.1456 15.5754L19.4965 15.4619C19.664 15.4046 19.8191 15.3466 19.9611 15.2883L20.2273 15.1714C20.7236 14.9375 21 14.7039 21 14.5C21 14.463 20.8852 14.3076 20.5405 14.0834C20.1047 13.7999 19.451 13.5266 18.6286 13.291ZM12 3.5L11.6792 3.50171C11.5727 3.50285 11.4667 3.50454 11.3611 3.50677L10.7337 3.52655L10.1194 3.55852C9.91703 3.57112 9.71706 3.58561 9.5198 3.60186L8.93639 3.65575L8.37077 3.71938L7.82452 3.79193C7.73517 3.80472 7.64671 3.81785 7.55914 3.8313L7.04488 3.91571L6.55392 4.00699C6.39432 4.03848 6.23887 4.07097 6.08782 4.10435L5.64815 4.20694C5.57716 4.22444 5.50734 4.24211 5.43872 4.25996L5.04165 4.3689C4.91427 4.40579 4.79194 4.44322 4.67494 4.48105L4.34017 4.59559C4.23407 4.63407 4.13356 4.67282 4.03889 4.7117L3.77269 4.82857C3.27641 5.06253 3 5.29614 3 5.5C3 5.70386 3.27641 5.93747 3.77269 6.17143L4.03889 6.2883C4.18089 6.34661 4.33604 6.40464 4.50346 6.46193L4.8544 6.57538C4.91553 6.59407 4.97796 6.61265 5.04165 6.6311L5.43872 6.74004C5.46159 6.74599 5.4846 6.75192 5.50774 6.75783C5.55304 6.76311 5.59752 6.77169 5.64141 6.78331C5.84589 6.83746 6.05768 6.88883 6.27613 6.93733L6.31766 6.94504L6.55392 6.99301L7.04488 7.08429C7.1287 7.09896 7.21348 7.11333 7.2992 7.12741L7.82452 7.20807L8.37077 7.28062L8.93639 7.34425L9.5198 7.39814C9.71706 7.41439 9.91703 7.42888 10.1194 7.44148L10.7337 7.47345L11.3521 7.4936C11.3581 7.49371 11.3641 7.49383 11.3701 7.49395C11.4508 7.4951 11.5317 7.49647 11.613 7.49751L12 7.5C12.2172 7.5 12.4333 7.49785 12.6479 7.4936L13.2663 7.47345L13.8806 7.44148C14.083 7.42888 14.2829 7.41439 14.4802 7.39814L15.0636 7.34425L15.6292 7.28062L16.1755 7.20807C16.2648 7.19528 16.3533 7.18215 16.4409 7.1687L16.9551 7.08429L17.4461 6.99301C17.6057 6.96152 17.7611 6.92903 17.9122 6.89565L17.981 6.87818L18.3586 6.78331C18.4022 6.77178 18.4463 6.76324 18.4907 6.75769L18.5613 6.74004L18.9583 6.6311C19.0857 6.59421 19.2081 6.55678 19.3251 6.51895L19.6598 6.40441C19.7659 6.36593 19.8664 6.32718 19.9611 6.2883L20.2273 6.17143C20.7236 5.93747 21 5.70386 21 5.5C21 5.29614 20.7236 5.06253 20.2273 4.82857L19.9611 4.7117C19.8191 4.65339 19.664 4.59536 19.4965 4.53807L19.1456 4.42462C19.0845 4.40593 19.022 4.38735 18.9583 4.3689L18.5613 4.25996C18.424 4.22427 18.282 4.18925 18.1354 4.15504L17.6823 4.05496L17.4461 4.00699L16.9551 3.91571C16.8713 3.90104 16.7865 3.88667 16.7008 3.87259L16.1755 3.79193L15.6292 3.71938L15.0636 3.65575L14.4802 3.60186C14.2829 3.58561 14.083 3.57112 13.8806 3.55852L13.2663 3.52655L12.6389 3.50677C12.4278 3.5023 12.2147 3.5 12 3.5Z" fill="white"/>
</svg>
