<svg width="67" height="62" viewBox="0 0 67 62" fill="none" xmlns="http://www.w3.org/2000/svg">
<path fill-rule="evenodd" clip-rule="evenodd" d="M38.5071 7.22237L19.5 12.7704V23.7841C19.5 35.7299 26.8456 46.3876 37.8838 50.6901L38.5024 50.92L39.1218 50.6902C49.9316 46.4756 57.1987 36.165 57.4909 24.5196L57.5 23.79V12.7704L38.5071 7.22237ZM46.8125 28.5C48.1242 28.5 49.1875 29.5633 49.1875 30.875C49.1875 32.093 48.2707 33.0968 47.0895 33.234L46.8125 33.25H35.9231L37.8044 35.1331C38.7319 36.0606 38.7319 37.5644 37.8044 38.4919C36.9482 39.348 35.6011 39.4139 34.6694 38.6895L34.4456 38.4919L28.5081 32.5544C28.4241 32.4703 28.3476 32.3815 28.2788 32.2889C28.2364 32.2314 28.1966 32.1724 28.1594 32.1116C28.1417 32.083 28.1248 32.0539 28.1086 32.0246C28.0828 31.9777 28.058 31.9292 28.0349 31.8799C28.016 31.8395 27.9982 31.7984 27.9817 31.7569C27.9629 31.71 27.9458 31.663 27.9302 31.6154C27.9164 31.573 27.9035 31.5293 27.8919 31.4854C27.8799 31.441 27.8695 31.3967 27.8604 31.3519C27.8522 31.3105 27.8449 31.2691 27.8387 31.2276C27.8317 31.1824 27.8262 31.1355 27.8219 31.0883C27.817 31.0317 27.814 30.9764 27.8129 30.921L27.8125 30.875C27.8125 30.7548 27.8214 30.6366 27.8387 30.5212C27.8449 30.4809 27.8522 30.4395 27.8606 30.3983C27.871 30.346 27.8834 30.2945 27.8973 30.2436C27.9077 30.2065 27.9187 30.17 27.9306 30.1337C27.9471 30.0828 27.9659 30.0318 27.9862 29.9817C28.0016 29.9438 28.0178 29.9067 28.035 29.8698C28.058 29.8208 28.0828 29.7723 28.1091 29.7248C28.1248 29.6961 28.1417 29.667 28.1592 29.6383C28.1966 29.5776 28.2364 29.5186 28.2787 29.4615C28.2836 29.4549 28.2884 29.4484 28.2933 29.4419C28.3015 29.431 28.3098 29.4203 28.3182 29.4096C28.392 29.3156 28.4729 29.2272 28.5601 29.1452C28.6285 29.0807 28.6999 29.0211 28.7736 28.9663C28.8311 28.9239 28.8901 28.8841 28.9509 28.8469C28.9795 28.8292 29.0086 28.8123 29.0379 28.7961C29.0848 28.7703 29.1333 28.7455 29.1826 28.7224C29.223 28.7035 29.2641 28.6857 29.3056 28.6692C29.3525 28.6504 29.3995 28.6333 29.4471 28.6177C29.4825 28.6062 29.519 28.5952 29.5558 28.5851C29.607 28.5709 29.6585 28.5585 29.7106 28.5479C29.752 28.5397 29.7934 28.5324 29.8349 28.5262C29.8592 28.5224 29.8848 28.519 29.9105 28.516L29.9755 28.5094C30.0315 28.5044 30.0877 28.5014 30.1439 28.5004L30.1875 28.5H46.8125ZM42.3306 15.9355L42.5544 16.1331L48.4919 22.0706C48.5759 22.1547 48.6524 22.2435 48.7212 22.3361C48.7636 22.3936 48.8034 22.4526 48.8406 22.5134C48.8583 22.542 48.8752 22.5711 48.8914 22.6004C48.9172 22.6473 48.942 22.6958 48.9651 22.7451C48.984 22.7855 49.0018 22.8266 49.0183 22.8681C49.0371 22.915 49.0542 22.962 49.0698 23.0096C49.0813 23.045 49.0923 23.0815 49.1024 23.1183C49.1166 23.1695 49.129 23.221 49.1396 23.2731C49.1478 23.3145 49.1551 23.3559 49.1613 23.3974C49.1686 23.4448 49.1744 23.4938 49.1786 23.5432C49.1824 23.5879 49.1849 23.6306 49.1863 23.6734C49.1871 23.6973 49.1875 23.7236 49.1875 23.75C49.1875 23.8702 49.1786 23.9884 49.1613 24.1038C49.1551 24.1441 49.1478 24.1855 49.1394 24.2267C49.129 24.279 49.1166 24.3305 49.1027 24.3814C49.0923 24.4185 49.0813 24.455 49.0694 24.4913C49.0542 24.538 49.0371 24.585 49.0186 24.6313C49.0018 24.6734 48.984 24.7145 48.965 24.7552C48.942 24.8042 48.9172 24.8527 48.8909 24.9002C48.8752 24.9289 48.8583 24.958 48.8408 24.9867C48.8034 25.0474 48.7636 25.1064 48.7213 25.1635C48.7083 25.1812 48.6952 25.1984 48.6818 25.2154C48.6087 25.3085 48.5285 25.3962 48.4423 25.4776C48.3731 25.5429 48.301 25.6033 48.2264 25.6587C48.1689 25.7011 48.1099 25.7409 48.0491 25.7781C48.0205 25.7958 47.9914 25.8127 47.9621 25.8289C47.9152 25.8547 47.8667 25.8795 47.8174 25.9026C47.777 25.9215 47.7359 25.9393 47.6944 25.9558C47.6475 25.9746 47.6005 25.9917 47.5529 26.0073C47.5175 26.0188 47.481 26.0298 47.4442 26.0399C47.393 26.0541 47.3415 26.0665 47.2894 26.0771C47.248 26.0853 47.2066 26.0926 47.1651 26.0988C47.1408 26.1026 47.1152 26.106 47.0895 26.109L47.0149 26.1164C46.9738 26.1199 46.9327 26.1223 46.8915 26.1237L46.8125 26.125H30.1875C28.8758 26.125 27.8125 25.0617 27.8125 23.75C27.8125 22.532 28.7293 21.5282 29.9105 21.391L30.1875 21.375H41.0769L39.1956 19.4919C38.2681 18.5644 38.2681 17.0606 39.1956 16.1331C40.0518 15.277 41.3989 15.2111 42.3306 15.9355Z" fill="#C4C4C4"/>
<path fill-rule="evenodd" clip-rule="evenodd" d="M38.5071 7.22237L19.5 12.7704V23.7841C19.5 35.7299 26.8456 46.3876 37.8838 50.6901L38.5024 50.92L39.1218 50.6902C49.9316 46.4756 57.1987 36.165 57.4909 24.5196L57.5 23.79V12.7704L38.5071 7.22237ZM46.8125 28.5C48.1242 28.5 49.1875 29.5633 49.1875 30.875C49.1875 32.093 48.2707 33.0968 47.0895 33.234L46.8125 33.25H35.9231L37.8044 35.1331C38.7319 36.0606 38.7319 37.5644 37.8044 38.4919C36.9482 39.348 35.6011 39.4139 34.6694 38.6895L34.4456 38.4919L28.5081 32.5544C28.4241 32.4703 28.3476 32.3815 28.2788 32.2889C28.2364 32.2314 28.1966 32.1724 28.1594 32.1116C28.1417 32.083 28.1248 32.0539 28.1086 32.0246C28.0828 31.9777 28.058 31.9292 28.0349 31.8799C28.016 31.8395 27.9982 31.7984 27.9817 31.7569C27.9629 31.71 27.9458 31.663 27.9302 31.6154C27.9164 31.573 27.9035 31.5293 27.8919 31.4854C27.8799 31.441 27.8695 31.3967 27.8604 31.3519C27.8522 31.3105 27.8449 31.2691 27.8387 31.2276C27.8317 31.1824 27.8262 31.1355 27.8219 31.0883C27.817 31.0317 27.814 30.9764 27.8129 30.921L27.8125 30.875C27.8125 30.7548 27.8214 30.6366 27.8387 30.5212C27.8449 30.4809 27.8522 30.4395 27.8606 30.3983C27.871 30.346 27.8834 30.2945 27.8973 30.2436C27.9077 30.2065 27.9187 30.17 27.9306 30.1337C27.9471 30.0828 27.9659 30.0318 27.9862 29.9817C28.0016 29.9438 28.0178 29.9067 28.035 29.8698C28.058 29.8208 28.0828 29.7723 28.1091 29.7248C28.1248 29.6961 28.1417 29.667 28.1592 29.6383C28.1966 29.5776 28.2364 29.5186 28.2787 29.4615C28.2836 29.4549 28.2884 29.4484 28.2933 29.4419C28.3015 29.431 28.3098 29.4203 28.3182 29.4096C28.392 29.3156 28.4729 29.2272 28.5601 29.1452C28.6285 29.0807 28.6999 29.0211 28.7736 28.9663C28.8311 28.9239 28.8901 28.8841 28.9509 28.8469C28.9795 28.8292 29.0086 28.8123 29.0379 28.7961C29.0848 28.7703 29.1333 28.7455 29.1826 28.7224C29.223 28.7035 29.2641 28.6857 29.3056 28.6692C29.3525 28.6504 29.3995 28.6333 29.4471 28.6177C29.4825 28.6062 29.519 28.5952 29.5558 28.5851C29.607 28.5709 29.6585 28.5585 29.7106 28.5479C29.752 28.5397 29.7934 28.5324 29.8349 28.5262C29.8592 28.5224 29.8848 28.519 29.9105 28.516L29.9755 28.5094C30.0315 28.5044 30.0877 28.5014 30.1439 28.5004L30.1875 28.5H46.8125ZM42.3306 15.9355L42.5544 16.1331L48.4919 22.0706C48.5759 22.1547 48.6524 22.2435 48.7212 22.3361C48.7636 22.3936 48.8034 22.4526 48.8406 22.5134C48.8583 22.542 48.8752 22.5711 48.8914 22.6004C48.9172 22.6473 48.942 22.6958 48.9651 22.7451C48.984 22.7855 49.0018 22.8266 49.0183 22.8681C49.0371 22.915 49.0542 22.962 49.0698 23.0096C49.0813 23.045 49.0923 23.0815 49.1024 23.1183C49.1166 23.1695 49.129 23.221 49.1396 23.2731C49.1478 23.3145 49.1551 23.3559 49.1613 23.3974C49.1686 23.4448 49.1744 23.4938 49.1786 23.5432C49.1824 23.5879 49.1849 23.6306 49.1863 23.6734C49.1871 23.6973 49.1875 23.7236 49.1875 23.75C49.1875 23.8702 49.1786 23.9884 49.1613 24.1038C49.1551 24.1441 49.1478 24.1855 49.1394 24.2267C49.129 24.279 49.1166 24.3305 49.1027 24.3814C49.0923 24.4185 49.0813 24.455 49.0694 24.4913C49.0542 24.538 49.0371 24.585 49.0186 24.6313C49.0018 24.6734 48.984 24.7145 48.965 24.7552C48.942 24.8042 48.9172 24.8527 48.8909 24.9002C48.8752 24.9289 48.8583 24.958 48.8408 24.9867C48.8034 25.0474 48.7636 25.1064 48.7213 25.1635C48.7083 25.1812 48.6952 25.1984 48.6818 25.2154C48.6087 25.3085 48.5285 25.3962 48.4423 25.4776C48.3731 25.5429 48.301 25.6033 48.2264 25.6587C48.1689 25.7011 48.1099 25.7409 48.0491 25.7781C48.0205 25.7958 47.9914 25.8127 47.9621 25.8289C47.9152 25.8547 47.8667 25.8795 47.8174 25.9026C47.777 25.9215 47.7359 25.9393 47.6944 25.9558C47.6475 25.9746 47.6005 25.9917 47.5529 26.0073C47.5175 26.0188 47.481 26.0298 47.4442 26.0399C47.393 26.0541 47.3415 26.0665 47.2894 26.0771C47.248 26.0853 47.2066 26.0926 47.1651 26.0988C47.1408 26.1026 47.1152 26.106 47.0895 26.109L47.0149 26.1164C46.9738 26.1199 46.9327 26.1223 46.8915 26.1237L46.8125 26.125H30.1875C28.8758 26.125 27.8125 25.0617 27.8125 23.75C27.8125 22.532 28.7293 21.5282 29.9105 21.391L30.1875 21.375H41.0769L39.1956 19.4919C38.2681 18.5644 38.2681 17.0606 39.1956 16.1331C40.0518 15.277 41.3989 15.2111 42.3306 15.9355Z" fill="url(#paint0_linear_97_1020)"/>
<path fill-rule="evenodd" clip-rule="evenodd" d="M37.8448 2.47011C38.2796 2.34324 38.7415 2.3433 39.1762 2.47028L60.541 8.71135C61.5538 9.00723 62.25 9.93588 62.25 10.9911V23.79C62.25 38.265 52.9866 51.1156 39.2539 55.6913C38.7666 55.8537 38.2398 55.8537 37.7525 55.6914C24.0162 51.1158 14.75 38.2624 14.75 23.7841V10.9911C14.75 9.93566 15.4465 9.00686 16.4596 8.71118L37.8448 2.47011ZM38.5071 7.22237L19.5 12.7704V23.7841C19.5 35.7299 26.8456 46.3876 37.8838 50.6901L38.5024 50.92L39.1218 50.6902C49.9316 46.4756 57.1987 36.165 57.4909 24.5196L57.5 23.79V12.7704L38.5071 7.22237ZM48.4919 22.0706C48.5595 22.1382 48.623 22.2099 48.6821 22.2852L48.4919 22.0706ZM49.1789 23.9524L49.1875 23.75L49.1862 23.829C49.1848 23.8702 49.1824 23.9113 49.1789 23.9524ZM48.4423 25.4776C48.3895 25.5274 48.3344 25.5748 48.2773 25.6196L48.4919 25.4294C48.4755 25.4457 48.459 25.4618 48.4423 25.4776ZM28.7227 29.0054C28.6664 29.0496 28.6121 29.0962 28.5601 29.1452C28.5426 29.1617 28.5252 29.1785 28.5081 29.1956L28.7227 29.0054ZM27.8129 30.8314L27.8125 30.875L27.8219 30.663C27.8169 30.719 27.8139 30.7752 27.8129 30.8314ZM28.3343 32.3604L28.5081 32.5544L28.3179 32.3398L28.3343 32.3604Z" fill="#C4C4C4"/>
<path fill-rule="evenodd" clip-rule="evenodd" d="M37.8448 2.47011C38.2796 2.34324 38.7415 2.3433 39.1762 2.47028L60.541 8.71135C61.5538 9.00723 62.25 9.93588 62.25 10.9911V23.79C62.25 38.265 52.9866 51.1156 39.2539 55.6913C38.7666 55.8537 38.2398 55.8537 37.7525 55.6914C24.0162 51.1158 14.75 38.2624 14.75 23.7841V10.9911C14.75 9.93566 15.4465 9.00686 16.4596 8.71118L37.8448 2.47011ZM38.5071 7.22237L19.5 12.7704V23.7841C19.5 35.7299 26.8456 46.3876 37.8838 50.6901L38.5024 50.92L39.1218 50.6902C49.9316 46.4756 57.1987 36.165 57.4909 24.5196L57.5 23.79V12.7704L38.5071 7.22237ZM48.4919 22.0706C48.5595 22.1382 48.623 22.2099 48.6821 22.2852L48.4919 22.0706ZM49.1789 23.9524L49.1875 23.75L49.1862 23.829C49.1848 23.8702 49.1824 23.9113 49.1789 23.9524ZM48.4423 25.4776C48.3895 25.5274 48.3344 25.5748 48.2773 25.6196L48.4919 25.4294C48.4755 25.4457 48.459 25.4618 48.4423 25.4776ZM28.7227 29.0054C28.6664 29.0496 28.6121 29.0962 28.5601 29.1452C28.5426 29.1617 28.5252 29.1785 28.5081 29.1956L28.7227 29.0054ZM27.8129 30.8314L27.8125 30.875L27.8219 30.663C27.8169 30.719 27.8139 30.7752 27.8129 30.8314ZM28.3343 32.3604L28.5081 32.5544L28.3179 32.3398L28.3343 32.3604Z" fill="url(#paint1_linear_97_1020)"/>
<g filter="url(#filter0_b_97_1020)">
<circle cx="19.5" cy="42.5" r="19.5" fill="white" fill-opacity="0.1"/>
<circle cx="19.5" cy="42.5" r="19.35" stroke="url(#paint2_linear_97_1020)" stroke-width="0.3"/>
</g>
<path d="M28.2895 40.6492C28.2371 40.4949 28.1407 40.3593 28.0122 40.2592C27.8836 40.1591 27.7286 40.0988 27.5662 40.0858L22.8153 39.7083L20.7595 35.1575C20.694 35.0109 20.5875 34.8864 20.4529 34.7991C20.3182 34.7117 20.1611 34.6651 20.0006 34.665C19.8401 34.665 19.683 34.7113 19.5482 34.7986C19.4134 34.8858 19.3068 35.0102 19.2412 35.1567L17.1853 39.7083L12.4345 40.0858C12.2749 40.0985 12.1223 40.1569 11.995 40.254C11.8677 40.3511 11.771 40.4828 11.7166 40.6334C11.6622 40.784 11.6523 40.947 11.6881 41.1031C11.724 41.2592 11.804 41.4016 11.9187 41.5133L15.4295 44.9358L14.1878 50.3125C14.1501 50.4753 14.1622 50.6456 14.2225 50.8014C14.2828 50.9572 14.3886 51.0913 14.526 51.1862C14.6635 51.2812 14.8263 51.3326 14.9933 51.3339C15.1604 51.3352 15.324 51.2862 15.4628 51.1933L20.0003 48.1683L24.5378 51.1933C24.6798 51.2876 24.8472 51.3361 25.0175 51.3324C25.1879 51.3286 25.353 51.2728 25.4907 51.1724C25.6284 51.0721 25.732 50.9319 25.7877 50.7709C25.8433 50.6099 25.8483 50.4356 25.802 50.2717L24.2778 44.9383L28.0578 41.5367C28.3053 41.3133 28.3962 40.965 28.2895 40.6492Z" fill="white"/>
<defs>
<filter id="filter0_b_97_1020" x="-5" y="18" width="49" height="49" filterUnits="userSpaceOnUse" color-interpolation-filters="sRGB">
<feFlood flood-opacity="0" result="BackgroundImageFix"/>
<feGaussianBlur in="BackgroundImageFix" stdDeviation="2.5"/>
<feComposite in2="SourceAlpha" operator="in" result="effect1_backgroundBlur_97_1020"/>
<feBlend mode="normal" in="SourceGraphic" in2="effect1_backgroundBlur_97_1020" result="shape"/>
</filter>
<linearGradient id="paint0_linear_97_1020" x1="21.2564" y1="11.5347" x2="60.8284" y2="44.1545" gradientUnits="userSpaceOnUse">
<stop stop-color="#00FFA3" stop-opacity="0.6"/>
<stop offset="1" stop-color="#4B48F1"/>
</linearGradient>
<linearGradient id="paint1_linear_97_1020" x1="21.2564" y1="11.5347" x2="60.8284" y2="44.1545" gradientUnits="userSpaceOnUse">
<stop stop-color="#00FFA3" stop-opacity="0.6"/>
<stop offset="1" stop-color="#4B48F1"/>
</linearGradient>
<linearGradient id="paint2_linear_97_1020" x1="19.5" y1="23" x2="19.5" y2="62" gradientUnits="userSpaceOnUse">
<stop stop-color="white" stop-opacity="0.46"/>
<stop offset="1" stop-color="white" stop-opacity="0"/>
</linearGradient>
</defs>
</svg>
