<svg width="91" height="94" viewBox="0 0 91 94" fill="none" xmlns="http://www.w3.org/2000/svg">
<g clip-path="url(#clip0_261_11642)">
<path opacity="0.1" d="M90.9916 16.6587C61.8789 16.1017 45.6701 3.89038 45.6618 3.89038C45.6618 3.89038 29.1208 16.1017 0.00815138 16.6587C-0.124707 30.649 1.46129 44.5561 5.44706 58.9121C11.2596 79.8851 27.3106 87.9567 45.6618 94C64.0129 87.9567 80.4044 79.5941 86.109 58.5962C89.7958 45.0299 91.1161 30.649 90.9916 16.6587Z" fill="black"/>
<path d="M87.7948 12.8099C59.9442 12.2529 45.6619 0 45.6619 0C45.6619 0 31.3879 12.2529 3.52905 12.8099C3.40449 26.8417 4.13522 41.4721 7.66428 55.0799C13.1198 76.1443 28.0996 84.3323 45.6619 90.3923C63.2242 84.3323 78.204 76.1443 83.6595 55.0799C87.1886 41.4721 87.9193 26.8417 87.7948 12.8099Z" fill="white"/>
<path d="M84.2906 15.5032C58.7485 14.9878 45.6619 3.75732 45.6619 3.75732C45.6619 3.75732 32.5753 14.9878 7.03321 15.5032C6.91696 28.3712 7.58956 41.7879 10.828 54.257C15.8351 73.5757 29.5611 81.0737 45.6702 86.6349C61.7711 81.0737 75.5053 73.5757 80.5125 54.257C83.7343 41.7796 84.4069 28.3712 84.2906 15.5032Z" fill="#4EB8EB"/>
<path d="M80.8775 18.1217C57.594 17.6562 45.6616 7.41492 45.6616 7.41492V82.9773C60.3425 77.9066 72.8645 71.0653 77.4232 53.459C80.371 42.0872 80.9855 29.8592 80.8775 18.1217Z" fill="#2CABDD"/>
<path d="M49.0825 48.463C49.0825 51.0483 47.5463 53.1514 45.6531 53.1514C43.7598 53.1514 42.2236 51.0566 42.2236 48.463C42.2236 45.8778 43.7598 43.7747 45.6531 43.7747C47.5463 43.783 49.0825 45.8778 49.0825 48.463Z" fill="#20B8C4"/>
<path d="M45.8112 59.6686H44.5242C42.5977 59.6686 41.0366 58.1058 41.0366 56.1773V46.7091C41.0366 44.7806 42.5977 43.2178 44.5242 43.2178H45.8112C47.7377 43.2178 49.2988 44.7806 49.2988 46.7091V56.1773C49.2988 58.1058 47.7377 59.6686 45.8112 59.6686Z" fill="#C0F0FF"/>
<path opacity="0.15" d="M64.0877 40.5244H62.2609H60.0438V37.6898C60.0438 30.6572 54.3308 24.9381 47.3059 24.9381C40.281 24.9381 34.5681 30.6572 34.5681 37.6898V40.5244H32.351H30.5242C30.1007 40.5244 29.7603 40.8652 29.7603 41.2892V62.711C29.7603 63.135 30.1007 63.4758 30.5242 63.4758H64.0794C64.5028 63.4758 64.8433 63.135 64.8433 62.711V41.2892C64.8599 40.8652 64.5112 40.5244 64.0877 40.5244ZM38.7781 40.5244V37.6898C38.7781 32.9765 42.606 29.1526 47.3059 29.1526C52.0141 29.1526 55.8338 32.9848 55.8338 37.6898V40.5244H39.0355H38.7781ZM49.797 57.8315C49.8718 58.2138 49.631 58.5713 49.2988 58.5713H47.3059H45.3214C44.9892 58.5713 44.7484 58.2055 44.8231 57.8315L46.2514 50.8488C44.9228 50.35 44.0426 48.9535 44.3498 47.3907C44.5823 46.2186 45.5622 45.2627 46.7413 45.0465C48.6594 44.6974 50.3285 46.1604 50.3285 48.0142C50.3285 49.3109 49.5147 50.4082 48.3688 50.8405L49.797 57.8315Z" fill="black"/>
<path d="M36.7349 43.9742V35.6449C36.7349 30.9316 40.5629 27.1077 45.2627 27.1077C49.9709 27.1077 53.7906 30.9399 53.7906 35.6449V43.9742H57.9923V35.6449C57.9923 28.6123 52.2794 22.8932 45.2544 22.8932C38.2295 22.8932 32.5166 28.6123 32.5166 35.6449V43.9742H36.7349Z" fill="white"/>
<path d="M61.9453 38.4795H60.1185H53.7413H45.1885V42.9683C46.8409 42.985 48.1778 44.3233 48.1778 45.9775C48.1778 47.2743 47.364 48.3716 46.2181 48.8039L47.6547 55.7865C47.7294 56.1689 47.4886 56.5264 47.1565 56.5264H45.1885V61.4309H61.9453C62.3688 61.4309 62.7092 61.09 62.7092 60.6661V39.2443C62.7175 38.8203 62.3771 38.4795 61.9453 38.4795Z" fill="#01064A"/>
<path d="M45.155 56.5347H43.1705C42.8383 56.5347 42.5975 56.1689 42.6722 55.7948L44.1005 48.8122C42.7719 48.3134 41.8917 46.9169 42.1989 45.3541C42.4314 44.182 43.4113 43.226 44.5904 43.0099C44.7897 42.9767 44.989 42.9683 45.1883 42.9683V38.4795H36.8929H30.2167H28.3899C27.9664 38.4795 27.626 38.8203 27.626 39.2443V60.6661C27.626 61.09 27.9664 61.4309 28.3899 61.4309H45.1883V56.5264H45.155V56.5347Z" fill="#111A75"/>
</g>
<defs>
<clipPath id="clip0_261_11642">
<rect width="91" height="94" fill="white"/>
</clipPath>
</defs>
</svg>
