<svg width="24" height="24" viewBox="0 0 24 24" fill="none" xmlns="http://www.w3.org/2000/svg">
<path fill-rule="evenodd" clip-rule="evenodd" d="M1 12C1 5.92487 5.92487 1 12 1C18.0751 1 23 5.92487 23 12C23 18.0751 18.0751 23 12 23C5.92487 23 1 18.0751 1 12ZM13.0041 6.0001C13.0042 5.44782 12.5565 5.00006 12.0042 5C11.452 4.99994 11.0042 5.44762 11.0041 5.9999L11.0035 12.0043C11.0035 12.2696 11.1089 12.5239 11.2964 12.7115L15.5361 16.9512C15.9267 17.3417 16.5598 17.3417 16.9503 16.9512C17.3409 16.5607 17.3409 15.9275 16.9503 15.537L13.0036 11.5902L13.0041 6.0001Z" fill="white"/>
</svg>
