<svg width="68" height="60" viewBox="0 0 68 60" fill="none" xmlns="http://www.w3.org/2000/svg">
<path fill-rule="evenodd" clip-rule="evenodd" d="M50.8012 3.56241C50.1453 2.42646 48.6928 2.03726 47.5569 2.6931L31.6533 11.8749H18.125C15.5017 11.8749 13.375 14.0015 13.375 16.6249V49.8749C13.375 52.4984 15.5017 54.6249 18.125 54.6249H60.875C63.4984 54.6249 65.625 52.4983 65.625 49.8749V16.6249C65.625 14.0016 63.4984 11.8749 60.875 11.8749H55.6004L50.8012 3.56241ZM44.25 33.2499C44.25 28.5513 48.2151 24.9374 52.8594 24.9374H60.875V41.5624H52.8594C48.2151 41.5624 44.25 37.9486 44.25 33.2499Z" fill="#C4C4C4"/>
<path fill-rule="evenodd" clip-rule="evenodd" d="M50.8012 3.56241C50.1453 2.42646 48.6928 2.03726 47.5569 2.6931L31.6533 11.8749H18.125C15.5017 11.8749 13.375 14.0015 13.375 16.6249V49.8749C13.375 52.4984 15.5017 54.6249 18.125 54.6249H60.875C63.4984 54.6249 65.625 52.4983 65.625 49.8749V16.6249C65.625 14.0016 63.4984 11.8749 60.875 11.8749H55.6004L50.8012 3.56241ZM44.25 33.2499C44.25 28.5513 48.2151 24.9374 52.8594 24.9374H60.875V41.5624H52.8594C48.2151 41.5624 44.25 37.9486 44.25 33.2499Z" fill="url(#paint0_linear_96_614)"/>
<g filter="url(#filter0_b_96_614)">
<circle cx="19.5" cy="40.5" r="19.5" fill="white" fill-opacity="0.1"/>
<circle cx="19.5" cy="40.5" r="19.35" stroke="url(#paint1_linear_96_614)" stroke-width="0.3"/>
</g>
<path d="M28.2895 38.6492C28.2371 38.4949 28.1407 38.3593 28.0122 38.2592C27.8836 38.1591 27.7286 38.0988 27.5662 38.0858L22.8153 37.7083L20.7595 33.1575C20.694 33.0109 20.5875 32.8864 20.4529 32.7991C20.3182 32.7117 20.1611 32.6651 20.0006 32.665C19.8401 32.665 19.683 32.7113 19.5482 32.7986C19.4134 32.8858 19.3068 33.0102 19.2412 33.1567L17.1853 37.7083L12.4345 38.0858C12.2749 38.0985 12.1223 38.1569 11.995 38.254C11.8677 38.3511 11.771 38.4828 11.7166 38.6334C11.6622 38.784 11.6523 38.947 11.6881 39.1031C11.724 39.2592 11.804 39.4016 11.9187 39.5133L15.4295 42.9358L14.1878 48.3125C14.1501 48.4753 14.1622 48.6456 14.2225 48.8014C14.2828 48.9572 14.3886 49.0913 14.526 49.1862C14.6635 49.2812 14.8263 49.3326 14.9933 49.3339C15.1604 49.3352 15.324 49.2862 15.4628 49.1933L20.0003 46.1683L24.5378 49.1933C24.6798 49.2876 24.8472 49.3361 25.0175 49.3324C25.1879 49.3286 25.353 49.2728 25.4907 49.1724C25.6284 49.0721 25.732 48.9319 25.7877 48.7709C25.8433 48.6099 25.8483 48.4356 25.802 48.2717L24.2778 42.9383L28.0578 39.5367C28.3053 39.3133 28.3962 38.965 28.2895 38.6492Z" fill="white"/>
<defs>
<filter id="filter0_b_96_614" x="-5" y="16" width="49" height="49" filterUnits="userSpaceOnUse" color-interpolation-filters="sRGB">
<feFlood flood-opacity="0" result="BackgroundImageFix"/>
<feGaussianBlur in="BackgroundImageFix" stdDeviation="2.5"/>
<feComposite in2="SourceAlpha" operator="in" result="effect1_backgroundBlur_96_614"/>
<feBlend mode="normal" in="SourceGraphic" in2="effect1_backgroundBlur_96_614" result="shape"/>
</filter>
<linearGradient id="paint0_linear_96_614" x1="20.532" y1="11.3306" x2="59.8371" y2="47.7804" gradientUnits="userSpaceOnUse">
<stop stop-color="#00FFA3" stop-opacity="0.6"/>
<stop offset="1" stop-color="#4B48F1"/>
</linearGradient>
<linearGradient id="paint1_linear_96_614" x1="19.5" y1="21" x2="19.5" y2="60" gradientUnits="userSpaceOnUse">
<stop stop-color="white" stop-opacity="0.46"/>
<stop offset="1" stop-color="white" stop-opacity="0"/>
</linearGradient>
</defs>
</svg>
