<svg width="1439" height="313" viewBox="0 0 1439 313" fill="none" xmlns="http://www.w3.org/2000/svg">
<g clip-path="url(#clip0_53_4189)">
<path d="M71.5317 0.369751C180.998 9.94308 277.059 56.9596 364.966 105.824C452.872 154.689 539.791 207.841 644.438 233.419C732.654 254.969 830.321 255.154 918.722 233.9C1009.78 212.018 1088.11 169.03 1169.84 132.327C1251.57 95.6226 1343.37 63.8347 1439 68.5289" stroke="url(#paint0_linear_53_4189)" stroke-width="0.10304" stroke-miterlimit="10"/>
<path d="M70.6688 3.43774C179.394 11.6065 275.764 57.0706 363.856 104.974C451.948 152.878 538.928 205.439 643.019 231.202C726.169 251.864 817.412 254.193 901.921 237.522C907.295 236.451 912.608 235.342 917.921 234.122C964.067 223.587 1007.19 207.583 1048.58 189.027C1089.35 170.805 1128.2 150.401 1168.3 131.661C1249.16 93.6637 1342.07 61.5061 1438.32 66.6809" stroke="url(#paint1_linear_53_4189)" stroke-width="0.10304" stroke-miterlimit="10"/>
<path d="M69.7406 6.50525C177.724 13.2325 274.403 57.218 362.742 104.124C451.081 151.029 538.061 202.999 641.597 228.984C724.871 250.052 816.113 253.342 901.054 237.559C906.429 236.561 911.803 235.489 917.178 234.306C963.695 224.252 1007.43 208.58 1048.7 189.655C1089.28 171.174 1127.34 150.253 1166.75 130.996C1246.87 91.8521 1340.83 59.1771 1437.64 64.7954" stroke="url(#paint2_linear_53_4189)" stroke-width="0.10304" stroke-miterlimit="10"/>
<path d="M68.877 9.57336C176.119 14.859 273.107 57.3292 361.693 103.237C450.279 149.144 537.259 200.523 640.239 226.766C723.636 248.241 814.879 252.492 900.253 237.633C905.689 236.672 911.125 235.674 916.5 234.565C963.387 224.992 1007.68 209.615 1048.95 190.358C1089.35 171.618 1126.54 150.142 1165.33 130.404C1244.65 90.0411 1339.66 56.9226 1437.08 62.9844" stroke="url(#paint3_linear_53_4189)" stroke-width="0.10304" stroke-miterlimit="10"/>
<path d="M68.0139 12.6416C174.453 16.4857 271.812 57.4404 360.583 102.387C449.355 147.334 536.52 197.936 638.82 224.549C722.464 246.32 813.583 251.642 899.39 237.67C904.826 236.783 910.324 235.822 915.698 234.787C962.895 225.695 1007.81 210.651 1049.01 191.06C1089.23 172.062 1125.55 150.032 1163.73 129.813C1242.24 88.2303 1338.31 54.6682 1436.28 61.2106" stroke="url(#paint4_linear_53_4189)" stroke-width="0.10304" stroke-miterlimit="10"/>
<path d="M67.146 15.7089C172.844 18.1484 270.449 57.5876 359.53 101.536C448.61 145.485 535.775 195.495 637.52 222.367C721.349 244.508 812.468 250.829 898.645 237.744C904.143 236.931 909.641 236.007 915.077 235.009C962.645 226.396 1008.05 211.611 1049.25 191.725C1089.22 172.431 1124.68 149.846 1162.3 129.147C1240.02 86.3446 1337.13 52.3389 1435.72 59.3248" stroke="url(#paint5_linear_53_4189)" stroke-width="0.10304" stroke-miterlimit="10"/>
<path d="M66.2222 18.7771C171.179 19.8121 269.155 57.7358 358.421 100.686C447.686 143.637 534.913 193.019 636.102 220.15C720.117 242.66 811.174 249.979 897.783 237.781C903.281 237.005 908.841 236.155 914.339 235.231C962.277 227.099 1008.24 212.646 1049.44 192.391C1089.23 172.838 1123.82 149.699 1160.82 128.519C1237.67 84.4968 1335.9 50.0475 1435.11 57.477" stroke="url(#paint6_linear_53_4189)" stroke-width="0.10304" stroke-miterlimit="10"/>
<path d="M65.3541 21.8449C169.57 21.4383 267.854 57.8466 357.367 99.7992C446.88 141.752 534.107 190.543 634.739 217.895C718.878 240.775 809.935 249.092 896.977 237.818C902.537 237.116 908.096 236.302 913.594 235.415C961.903 227.764 1008.42 213.607 1049.56 193.019C1089.1 173.207 1122.89 149.514 1159.21 127.854C1235.26 82.5746 1334.53 47.7558 1434.36 55.6288" stroke="url(#paint7_linear_53_4189)" stroke-width="0.10304" stroke-miterlimit="10"/>
<path d="M64.4912 24.9134C167.965 23.0653 266.497 57.995 356.257 98.9496C446.017 139.904 533.306 188.104 633.321 215.715C717.644 239.001 808.64 248.279 896.114 237.892C901.674 237.227 907.295 236.488 912.855 235.675C961.534 228.504 1008.67 214.68 1049.75 193.722C1089.1 173.651 1122.03 149.367 1157.73 127.263C1232.98 80.727 1333.36 45.5016 1433.75 53.8182" stroke="url(#paint8_linear_53_4189)" stroke-width="0.10304" stroke-miterlimit="10"/>
<path d="M63.6283 27.9809C166.361 24.7282 265.202 58.1055 355.209 98.0991C445.216 138.093 532.505 185.627 631.963 213.497C716.472 237.153 807.406 247.428 895.313 237.929C900.934 237.338 906.556 236.635 912.177 235.859C961.165 229.169 1008.92 215.677 1049.94 194.35C1089.1 174.02 1121.1 149.182 1156.25 126.56C1230.63 78.7677 1332.13 43.1356 1433.07 51.9327" stroke="url(#paint9_linear_53_4189)" stroke-width="0.10304" stroke-miterlimit="10"/>
<path d="M62.7603 31.0487C164.752 26.3545 263.901 58.2533 354.156 97.212C444.41 136.171 531.698 183.15 630.663 211.279C715.295 235.342 806.229 246.578 894.568 238.003C900.19 237.448 905.873 236.82 911.495 236.118C960.853 229.871 1009.16 216.712 1050.18 195.052C1089.16 174.464 1120.3 149.034 1154.83 125.969C1228.34 76.9195 1330.95 40.8808 1432.51 50.1215" stroke="url(#paint10_linear_53_4189)" stroke-width="0.10304" stroke-miterlimit="10"/>
<path d="M61.8364 34.117C163.087 28.0181 262.545 58.3645 352.985 96.3621C443.424 134.36 530.775 180.711 629.183 209.061C714.001 233.494 804.873 245.691 893.645 238.04C899.328 237.56 905.011 236.968 910.695 236.303C960.424 230.537 1009.29 217.711 1050.25 195.681C1089.04 174.834 1119.25 148.812 1153.23 125.304C1225.94 74.9977 1329.59 38.5525 1431.77 48.2367" stroke="url(#paint11_linear_53_4189)" stroke-width="0.10304" stroke-miterlimit="10"/>
<path d="M60.9684 37.1844C161.415 29.6441 261.245 58.5119 351.931 95.5116C442.618 132.511 529.968 178.271 627.821 206.843C712.824 231.682 803.634 244.841 892.838 238.077C898.521 237.633 904.267 237.153 910.012 236.524C960.112 231.239 1009.53 218.708 1050.43 196.346C1089.04 175.24 1118.38 148.627 1151.74 124.675C1223.58 73.0752 1328.36 36.2604 1431.15 46.4251" stroke="url(#paint12_linear_53_4189)" stroke-width="0.10304" stroke-miterlimit="10"/>
<path d="M60.1055 40.2525C159.811 31.2706 259.949 58.623 350.883 94.6246C441.817 130.626 529.229 175.795 626.464 204.626C711.591 229.834 802.401 243.991 892.037 238.151C897.782 237.781 903.527 237.338 909.272 236.783C959.743 231.978 1009.72 219.78 1050.62 197.048C1089.04 175.684 1117.46 148.479 1150.26 124.047C1221.24 71.1903 1327.12 33.9689 1430.53 44.5771" stroke="url(#paint13_linear_53_4189)" stroke-width="0.10304" stroke-miterlimit="10"/>
<path d="M59.2418 43.3206C158.206 32.934 258.653 58.771 349.772 93.7746C440.891 128.778 528.365 173.355 625.044 202.408C710.356 228.023 801.166 243.141 891.173 238.188C896.918 237.892 902.725 237.486 908.532 236.968C959.312 232.643 1009.91 220.778 1050.74 197.677C1088.98 176.054 1116.53 148.295 1148.72 123.382C1218.77 69.2314 1325.89 31.6403 1429.86 42.6922" stroke="url(#paint14_linear_53_4189)" stroke-width="0.10304" stroke-miterlimit="10"/>
<path d="M58.3745 46.3885C156.598 34.5604 257.354 58.8819 348.72 92.9245C440.086 126.967 527.56 170.916 623.744 200.227C709.18 226.249 799.99 242.328 890.43 238.262C896.236 238.003 902.043 237.67 907.912 237.227C959.062 233.383 1010.27 221.813 1051.05 198.379C1089.1 176.497 1115.72 148.147 1147.35 122.79C1216.54 67.3833 1324.77 29.3856 1429.3 40.918" stroke="url(#paint15_linear_53_4189)" stroke-width="0.10304" stroke-miterlimit="10"/>
<path d="M57.4507 49.4564C154.933 36.2238 255.997 58.9928 347.61 92.0744C439.224 125.156 526.698 168.513 622.326 198.009C707.947 224.438 798.696 241.478 889.567 238.299C895.374 238.114 901.243 237.818 907.112 237.412C958.632 234.048 1010.4 222.811 1051.11 199.007C1088.98 176.867 1114.68 147.925 1145.75 122.125C1214.07 65.4243 1323.42 27.057 1428.56 39.033" stroke="url(#paint16_linear_53_4189)" stroke-width="0.10304" stroke-miterlimit="10"/>
<path d="M56.5826 52.5241C153.323 37.8499 254.697 59.1404 346.557 91.187C438.417 123.234 525.892 166.036 620.964 195.754C706.709 222.589 797.457 240.59 888.761 238.335C894.63 238.188 900.499 237.966 906.429 237.633C958.32 234.75 1010.64 223.846 1051.35 199.672C1089.04 177.273 1113.81 147.74 1144.33 121.459C1211.72 63.465 1322.24 24.7281 1428 37.1476" stroke="url(#paint17_linear_53_4189)" stroke-width="0.10304" stroke-miterlimit="10"/>
<path d="M55.7191 55.5919C151.718 39.4762 253.339 59.2512 345.446 90.3368C437.554 121.422 525.028 163.597 619.545 193.574C705.474 220.815 796.161 239.777 887.898 238.409C893.766 238.335 899.697 238.151 905.627 237.855C957.889 235.452 1010.77 224.881 1051.42 200.338C1088.92 177.717 1112.76 147.518 1142.72 120.831C1209.19 61.5429 1320.88 22.4364 1427.26 35.3364" stroke="url(#paint18_linear_53_4189)" stroke-width="0.10304" stroke-miterlimit="10"/>
<path d="M54.8562 58.6602C150.114 41.1399 252.044 59.3994 344.398 89.4871C436.753 119.575 524.227 161.195 618.188 191.356C704.241 219.004 794.927 238.927 887.097 238.447C893.027 238.41 898.958 238.299 904.95 238.077C957.521 236.155 1011.08 225.879 1051.6 201.003C1088.92 178.124 1111.84 147.334 1141.24 120.203C1206.79 59.6212 1319.65 20.182 1426.64 33.4886" stroke="url(#paint19_linear_53_4189)" stroke-width="0.10304" stroke-miterlimit="10"/>
<path d="M53.9882 61.7278C148.505 42.7659 250.743 59.51 343.345 88.5997C435.946 117.689 523.421 158.718 616.887 189.138C703.126 217.193 793.75 238.077 886.352 238.52C892.282 238.557 898.275 238.483 904.329 238.336C957.27 236.894 1011.39 226.951 1051.91 201.742C1089.04 178.604 1111.03 147.222 1139.88 119.648C1204.5 57.7728 1318.6 17.964 1426.15 31.7141" stroke="url(#paint20_linear_53_4189)" stroke-width="0.10304" stroke-miterlimit="10"/>
<path d="M53.0643 64.7958C146.778 44.4294 249.387 59.658 342.174 87.7496C434.961 115.841 522.497 156.315 615.407 186.921C701.769 215.382 792.394 237.227 885.428 238.557C891.42 238.668 897.413 238.631 903.467 238.52C956.779 237.559 1011.45 227.949 1051.91 202.371C1088.92 178.974 1109.92 147.001 1138.21 118.946C1201.9 55.7769 1317.18 15.5985 1425.28 29.8291" stroke="url(#paint21_linear_53_4189)" stroke-width="0.10304" stroke-miterlimit="10"/>
<path d="M52.1969 67.8638C145.169 46.0558 248.087 59.769 341.121 86.8996C434.155 114.03 521.691 153.876 614.046 184.703C700.531 213.571 791.156 236.377 884.623 238.594C890.615 238.742 896.731 238.779 902.785 238.742C956.468 238.262 1011.76 228.984 1052.16 203.036C1088.98 179.38 1109.05 146.816 1136.79 118.318C1199.55 53.818 1316 13.3069 1424.73 27.9811" stroke="url(#paint22_linear_53_4189)" stroke-width="0.10304" stroke-miterlimit="10"/>
<path d="M51.3334 70.9313C143.564 47.6818 246.791 59.9165 340.072 86.0491C433.353 112.182 520.828 151.473 612.688 182.522C699.359 211.796 789.984 235.563 883.883 238.705C889.937 238.927 896.052 239.001 902.168 239.001C956.222 239.001 1012.07 230.056 1052.41 203.738C1089.04 179.86 1108.19 146.668 1135.37 117.726C1197.15 51.9325 1314.83 11.0518 1424.17 26.1695" stroke="url(#paint23_linear_53_4189)" stroke-width="0.10304" stroke-miterlimit="10"/>
<path d="M50.4705 73.9996C141.96 49.3454 245.496 60.0277 338.962 85.1623C432.429 110.297 519.965 149.034 611.269 180.267C698.064 209.985 788.688 234.676 883.02 238.705C889.074 238.964 895.251 239.149 901.367 239.186C955.73 239.629 1012.25 231.017 1052.53 204.367C1088.98 180.23 1107.2 146.446 1133.83 117.061C1194.68 49.9738 1313.53 8.72346 1423.49 24.3217" stroke="url(#paint24_linear_53_4189)" stroke-width="0.10304" stroke-miterlimit="10"/>
<path d="M49.6024 77.0673C140.351 50.9716 244.195 60.1753 337.909 84.3119C431.623 108.449 519.159 146.594 609.969 178.086C696.887 208.211 787.512 233.863 882.275 238.779C888.391 239.112 894.569 239.333 900.746 239.407C955.479 240.331 1012.62 232.126 1052.78 205.032C1089.16 180.674 1106.27 146.224 1132.4 116.396C1192.27 47.9776 1312.36 6.39459 1422.94 22.4364" stroke="url(#paint25_linear_53_4189)" stroke-width="0.10304" stroke-miterlimit="10"/>
<path d="M48.6786 80.1355C138.686 52.6352 242.839 60.2865 336.8 83.4621C430.76 106.638 518.296 144.192 608.551 175.869C695.592 206.4 786.217 233.013 881.413 238.853C887.529 239.223 893.768 239.519 900.008 239.666C955.111 241.071 1012.87 233.161 1052.96 205.735C1089.16 181.154 1105.35 146.077 1130.92 115.804C1189.8 46.0928 1311.19 4.14018 1422.32 20.6255" stroke="url(#paint26_linear_53_4189)" stroke-width="0.10304" stroke-miterlimit="10"/>
<path d="M47.8105 83.2033C137.076 54.2615 241.539 60.4343 335.685 82.5749C429.831 104.716 517.367 141.752 607.127 173.614C694.292 204.589 784.917 232.126 880.545 238.853C886.723 239.297 892.962 239.629 899.201 239.851C954.676 241.736 1012.99 234.159 1053.02 206.363C1089.04 181.524 1104.23 145.855 1129.32 115.139C1187.2 44.1338 1309.82 1.81149 1421.51 18.7774" stroke="url(#paint27_linear_53_4189)" stroke-width="0.10304" stroke-miterlimit="10"/>
<path d="M46.9476 86.2713C135.472 55.8879 240.182 60.5452 334.636 81.7249C429.091 102.904 516.442 139.461 605.769 171.433C692.997 202.926 783.683 231.313 879.744 238.927C885.922 239.408 892.223 239.814 898.524 240.073C954.369 242.439 1013.24 235.194 1053.21 207.028C1089.04 181.931 1103.31 145.67 1127.83 114.511C1184.73 42.1748 1308.59 -0.480158 1420.9 16.9293" stroke="url(#paint28_linear_53_4189)" stroke-width="0.10304" stroke-miterlimit="10"/>
<path d="M46.0847 89.3392C133.868 57.5513 238.886 60.6931 333.588 80.8747C428.29 101.056 515.641 137.021 604.412 169.216C691.763 201.077 782.45 230.463 878.943 238.964C885.182 239.519 891.483 239.962 897.846 240.295C954 243.141 1013.49 236.192 1053.46 207.694C1089.1 182.337 1102.32 145.449 1126.35 113.845C1181.95 40.1418 1307.36 -2.80879 1420.28 15.0811" stroke="url(#paint29_linear_53_4189)" stroke-width="0.10304" stroke-miterlimit="10"/>
<path d="M45.1558 92.4072C132.136 59.1778 237.525 60.8041 332.474 79.9877C427.423 99.1714 514.774 134.545 603.051 166.998C690.587 199.266 781.212 229.576 878.137 239.038C884.377 239.667 890.74 240.147 897.103 240.517C953.627 243.843 1013.73 237.227 1053.58 208.359C1089.04 182.744 1101.33 145.264 1124.81 113.217C1179.54 38.2569 1306.06 -5.06338 1419.6 13.2331" stroke="url(#paint30_linear_53_4189)" stroke-width="0.10304" stroke-miterlimit="10"/>
<path d="M44.2928 95.4744C130.532 60.8404 236.23 60.9513 331.364 79.1369C426.498 97.3226 513.972 132.104 601.632 164.779C689.291 197.455 779.916 228.725 877.274 239.074C939.297 245.654 1009.41 241.551 1053.77 209.024C1089.04 183.15 1100.41 145.078 1123.33 112.588C1177.13 36.3341 1304.82 -7.35576 1418.98 11.3843" stroke="url(#paint31_linear_53_4189)" stroke-width="0.10304" stroke-miterlimit="10"/>
<path d="M42.8696 97.1753C128.429 63.9458 233.2 63.3544 326.728 80.1724C419.824 96.9165 503.901 131.218 590.695 161.084C611.267 168.144 632.703 174.723 654.262 181.82C685.088 192.022 715.853 202.593 746.617 211.76C781.088 221.998 815.867 230.5 851.944 236.155C856.33 236.857 860.778 237.486 865.226 238.077C906.986 243.806 953.071 244.472 992.854 234.27C1011.39 229.539 1028.62 222.405 1043.26 212.314C1058.09 202.112 1069.15 189.804 1078.41 176.46C1092.13 156.648 1102.01 134.766 1116.03 114.88C1127.83 98.0993 1143.09 82.8707 1161.25 69.749C1182.26 54.6312 1206.84 42.5075 1233.16 33.4146C1261.58 23.5086 1292.16 17.0402 1323.6 14.1571C1355.04 11.237 1387.41 11.8654 1418.43 16.0791" stroke="url(#paint32_linear_53_4189)" stroke-width="0.10304" stroke-miterlimit="10"/>
<path d="M41.4515 98.8752C126.393 67.0873 230.114 65.7567 322.036 81.2071C413.093 96.5096 493.896 130.294 579.64 157.387C600.15 163.856 622.265 169.363 644.319 176.275C675.763 186.181 706.774 197.603 737.106 207.582C770.897 218.708 804.627 228.134 840.024 234.75C844.348 235.563 848.673 236.302 853.059 237.042C894.263 243.917 940.286 245.802 980.749 236.561C999.714 232.237 1017.51 225.472 1032.76 215.603C1048.27 205.623 1060.07 193.315 1069.89 179.824C1084.35 159.827 1094.48 137.464 1108.75 117.209C1120.79 100.058 1136.24 84.4598 1155.08 71.338C1176.82 56.1464 1202.46 44.6879 1229.4 36.2605C1258.49 27.1676 1289.44 21.5493 1321.44 19.1098C1353.44 16.7072 1386.55 17.3725 1417.93 20.7731" stroke="url(#paint33_linear_53_4189)" stroke-width="0.10304" stroke-miterlimit="10"/>
<path d="M40.0283 100.576C124.29 70.2296 226.961 68.1597 317.401 82.2424C406.419 96.1035 484.071 129.407 568.704 153.691C589.213 159.568 611.946 164.041 634.556 170.768C666.68 180.415 697.876 192.65 727.714 203.443C760.887 215.419 793.505 225.806 828.223 233.42C832.485 234.344 836.748 235.231 841.01 236.081C881.597 244.176 927.558 247.207 968.7 238.927C988.036 235.046 1006.45 228.578 1022.32 218.93C1038.44 209.135 1051.05 196.901 1061.36 183.225C1076.5 163.08 1086.94 140.237 1101.46 119.538C1113.75 102.017 1129.44 86.0866 1148.9 72.8909C1171.45 57.6623 1198.07 46.7952 1225.69 39.07C1255.4 30.7534 1286.78 25.9852 1319.28 24.0262C1351.77 22.1042 1385.69 22.8434 1417.44 25.4678" stroke="url(#paint34_linear_53_4189)" stroke-width="0.10304" stroke-miterlimit="10"/>
<path d="M38.6095 102.276C122.192 73.3709 223.874 70.5617 312.769 83.2769C399.688 95.6963 474.436 128.482 557.771 149.994C578.404 155.317 601.694 158.644 624.736 165.223C657.539 174.575 688.859 187.659 718.264 199.266C750.758 212.129 782.387 223.402 816.364 232.015C820.503 233.05 824.703 234.048 828.904 235.046C868.935 244.323 914.834 248.574 956.594 241.218C976.363 237.744 995.328 231.645 1011.82 222.183C1028.62 212.572 1041.97 200.375 1052.84 186.514C1068.72 166.184 1079.4 142.898 1094.23 121.755C1106.77 103.865 1122.71 87.6015 1142.79 74.3689C1166.14 59.0663 1193.75 48.8276 1222.04 41.8047C1252.38 34.3013 1284.13 30.3463 1317.18 28.8678C1350.23 27.4263 1384.88 28.2394 1417.01 30.0506" stroke="url(#paint35_linear_53_4189)" stroke-width="0.10304" stroke-miterlimit="10"/>
<path d="M37.187 103.976C120.09 76.513 220.722 72.9646 308.073 84.3121C392.891 95.29 464.921 127.522 546.774 146.262C567.53 150.993 591.314 153.248 614.912 159.642C648.333 168.698 679.838 182.596 708.873 195.052C740.749 208.765 771.266 221 804.563 230.61C808.64 231.793 812.779 232.902 816.918 233.974C856.393 244.471 902.23 249.868 944.608 243.473C964.809 240.443 984.33 234.676 1001.44 225.436C1018.92 216.01 1033.01 203.886 1044.38 189.841C1060.93 169.363 1071.93 145.559 1087 124.047C1099.79 105.787 1115.91 89.1542 1136.67 75.9216C1160.76 60.5821 1189.42 50.9348 1218.4 44.6512C1249.35 37.924 1281.53 34.8191 1315.08 33.8581C1348.62 32.897 1384.08 33.7841 1416.57 34.7821" stroke="url(#paint36_linear_53_4189)" stroke-width="0.10304" stroke-miterlimit="10"/>
<path d="M35.7638 105.639C117.987 79.6177 217.507 75.3301 303.437 85.31C386.093 94.8833 455.59 126.486 535.837 142.565C556.779 146.742 580.995 147.888 605.087 154.098C639.187 162.895 670.878 177.606 699.419 190.912C730.615 205.439 760.082 218.671 792.7 229.243C796.653 230.536 800.73 231.756 804.808 232.976C843.726 244.656 889.44 251.272 932.498 245.802C953.131 243.178 973.208 237.744 990.937 228.725C1009.1 219.485 1023.93 207.398 1035.85 193.204C1053.15 172.542 1064.39 148.294 1079.71 126.339C1092.74 107.709 1109.11 90.7435 1130.49 77.4739C1155.38 62.0605 1184.97 53.0416 1214.69 47.4602C1246.26 41.5092 1278.87 39.2545 1312.97 38.774C1347.07 38.2935 1383.27 39.2545 1416.14 39.4393" stroke="url(#paint37_linear_53_4189)" stroke-width="0.10304" stroke-miterlimit="10"/>
<path d="M34.345 107.34C115.889 82.7597 214.359 77.7697 298.744 86.345C379.238 94.5138 446.388 125.378 524.843 138.869C545.97 142.491 570.619 142.565 595.267 148.59C630.047 157.092 661.861 172.616 689.969 186.773C720.486 202.149 748.965 216.343 780.841 227.912C784.733 229.317 788.686 230.684 792.702 232.015C831.064 244.915 876.778 252.714 920.392 248.168C941.396 245.987 962.09 240.886 980.438 232.052C999.279 223.033 1014.85 210.983 1027.26 196.605C1045.24 175.758 1056.73 151.067 1072.42 128.704C1085.7 109.705 1102.26 92.4069 1124.31 79.1004C1150.01 63.65 1180.59 55.2225 1210.92 50.3434C1243.11 45.1686 1276.1 43.764 1310.75 43.764C1345.41 43.764 1382.35 44.799 1415.58 44.2076" stroke="url(#paint38_linear_53_4189)" stroke-width="0.10304" stroke-miterlimit="10"/>
<path d="M32.9224 109.04C113.848 85.9016 211.083 80.1724 294.109 87.3801C372.441 94.1443 442.124 115.952 513.907 135.173C535.961 135.838 560.3 137.206 585.443 143.046C620.84 151.289 652.902 167.589 680.577 182.596C710.477 198.823 737.843 213.977 769.04 226.508C772.87 228.023 776.762 229.502 780.654 230.98C818.399 245.1 864.113 254.082 908.344 250.46C929.78 248.722 951.031 243.954 969.996 235.342C989.455 226.508 1005.83 214.495 1018.74 199.968C1037.39 178.937 1049.19 153.802 1065.13 130.996C1078.66 111.591 1095.46 93.9595 1118.07 80.616C1144.51 65.0916 1176.14 57.2925 1207.15 53.1157C1239.96 48.7172 1273.38 48.1627 1308.53 48.6432C1343.68 49.1607 1381.42 50.2326 1415.03 48.8281" stroke="url(#paint39_linear_53_4189)" stroke-width="0.10304" stroke-miterlimit="10"/>
<path d="M31.5037 110.74C111.75 89.043 207.873 82.6115 289.417 88.4147C365.524 93.8112 433.107 113.956 502.851 131.439C525.09 131.217 549.862 131.809 575.561 137.464C611.638 145.411 643.885 162.525 671.066 178.382C700.348 195.422 726.602 211.574 757.119 225.103C760.826 226.766 764.656 228.318 768.486 229.908C805.675 245.284 851.327 255.449 896.176 252.714C918.045 251.383 939.852 246.948 959.434 238.557C979.573 229.908 996.685 217.969 1010.15 203.258C1029.55 182.078 1041.6 156.426 1057.78 133.213C1071.56 113.438 1088.55 95.4745 1111.83 82.094C1139.08 66.5328 1171.63 59.325 1203.39 55.8505C1236.74 52.2282 1270.66 52.5239 1306.37 53.5219C1342.07 54.5199 1380.56 55.6657 1414.53 53.448" stroke="url(#paint40_linear_53_4189)" stroke-width="0.10304" stroke-miterlimit="10"/>
<path d="M30.0804 112.441C109.647 92.1853 204.535 85.0515 284.781 89.45C358.665 93.479 424.147 111.923 491.915 127.743C514.277 126.634 539.544 126.45 565.736 131.957C602.431 139.645 634.863 157.535 661.612 174.242C690.214 192.132 715.419 209.209 745.318 223.735C748.963 225.51 752.731 227.21 756.499 228.91C793.132 245.506 838.723 256.854 884.189 255.08C906.49 254.193 928.853 250.09 949.054 241.921C969.872 233.494 987.725 221.555 1001.69 206.659C1021.76 185.294 1034.12 159.199 1050.61 135.579C1064.64 115.435 1081.87 97.1383 1105.78 83.7208C1133.82 68.0856 1167.37 61.4693 1199.8 58.771C1233.78 55.9249 1268.06 57.0707 1304.33 58.5492C1340.53 60.0277 1379.81 61.2475 1414.16 58.2166" stroke="url(#paint41_linear_53_4189)" stroke-width="0.10304" stroke-miterlimit="10"/>
<path d="M28.6624 114.141C107.55 95.327 201.202 87.5279 280.151 90.4849C351.81 93.1832 415.192 109.927 480.983 124.047C503.531 122.051 529.23 121.09 555.979 126.413C593.353 133.805 625.97 152.508 652.287 170.066C680.271 188.769 704.425 206.843 733.583 222.368C737.166 224.253 740.811 226.101 744.518 227.912C780.533 245.765 826.123 258.295 872.208 257.408C894.941 256.965 917.86 253.195 938.678 245.211C960.176 236.968 978.771 225.066 993.288 210.022C1014.04 188.473 1026.71 161.934 1043.45 137.871C1057.72 117.357 1075.2 98.6906 1099.73 85.2732C1128.58 69.601 1163.05 63.5761 1196.16 61.5801C1230.75 59.4732 1265.47 61.5061 1302.23 63.4652C1338.98 65.4242 1379.01 66.7179 1413.67 62.9107" stroke="url(#paint42_linear_53_4189)" stroke-width="0.10304" stroke-miterlimit="10"/>
<path d="M27.2391 115.804C105.447 98.432 198.852 83.8687 275.453 91.483C343.901 98.2841 406.17 107.857 469.985 120.314C492.718 117.468 518.849 115.731 546.092 120.831C584.084 127.965 616.949 147.408 642.771 165.852C670.137 185.368 693.18 204.441 721.658 220.926C725.118 222.922 728.762 224.881 732.345 226.84C767.805 245.913 813.395 258.739 860.036 259.663C883.201 260.107 906.738 256.189 928.112 248.427C950.29 240.369 969.625 228.541 984.637 213.312C1006.07 191.615 1019.05 164.595 1036.03 140.126C1050.55 119.242 1068.22 100.243 1093.42 86.7888C1123.01 71.0427 1158.54 65.6091 1192.33 64.3524C1227.54 63.0218 1262.69 65.9048 1299.94 68.3444C1337.25 70.7839 1378.02 72.1515 1413.05 67.5312" stroke="url(#paint43_linear_53_4189)" stroke-width="0.10304" stroke-miterlimit="10"/>
<path d="M25.76 117.504C103.288 101.536 195.21 85.9751 270.762 92.4805C337.109 98.2098 397.155 105.824 458.992 116.58C481.911 112.847 508.474 110.334 536.273 115.287C574.883 122.162 607.995 142.38 633.384 161.675C660.133 182.004 682.064 202.075 709.863 219.558C713.26 221.702 716.781 223.772 720.303 225.842C755.144 246.171 800.735 261.067 847.993 261.991C871.591 262.435 895.684 259.293 917.676 251.753C940.533 243.917 960.61 232.089 976.177 216.712C998.355 194.83 1011.57 167.33 1028.81 142.454C1043.57 121.201 1061.49 101.869 1087.31 88.3777C1117.7 72.5946 1154.15 67.7525 1188.69 67.1981C1224.45 66.6436 1260.04 70.3768 1297.9 73.2969C1335.71 76.217 1377.29 77.6585 1412.68 72.225" stroke="url(#paint44_linear_53_4189)" stroke-width="0.10304" stroke-miterlimit="10"/>
<path d="M24.3368 119.205C101.186 104.678 191.563 88.1191 266.065 93.5156C330.373 98.1729 388.133 103.791 447.994 112.884C471.098 108.264 498.094 104.974 526.387 109.742C565.676 116.322 598.973 137.353 623.869 157.535C650 178.678 670.818 199.746 697.938 218.191C701.212 220.445 704.671 222.626 708.192 224.807C742.478 246.356 788.006 262.472 835.882 264.283C859.913 265.17 884.562 262.361 907.171 255.006C930.708 247.354 951.526 235.6 967.588 220.039C990.445 197.972 1003.91 170.028 1021.52 144.709C1036.53 123.086 1054.63 103.385 1081.13 89.8563C1112.33 73.9993 1149.76 70.2291 1184.98 69.9334C1221.36 69.6377 1257.38 74.7386 1295.74 78.1761C1334.1 81.5767 1376.42 83.1291 1412.19 76.8455" stroke="url(#paint45_linear_53_4189)" stroke-width="0.10304" stroke-miterlimit="10"/>
<path d="M22.9187 120.905C99.1498 107.82 187.798 90.337 261.434 94.5507C323.704 98.0991 379.178 101.795 437.062 109.188C460.352 103.68 487.78 99.6516 516.629 104.198C556.536 110.519 590.08 132.29 614.482 153.358C639.995 175.351 659.763 197.381 686.141 216.823C689.354 219.189 692.751 221.518 696.149 223.809C729.817 246.615 775.345 263.914 823.839 266.612C848.302 267.98 873.507 265.429 896.734 258.295C920.95 250.866 942.448 239.112 959.127 223.403C982.664 201.151 996.44 172.764 1014.29 147.038C1029.55 125.045 1047.9 105.011 1075.02 91.4458C1106.96 75.5519 1145.38 71.8926 1181.33 72.7797C1218.34 73.7407 1254.79 79.2112 1293.64 83.1292C1332.5 87.0473 1375.62 88.6367 1411.76 81.5768" stroke="url(#paint46_linear_53_4189)" stroke-width="0.10304" stroke-miterlimit="10"/>
<path d="M21.4955 122.606C97.047 110.962 184.151 100.059 256.737 95.586C316.783 91.8898 370.157 99.7628 426.002 105.492C449.477 99.1345 477.337 94.2923 506.681 98.6539C547.267 104.716 580.997 127.263 604.966 149.182C629.861 171.988 648.517 194.979 674.216 215.419C677.367 217.932 680.641 220.335 683.977 222.775C717.027 246.837 762.617 265.319 811.667 268.904C836.562 270.715 862.323 268.497 886.168 261.585C911.064 254.341 933.303 242.624 950.476 226.73C974.692 204.293 988.777 175.425 1006.88 149.293C1022.38 126.93 1040.98 106.564 1068.71 92.9617C1101.46 77.0308 1140.87 73.9259 1177.44 75.5892C1215.06 77.2895 1251.88 83.6471 1291.35 88.0456C1330.77 92.4442 1374.63 94.1075 1411.14 86.2345" stroke="url(#paint47_linear_53_4189)" stroke-width="0.10304" stroke-miterlimit="10"/>
<path d="M20.0774 124.306C94.9494 114.104 180.694 102.646 252.106 96.6209C309.805 91.7418 361.202 97.7668 415.07 101.796C438.73 94.551 467.024 88.9327 496.923 93.1464C538.127 98.9496 572.104 122.236 595.579 145.042C619.856 168.661 637.401 192.65 662.42 214.088C665.447 216.713 668.721 219.263 671.933 221.814C704.365 247.133 749.956 266.834 799.623 271.27C824.951 273.524 851.329 271.639 875.731 264.912C901.306 257.889 924.286 246.209 942.016 230.13C966.912 207.546 981.305 178.198 999.714 151.658C1015.47 128.926 1034.25 108.19 1062.66 94.588C1096.21 78.5831 1136.55 76.0697 1173.86 78.4722C1212.04 80.9118 1249.35 88.1565 1289.32 93.0355C1329.29 97.9146 1373.89 99.6519 1410.77 90.9656" stroke="url(#paint48_linear_53_4189)" stroke-width="0.10304" stroke-miterlimit="10"/>
<path d="M18.6542 126.006C92.8466 117.246 177.17 105.307 247.409 97.6559C302.76 91.6309 352.18 95.7338 404.072 98.0994C427.856 89.9676 456.643 83.5731 487.037 87.602C528.92 93.1095 563.144 117.209 586.063 140.865C609.785 165.298 626.155 190.284 650.495 212.684C653.46 215.419 656.61 218.08 659.761 220.742C691.575 247.318 737.166 268.202 787.451 273.524C813.212 276.26 840.146 274.67 865.165 268.128C891.419 261.29 915.141 249.646 933.365 233.42C958.94 210.651 973.643 180.859 992.299 153.876C1008.3 130.737 1027.33 109.706 1056.3 96.0665C1090.58 80.0247 1131.97 78.0656 1169.97 81.2075C1208.76 84.4232 1246.51 92.518 1286.97 97.8776C1327.43 103.237 1372.84 105.048 1410.09 95.549" stroke="url(#paint49_linear_53_4189)" stroke-width="0.10304" stroke-miterlimit="10"/>
<path d="M17.231 127.669C90.7439 120.351 173.708 107.931 242.774 98.6536C295.715 91.5567 343.221 93.7006 393.135 94.3659C417.104 85.347 446.324 78.2132 477.274 82.0204C519.775 87.2691 554.246 112.145 576.732 136.651C599.836 161.86 615.157 187.882 638.755 211.279C641.658 214.125 644.685 216.934 647.836 219.706C679.033 247.539 724.623 269.643 775.526 275.816C801.719 278.995 829.209 277.738 854.846 271.417C881.78 264.801 906.243 253.158 924.961 236.783C951.278 213.829 966.227 183.594 985.131 156.204C1001.38 132.696 1020.59 111.332 1050.24 97.6186C1085.33 81.5029 1127.71 80.1353 1166.38 84.0163C1205.79 87.9713 1243.91 96.9533 1284.93 102.83C1325.95 108.67 1372.09 110.556 1409.71 100.28" stroke="url(#paint50_linear_53_4189)" stroke-width="0.10304" stroke-miterlimit="10"/>
<path d="M15.8129 129.37C88.6463 123.493 170.252 110.667 238.143 99.6886C288.737 91.5199 334.266 91.6677 382.204 90.6697C406.358 80.8007 436.01 72.8537 467.454 76.513C510.635 81.503 545.353 107.118 567.283 132.511C589.77 158.533 603.978 185.553 626.897 209.911C629.677 212.905 632.704 215.825 635.731 218.708C666.31 247.798 711.9 271.085 763.421 278.144C790.046 281.804 818.092 280.843 844.347 274.707C871.96 268.275 897.103 256.706 916.439 240.147C943.435 217.008 958.693 186.292 977.906 158.496C994.4 134.618 1013.86 112.884 1044.13 99.1711C1080.02 83.0185 1123.33 82.2053 1162.74 86.8256C1202.77 91.5199 1241.32 101.389 1282.89 107.746C1324.47 114.067 1371.35 116.026 1409.35 104.937" stroke="url(#paint51_linear_53_4189)" stroke-width="0.10304" stroke-miterlimit="10"/>
<path d="M14.3896 131.07C86.5435 126.634 166.79 113.439 233.446 100.724C281.754 91.5199 325.244 89.6718 371.205 86.9735C395.545 76.2174 425.63 67.5312 457.629 70.9687C501.428 75.6999 536.393 102.091 557.829 128.372C579.76 155.207 592.794 183.187 615.033 208.581C617.752 211.686 620.655 214.717 623.62 217.748C653.581 248.057 699.172 272.6 751.31 280.51C778.306 284.613 807.032 283.948 833.843 278.034C862.136 271.824 888.02 260.255 907.85 243.547C935.525 220.224 951.093 189.064 970.552 160.825C987.293 136.577 1006.94 114.511 1037.89 100.761C1074.52 84.534 1118.88 84.3122 1158.91 89.7088C1199.55 95.1423 1238.53 105.898 1280.6 112.737C1322.67 119.575 1370.36 121.571 1408.73 109.669" stroke="url(#paint52_linear_53_4189)" stroke-width="0.10304" stroke-miterlimit="10"/>
<path d="M12.9709 132.77C84.507 129.776 163.394 116.285 228.815 101.758C274.776 91.5566 316.289 87.6385 360.273 83.2769C384.798 71.6337 415.315 62.1712 447.809 65.424C492.288 69.8964 527.5 97.027 548.442 124.195C569.816 151.843 581.677 180.821 603.236 207.176C605.893 210.392 608.673 213.57 611.576 216.675C640.92 248.241 686.51 273.967 739.266 282.765C766.695 287.348 795.976 286.978 823.404 281.286C852.377 275.261 879.002 263.729 899.388 246.837C927.743 223.329 943.558 191.725 963.326 163.079C980.314 138.462 1000.21 116.063 1031.77 102.276C1069.21 86.0122 1114.49 86.3448 1155.26 92.4806C1196.53 98.6534 1235.88 110.297 1278.51 117.615C1321.13 124.934 1369.56 127.004 1408.23 114.289" stroke="url(#paint53_linear_53_4189)" stroke-width="0.10304" stroke-miterlimit="10"/>
<path d="M11.5483 134.471C82.4049 132.918 160.057 119.168 224.118 102.794C267.793 91.6309 307.268 85.643 349.214 79.5811C373.924 67.0508 404.873 56.8121 437.923 59.88C483.019 64.0568 518.479 92.0006 538.926 120.018C559.683 148.48 570.494 178.456 591.312 205.809C593.845 209.135 596.625 212.425 599.466 215.678C628.13 248.501 673.782 275.446 727.156 285.094C755.017 290.121 784.855 290.084 812.901 284.576C842.553 278.773 869.858 267.241 890.8 250.201C919.773 226.508 935.958 194.424 956.035 165.371C973.27 140.385 993.409 117.616 1025.59 103.829C1063.83 87.4911 1110.1 88.4152 1151.55 95.2902C1193.44 102.202 1233.22 114.733 1276.34 122.532C1319.46 130.331 1368.7 132.475 1407.74 118.983" stroke="url(#paint54_linear_53_4189)" stroke-width="0.10304" stroke-miterlimit="10"/>
<path d="M10.1295 136.171C80.3066 136.06 156.785 122.125 219.487 103.829C260.938 91.7418 298.313 83.61 338.281 75.8848C363.177 62.5043 394.559 51.5264 428.103 54.3725C473.817 58.3645 509.585 86.9736 529.538 115.878C549.739 145.153 559.376 176.128 579.515 204.441C581.986 207.915 584.642 211.316 587.422 214.68C615.468 248.759 661.059 276.925 715.112 287.422C743.405 292.93 773.799 293.188 802.463 287.903C832.795 282.284 860.841 270.789 882.339 253.601C911.991 229.723 928.485 197.196 948.809 167.737C966.292 142.381 986.616 119.279 1019.48 105.455C1058.46 89.0804 1105.78 90.559 1147.91 98.1733C1190.35 105.825 1230.63 119.279 1274.3 127.559C1317.98 135.838 1367.96 138.056 1407.37 123.751" stroke="url(#paint55_linear_53_4189)" stroke-width="0.10304" stroke-miterlimit="10"/>
<path d="M8.7063 137.871C78.2038 139.164 153.57 125.119 214.79 104.863C254.079 91.8522 289.291 81.6135 327.283 72.1511C352.302 57.8835 384.178 46.1293 418.278 48.7907C464.672 52.4869 500.687 81.9092 520.084 111.664C539.729 141.752 548.192 173.725 567.652 203.036C569.999 206.621 572.594 210.133 575.312 213.644C602.74 248.981 648.33 278.366 703.002 289.713C731.666 295.664 762.677 296.256 791.959 291.155C822.97 285.758 851.757 274.3 873.75 256.928C904.081 232.865 920.884 199.894 941.455 169.991C959.185 144.265 979.756 120.831 1013.24 106.933C1053.02 90.4846 1101.33 92.5545 1144.08 100.908C1187.2 109.299 1227.79 123.64 1272.02 132.4C1316.25 141.16 1366.97 143.452 1406.75 128.334" stroke="url(#paint56_linear_53_4189)" stroke-width="0.10304" stroke-miterlimit="10"/>
<path d="M7.28821 139.534C76.1062 142.269 150.484 128.15 210.159 105.861C247.348 91.9632 283.61 82.7594 316.351 68.4179C345.201 55.7767 373.864 40.7329 408.459 43.2094C455.47 46.6469 491.794 76.8085 510.636 107.451C529.662 138.351 537.076 171.322 555.793 201.594C558.079 205.291 560.612 208.95 563.207 212.535C589.955 249.129 635.608 279.734 690.897 291.931C719.993 298.363 751.622 299.287 781.46 294.334C813.151 289.159 842.617 277.701 865.227 260.18C896.239 235.933 913.351 202.519 934.169 172.172C952.146 146.077 972.902 122.273 1007.06 108.375C1047.65 91.8892 1096.95 94.5136 1140.38 103.606C1184.11 112.773 1225.13 127.965 1269.86 137.205C1314.58 146.446 1366.1 148.812 1406.26 132.881" stroke="url(#paint57_linear_53_4189)" stroke-width="0.10304" stroke-miterlimit="10"/>
<path d="M5.86499 141.234C74.0034 145.411 147.578 131.217 205.524 106.896C240.674 92.1478 274.28 79.9871 305.415 64.7215C333.955 50.7127 363.545 35.4101 398.696 37.7018C446.387 40.8806 482.896 71.8184 501.305 103.311C519.776 135.025 526.015 168.956 544.054 200.264C546.278 204.071 548.687 207.841 551.22 211.574C577.351 249.424 623.003 281.212 678.91 294.297C708.438 301.209 740.624 302.392 771.079 297.697C803.449 292.744 833.658 281.286 856.762 263.618C888.452 239.185 905.873 205.291 927 174.575C945.224 148.109 966.228 123.973 1000.95 110.038C1042.27 93.4785 1092.56 96.6942 1136.73 106.563C1181.08 116.469 1222.53 132.548 1267.82 142.269C1313.1 152.027 1365.36 154.43 1405.88 137.723" stroke="url(#paint58_linear_53_4189)" stroke-width="0.10304" stroke-miterlimit="10"/>
<path d="M4.4469 142.935C71.9676 148.553 144.739 134.359 200.831 107.931C234.005 92.2957 264.769 77.2518 294.421 61.0252C322.529 45.6118 353.17 30.0505 388.814 32.1574C437.123 35.0774 473.941 66.7544 491.794 99.1337C509.709 131.661 514.775 166.591 532.134 198.859C534.234 202.814 536.582 206.695 539.114 210.539C564.566 249.609 610.218 282.654 666.804 296.625C696.704 303.981 729.507 305.496 760.58 300.987C793.63 296.219 824.579 284.834 848.178 266.944C880.61 242.364 898.277 207.989 919.652 176.829C938.123 149.994 959.374 125.525 994.709 111.553C1036.84 94.957 1088.11 98.7272 1132.96 109.335C1177.94 119.981 1219.76 136.947 1265.59 147.148C1311.37 157.387 1364.44 159.863 1405.33 142.343" stroke="url(#paint59_linear_53_4189)" stroke-width="0.10304" stroke-miterlimit="10"/>
<path d="M2.96277 144.635C69.8039 151.695 141.958 137.502 196.135 108.966C227.455 92.481 255.069 74.591 283.424 57.3294C310.976 40.5484 342.79 24.6914 378.991 26.6134C427.979 29.2378 465.168 61.691 482.341 94.9944C499.824 128.335 503.592 164.262 520.271 197.529C522.31 201.595 524.534 205.624 527.005 209.579C551.715 249.942 597.491 284.169 654.695 298.991C685.027 306.828 718.386 308.639 750.076 304.314C783.806 299.768 815.497 288.383 839.651 270.345C872.763 245.58 890.678 210.762 912.361 179.195C931.017 151.954 952.515 127.152 988.53 113.18C1031.46 96.5099 1083.79 100.835 1129.25 112.219C1174.85 123.567 1217.1 141.457 1263.43 152.176C1309.76 162.895 1363.57 165.482 1404.84 147.112" stroke="url(#paint60_linear_53_4189)" stroke-width="0.10304" stroke-miterlimit="10"/>
<path d="M1.54468 146.335C67.7063 154.837 139.428 140.643 191.443 110.001C220.91 92.6285 245.249 72.0033 272.431 53.6329C299.303 35.4472 332.415 19.3315 369.109 21.0687C418.715 23.4343 456.151 56.6638 472.892 90.8173C489.757 124.971 492.475 161.897 508.413 196.124C510.39 200.301 512.552 204.441 514.9 208.543C538.992 250.126 584.706 285.648 642.59 301.283C673.292 309.599 707.269 311.706 739.577 307.603C773.986 303.242 806.418 291.894 831.067 273.709C864.858 248.759 883.082 213.496 905.074 181.487C923.977 153.876 945.722 128.741 982.355 114.695C1026.03 97.9881 1079.34 102.867 1125.49 114.991C1171.7 127.078 1214.38 145.855 1261.21 157.054C1308.1 168.254 1362.65 170.915 1404.28 151.732" stroke="url(#paint61_linear_53_4189)" stroke-width="0.10304" stroke-miterlimit="10"/>
<path d="M0.121338 148.035C65.6034 157.978 137.016 143.822 186.807 111.036C214.544 92.7393 235.363 69.4897 261.432 49.9365C287.501 30.3832 322.034 14.0087 359.223 15.5612C409.508 17.668 447.129 51.6737 463.376 86.6774C479.623 121.681 481.23 159.568 496.488 194.793C517.368 242.993 566.171 285.5 630.479 303.611C694.788 321.723 773.675 312.704 822.539 277.072C886.786 230.277 895.682 146.631 976.175 116.285C1020.65 99.5034 1074.95 105.011 1121.78 117.837C1168.61 130.663 1211.66 150.327 1259.11 162.007C1306.49 173.688 1361.84 176.423 1403.85 156.463" stroke="url(#paint62_linear_53_4189)" stroke-width="0.10304" stroke-miterlimit="10"/>
</g>
<defs>
<linearGradient id="paint0_linear_53_4189" x1="1441.03" y1="104.477" x2="81.7026" y2="181.652" gradientUnits="userSpaceOnUse">
<stop stop-color="#FCC8E0"/>
<stop offset="0.1905" stop-color="#FC00EA"/>
<stop offset="0.4949" stop-color="#08F8C7"/>
<stop offset="0.8027" stop-color="#9C00BC"/>
<stop offset="1" stop-color="#5300C9"/>
</linearGradient>
<linearGradient id="paint1_linear_53_4189" x1="1440.55" y1="105.483" x2="80.7233" y2="182.686" gradientUnits="userSpaceOnUse">
<stop stop-color="#FCC8E0"/>
<stop offset="0.1905" stop-color="#FC00EA"/>
<stop offset="0.4949" stop-color="#08F8C7"/>
<stop offset="0.8027" stop-color="#9C00BC"/>
<stop offset="1" stop-color="#5300C9"/>
</linearGradient>
<linearGradient id="paint2_linear_53_4189" x1="1440.08" y1="106.518" x2="79.7424" y2="183.75" gradientUnits="userSpaceOnUse">
<stop stop-color="#FCC8E0"/>
<stop offset="0.1905" stop-color="#FC00EA"/>
<stop offset="0.4949" stop-color="#08F8C7"/>
<stop offset="0.8027" stop-color="#9C00BC"/>
<stop offset="1" stop-color="#5300C9"/>
</linearGradient>
<linearGradient id="paint3_linear_53_4189" x1="1439.6" y1="107.584" x2="78.7661" y2="184.843" gradientUnits="userSpaceOnUse">
<stop stop-color="#FCC8E0"/>
<stop offset="0.1905" stop-color="#FC00EA"/>
<stop offset="0.4949" stop-color="#08F8C7"/>
<stop offset="0.8027" stop-color="#9C00BC"/>
<stop offset="1" stop-color="#5300C9"/>
</linearGradient>
<linearGradient id="paint4_linear_53_4189" x1="1439.13" y1="108.668" x2="77.7923" y2="185.957" gradientUnits="userSpaceOnUse">
<stop stop-color="#FCC8E0"/>
<stop offset="0.1905" stop-color="#FC00EA"/>
<stop offset="0.4949" stop-color="#08F8C7"/>
<stop offset="0.8027" stop-color="#9C00BC"/>
<stop offset="1" stop-color="#5300C9"/>
</linearGradient>
<linearGradient id="paint5_linear_53_4189" x1="1438.66" y1="109.795" x2="76.8161" y2="187.113" gradientUnits="userSpaceOnUse">
<stop stop-color="#FCC8E0"/>
<stop offset="0.1905" stop-color="#FC00EA"/>
<stop offset="0.4949" stop-color="#08F8C7"/>
<stop offset="0.8027" stop-color="#9C00BC"/>
<stop offset="1" stop-color="#5300C9"/>
</linearGradient>
<linearGradient id="paint6_linear_53_4189" x1="1438.19" y1="110.956" x2="75.8475" y2="188.301" gradientUnits="userSpaceOnUse">
<stop stop-color="#FCC8E0"/>
<stop offset="0.1905" stop-color="#FC00EA"/>
<stop offset="0.4949" stop-color="#08F8C7"/>
<stop offset="0.8027" stop-color="#9C00BC"/>
<stop offset="1" stop-color="#5300C9"/>
</linearGradient>
<linearGradient id="paint7_linear_53_4189" x1="1437.72" y1="112.149" x2="74.8756" y2="189.523" gradientUnits="userSpaceOnUse">
<stop stop-color="#FCC8E0"/>
<stop offset="0.1905" stop-color="#FC00EA"/>
<stop offset="0.4949" stop-color="#08F8C7"/>
<stop offset="0.8027" stop-color="#9C00BC"/>
<stop offset="1" stop-color="#5300C9"/>
</linearGradient>
<linearGradient id="paint8_linear_53_4189" x1="1437.26" y1="113.377" x2="73.9105" y2="190.78" gradientUnits="userSpaceOnUse">
<stop stop-color="#FCC8E0"/>
<stop offset="0.1905" stop-color="#FC00EA"/>
<stop offset="0.4949" stop-color="#08F8C7"/>
<stop offset="0.8027" stop-color="#9C00BC"/>
<stop offset="1" stop-color="#5300C9"/>
</linearGradient>
<linearGradient id="paint9_linear_53_4189" x1="1436.79" y1="114.623" x2="72.9244" y2="192.055" gradientUnits="userSpaceOnUse">
<stop stop-color="#FCC8E0"/>
<stop offset="0.1905" stop-color="#FC00EA"/>
<stop offset="0.4949" stop-color="#08F8C7"/>
<stop offset="0.8027" stop-color="#9C00BC"/>
<stop offset="1" stop-color="#5300C9"/>
</linearGradient>
<linearGradient id="paint10_linear_53_4189" x1="1436.33" y1="115.861" x2="71.9273" y2="193.323" gradientUnits="userSpaceOnUse">
<stop stop-color="#FCC8E0"/>
<stop offset="0.1905" stop-color="#FC00EA"/>
<stop offset="0.4949" stop-color="#08F8C7"/>
<stop offset="0.8027" stop-color="#9C00BC"/>
<stop offset="1" stop-color="#5300C9"/>
</linearGradient>
<linearGradient id="paint11_linear_53_4189" x1="1435.86" y1="117.088" x2="70.9347" y2="194.581" gradientUnits="userSpaceOnUse">
<stop stop-color="#FCC8E0"/>
<stop offset="0.1905" stop-color="#FC00EA"/>
<stop offset="0.4949" stop-color="#08F8C7"/>
<stop offset="0.8027" stop-color="#9C00BC"/>
<stop offset="1" stop-color="#5300C9"/>
</linearGradient>
<linearGradient id="paint12_linear_53_4189" x1="1435.39" y1="118.303" x2="69.9361" y2="195.826" gradientUnits="userSpaceOnUse">
<stop stop-color="#FCC8E0"/>
<stop offset="0.1905" stop-color="#FC00EA"/>
<stop offset="0.4949" stop-color="#08F8C7"/>
<stop offset="0.8027" stop-color="#9C00BC"/>
<stop offset="1" stop-color="#5300C9"/>
</linearGradient>
<linearGradient id="paint13_linear_53_4189" x1="1434.93" y1="119.506" x2="68.9415" y2="197.059" gradientUnits="userSpaceOnUse">
<stop stop-color="#FCC8E0"/>
<stop offset="0.1905" stop-color="#FC00EA"/>
<stop offset="0.4949" stop-color="#08F8C7"/>
<stop offset="0.8027" stop-color="#9C00BC"/>
<stop offset="1" stop-color="#5300C9"/>
</linearGradient>
<linearGradient id="paint14_linear_53_4189" x1="1434.46" y1="120.695" x2="67.9455" y2="198.278" gradientUnits="userSpaceOnUse">
<stop stop-color="#FCC8E0"/>
<stop offset="0.1905" stop-color="#FC00EA"/>
<stop offset="0.4949" stop-color="#08F8C7"/>
<stop offset="0.8027" stop-color="#9C00BC"/>
<stop offset="1" stop-color="#5300C9"/>
</linearGradient>
<linearGradient id="paint15_linear_53_4189" x1="1433.99" y1="121.868" x2="66.9447" y2="199.482" gradientUnits="userSpaceOnUse">
<stop stop-color="#FCC8E0"/>
<stop offset="0.1905" stop-color="#FC00EA"/>
<stop offset="0.4949" stop-color="#08F8C7"/>
<stop offset="0.8027" stop-color="#9C00BC"/>
<stop offset="1" stop-color="#5300C9"/>
</linearGradient>
<linearGradient id="paint16_linear_53_4189" x1="1433.52" y1="123.026" x2="65.9484" y2="200.667" gradientUnits="userSpaceOnUse">
<stop stop-color="#FCC8E0"/>
<stop offset="0.1905" stop-color="#FC00EA"/>
<stop offset="0.4949" stop-color="#08F8C7"/>
<stop offset="0.8027" stop-color="#9C00BC"/>
<stop offset="1" stop-color="#5300C9"/>
</linearGradient>
<linearGradient id="paint17_linear_53_4189" x1="1433.05" y1="124.164" x2="64.9448" y2="201.836" gradientUnits="userSpaceOnUse">
<stop stop-color="#FCC8E0"/>
<stop offset="0.1905" stop-color="#FC00EA"/>
<stop offset="0.4949" stop-color="#08F8C7"/>
<stop offset="0.8027" stop-color="#9C00BC"/>
<stop offset="1" stop-color="#5300C9"/>
</linearGradient>
<linearGradient id="paint18_linear_53_4189" x1="1432.58" y1="125.285" x2="63.9453" y2="202.988" gradientUnits="userSpaceOnUse">
<stop stop-color="#FCC8E0"/>
<stop offset="0.1905" stop-color="#FC00EA"/>
<stop offset="0.4949" stop-color="#08F8C7"/>
<stop offset="0.8027" stop-color="#9C00BC"/>
<stop offset="1" stop-color="#5300C9"/>
</linearGradient>
<linearGradient id="paint19_linear_53_4189" x1="1432.1" y1="126.383" x2="62.9445" y2="204.116" gradientUnits="userSpaceOnUse">
<stop stop-color="#FCC8E0"/>
<stop offset="0.1905" stop-color="#FC00EA"/>
<stop offset="0.4949" stop-color="#08F8C7"/>
<stop offset="0.8027" stop-color="#9C00BC"/>
<stop offset="1" stop-color="#5300C9"/>
</linearGradient>
<linearGradient id="paint20_linear_53_4189" x1="1431.63" y1="127.453" x2="61.9374" y2="205.216" gradientUnits="userSpaceOnUse">
<stop stop-color="#FCC8E0"/>
<stop offset="0.1905" stop-color="#FC00EA"/>
<stop offset="0.4949" stop-color="#08F8C7"/>
<stop offset="0.8027" stop-color="#9C00BC"/>
<stop offset="1" stop-color="#5300C9"/>
</linearGradient>
<linearGradient id="paint21_linear_53_4189" x1="1431.06" y1="126.844" x2="60.8417" y2="204.638" gradientUnits="userSpaceOnUse">
<stop stop-color="#FCC8E0"/>
<stop offset="0.1905" stop-color="#FC00EA"/>
<stop offset="0.4949" stop-color="#08F8C7"/>
<stop offset="0.8027" stop-color="#9C00BC"/>
<stop offset="1" stop-color="#5300C9"/>
</linearGradient>
<linearGradient id="paint22_linear_53_4189" x1="1430.47" y1="125.966" x2="59.7245" y2="203.79" gradientUnits="userSpaceOnUse">
<stop stop-color="#FCC8E0"/>
<stop offset="0.1905" stop-color="#FC00EA"/>
<stop offset="0.4949" stop-color="#08F8C7"/>
<stop offset="0.8027" stop-color="#9C00BC"/>
<stop offset="1" stop-color="#5300C9"/>
</linearGradient>
<linearGradient id="paint23_linear_53_4189" x1="1429.89" y1="125.106" x2="58.6131" y2="202.959" gradientUnits="userSpaceOnUse">
<stop stop-color="#FCC8E0"/>
<stop offset="0.1905" stop-color="#FC00EA"/>
<stop offset="0.4949" stop-color="#08F8C7"/>
<stop offset="0.8027" stop-color="#9C00BC"/>
<stop offset="1" stop-color="#5300C9"/>
</linearGradient>
<linearGradient id="paint24_linear_53_4189" x1="1429.3" y1="124.263" x2="57.5029" y2="202.146" gradientUnits="userSpaceOnUse">
<stop stop-color="#FCC8E0"/>
<stop offset="0.1905" stop-color="#FC00EA"/>
<stop offset="0.4949" stop-color="#08F8C7"/>
<stop offset="0.8027" stop-color="#9C00BC"/>
<stop offset="1" stop-color="#5300C9"/>
</linearGradient>
<linearGradient id="paint25_linear_53_4189" x1="1428.72" y1="123.435" x2="56.3889" y2="201.348" gradientUnits="userSpaceOnUse">
<stop stop-color="#FCC8E0"/>
<stop offset="0.1905" stop-color="#FC00EA"/>
<stop offset="0.4949" stop-color="#08F8C7"/>
<stop offset="0.8027" stop-color="#9C00BC"/>
<stop offset="1" stop-color="#5300C9"/>
</linearGradient>
<linearGradient id="paint26_linear_53_4189" x1="1428.14" y1="122.622" x2="55.282" y2="200.564" gradientUnits="userSpaceOnUse">
<stop stop-color="#FCC8E0"/>
<stop offset="0.1905" stop-color="#FC00EA"/>
<stop offset="0.4949" stop-color="#08F8C7"/>
<stop offset="0.8027" stop-color="#9C00BC"/>
<stop offset="1" stop-color="#5300C9"/>
</linearGradient>
<linearGradient id="paint27_linear_53_4189" x1="1427.55" y1="121.821" x2="54.1699" y2="199.794" gradientUnits="userSpaceOnUse">
<stop stop-color="#FCC8E0"/>
<stop offset="0.1905" stop-color="#FC00EA"/>
<stop offset="0.4949" stop-color="#08F8C7"/>
<stop offset="0.8027" stop-color="#9C00BC"/>
<stop offset="1" stop-color="#5300C9"/>
</linearGradient>
<linearGradient id="paint28_linear_53_4189" x1="1426.97" y1="121.032" x2="53.064" y2="199.035" gradientUnits="userSpaceOnUse">
<stop stop-color="#FCC8E0"/>
<stop offset="0.1905" stop-color="#FC00EA"/>
<stop offset="0.4949" stop-color="#08F8C7"/>
<stop offset="0.8027" stop-color="#9C00BC"/>
<stop offset="1" stop-color="#5300C9"/>
</linearGradient>
<linearGradient id="paint29_linear_53_4189" x1="1426.4" y1="120.252" x2="51.9588" y2="198.284" gradientUnits="userSpaceOnUse">
<stop stop-color="#FCC8E0"/>
<stop offset="0.1905" stop-color="#FC00EA"/>
<stop offset="0.4949" stop-color="#08F8C7"/>
<stop offset="0.8027" stop-color="#9C00BC"/>
<stop offset="1" stop-color="#5300C9"/>
</linearGradient>
<linearGradient id="paint30_linear_53_4189" x1="1425.81" y1="119.486" x2="50.8504" y2="197.547" gradientUnits="userSpaceOnUse">
<stop stop-color="#FCC8E0"/>
<stop offset="0.1905" stop-color="#FC00EA"/>
<stop offset="0.4949" stop-color="#08F8C7"/>
<stop offset="0.8027" stop-color="#9C00BC"/>
<stop offset="1" stop-color="#5300C9"/>
</linearGradient>
<linearGradient id="paint31_linear_53_4189" x1="1425.24" y1="118.728" x2="49.7478" y2="196.82" gradientUnits="userSpaceOnUse">
<stop stop-color="#FCC8E0"/>
<stop offset="0.1905" stop-color="#FC00EA"/>
<stop offset="0.4949" stop-color="#08F8C7"/>
<stop offset="0.8027" stop-color="#9C00BC"/>
<stop offset="1" stop-color="#5300C9"/>
</linearGradient>
<linearGradient id="paint32_linear_53_4189" x1="1424.62" y1="121.551" x2="48.3952" y2="199.684" gradientUnits="userSpaceOnUse">
<stop stop-color="#FCC8E0"/>
<stop offset="0.1905" stop-color="#FC00EA"/>
<stop offset="0.4949" stop-color="#08F8C7"/>
<stop offset="0.8027" stop-color="#9C00BC"/>
<stop offset="1" stop-color="#5300C9"/>
</linearGradient>
<linearGradient id="paint33_linear_53_4189" x1="1424.01" y1="124.468" x2="47.0534" y2="202.643" gradientUnits="userSpaceOnUse">
<stop stop-color="#FCC8E0"/>
<stop offset="0.1905" stop-color="#FC00EA"/>
<stop offset="0.4949" stop-color="#08F8C7"/>
<stop offset="0.8027" stop-color="#9C00BC"/>
<stop offset="1" stop-color="#5300C9"/>
</linearGradient>
<linearGradient id="paint34_linear_53_4189" x1="1423.4" y1="127.492" x2="45.7132" y2="205.709" gradientUnits="userSpaceOnUse">
<stop stop-color="#FCC8E0"/>
<stop offset="0.1905" stop-color="#FC00EA"/>
<stop offset="0.4949" stop-color="#08F8C7"/>
<stop offset="0.8027" stop-color="#9C00BC"/>
<stop offset="1" stop-color="#5300C9"/>
</linearGradient>
<linearGradient id="paint35_linear_53_4189" x1="1422.8" y1="130.593" x2="44.3818" y2="208.851" gradientUnits="userSpaceOnUse">
<stop stop-color="#FCC8E0"/>
<stop offset="0.1905" stop-color="#FC00EA"/>
<stop offset="0.4949" stop-color="#08F8C7"/>
<stop offset="0.8027" stop-color="#9C00BC"/>
<stop offset="1" stop-color="#5300C9"/>
</linearGradient>
<linearGradient id="paint36_linear_53_4189" x1="1422.21" y1="133.744" x2="43.0505" y2="212.044" gradientUnits="userSpaceOnUse">
<stop stop-color="#FCC8E0"/>
<stop offset="0.1905" stop-color="#FC00EA"/>
<stop offset="0.4949" stop-color="#08F8C7"/>
<stop offset="0.8027" stop-color="#9C00BC"/>
<stop offset="1" stop-color="#5300C9"/>
</linearGradient>
<linearGradient id="paint37_linear_53_4189" x1="1421.61" y1="136.898" x2="41.7189" y2="215.239" gradientUnits="userSpaceOnUse">
<stop stop-color="#FCC8E0"/>
<stop offset="0.1905" stop-color="#FC00EA"/>
<stop offset="0.4949" stop-color="#08F8C7"/>
<stop offset="0.8027" stop-color="#9C00BC"/>
<stop offset="1" stop-color="#5300C9"/>
</linearGradient>
<linearGradient id="paint38_linear_53_4189" x1="1421.01" y1="140.013" x2="40.3899" y2="218.396" gradientUnits="userSpaceOnUse">
<stop stop-color="#FCC8E0"/>
<stop offset="0.1905" stop-color="#FC00EA"/>
<stop offset="0.4949" stop-color="#08F8C7"/>
<stop offset="0.8027" stop-color="#9C00BC"/>
<stop offset="1" stop-color="#5300C9"/>
</linearGradient>
<linearGradient id="paint39_linear_53_4189" x1="1420.45" y1="143.044" x2="39.053" y2="221.472" gradientUnits="userSpaceOnUse">
<stop stop-color="#FCC8E0"/>
<stop offset="0.1905" stop-color="#FC00EA"/>
<stop offset="0.4949" stop-color="#08F8C7"/>
<stop offset="0.8027" stop-color="#9C00BC"/>
<stop offset="1" stop-color="#5300C9"/>
</linearGradient>
<linearGradient id="paint40_linear_53_4189" x1="1419.89" y1="145.962" x2="37.7143" y2="224.434" gradientUnits="userSpaceOnUse">
<stop stop-color="#FCC8E0"/>
<stop offset="0.1905" stop-color="#FC00EA"/>
<stop offset="0.4949" stop-color="#08F8C7"/>
<stop offset="0.8027" stop-color="#9C00BC"/>
<stop offset="1" stop-color="#5300C9"/>
</linearGradient>
<linearGradient id="paint41_linear_53_4189" x1="1419.32" y1="148.761" x2="36.365" y2="227.277" gradientUnits="userSpaceOnUse">
<stop stop-color="#FCC8E0"/>
<stop offset="0.1905" stop-color="#FC00EA"/>
<stop offset="0.4949" stop-color="#08F8C7"/>
<stop offset="0.8027" stop-color="#9C00BC"/>
<stop offset="1" stop-color="#5300C9"/>
</linearGradient>
<linearGradient id="paint42_linear_53_4189" x1="1418.74" y1="151.447" x2="35.0145" y2="230.006" gradientUnits="userSpaceOnUse">
<stop stop-color="#FCC8E0"/>
<stop offset="0.1905" stop-color="#FC00EA"/>
<stop offset="0.4949" stop-color="#08F8C7"/>
<stop offset="0.8027" stop-color="#9C00BC"/>
<stop offset="1" stop-color="#5300C9"/>
</linearGradient>
<linearGradient id="paint43_linear_53_4189" x1="1418.16" y1="154.087" x2="33.6572" y2="232.69" gradientUnits="userSpaceOnUse">
<stop stop-color="#FCC8E0"/>
<stop offset="0.1905" stop-color="#FC00EA"/>
<stop offset="0.4949" stop-color="#08F8C7"/>
<stop offset="0.8027" stop-color="#9C00BC"/>
<stop offset="1" stop-color="#5300C9"/>
</linearGradient>
<linearGradient id="paint44_linear_53_4189" x1="1417.57" y1="156.548" x2="32.2958" y2="235.195" gradientUnits="userSpaceOnUse">
<stop stop-color="#FCC8E0"/>
<stop offset="0.1905" stop-color="#FC00EA"/>
<stop offset="0.4949" stop-color="#08F8C7"/>
<stop offset="0.8027" stop-color="#9C00BC"/>
<stop offset="1" stop-color="#5300C9"/>
</linearGradient>
<linearGradient id="paint45_linear_53_4189" x1="1416.98" y1="159.044" x2="30.9316" y2="237.735" gradientUnits="userSpaceOnUse">
<stop stop-color="#FCC8E0"/>
<stop offset="0.1905" stop-color="#FC00EA"/>
<stop offset="0.4949" stop-color="#08F8C7"/>
<stop offset="0.8027" stop-color="#9C00BC"/>
<stop offset="1" stop-color="#5300C9"/>
</linearGradient>
<linearGradient id="paint46_linear_53_4189" x1="1416.38" y1="161.408" x2="29.5652" y2="240.143" gradientUnits="userSpaceOnUse">
<stop stop-color="#FCC8E0"/>
<stop offset="0.1905" stop-color="#FC00EA"/>
<stop offset="0.4949" stop-color="#08F8C7"/>
<stop offset="0.8027" stop-color="#9C00BC"/>
<stop offset="1" stop-color="#5300C9"/>
</linearGradient>
<linearGradient id="paint47_linear_53_4189" x1="1415.78" y1="163.785" x2="28.1955" y2="242.564" gradientUnits="userSpaceOnUse">
<stop stop-color="#FCC8E0"/>
<stop offset="0.1905" stop-color="#FC00EA"/>
<stop offset="0.4949" stop-color="#08F8C7"/>
<stop offset="0.8027" stop-color="#9C00BC"/>
<stop offset="1" stop-color="#5300C9"/>
</linearGradient>
<linearGradient id="paint48_linear_53_4189" x1="1415.18" y1="166.021" x2="26.8235" y2="244.844" gradientUnits="userSpaceOnUse">
<stop stop-color="#FCC8E0"/>
<stop offset="0.1905" stop-color="#FC00EA"/>
<stop offset="0.4949" stop-color="#08F8C7"/>
<stop offset="0.8027" stop-color="#9C00BC"/>
<stop offset="1" stop-color="#5300C9"/>
</linearGradient>
<linearGradient id="paint49_linear_53_4189" x1="1414.37" y1="164.849" x2="25.2529" y2="243.715" gradientUnits="userSpaceOnUse">
<stop stop-color="#FCC8E0"/>
<stop offset="0.1905" stop-color="#FC00EA"/>
<stop offset="0.4949" stop-color="#08F8C7"/>
<stop offset="0.8027" stop-color="#9C00BC"/>
<stop offset="1" stop-color="#5300C9"/>
</linearGradient>
<linearGradient id="paint50_linear_53_4189" x1="1413.55" y1="163.374" x2="23.6663" y2="242.283" gradientUnits="userSpaceOnUse">
<stop stop-color="#FCC8E0"/>
<stop offset="0.1905" stop-color="#FC00EA"/>
<stop offset="0.4949" stop-color="#08F8C7"/>
<stop offset="0.8027" stop-color="#9C00BC"/>
<stop offset="1" stop-color="#5300C9"/>
</linearGradient>
<linearGradient id="paint51_linear_53_4189" x1="1412.73" y1="161.906" x2="22.0856" y2="240.858" gradientUnits="userSpaceOnUse">
<stop stop-color="#FCC8E0"/>
<stop offset="0.1905" stop-color="#FC00EA"/>
<stop offset="0.4949" stop-color="#08F8C7"/>
<stop offset="0.8027" stop-color="#9C00BC"/>
<stop offset="1" stop-color="#5300C9"/>
</linearGradient>
<linearGradient id="paint52_linear_53_4189" x1="1411.91" y1="160.445" x2="20.5002" y2="239.44" gradientUnits="userSpaceOnUse">
<stop stop-color="#FCC8E0"/>
<stop offset="0.1905" stop-color="#FC00EA"/>
<stop offset="0.4949" stop-color="#08F8C7"/>
<stop offset="0.8027" stop-color="#9C00BC"/>
<stop offset="1" stop-color="#5300C9"/>
</linearGradient>
<linearGradient id="paint53_linear_53_4189" x1="1411.09" y1="158.99" x2="18.9205" y2="238.028" gradientUnits="userSpaceOnUse">
<stop stop-color="#FCC8E0"/>
<stop offset="0.1905" stop-color="#FC00EA"/>
<stop offset="0.4949" stop-color="#08F8C7"/>
<stop offset="0.8027" stop-color="#9C00BC"/>
<stop offset="1" stop-color="#5300C9"/>
</linearGradient>
<linearGradient id="paint54_linear_53_4189" x1="1410.27" y1="157.544" x2="17.3383" y2="236.625" gradientUnits="userSpaceOnUse">
<stop stop-color="#FCC8E0"/>
<stop offset="0.1905" stop-color="#FC00EA"/>
<stop offset="0.4949" stop-color="#08F8C7"/>
<stop offset="0.8027" stop-color="#9C00BC"/>
<stop offset="1" stop-color="#5300C9"/>
</linearGradient>
<linearGradient id="paint55_linear_53_4189" x1="1409.45" y1="156.11" x2="15.7241" y2="235.238" gradientUnits="userSpaceOnUse">
<stop stop-color="#FCC8E0"/>
<stop offset="0.1905" stop-color="#FC00EA"/>
<stop offset="0.4949" stop-color="#08F8C7"/>
<stop offset="0.8027" stop-color="#9C00BC"/>
<stop offset="1" stop-color="#5300C9"/>
</linearGradient>
<linearGradient id="paint56_linear_53_4189" x1="1408.62" y1="154.677" x2="14.1017" y2="233.849" gradientUnits="userSpaceOnUse">
<stop stop-color="#FCC8E0"/>
<stop offset="0.1905" stop-color="#FC00EA"/>
<stop offset="0.4949" stop-color="#08F8C7"/>
<stop offset="0.8027" stop-color="#9C00BC"/>
<stop offset="1" stop-color="#5300C9"/>
</linearGradient>
<linearGradient id="paint57_linear_53_4189" x1="1407.81" y1="153.295" x2="12.4863" y2="232.512" gradientUnits="userSpaceOnUse">
<stop stop-color="#FCC8E0"/>
<stop offset="0.1905" stop-color="#FC00EA"/>
<stop offset="0.4949" stop-color="#08F8C7"/>
<stop offset="0.8027" stop-color="#9C00BC"/>
<stop offset="1" stop-color="#5300C9"/>
</linearGradient>
<linearGradient id="paint58_linear_53_4189" x1="1406.98" y1="151.863" x2="10.8634" y2="231.126" gradientUnits="userSpaceOnUse">
<stop stop-color="#FCC8E0"/>
<stop offset="0.1905" stop-color="#FC00EA"/>
<stop offset="0.4949" stop-color="#08F8C7"/>
<stop offset="0.8027" stop-color="#9C00BC"/>
<stop offset="1" stop-color="#5300C9"/>
</linearGradient>
<linearGradient id="paint59_linear_53_4189" x1="1406.16" y1="150.441" x2="9.24558" y2="229.749" gradientUnits="userSpaceOnUse">
<stop stop-color="#FCC8E0"/>
<stop offset="0.1905" stop-color="#FC00EA"/>
<stop offset="0.4949" stop-color="#08F8C7"/>
<stop offset="0.8027" stop-color="#9C00BC"/>
<stop offset="1" stop-color="#5300C9"/>
</linearGradient>
<linearGradient id="paint60_linear_53_4189" x1="1405.34" y1="149.027" x2="7.62414" y2="228.381" gradientUnits="userSpaceOnUse">
<stop stop-color="#FCC8E0"/>
<stop offset="0.1905" stop-color="#FC00EA"/>
<stop offset="0.4949" stop-color="#08F8C7"/>
<stop offset="0.8027" stop-color="#9C00BC"/>
<stop offset="1" stop-color="#5300C9"/>
</linearGradient>
<linearGradient id="paint61_linear_53_4189" x1="1404.52" y1="147.622" x2="6.00749" y2="227.021" gradientUnits="userSpaceOnUse">
<stop stop-color="#FCC8E0"/>
<stop offset="0.1905" stop-color="#FC00EA"/>
<stop offset="0.4949" stop-color="#08F8C7"/>
<stop offset="0.8027" stop-color="#9C00BC"/>
<stop offset="1" stop-color="#5300C9"/>
</linearGradient>
<linearGradient id="paint62_linear_53_4189" x1="1403.69" y1="146.222" x2="4.38624" y2="225.666" gradientUnits="userSpaceOnUse">
<stop stop-color="#FCC8E0"/>
<stop offset="0.1905" stop-color="#FC00EA"/>
<stop offset="0.4949" stop-color="#08F8C7"/>
<stop offset="0.8027" stop-color="#9C00BC"/>
<stop offset="1" stop-color="#5300C9"/>
</linearGradient>
<clipPath id="clip0_53_4189">
<rect width="1439" height="313" fill="white"/>
</clipPath>
</defs>
</svg>
